G04 EAGLE Gerber RS-274X export*
G75*
%MOMM*%
%FSLAX34Y34*%
%LPD*%
%INTop Copper*%
%IPPOS*%
%AMOC8*
5,1,8,0,0,1.08239X$1,22.5*%
G01*
%ADD10C,1.879600*%
%ADD11C,0.130000*%
%ADD12C,0.127000*%
%ADD13C,0.104000*%
%ADD14C,0.100000*%
%ADD15C,2.184400*%
%ADD16C,0.210000*%
%ADD17C,0.100894*%
%ADD18C,0.215000*%
%ADD19C,0.102000*%
%ADD20C,0.104500*%
%ADD21R,1.879600X1.879600*%
%ADD22C,0.119378*%
%ADD23C,1.524000*%
%ADD24C,1.508000*%
%ADD25C,0.117000*%
%ADD26C,0.103500*%
%ADD27C,0.110000*%
%ADD28C,1.950000*%
%ADD29C,0.406400*%
%ADD30P,2.034460X8X112.500000*%
%ADD31C,0.099000*%
%ADD32C,0.480000*%
%ADD33C,0.254000*%
%ADD34C,1.308000*%
%ADD35C,0.177800*%
%ADD36C,0.200000*%

G36*
X100552Y264011D02*
X100552Y264011D01*
X100554Y264053D01*
X100532Y264120D01*
X100520Y264190D01*
X100498Y264226D01*
X100485Y264267D01*
X100431Y264339D01*
X100405Y264383D01*
X100389Y264396D01*
X100373Y264417D01*
X97992Y266798D01*
X97957Y266823D01*
X97929Y266854D01*
X97866Y266886D01*
X97808Y266927D01*
X97767Y266937D01*
X97729Y266957D01*
X97640Y266970D01*
X97591Y266983D01*
X97570Y266980D01*
X97544Y266984D01*
X57856Y266984D01*
X57814Y266977D01*
X57772Y266979D01*
X57705Y266957D01*
X57635Y266945D01*
X57599Y266923D01*
X57558Y266910D01*
X57486Y266856D01*
X57442Y266830D01*
X57429Y266814D01*
X57408Y266798D01*
X55027Y264417D01*
X55002Y264382D01*
X54971Y264354D01*
X54939Y264291D01*
X54898Y264233D01*
X54888Y264192D01*
X54868Y264154D01*
X54855Y264065D01*
X54843Y264016D01*
X54845Y263995D01*
X54841Y263969D01*
X54841Y224281D01*
X54848Y224239D01*
X54846Y224197D01*
X54868Y224130D01*
X54880Y224060D01*
X54902Y224024D01*
X54915Y223983D01*
X54969Y223911D01*
X54995Y223867D01*
X55011Y223854D01*
X55027Y223833D01*
X57408Y221452D01*
X57443Y221427D01*
X57471Y221396D01*
X57534Y221364D01*
X57592Y221323D01*
X57633Y221313D01*
X57671Y221293D01*
X57761Y221280D01*
X57809Y221268D01*
X57830Y221270D01*
X57856Y221266D01*
X97544Y221266D01*
X97586Y221273D01*
X97628Y221271D01*
X97695Y221293D01*
X97765Y221305D01*
X97801Y221327D01*
X97842Y221340D01*
X97914Y221394D01*
X97958Y221420D01*
X97971Y221436D01*
X97992Y221452D01*
X100373Y223833D01*
X100398Y223868D01*
X100429Y223896D01*
X100461Y223959D01*
X100502Y224017D01*
X100512Y224058D01*
X100532Y224096D01*
X100545Y224186D01*
X100558Y224234D01*
X100555Y224255D01*
X100559Y224281D01*
X100559Y263969D01*
X100552Y264011D01*
G37*
%LPC*%
G36*
X92133Y260160D02*
X92133Y260160D01*
X93154Y259989D01*
X93976Y259496D01*
X94659Y258813D01*
X95148Y257998D01*
X95322Y256780D01*
X95322Y252115D01*
X95148Y251070D01*
X94641Y250057D01*
X93976Y249391D01*
X93154Y248898D01*
X92133Y248728D01*
X86272Y248728D01*
X86272Y260160D01*
X92133Y260160D01*
G37*
%LPD*%
%LPC*%
G36*
X79128Y230472D02*
X79128Y230472D01*
X79128Y241903D01*
X84990Y241903D01*
X86010Y241733D01*
X86832Y241240D01*
X87497Y240574D01*
X88004Y239561D01*
X88178Y238516D01*
X88178Y233851D01*
X88004Y232634D01*
X87515Y231818D01*
X86832Y231135D01*
X86010Y230642D01*
X84990Y230472D01*
X79128Y230472D01*
G37*
%LPD*%
%LPC*%
G36*
X74879Y260160D02*
X74879Y260160D01*
X77106Y254221D01*
X77162Y254127D01*
X77218Y254031D01*
X77220Y254030D01*
X77221Y254028D01*
X77307Y253959D01*
X77392Y253889D01*
X77394Y253889D01*
X77396Y253887D01*
X77501Y253852D01*
X77604Y253817D01*
X77606Y253817D01*
X77608Y253816D01*
X77720Y253820D01*
X77829Y253823D01*
X77830Y253823D01*
X77833Y253824D01*
X77935Y253866D01*
X78037Y253906D01*
X78038Y253908D01*
X78040Y253908D01*
X78120Y253982D01*
X78203Y254057D01*
X78204Y254059D01*
X78205Y254060D01*
X78212Y254074D01*
X78294Y254221D01*
X80521Y260160D01*
X83416Y260160D01*
X83416Y248728D01*
X81509Y248728D01*
X81509Y254444D01*
X81507Y254455D01*
X81509Y254465D01*
X81497Y254521D01*
X81496Y254563D01*
X81482Y254598D01*
X81470Y254665D01*
X81464Y254674D01*
X81462Y254685D01*
X81420Y254751D01*
X81411Y254771D01*
X81398Y254785D01*
X81355Y254858D01*
X81347Y254865D01*
X81341Y254874D01*
X81264Y254932D01*
X81260Y254937D01*
X81256Y254939D01*
X81181Y254999D01*
X81171Y255003D01*
X81162Y255009D01*
X81065Y255039D01*
X80969Y255071D01*
X80958Y255071D01*
X80947Y255074D01*
X80846Y255067D01*
X80744Y255064D01*
X80734Y255060D01*
X80724Y255060D01*
X80630Y255018D01*
X80537Y254980D01*
X80529Y254973D01*
X80519Y254968D01*
X80469Y254920D01*
X80457Y254913D01*
X80440Y254892D01*
X80371Y254829D01*
X80366Y254819D01*
X80358Y254811D01*
X80330Y254757D01*
X80316Y254739D01*
X80305Y254707D01*
X80273Y254644D01*
X78830Y250316D01*
X76570Y250316D01*
X75127Y254644D01*
X75122Y254654D01*
X75120Y254665D01*
X75083Y254726D01*
X75065Y254771D01*
X75046Y254791D01*
X75019Y254841D01*
X75011Y254848D01*
X75005Y254858D01*
X74929Y254920D01*
X74914Y254937D01*
X74904Y254942D01*
X74850Y254988D01*
X74840Y254992D01*
X74831Y254999D01*
X74735Y255032D01*
X74640Y255068D01*
X74629Y255068D01*
X74619Y255071D01*
X74518Y255068D01*
X74416Y255069D01*
X74405Y255065D01*
X74394Y255064D01*
X74301Y255026D01*
X74205Y254991D01*
X74197Y254984D01*
X74187Y254980D01*
X74117Y254917D01*
X74111Y254913D01*
X74106Y254907D01*
X74034Y254846D01*
X74029Y254836D01*
X74021Y254829D01*
X73984Y254756D01*
X73970Y254739D01*
X73962Y254715D01*
X73925Y254650D01*
X73923Y254639D01*
X73918Y254629D01*
X73907Y254555D01*
X73898Y254526D01*
X73899Y254496D01*
X73891Y254444D01*
X73891Y248728D01*
X71984Y248728D01*
X71984Y260160D01*
X74879Y260160D01*
G37*
%LPD*%
%LPC*%
G36*
X71428Y230472D02*
X71428Y230472D01*
X70834Y230620D01*
X70179Y231112D01*
X69523Y231768D01*
X68809Y233909D01*
X68809Y238466D01*
X69523Y240607D01*
X70179Y241263D01*
X70834Y241755D01*
X71428Y241903D01*
X73653Y241903D01*
X74247Y241755D01*
X74902Y241263D01*
X75558Y240607D01*
X76272Y238466D01*
X76272Y233909D01*
X75558Y231768D01*
X74902Y231112D01*
X74247Y230620D01*
X73653Y230472D01*
X71428Y230472D01*
G37*
%LPD*%
%LPC*%
G36*
X91034Y230472D02*
X91034Y230472D01*
X91034Y241903D01*
X98497Y241903D01*
X98497Y239997D01*
X93575Y239997D01*
X93510Y239985D01*
X93444Y239983D01*
X93401Y239965D01*
X93354Y239957D01*
X93297Y239924D01*
X93237Y239899D01*
X93202Y239867D01*
X93161Y239843D01*
X93120Y239792D01*
X93071Y239747D01*
X93049Y239705D01*
X93020Y239669D01*
X92999Y239607D01*
X92968Y239548D01*
X92960Y239493D01*
X92948Y239456D01*
X92949Y239417D01*
X92941Y239363D01*
X92941Y237775D01*
X92952Y237710D01*
X92954Y237644D01*
X92972Y237601D01*
X92980Y237554D01*
X93014Y237497D01*
X93039Y237437D01*
X93070Y237402D01*
X93095Y237361D01*
X93146Y237320D01*
X93190Y237271D01*
X93232Y237249D01*
X93269Y237220D01*
X93331Y237199D01*
X93390Y237168D01*
X93444Y237160D01*
X93481Y237148D01*
X93521Y237149D01*
X93575Y237141D01*
X98497Y237141D01*
X98497Y235234D01*
X93575Y235234D01*
X93510Y235223D01*
X93444Y235221D01*
X93401Y235203D01*
X93354Y235195D01*
X93297Y235161D01*
X93237Y235136D01*
X93202Y235105D01*
X93161Y235080D01*
X93120Y235029D01*
X93071Y234985D01*
X93049Y234943D01*
X93020Y234906D01*
X92999Y234844D01*
X92968Y234785D01*
X92960Y234731D01*
X92948Y234694D01*
X92949Y234654D01*
X92941Y234600D01*
X92941Y233013D01*
X92952Y232948D01*
X92954Y232882D01*
X92972Y232838D01*
X92980Y232792D01*
X93014Y232735D01*
X93039Y232674D01*
X93070Y232639D01*
X93095Y232598D01*
X93146Y232557D01*
X93190Y232508D01*
X93232Y232487D01*
X93269Y232457D01*
X93331Y232436D01*
X93390Y232406D01*
X93444Y232398D01*
X93481Y232385D01*
X93521Y232386D01*
X93575Y232378D01*
X98497Y232378D01*
X98497Y230472D01*
X91034Y230472D01*
G37*
%LPD*%
%LPC*%
G36*
X60092Y230472D02*
X60092Y230472D01*
X59072Y230642D01*
X58249Y231135D01*
X57566Y231818D01*
X57077Y232634D01*
X56903Y233851D01*
X56903Y238516D01*
X57077Y239561D01*
X57584Y240574D01*
X58249Y241240D01*
X59072Y241733D01*
X60092Y241903D01*
X66747Y241903D01*
X66747Y239997D01*
X60238Y239997D01*
X60196Y239989D01*
X60153Y239991D01*
X60086Y239970D01*
X60017Y239957D01*
X59980Y239936D01*
X59940Y239923D01*
X59867Y239869D01*
X59823Y239843D01*
X59810Y239827D01*
X59789Y239811D01*
X59194Y239216D01*
X59141Y239140D01*
X59084Y239068D01*
X59076Y239046D01*
X59066Y239031D01*
X59053Y238983D01*
X59020Y238892D01*
X58822Y237899D01*
X58821Y237851D01*
X58810Y237775D01*
X58810Y234600D01*
X58818Y234552D01*
X58822Y234476D01*
X59020Y233483D01*
X59054Y233397D01*
X59082Y233310D01*
X59096Y233292D01*
X59102Y233275D01*
X59136Y233237D01*
X59194Y233159D01*
X59789Y232564D01*
X59824Y232540D01*
X59853Y232508D01*
X59915Y232476D01*
X59973Y232436D01*
X60014Y232425D01*
X60052Y232406D01*
X60142Y232393D01*
X60191Y232380D01*
X60211Y232382D01*
X60238Y232378D01*
X66747Y232378D01*
X66747Y230472D01*
X60092Y230472D01*
G37*
%LPD*%
%LPC*%
G36*
X62768Y248728D02*
X62768Y248728D01*
X61407Y249409D01*
X60759Y250057D01*
X60252Y251070D01*
X60078Y252115D01*
X60078Y256780D01*
X60252Y257998D01*
X60741Y258813D01*
X61407Y259479D01*
X62768Y260160D01*
X69128Y260160D01*
X69128Y258253D01*
X63413Y258253D01*
X63371Y258246D01*
X63328Y258247D01*
X63261Y258226D01*
X63192Y258213D01*
X63155Y258192D01*
X63115Y258179D01*
X63042Y258125D01*
X62998Y258099D01*
X62985Y258083D01*
X62964Y258067D01*
X62369Y257472D01*
X62316Y257396D01*
X62259Y257324D01*
X62251Y257303D01*
X62241Y257288D01*
X62228Y257239D01*
X62195Y257148D01*
X61997Y256156D01*
X61996Y256107D01*
X61985Y256031D01*
X61985Y252856D01*
X61993Y252809D01*
X61997Y252732D01*
X62195Y251740D01*
X62229Y251654D01*
X62257Y251566D01*
X62271Y251548D01*
X62277Y251531D01*
X62311Y251493D01*
X62369Y251416D01*
X62964Y250820D01*
X62999Y250796D01*
X63028Y250765D01*
X63090Y250732D01*
X63148Y250692D01*
X63189Y250682D01*
X63227Y250662D01*
X63317Y250649D01*
X63366Y250636D01*
X63386Y250638D01*
X63413Y250635D01*
X69128Y250635D01*
X69128Y248728D01*
X62768Y248728D01*
G37*
%LPD*%
G36*
X92029Y250642D02*
X92029Y250642D01*
X92072Y250640D01*
X92139Y250662D01*
X92208Y250674D01*
X92245Y250696D01*
X92285Y250709D01*
X92358Y250763D01*
X92402Y250788D01*
X92415Y250805D01*
X92436Y250820D01*
X93031Y251416D01*
X93084Y251491D01*
X93141Y251563D01*
X93149Y251585D01*
X93159Y251600D01*
X93172Y251649D01*
X93205Y251740D01*
X93403Y252732D01*
X93404Y252780D01*
X93416Y252856D01*
X93416Y256031D01*
X93407Y256079D01*
X93403Y256156D01*
X93205Y257148D01*
X93171Y257234D01*
X93143Y257321D01*
X93129Y257340D01*
X93123Y257357D01*
X93089Y257394D01*
X93031Y257472D01*
X92436Y258067D01*
X92403Y258090D01*
X92380Y258115D01*
X92379Y258116D01*
X92372Y258123D01*
X92310Y258155D01*
X92252Y258195D01*
X92211Y258206D01*
X92173Y258225D01*
X92083Y258239D01*
X92035Y258251D01*
X92014Y258249D01*
X91988Y258253D01*
X88813Y258253D01*
X88748Y258241D01*
X88682Y258239D01*
X88638Y258222D01*
X88592Y258213D01*
X88535Y258180D01*
X88474Y258155D01*
X88439Y258123D01*
X88398Y258099D01*
X88357Y258048D01*
X88308Y258004D01*
X88287Y257962D01*
X88257Y257925D01*
X88236Y257863D01*
X88206Y257804D01*
X88198Y257750D01*
X88185Y257712D01*
X88185Y257706D01*
X88185Y257705D01*
X88186Y257672D01*
X88178Y257619D01*
X88178Y251269D01*
X88190Y251204D01*
X88192Y251138D01*
X88210Y251095D01*
X88218Y251048D01*
X88251Y250991D01*
X88276Y250930D01*
X88308Y250895D01*
X88332Y250855D01*
X88383Y250813D01*
X88428Y250765D01*
X88470Y250743D01*
X88506Y250713D01*
X88569Y250692D01*
X88627Y250662D01*
X88682Y250654D01*
X88719Y250641D01*
X88758Y250643D01*
X88813Y250635D01*
X91988Y250635D01*
X92029Y250642D01*
G37*
G36*
X84886Y232386D02*
X84886Y232386D01*
X84928Y232384D01*
X84995Y232405D01*
X85065Y232418D01*
X85101Y232440D01*
X85142Y232453D01*
X85214Y232506D01*
X85258Y232532D01*
X85271Y232548D01*
X85292Y232564D01*
X85888Y233159D01*
X85940Y233235D01*
X85997Y233307D01*
X86005Y233329D01*
X86016Y233344D01*
X86028Y233392D01*
X86061Y233483D01*
X86259Y234476D01*
X86260Y234524D01*
X86272Y234600D01*
X86272Y237775D01*
X86263Y237823D01*
X86259Y237899D01*
X86061Y238892D01*
X86027Y238977D01*
X85999Y239065D01*
X85985Y239083D01*
X85979Y239100D01*
X85945Y239138D01*
X85888Y239216D01*
X85292Y239811D01*
X85259Y239834D01*
X85236Y239859D01*
X85235Y239860D01*
X85229Y239867D01*
X85166Y239899D01*
X85108Y239939D01*
X85067Y239950D01*
X85029Y239969D01*
X84940Y239982D01*
X84891Y239995D01*
X84870Y239993D01*
X84844Y239997D01*
X81669Y239997D01*
X81604Y239985D01*
X81538Y239983D01*
X81495Y239965D01*
X81448Y239957D01*
X81391Y239924D01*
X81330Y239899D01*
X81295Y239867D01*
X81255Y239843D01*
X81213Y239792D01*
X81165Y239747D01*
X81143Y239705D01*
X81113Y239669D01*
X81092Y239607D01*
X81062Y239548D01*
X81054Y239493D01*
X81041Y239456D01*
X81042Y239449D01*
X81041Y239449D01*
X81042Y239416D01*
X81035Y239363D01*
X81035Y233013D01*
X81046Y232948D01*
X81048Y232882D01*
X81066Y232838D01*
X81074Y232792D01*
X81108Y232735D01*
X81132Y232674D01*
X81164Y232639D01*
X81188Y232598D01*
X81239Y232557D01*
X81284Y232508D01*
X81326Y232487D01*
X81363Y232457D01*
X81425Y232436D01*
X81483Y232406D01*
X81538Y232398D01*
X81575Y232385D01*
X81614Y232386D01*
X81669Y232378D01*
X84844Y232378D01*
X84886Y232386D01*
G37*
G36*
X72969Y232384D02*
X72969Y232384D01*
X73000Y232381D01*
X73078Y232404D01*
X73158Y232418D01*
X73186Y232434D01*
X73216Y232443D01*
X73282Y232491D01*
X73352Y232532D01*
X73372Y232557D01*
X73397Y232575D01*
X73463Y232670D01*
X73493Y232706D01*
X73497Y232717D01*
X73505Y232729D01*
X74299Y234316D01*
X74314Y234367D01*
X74338Y234415D01*
X74349Y234487D01*
X74362Y234532D01*
X74360Y234561D01*
X74366Y234600D01*
X74366Y237775D01*
X74356Y237827D01*
X74357Y237880D01*
X74334Y237950D01*
X74326Y237996D01*
X74311Y238022D01*
X74299Y238059D01*
X73505Y239646D01*
X73487Y239670D01*
X73478Y239693D01*
X73476Y239695D01*
X73474Y239701D01*
X73419Y239761D01*
X73371Y239826D01*
X73344Y239843D01*
X73322Y239867D01*
X73250Y239904D01*
X73182Y239948D01*
X73151Y239955D01*
X73123Y239969D01*
X73009Y239986D01*
X72963Y239996D01*
X72952Y239995D01*
X72938Y239997D01*
X72144Y239997D01*
X72113Y239991D01*
X72081Y239994D01*
X72003Y239971D01*
X71923Y239957D01*
X71896Y239941D01*
X71865Y239932D01*
X71800Y239884D01*
X71730Y239843D01*
X71710Y239818D01*
X71684Y239800D01*
X71618Y239705D01*
X71588Y239669D01*
X71587Y239664D01*
X71585Y239661D01*
X71582Y239654D01*
X71576Y239646D01*
X70783Y238059D01*
X70768Y238008D01*
X70743Y237960D01*
X70733Y237889D01*
X70719Y237843D01*
X70722Y237814D01*
X70716Y237775D01*
X70716Y234600D01*
X70725Y234548D01*
X70725Y234495D01*
X70747Y234425D01*
X70755Y234379D01*
X70771Y234353D01*
X70783Y234316D01*
X71576Y232729D01*
X71595Y232703D01*
X71607Y232674D01*
X71662Y232614D01*
X71711Y232549D01*
X71737Y232532D01*
X71759Y232508D01*
X71831Y232471D01*
X71899Y232427D01*
X71930Y232420D01*
X71958Y232406D01*
X72072Y232389D01*
X72118Y232379D01*
X72130Y232380D01*
X72144Y232378D01*
X72938Y232378D01*
X72969Y232384D01*
G37*
D10*
X380700Y59900D03*
X406100Y59900D03*
X431500Y59900D03*
X456900Y59900D03*
X482300Y59900D03*
X507700Y59900D03*
D11*
X368350Y740550D02*
X356650Y740550D01*
X368350Y740550D02*
X368350Y726850D01*
X356650Y726850D01*
X356650Y740550D01*
X356650Y728085D02*
X368350Y728085D01*
X368350Y729320D02*
X356650Y729320D01*
X356650Y730555D02*
X368350Y730555D01*
X368350Y731790D02*
X356650Y731790D01*
X356650Y733025D02*
X368350Y733025D01*
X368350Y734260D02*
X356650Y734260D01*
X356650Y735495D02*
X368350Y735495D01*
X368350Y736730D02*
X356650Y736730D01*
X356650Y737965D02*
X368350Y737965D01*
X368350Y739200D02*
X356650Y739200D01*
X356650Y740435D02*
X368350Y740435D01*
X351350Y740550D02*
X339650Y740550D01*
X351350Y740550D02*
X351350Y726850D01*
X339650Y726850D01*
X339650Y740550D01*
X339650Y728085D02*
X351350Y728085D01*
X351350Y729320D02*
X339650Y729320D01*
X339650Y730555D02*
X351350Y730555D01*
X351350Y731790D02*
X339650Y731790D01*
X339650Y733025D02*
X351350Y733025D01*
X351350Y734260D02*
X339650Y734260D01*
X339650Y735495D02*
X351350Y735495D01*
X351350Y736730D02*
X339650Y736730D01*
X339650Y737965D02*
X351350Y737965D01*
X351350Y739200D02*
X339650Y739200D01*
X339650Y740435D02*
X351350Y740435D01*
X307850Y258250D02*
X296150Y258250D01*
X296150Y271950D01*
X307850Y271950D01*
X307850Y258250D01*
X307850Y259485D02*
X296150Y259485D01*
X296150Y260720D02*
X307850Y260720D01*
X307850Y261955D02*
X296150Y261955D01*
X296150Y263190D02*
X307850Y263190D01*
X307850Y264425D02*
X296150Y264425D01*
X296150Y265660D02*
X307850Y265660D01*
X307850Y266895D02*
X296150Y266895D01*
X296150Y268130D02*
X307850Y268130D01*
X307850Y269365D02*
X296150Y269365D01*
X296150Y270600D02*
X307850Y270600D01*
X307850Y271835D02*
X296150Y271835D01*
X313150Y258250D02*
X324850Y258250D01*
X313150Y258250D02*
X313150Y271950D01*
X324850Y271950D01*
X324850Y258250D01*
X324850Y259485D02*
X313150Y259485D01*
X313150Y260720D02*
X324850Y260720D01*
X324850Y261955D02*
X313150Y261955D01*
X313150Y263190D02*
X324850Y263190D01*
X324850Y264425D02*
X313150Y264425D01*
X313150Y265660D02*
X324850Y265660D01*
X324850Y266895D02*
X313150Y266895D01*
X313150Y268130D02*
X324850Y268130D01*
X324850Y269365D02*
X313150Y269365D01*
X313150Y270600D02*
X324850Y270600D01*
X324850Y271835D02*
X313150Y271835D01*
X236750Y263150D02*
X236750Y251450D01*
X236750Y263150D02*
X250450Y263150D01*
X250450Y251450D01*
X236750Y251450D01*
X236750Y252685D02*
X250450Y252685D01*
X250450Y253920D02*
X236750Y253920D01*
X236750Y255155D02*
X250450Y255155D01*
X250450Y256390D02*
X236750Y256390D01*
X236750Y257625D02*
X250450Y257625D01*
X250450Y258860D02*
X236750Y258860D01*
X236750Y260095D02*
X250450Y260095D01*
X250450Y261330D02*
X236750Y261330D01*
X236750Y262565D02*
X250450Y262565D01*
X236750Y246150D02*
X236750Y234450D01*
X236750Y246150D02*
X250450Y246150D01*
X250450Y234450D01*
X236750Y234450D01*
X236750Y235685D02*
X250450Y235685D01*
X250450Y236920D02*
X236750Y236920D01*
X236750Y238155D02*
X250450Y238155D01*
X250450Y239390D02*
X236750Y239390D01*
X236750Y240625D02*
X250450Y240625D01*
X250450Y241860D02*
X236750Y241860D01*
X236750Y243095D02*
X250450Y243095D01*
X250450Y244330D02*
X236750Y244330D01*
X236750Y245565D02*
X250450Y245565D01*
X355750Y353550D02*
X355750Y365250D01*
X355750Y353550D02*
X342050Y353550D01*
X342050Y365250D01*
X355750Y365250D01*
X355750Y354785D02*
X342050Y354785D01*
X342050Y356020D02*
X355750Y356020D01*
X355750Y357255D02*
X342050Y357255D01*
X342050Y358490D02*
X355750Y358490D01*
X355750Y359725D02*
X342050Y359725D01*
X342050Y360960D02*
X355750Y360960D01*
X355750Y362195D02*
X342050Y362195D01*
X342050Y363430D02*
X355750Y363430D01*
X355750Y364665D02*
X342050Y364665D01*
X355750Y370550D02*
X355750Y382250D01*
X355750Y370550D02*
X342050Y370550D01*
X342050Y382250D01*
X355750Y382250D01*
X355750Y371785D02*
X342050Y371785D01*
X342050Y373020D02*
X355750Y373020D01*
X355750Y374255D02*
X342050Y374255D01*
X342050Y375490D02*
X355750Y375490D01*
X355750Y376725D02*
X342050Y376725D01*
X342050Y377960D02*
X355750Y377960D01*
X355750Y379195D02*
X342050Y379195D01*
X342050Y380430D02*
X355750Y380430D01*
X355750Y381665D02*
X342050Y381665D01*
X961250Y306950D02*
X961250Y295250D01*
X947550Y295250D01*
X947550Y306950D01*
X961250Y306950D01*
X961250Y296485D02*
X947550Y296485D01*
X947550Y297720D02*
X961250Y297720D01*
X961250Y298955D02*
X947550Y298955D01*
X947550Y300190D02*
X961250Y300190D01*
X961250Y301425D02*
X947550Y301425D01*
X947550Y302660D02*
X961250Y302660D01*
X961250Y303895D02*
X947550Y303895D01*
X947550Y305130D02*
X961250Y305130D01*
X961250Y306365D02*
X947550Y306365D01*
X961250Y312250D02*
X961250Y323950D01*
X961250Y312250D02*
X947550Y312250D01*
X947550Y323950D01*
X961250Y323950D01*
X961250Y313485D02*
X947550Y313485D01*
X947550Y314720D02*
X961250Y314720D01*
X961250Y315955D02*
X947550Y315955D01*
X947550Y317190D02*
X961250Y317190D01*
X961250Y318425D02*
X947550Y318425D01*
X947550Y319660D02*
X961250Y319660D01*
X961250Y320895D02*
X947550Y320895D01*
X947550Y322130D02*
X961250Y322130D01*
X961250Y323365D02*
X947550Y323365D01*
X216750Y427450D02*
X216750Y439150D01*
X216750Y427450D02*
X203050Y427450D01*
X203050Y439150D01*
X216750Y439150D01*
X216750Y428685D02*
X203050Y428685D01*
X203050Y429920D02*
X216750Y429920D01*
X216750Y431155D02*
X203050Y431155D01*
X203050Y432390D02*
X216750Y432390D01*
X216750Y433625D02*
X203050Y433625D01*
X203050Y434860D02*
X216750Y434860D01*
X216750Y436095D02*
X203050Y436095D01*
X203050Y437330D02*
X216750Y437330D01*
X216750Y438565D02*
X203050Y438565D01*
X216750Y444450D02*
X216750Y456150D01*
X216750Y444450D02*
X203050Y444450D01*
X203050Y456150D01*
X216750Y456150D01*
X216750Y445685D02*
X203050Y445685D01*
X203050Y446920D02*
X216750Y446920D01*
X216750Y448155D02*
X203050Y448155D01*
X203050Y449390D02*
X216750Y449390D01*
X216750Y450625D02*
X203050Y450625D01*
X203050Y451860D02*
X216750Y451860D01*
X216750Y453095D02*
X203050Y453095D01*
X203050Y454330D02*
X216750Y454330D01*
X216750Y455565D02*
X203050Y455565D01*
X271250Y441850D02*
X271250Y430150D01*
X257550Y430150D01*
X257550Y441850D01*
X271250Y441850D01*
X271250Y431385D02*
X257550Y431385D01*
X257550Y432620D02*
X271250Y432620D01*
X271250Y433855D02*
X257550Y433855D01*
X257550Y435090D02*
X271250Y435090D01*
X271250Y436325D02*
X257550Y436325D01*
X257550Y437560D02*
X271250Y437560D01*
X271250Y438795D02*
X257550Y438795D01*
X257550Y440030D02*
X271250Y440030D01*
X271250Y441265D02*
X257550Y441265D01*
X271250Y447150D02*
X271250Y458850D01*
X271250Y447150D02*
X257550Y447150D01*
X257550Y458850D01*
X271250Y458850D01*
X271250Y448385D02*
X257550Y448385D01*
X257550Y449620D02*
X271250Y449620D01*
X271250Y450855D02*
X257550Y450855D01*
X257550Y452090D02*
X271250Y452090D01*
X271250Y453325D02*
X257550Y453325D01*
X257550Y454560D02*
X271250Y454560D01*
X271250Y455795D02*
X257550Y455795D01*
X257550Y457030D02*
X271250Y457030D01*
X271250Y458265D02*
X257550Y458265D01*
X152250Y331650D02*
X152250Y319950D01*
X152250Y331650D02*
X165950Y331650D01*
X165950Y319950D01*
X152250Y319950D01*
X152250Y321185D02*
X165950Y321185D01*
X165950Y322420D02*
X152250Y322420D01*
X152250Y323655D02*
X165950Y323655D01*
X165950Y324890D02*
X152250Y324890D01*
X152250Y326125D02*
X165950Y326125D01*
X165950Y327360D02*
X152250Y327360D01*
X152250Y328595D02*
X165950Y328595D01*
X165950Y329830D02*
X152250Y329830D01*
X152250Y331065D02*
X165950Y331065D01*
X152250Y314650D02*
X152250Y302950D01*
X152250Y314650D02*
X165950Y314650D01*
X165950Y302950D01*
X152250Y302950D01*
X152250Y304185D02*
X165950Y304185D01*
X165950Y305420D02*
X152250Y305420D01*
X152250Y306655D02*
X165950Y306655D01*
X165950Y307890D02*
X152250Y307890D01*
X152250Y309125D02*
X165950Y309125D01*
X165950Y310360D02*
X152250Y310360D01*
X152250Y311595D02*
X165950Y311595D01*
X165950Y312830D02*
X152250Y312830D01*
X152250Y314065D02*
X165950Y314065D01*
X149450Y360750D02*
X149450Y372450D01*
X149450Y360750D02*
X135750Y360750D01*
X135750Y372450D01*
X149450Y372450D01*
X149450Y361985D02*
X135750Y361985D01*
X135750Y363220D02*
X149450Y363220D01*
X149450Y364455D02*
X135750Y364455D01*
X135750Y365690D02*
X149450Y365690D01*
X149450Y366925D02*
X135750Y366925D01*
X135750Y368160D02*
X149450Y368160D01*
X149450Y369395D02*
X135750Y369395D01*
X135750Y370630D02*
X149450Y370630D01*
X149450Y371865D02*
X135750Y371865D01*
X149450Y377750D02*
X149450Y389450D01*
X149450Y377750D02*
X135750Y377750D01*
X135750Y389450D01*
X149450Y389450D01*
X149450Y378985D02*
X135750Y378985D01*
X135750Y380220D02*
X149450Y380220D01*
X149450Y381455D02*
X135750Y381455D01*
X135750Y382690D02*
X149450Y382690D01*
X149450Y383925D02*
X135750Y383925D01*
X135750Y385160D02*
X149450Y385160D01*
X149450Y386395D02*
X135750Y386395D01*
X135750Y387630D02*
X149450Y387630D01*
X149450Y388865D02*
X135750Y388865D01*
X421450Y361650D02*
X421450Y349950D01*
X407750Y349950D01*
X407750Y361650D01*
X421450Y361650D01*
X421450Y351185D02*
X407750Y351185D01*
X407750Y352420D02*
X421450Y352420D01*
X421450Y353655D02*
X407750Y353655D01*
X407750Y354890D02*
X421450Y354890D01*
X421450Y356125D02*
X407750Y356125D01*
X407750Y357360D02*
X421450Y357360D01*
X421450Y358595D02*
X407750Y358595D01*
X407750Y359830D02*
X421450Y359830D01*
X421450Y361065D02*
X407750Y361065D01*
X421450Y366950D02*
X421450Y378650D01*
X421450Y366950D02*
X407750Y366950D01*
X407750Y378650D01*
X421450Y378650D01*
X421450Y368185D02*
X407750Y368185D01*
X407750Y369420D02*
X421450Y369420D01*
X421450Y370655D02*
X407750Y370655D01*
X407750Y371890D02*
X421450Y371890D01*
X421450Y373125D02*
X407750Y373125D01*
X407750Y374360D02*
X421450Y374360D01*
X421450Y375595D02*
X407750Y375595D01*
X407750Y376830D02*
X421450Y376830D01*
X421450Y378065D02*
X407750Y378065D01*
X398950Y360350D02*
X398950Y348650D01*
X385250Y348650D01*
X385250Y360350D01*
X398950Y360350D01*
X398950Y349885D02*
X385250Y349885D01*
X385250Y351120D02*
X398950Y351120D01*
X398950Y352355D02*
X385250Y352355D01*
X385250Y353590D02*
X398950Y353590D01*
X398950Y354825D02*
X385250Y354825D01*
X385250Y356060D02*
X398950Y356060D01*
X398950Y357295D02*
X385250Y357295D01*
X385250Y358530D02*
X398950Y358530D01*
X398950Y359765D02*
X385250Y359765D01*
X398950Y365650D02*
X398950Y377350D01*
X398950Y365650D02*
X385250Y365650D01*
X385250Y377350D01*
X398950Y377350D01*
X398950Y366885D02*
X385250Y366885D01*
X385250Y368120D02*
X398950Y368120D01*
X398950Y369355D02*
X385250Y369355D01*
X385250Y370590D02*
X398950Y370590D01*
X398950Y371825D02*
X385250Y371825D01*
X385250Y373060D02*
X398950Y373060D01*
X398950Y374295D02*
X385250Y374295D01*
X385250Y375530D02*
X398950Y375530D01*
X398950Y376765D02*
X385250Y376765D01*
X779550Y421850D02*
X779550Y433550D01*
X779550Y421850D02*
X765850Y421850D01*
X765850Y433550D01*
X779550Y433550D01*
X779550Y423085D02*
X765850Y423085D01*
X765850Y424320D02*
X779550Y424320D01*
X779550Y425555D02*
X765850Y425555D01*
X765850Y426790D02*
X779550Y426790D01*
X779550Y428025D02*
X765850Y428025D01*
X765850Y429260D02*
X779550Y429260D01*
X779550Y430495D02*
X765850Y430495D01*
X765850Y431730D02*
X779550Y431730D01*
X779550Y432965D02*
X765850Y432965D01*
X779550Y438850D02*
X779550Y450550D01*
X779550Y438850D02*
X765850Y438850D01*
X765850Y450550D01*
X779550Y450550D01*
X779550Y440085D02*
X765850Y440085D01*
X765850Y441320D02*
X779550Y441320D01*
X779550Y442555D02*
X765850Y442555D01*
X765850Y443790D02*
X779550Y443790D01*
X779550Y445025D02*
X765850Y445025D01*
X765850Y446260D02*
X779550Y446260D01*
X779550Y447495D02*
X765850Y447495D01*
X765850Y448730D02*
X779550Y448730D01*
X779550Y449965D02*
X765850Y449965D01*
X376550Y318650D02*
X376550Y306950D01*
X376550Y318650D02*
X390250Y318650D01*
X390250Y306950D01*
X376550Y306950D01*
X376550Y308185D02*
X390250Y308185D01*
X390250Y309420D02*
X376550Y309420D01*
X376550Y310655D02*
X390250Y310655D01*
X390250Y311890D02*
X376550Y311890D01*
X376550Y313125D02*
X390250Y313125D01*
X390250Y314360D02*
X376550Y314360D01*
X376550Y315595D02*
X390250Y315595D01*
X390250Y316830D02*
X376550Y316830D01*
X376550Y318065D02*
X390250Y318065D01*
X376550Y301650D02*
X376550Y289950D01*
X376550Y301650D02*
X390250Y301650D01*
X390250Y289950D01*
X376550Y289950D01*
X376550Y291185D02*
X390250Y291185D01*
X390250Y292420D02*
X376550Y292420D01*
X376550Y293655D02*
X390250Y293655D01*
X390250Y294890D02*
X376550Y294890D01*
X376550Y296125D02*
X390250Y296125D01*
X390250Y297360D02*
X376550Y297360D01*
X376550Y298595D02*
X390250Y298595D01*
X390250Y299830D02*
X376550Y299830D01*
X376550Y301065D02*
X390250Y301065D01*
X353550Y307250D02*
X353550Y318950D01*
X367250Y318950D01*
X367250Y307250D01*
X353550Y307250D01*
X353550Y308485D02*
X367250Y308485D01*
X367250Y309720D02*
X353550Y309720D01*
X353550Y310955D02*
X367250Y310955D01*
X367250Y312190D02*
X353550Y312190D01*
X353550Y313425D02*
X367250Y313425D01*
X367250Y314660D02*
X353550Y314660D01*
X353550Y315895D02*
X367250Y315895D01*
X367250Y317130D02*
X353550Y317130D01*
X353550Y318365D02*
X367250Y318365D01*
X353550Y301950D02*
X353550Y290250D01*
X353550Y301950D02*
X367250Y301950D01*
X367250Y290250D01*
X353550Y290250D01*
X353550Y291485D02*
X367250Y291485D01*
X367250Y292720D02*
X353550Y292720D01*
X353550Y293955D02*
X367250Y293955D01*
X367250Y295190D02*
X353550Y295190D01*
X353550Y296425D02*
X367250Y296425D01*
X367250Y297660D02*
X353550Y297660D01*
X353550Y298895D02*
X367250Y298895D01*
X367250Y300130D02*
X353550Y300130D01*
X353550Y301365D02*
X367250Y301365D01*
X961950Y337750D02*
X961950Y349450D01*
X961950Y337750D02*
X948250Y337750D01*
X948250Y349450D01*
X961950Y349450D01*
X961950Y338985D02*
X948250Y338985D01*
X948250Y340220D02*
X961950Y340220D01*
X961950Y341455D02*
X948250Y341455D01*
X948250Y342690D02*
X961950Y342690D01*
X961950Y343925D02*
X948250Y343925D01*
X948250Y345160D02*
X961950Y345160D01*
X961950Y346395D02*
X948250Y346395D01*
X948250Y347630D02*
X961950Y347630D01*
X961950Y348865D02*
X948250Y348865D01*
X961950Y354750D02*
X961950Y366450D01*
X961950Y354750D02*
X948250Y354750D01*
X948250Y366450D01*
X961950Y366450D01*
X961950Y355985D02*
X948250Y355985D01*
X948250Y357220D02*
X961950Y357220D01*
X961950Y358455D02*
X948250Y358455D01*
X948250Y359690D02*
X961950Y359690D01*
X961950Y360925D02*
X948250Y360925D01*
X948250Y362160D02*
X961950Y362160D01*
X961950Y363395D02*
X948250Y363395D01*
X948250Y364630D02*
X961950Y364630D01*
X961950Y365865D02*
X948250Y365865D01*
X956350Y196450D02*
X968050Y196450D01*
X968050Y182750D01*
X956350Y182750D01*
X956350Y196450D01*
X956350Y183985D02*
X968050Y183985D01*
X968050Y185220D02*
X956350Y185220D01*
X956350Y186455D02*
X968050Y186455D01*
X968050Y187690D02*
X956350Y187690D01*
X956350Y188925D02*
X968050Y188925D01*
X968050Y190160D02*
X956350Y190160D01*
X956350Y191395D02*
X968050Y191395D01*
X968050Y192630D02*
X956350Y192630D01*
X956350Y193865D02*
X968050Y193865D01*
X968050Y195100D02*
X956350Y195100D01*
X956350Y196335D02*
X968050Y196335D01*
X951050Y196450D02*
X939350Y196450D01*
X951050Y196450D02*
X951050Y182750D01*
X939350Y182750D01*
X939350Y196450D01*
X939350Y183985D02*
X951050Y183985D01*
X951050Y185220D02*
X939350Y185220D01*
X939350Y186455D02*
X951050Y186455D01*
X951050Y187690D02*
X939350Y187690D01*
X939350Y188925D02*
X951050Y188925D01*
X951050Y190160D02*
X939350Y190160D01*
X939350Y191395D02*
X951050Y191395D01*
X951050Y192630D02*
X939350Y192630D01*
X939350Y193865D02*
X951050Y193865D01*
X951050Y195100D02*
X939350Y195100D01*
X939350Y196335D02*
X951050Y196335D01*
X956650Y167950D02*
X968350Y167950D01*
X968350Y154250D01*
X956650Y154250D01*
X956650Y167950D01*
X956650Y155485D02*
X968350Y155485D01*
X968350Y156720D02*
X956650Y156720D01*
X956650Y157955D02*
X968350Y157955D01*
X968350Y159190D02*
X956650Y159190D01*
X956650Y160425D02*
X968350Y160425D01*
X968350Y161660D02*
X956650Y161660D01*
X956650Y162895D02*
X968350Y162895D01*
X968350Y164130D02*
X956650Y164130D01*
X956650Y165365D02*
X968350Y165365D01*
X968350Y166600D02*
X956650Y166600D01*
X956650Y167835D02*
X968350Y167835D01*
X951350Y167950D02*
X939650Y167950D01*
X951350Y167950D02*
X951350Y154250D01*
X939650Y154250D01*
X939650Y167950D01*
X939650Y155485D02*
X951350Y155485D01*
X951350Y156720D02*
X939650Y156720D01*
X939650Y157955D02*
X951350Y157955D01*
X951350Y159190D02*
X939650Y159190D01*
X939650Y160425D02*
X951350Y160425D01*
X951350Y161660D02*
X939650Y161660D01*
X939650Y162895D02*
X951350Y162895D01*
X951350Y164130D02*
X939650Y164130D01*
X939650Y165365D02*
X951350Y165365D01*
X951350Y166600D02*
X939650Y166600D01*
X939650Y167835D02*
X951350Y167835D01*
X867050Y113150D02*
X867050Y101450D01*
X867050Y113150D02*
X880750Y113150D01*
X880750Y101450D01*
X867050Y101450D01*
X867050Y102685D02*
X880750Y102685D01*
X880750Y103920D02*
X867050Y103920D01*
X867050Y105155D02*
X880750Y105155D01*
X880750Y106390D02*
X867050Y106390D01*
X867050Y107625D02*
X880750Y107625D01*
X880750Y108860D02*
X867050Y108860D01*
X867050Y110095D02*
X880750Y110095D01*
X880750Y111330D02*
X867050Y111330D01*
X867050Y112565D02*
X880750Y112565D01*
X867050Y96150D02*
X867050Y84450D01*
X867050Y96150D02*
X880750Y96150D01*
X880750Y84450D01*
X867050Y84450D01*
X867050Y85685D02*
X880750Y85685D01*
X880750Y86920D02*
X867050Y86920D01*
X867050Y88155D02*
X880750Y88155D01*
X880750Y89390D02*
X867050Y89390D01*
X867050Y90625D02*
X880750Y90625D01*
X880750Y91860D02*
X867050Y91860D01*
X867050Y93095D02*
X880750Y93095D01*
X880750Y94330D02*
X867050Y94330D01*
X867050Y95565D02*
X880750Y95565D01*
X611950Y160950D02*
X600250Y160950D01*
X611950Y160950D02*
X611950Y147250D01*
X600250Y147250D01*
X600250Y160950D01*
X600250Y148485D02*
X611950Y148485D01*
X611950Y149720D02*
X600250Y149720D01*
X600250Y150955D02*
X611950Y150955D01*
X611950Y152190D02*
X600250Y152190D01*
X600250Y153425D02*
X611950Y153425D01*
X611950Y154660D02*
X600250Y154660D01*
X600250Y155895D02*
X611950Y155895D01*
X611950Y157130D02*
X600250Y157130D01*
X600250Y158365D02*
X611950Y158365D01*
X611950Y159600D02*
X600250Y159600D01*
X600250Y160835D02*
X611950Y160835D01*
X594950Y160950D02*
X583250Y160950D01*
X594950Y160950D02*
X594950Y147250D01*
X583250Y147250D01*
X583250Y160950D01*
X583250Y148485D02*
X594950Y148485D01*
X594950Y149720D02*
X583250Y149720D01*
X583250Y150955D02*
X594950Y150955D01*
X594950Y152190D02*
X583250Y152190D01*
X583250Y153425D02*
X594950Y153425D01*
X594950Y154660D02*
X583250Y154660D01*
X583250Y155895D02*
X594950Y155895D01*
X594950Y157130D02*
X583250Y157130D01*
X583250Y158365D02*
X594950Y158365D01*
X594950Y159600D02*
X583250Y159600D01*
X583250Y160835D02*
X594950Y160835D01*
X592950Y193550D02*
X581250Y193550D01*
X581250Y207250D01*
X592950Y207250D01*
X592950Y193550D01*
X592950Y194785D02*
X581250Y194785D01*
X581250Y196020D02*
X592950Y196020D01*
X592950Y197255D02*
X581250Y197255D01*
X581250Y198490D02*
X592950Y198490D01*
X592950Y199725D02*
X581250Y199725D01*
X581250Y200960D02*
X592950Y200960D01*
X592950Y202195D02*
X581250Y202195D01*
X581250Y203430D02*
X592950Y203430D01*
X592950Y204665D02*
X581250Y204665D01*
X581250Y205900D02*
X592950Y205900D01*
X592950Y207135D02*
X581250Y207135D01*
X598250Y193550D02*
X609950Y193550D01*
X598250Y193550D02*
X598250Y207250D01*
X609950Y207250D01*
X609950Y193550D01*
X609950Y194785D02*
X598250Y194785D01*
X598250Y196020D02*
X609950Y196020D01*
X609950Y197255D02*
X598250Y197255D01*
X598250Y198490D02*
X609950Y198490D01*
X609950Y199725D02*
X598250Y199725D01*
X598250Y200960D02*
X609950Y200960D01*
X609950Y202195D02*
X598250Y202195D01*
X598250Y203430D02*
X609950Y203430D01*
X609950Y204665D02*
X598250Y204665D01*
X598250Y205900D02*
X609950Y205900D01*
X609950Y207135D02*
X598250Y207135D01*
X592650Y281550D02*
X580950Y281550D01*
X580950Y295250D01*
X592650Y295250D01*
X592650Y281550D01*
X592650Y282785D02*
X580950Y282785D01*
X580950Y284020D02*
X592650Y284020D01*
X592650Y285255D02*
X580950Y285255D01*
X580950Y286490D02*
X592650Y286490D01*
X592650Y287725D02*
X580950Y287725D01*
X580950Y288960D02*
X592650Y288960D01*
X592650Y290195D02*
X580950Y290195D01*
X580950Y291430D02*
X592650Y291430D01*
X592650Y292665D02*
X580950Y292665D01*
X580950Y293900D02*
X592650Y293900D01*
X592650Y295135D02*
X580950Y295135D01*
X597950Y281550D02*
X609650Y281550D01*
X597950Y281550D02*
X597950Y295250D01*
X609650Y295250D01*
X609650Y281550D01*
X609650Y282785D02*
X597950Y282785D01*
X597950Y284020D02*
X609650Y284020D01*
X609650Y285255D02*
X597950Y285255D01*
X597950Y286490D02*
X609650Y286490D01*
X609650Y287725D02*
X597950Y287725D01*
X597950Y288960D02*
X609650Y288960D01*
X609650Y290195D02*
X597950Y290195D01*
X597950Y291430D02*
X609650Y291430D01*
X609650Y292665D02*
X597950Y292665D01*
X597950Y293900D02*
X609650Y293900D01*
X609650Y295135D02*
X597950Y295135D01*
X597650Y249950D02*
X609350Y249950D01*
X609350Y236250D01*
X597650Y236250D01*
X597650Y249950D01*
X597650Y237485D02*
X609350Y237485D01*
X609350Y238720D02*
X597650Y238720D01*
X597650Y239955D02*
X609350Y239955D01*
X609350Y241190D02*
X597650Y241190D01*
X597650Y242425D02*
X609350Y242425D01*
X609350Y243660D02*
X597650Y243660D01*
X597650Y244895D02*
X609350Y244895D01*
X609350Y246130D02*
X597650Y246130D01*
X597650Y247365D02*
X609350Y247365D01*
X609350Y248600D02*
X597650Y248600D01*
X597650Y249835D02*
X609350Y249835D01*
X592350Y249950D02*
X580650Y249950D01*
X592350Y249950D02*
X592350Y236250D01*
X580650Y236250D01*
X580650Y249950D01*
X580650Y237485D02*
X592350Y237485D01*
X592350Y238720D02*
X580650Y238720D01*
X580650Y239955D02*
X592350Y239955D01*
X592350Y241190D02*
X580650Y241190D01*
X580650Y242425D02*
X592350Y242425D01*
X592350Y243660D02*
X580650Y243660D01*
X580650Y244895D02*
X592350Y244895D01*
X592350Y246130D02*
X580650Y246130D01*
X580650Y247365D02*
X592350Y247365D01*
X592350Y248600D02*
X580650Y248600D01*
X580650Y249835D02*
X592350Y249835D01*
X326750Y129250D02*
X326750Y117550D01*
X326750Y129250D02*
X340450Y129250D01*
X340450Y117550D01*
X326750Y117550D01*
X326750Y118785D02*
X340450Y118785D01*
X340450Y120020D02*
X326750Y120020D01*
X326750Y121255D02*
X340450Y121255D01*
X340450Y122490D02*
X326750Y122490D01*
X326750Y123725D02*
X340450Y123725D01*
X340450Y124960D02*
X326750Y124960D01*
X326750Y126195D02*
X340450Y126195D01*
X340450Y127430D02*
X326750Y127430D01*
X326750Y128665D02*
X340450Y128665D01*
X326750Y112250D02*
X326750Y100550D01*
X326750Y112250D02*
X340450Y112250D01*
X340450Y100550D01*
X326750Y100550D01*
X326750Y101785D02*
X340450Y101785D01*
X340450Y103020D02*
X326750Y103020D01*
X326750Y104255D02*
X340450Y104255D01*
X340450Y105490D02*
X326750Y105490D01*
X326750Y106725D02*
X340450Y106725D01*
X340450Y107960D02*
X326750Y107960D01*
X326750Y109195D02*
X340450Y109195D01*
X340450Y110430D02*
X326750Y110430D01*
X326750Y111665D02*
X340450Y111665D01*
X602550Y70650D02*
X602550Y58950D01*
X602550Y70650D02*
X616250Y70650D01*
X616250Y58950D01*
X602550Y58950D01*
X602550Y60185D02*
X616250Y60185D01*
X616250Y61420D02*
X602550Y61420D01*
X602550Y62655D02*
X616250Y62655D01*
X616250Y63890D02*
X602550Y63890D01*
X602550Y65125D02*
X616250Y65125D01*
X616250Y66360D02*
X602550Y66360D01*
X602550Y67595D02*
X616250Y67595D01*
X616250Y68830D02*
X602550Y68830D01*
X602550Y70065D02*
X616250Y70065D01*
X602550Y53650D02*
X602550Y41950D01*
X602550Y53650D02*
X616250Y53650D01*
X616250Y41950D01*
X602550Y41950D01*
X602550Y43185D02*
X616250Y43185D01*
X616250Y44420D02*
X602550Y44420D01*
X602550Y45655D02*
X616250Y45655D01*
X616250Y46890D02*
X602550Y46890D01*
X602550Y48125D02*
X616250Y48125D01*
X616250Y49360D02*
X602550Y49360D01*
X602550Y50595D02*
X616250Y50595D01*
X616250Y51830D02*
X602550Y51830D01*
X602550Y53065D02*
X616250Y53065D01*
X625850Y58550D02*
X625850Y70250D01*
X639550Y70250D01*
X639550Y58550D01*
X625850Y58550D01*
X625850Y59785D02*
X639550Y59785D01*
X639550Y61020D02*
X625850Y61020D01*
X625850Y62255D02*
X639550Y62255D01*
X639550Y63490D02*
X625850Y63490D01*
X625850Y64725D02*
X639550Y64725D01*
X639550Y65960D02*
X625850Y65960D01*
X625850Y67195D02*
X639550Y67195D01*
X639550Y68430D02*
X625850Y68430D01*
X625850Y69665D02*
X639550Y69665D01*
X625850Y53250D02*
X625850Y41550D01*
X625850Y53250D02*
X639550Y53250D01*
X639550Y41550D01*
X625850Y41550D01*
X625850Y42785D02*
X639550Y42785D01*
X639550Y44020D02*
X625850Y44020D01*
X625850Y45255D02*
X639550Y45255D01*
X639550Y46490D02*
X625850Y46490D01*
X625850Y47725D02*
X639550Y47725D01*
X639550Y48960D02*
X625850Y48960D01*
X625850Y50195D02*
X639550Y50195D01*
X639550Y51430D02*
X625850Y51430D01*
X625850Y52665D02*
X639550Y52665D01*
X788650Y472450D02*
X788650Y484150D01*
X788650Y472450D02*
X774950Y472450D01*
X774950Y484150D01*
X788650Y484150D01*
X788650Y473685D02*
X774950Y473685D01*
X774950Y474920D02*
X788650Y474920D01*
X788650Y476155D02*
X774950Y476155D01*
X774950Y477390D02*
X788650Y477390D01*
X788650Y478625D02*
X774950Y478625D01*
X774950Y479860D02*
X788650Y479860D01*
X788650Y481095D02*
X774950Y481095D01*
X774950Y482330D02*
X788650Y482330D01*
X788650Y483565D02*
X774950Y483565D01*
X788650Y489450D02*
X788650Y501150D01*
X788650Y489450D02*
X774950Y489450D01*
X774950Y501150D01*
X788650Y501150D01*
X788650Y490685D02*
X774950Y490685D01*
X774950Y491920D02*
X788650Y491920D01*
X788650Y493155D02*
X774950Y493155D01*
X774950Y494390D02*
X788650Y494390D01*
X788650Y495625D02*
X774950Y495625D01*
X774950Y496860D02*
X788650Y496860D01*
X788650Y498095D02*
X774950Y498095D01*
X774950Y499330D02*
X788650Y499330D01*
X788650Y500565D02*
X774950Y500565D01*
X831650Y587850D02*
X843350Y587850D01*
X831650Y587850D02*
X831650Y601550D01*
X843350Y601550D01*
X843350Y587850D01*
X843350Y589085D02*
X831650Y589085D01*
X831650Y590320D02*
X843350Y590320D01*
X843350Y591555D02*
X831650Y591555D01*
X831650Y592790D02*
X843350Y592790D01*
X843350Y594025D02*
X831650Y594025D01*
X831650Y595260D02*
X843350Y595260D01*
X843350Y596495D02*
X831650Y596495D01*
X831650Y597730D02*
X843350Y597730D01*
X843350Y598965D02*
X831650Y598965D01*
X831650Y600200D02*
X843350Y600200D01*
X843350Y601435D02*
X831650Y601435D01*
X848650Y587850D02*
X860350Y587850D01*
X848650Y587850D02*
X848650Y601550D01*
X860350Y601550D01*
X860350Y587850D01*
X860350Y589085D02*
X848650Y589085D01*
X848650Y590320D02*
X860350Y590320D01*
X860350Y591555D02*
X848650Y591555D01*
X848650Y592790D02*
X860350Y592790D01*
X860350Y594025D02*
X848650Y594025D01*
X848650Y595260D02*
X860350Y595260D01*
X860350Y596495D02*
X848650Y596495D01*
X848650Y597730D02*
X860350Y597730D01*
X860350Y598965D02*
X848650Y598965D01*
X848650Y600200D02*
X860350Y600200D01*
X860350Y601435D02*
X848650Y601435D01*
X769050Y52750D02*
X757350Y52750D01*
X769050Y52750D02*
X769050Y39050D01*
X757350Y39050D01*
X757350Y52750D01*
X757350Y40285D02*
X769050Y40285D01*
X769050Y41520D02*
X757350Y41520D01*
X757350Y42755D02*
X769050Y42755D01*
X769050Y43990D02*
X757350Y43990D01*
X757350Y45225D02*
X769050Y45225D01*
X769050Y46460D02*
X757350Y46460D01*
X757350Y47695D02*
X769050Y47695D01*
X769050Y48930D02*
X757350Y48930D01*
X757350Y50165D02*
X769050Y50165D01*
X769050Y51400D02*
X757350Y51400D01*
X757350Y52635D02*
X769050Y52635D01*
X752050Y52750D02*
X740350Y52750D01*
X752050Y52750D02*
X752050Y39050D01*
X740350Y39050D01*
X740350Y52750D01*
X740350Y40285D02*
X752050Y40285D01*
X752050Y41520D02*
X740350Y41520D01*
X740350Y42755D02*
X752050Y42755D01*
X752050Y43990D02*
X740350Y43990D01*
X740350Y45225D02*
X752050Y45225D01*
X752050Y46460D02*
X740350Y46460D01*
X740350Y47695D02*
X752050Y47695D01*
X752050Y48930D02*
X740350Y48930D01*
X740350Y50165D02*
X752050Y50165D01*
X752050Y51400D02*
X740350Y51400D01*
X740350Y52635D02*
X752050Y52635D01*
X694250Y70150D02*
X694250Y81850D01*
X707950Y81850D01*
X707950Y70150D01*
X694250Y70150D01*
X694250Y71385D02*
X707950Y71385D01*
X707950Y72620D02*
X694250Y72620D01*
X694250Y73855D02*
X707950Y73855D01*
X707950Y75090D02*
X694250Y75090D01*
X694250Y76325D02*
X707950Y76325D01*
X707950Y77560D02*
X694250Y77560D01*
X694250Y78795D02*
X707950Y78795D01*
X707950Y80030D02*
X694250Y80030D01*
X694250Y81265D02*
X707950Y81265D01*
X694250Y64850D02*
X694250Y53150D01*
X694250Y64850D02*
X707950Y64850D01*
X707950Y53150D01*
X694250Y53150D01*
X694250Y54385D02*
X707950Y54385D01*
X707950Y55620D02*
X694250Y55620D01*
X694250Y56855D02*
X707950Y56855D01*
X707950Y58090D02*
X694250Y58090D01*
X694250Y59325D02*
X707950Y59325D01*
X707950Y60560D02*
X694250Y60560D01*
X694250Y61795D02*
X707950Y61795D01*
X707950Y63030D02*
X694250Y63030D01*
X694250Y64265D02*
X707950Y64265D01*
X391650Y198750D02*
X379950Y198750D01*
X391650Y198750D02*
X391650Y185050D01*
X379950Y185050D01*
X379950Y198750D01*
X379950Y186285D02*
X391650Y186285D01*
X391650Y187520D02*
X379950Y187520D01*
X379950Y188755D02*
X391650Y188755D01*
X391650Y189990D02*
X379950Y189990D01*
X379950Y191225D02*
X391650Y191225D01*
X391650Y192460D02*
X379950Y192460D01*
X379950Y193695D02*
X391650Y193695D01*
X391650Y194930D02*
X379950Y194930D01*
X379950Y196165D02*
X391650Y196165D01*
X391650Y197400D02*
X379950Y197400D01*
X379950Y198635D02*
X391650Y198635D01*
X374650Y198750D02*
X362950Y198750D01*
X374650Y198750D02*
X374650Y185050D01*
X362950Y185050D01*
X362950Y198750D01*
X362950Y186285D02*
X374650Y186285D01*
X374650Y187520D02*
X362950Y187520D01*
X362950Y188755D02*
X374650Y188755D01*
X374650Y189990D02*
X362950Y189990D01*
X362950Y191225D02*
X374650Y191225D01*
X374650Y192460D02*
X362950Y192460D01*
X362950Y193695D02*
X374650Y193695D01*
X374650Y194930D02*
X362950Y194930D01*
X362950Y196165D02*
X374650Y196165D01*
X374650Y197400D02*
X362950Y197400D01*
X362950Y198635D02*
X374650Y198635D01*
X443250Y199250D02*
X454950Y199250D01*
X454950Y185550D01*
X443250Y185550D01*
X443250Y199250D01*
X443250Y186785D02*
X454950Y186785D01*
X454950Y188020D02*
X443250Y188020D01*
X443250Y189255D02*
X454950Y189255D01*
X454950Y190490D02*
X443250Y190490D01*
X443250Y191725D02*
X454950Y191725D01*
X454950Y192960D02*
X443250Y192960D01*
X443250Y194195D02*
X454950Y194195D01*
X454950Y195430D02*
X443250Y195430D01*
X443250Y196665D02*
X454950Y196665D01*
X454950Y197900D02*
X443250Y197900D01*
X443250Y199135D02*
X454950Y199135D01*
X437950Y199250D02*
X426250Y199250D01*
X437950Y199250D02*
X437950Y185550D01*
X426250Y185550D01*
X426250Y199250D01*
X426250Y186785D02*
X437950Y186785D01*
X437950Y188020D02*
X426250Y188020D01*
X426250Y189255D02*
X437950Y189255D01*
X437950Y190490D02*
X426250Y190490D01*
X426250Y191725D02*
X437950Y191725D01*
X437950Y192960D02*
X426250Y192960D01*
X426250Y194195D02*
X437950Y194195D01*
X437950Y195430D02*
X426250Y195430D01*
X426250Y196665D02*
X437950Y196665D01*
X437950Y197900D02*
X426250Y197900D01*
X426250Y199135D02*
X437950Y199135D01*
X196250Y246250D02*
X184550Y246250D01*
X196250Y246250D02*
X196250Y232550D01*
X184550Y232550D01*
X184550Y246250D01*
X184550Y233785D02*
X196250Y233785D01*
X196250Y235020D02*
X184550Y235020D01*
X184550Y236255D02*
X196250Y236255D01*
X196250Y237490D02*
X184550Y237490D01*
X184550Y238725D02*
X196250Y238725D01*
X196250Y239960D02*
X184550Y239960D01*
X184550Y241195D02*
X196250Y241195D01*
X196250Y242430D02*
X184550Y242430D01*
X184550Y243665D02*
X196250Y243665D01*
X196250Y244900D02*
X184550Y244900D01*
X184550Y246135D02*
X196250Y246135D01*
X179250Y246250D02*
X167550Y246250D01*
X179250Y246250D02*
X179250Y232550D01*
X167550Y232550D01*
X167550Y246250D01*
X167550Y233785D02*
X179250Y233785D01*
X179250Y235020D02*
X167550Y235020D01*
X167550Y236255D02*
X179250Y236255D01*
X179250Y237490D02*
X167550Y237490D01*
X167550Y238725D02*
X179250Y238725D01*
X179250Y239960D02*
X167550Y239960D01*
X167550Y241195D02*
X179250Y241195D01*
X179250Y242430D02*
X167550Y242430D01*
X167550Y243665D02*
X179250Y243665D01*
X179250Y244900D02*
X167550Y244900D01*
X167550Y246135D02*
X179250Y246135D01*
X181850Y271250D02*
X193550Y271250D01*
X193550Y257550D01*
X181850Y257550D01*
X181850Y271250D01*
X181850Y258785D02*
X193550Y258785D01*
X193550Y260020D02*
X181850Y260020D01*
X181850Y261255D02*
X193550Y261255D01*
X193550Y262490D02*
X181850Y262490D01*
X181850Y263725D02*
X193550Y263725D01*
X193550Y264960D02*
X181850Y264960D01*
X181850Y266195D02*
X193550Y266195D01*
X193550Y267430D02*
X181850Y267430D01*
X181850Y268665D02*
X193550Y268665D01*
X193550Y269900D02*
X181850Y269900D01*
X181850Y271135D02*
X193550Y271135D01*
X176550Y271250D02*
X164850Y271250D01*
X176550Y271250D02*
X176550Y257550D01*
X164850Y257550D01*
X164850Y271250D01*
X164850Y258785D02*
X176550Y258785D01*
X176550Y260020D02*
X164850Y260020D01*
X164850Y261255D02*
X176550Y261255D01*
X176550Y262490D02*
X164850Y262490D01*
X164850Y263725D02*
X176550Y263725D01*
X176550Y264960D02*
X164850Y264960D01*
X164850Y266195D02*
X176550Y266195D01*
X176550Y267430D02*
X164850Y267430D01*
X164850Y268665D02*
X176550Y268665D01*
X176550Y269900D02*
X164850Y269900D01*
X164850Y271135D02*
X176550Y271135D01*
D12*
X923785Y547485D02*
X923785Y558915D01*
X937215Y558915D01*
X937215Y547485D01*
X923785Y547485D01*
X923785Y548691D02*
X937215Y548691D01*
X937215Y549897D02*
X923785Y549897D01*
X923785Y551103D02*
X937215Y551103D01*
X937215Y552309D02*
X923785Y552309D01*
X923785Y553515D02*
X937215Y553515D01*
X937215Y554721D02*
X923785Y554721D01*
X923785Y555927D02*
X937215Y555927D01*
X937215Y557133D02*
X923785Y557133D01*
X923785Y558339D02*
X937215Y558339D01*
X937215Y590485D02*
X937215Y601915D01*
X937215Y590485D02*
X923785Y590485D01*
X923785Y601915D01*
X937215Y601915D01*
X937215Y591691D02*
X923785Y591691D01*
X923785Y592897D02*
X937215Y592897D01*
X937215Y594103D02*
X923785Y594103D01*
X923785Y595309D02*
X937215Y595309D01*
X937215Y596515D02*
X923785Y596515D01*
X923785Y597721D02*
X937215Y597721D01*
X937215Y598927D02*
X923785Y598927D01*
X923785Y600133D02*
X937215Y600133D01*
X937215Y601339D02*
X923785Y601339D01*
D13*
X417180Y295180D02*
X408220Y295180D01*
X417180Y295180D02*
X417180Y288220D01*
X408220Y288220D01*
X408220Y295180D01*
X408220Y289208D02*
X417180Y289208D01*
X417180Y290196D02*
X408220Y290196D01*
X408220Y291184D02*
X417180Y291184D01*
X417180Y292172D02*
X408220Y292172D01*
X408220Y293160D02*
X417180Y293160D01*
X417180Y294148D02*
X408220Y294148D01*
X408220Y295136D02*
X417180Y295136D01*
D14*
X413200Y304200D02*
X422200Y304200D01*
X422200Y301200D01*
X413200Y301200D01*
X413200Y304200D01*
X413200Y302150D02*
X422200Y302150D01*
X422200Y303100D02*
X413200Y303100D01*
X413200Y304050D02*
X422200Y304050D01*
D13*
X417180Y317180D02*
X408220Y317180D01*
X417180Y317180D02*
X417180Y310220D01*
X408220Y310220D01*
X408220Y317180D01*
X408220Y311208D02*
X417180Y311208D01*
X417180Y312196D02*
X408220Y312196D01*
X408220Y313184D02*
X417180Y313184D01*
X417180Y314172D02*
X408220Y314172D01*
X408220Y315160D02*
X417180Y315160D01*
X417180Y316148D02*
X408220Y316148D01*
X408220Y317136D02*
X417180Y317136D01*
D14*
X412200Y304200D02*
X403200Y304200D01*
X412200Y304200D02*
X412200Y301200D01*
X403200Y301200D01*
X403200Y304200D01*
X403200Y302150D02*
X412200Y302150D01*
X412200Y303100D02*
X403200Y303100D01*
X403200Y304050D02*
X412200Y304050D01*
D13*
X437420Y371420D02*
X446380Y371420D01*
X437420Y371420D02*
X437420Y378380D01*
X446380Y378380D01*
X446380Y371420D01*
X446380Y372408D02*
X437420Y372408D01*
X437420Y373396D02*
X446380Y373396D01*
X446380Y374384D02*
X437420Y374384D01*
X437420Y375372D02*
X446380Y375372D01*
X446380Y376360D02*
X437420Y376360D01*
X437420Y377348D02*
X446380Y377348D01*
X446380Y378336D02*
X437420Y378336D01*
D14*
X441400Y362400D02*
X432400Y362400D01*
X432400Y365400D01*
X441400Y365400D01*
X441400Y362400D01*
X441400Y363350D02*
X432400Y363350D01*
X432400Y364300D02*
X441400Y364300D01*
X441400Y365250D02*
X432400Y365250D01*
D13*
X437420Y349420D02*
X446380Y349420D01*
X437420Y349420D02*
X437420Y356380D01*
X446380Y356380D01*
X446380Y349420D01*
X446380Y350408D02*
X437420Y350408D01*
X437420Y351396D02*
X446380Y351396D01*
X446380Y352384D02*
X437420Y352384D01*
X437420Y353372D02*
X446380Y353372D01*
X446380Y354360D02*
X437420Y354360D01*
X437420Y355348D02*
X446380Y355348D01*
X446380Y356336D02*
X437420Y356336D01*
D14*
X442400Y362400D02*
X451400Y362400D01*
X442400Y362400D02*
X442400Y365400D01*
X451400Y365400D01*
X451400Y362400D01*
X451400Y363350D02*
X442400Y363350D01*
X442400Y364300D02*
X451400Y364300D01*
X451400Y365250D02*
X442400Y365250D01*
D15*
X601200Y521639D03*
X601200Y456361D03*
X80700Y724539D03*
X80700Y659261D03*
D16*
X430150Y238950D02*
X484050Y238950D01*
X484050Y220050D01*
X430150Y220050D01*
X430150Y238950D01*
X430150Y222045D02*
X484050Y222045D01*
X484050Y224040D02*
X430150Y224040D01*
X430150Y226035D02*
X484050Y226035D01*
X484050Y228030D02*
X430150Y228030D01*
X430150Y230025D02*
X484050Y230025D01*
X484050Y232020D02*
X430150Y232020D01*
X430150Y234015D02*
X484050Y234015D01*
X484050Y236010D02*
X430150Y236010D01*
X430150Y238005D02*
X484050Y238005D01*
X389050Y238950D02*
X335150Y238950D01*
X389050Y238950D02*
X389050Y220050D01*
X335150Y220050D01*
X335150Y238950D01*
X335150Y222045D02*
X389050Y222045D01*
X389050Y224040D02*
X335150Y224040D01*
X335150Y226035D02*
X389050Y226035D01*
X389050Y228030D02*
X335150Y228030D01*
X335150Y230025D02*
X389050Y230025D01*
X389050Y232020D02*
X335150Y232020D01*
X335150Y234015D02*
X389050Y234015D01*
X389050Y236010D02*
X335150Y236010D01*
X335150Y238005D02*
X389050Y238005D01*
D17*
X938687Y266193D02*
X938687Y281273D01*
X943613Y281273D01*
X943613Y266193D01*
X938687Y266193D01*
X938687Y267152D02*
X943613Y267152D01*
X943613Y268111D02*
X938687Y268111D01*
X938687Y269070D02*
X943613Y269070D01*
X943613Y270029D02*
X938687Y270029D01*
X938687Y270988D02*
X943613Y270988D01*
X943613Y271947D02*
X938687Y271947D01*
X938687Y272906D02*
X943613Y272906D01*
X943613Y273865D02*
X938687Y273865D01*
X938687Y274824D02*
X943613Y274824D01*
X943613Y275783D02*
X938687Y275783D01*
X938687Y276742D02*
X943613Y276742D01*
X943613Y277701D02*
X938687Y277701D01*
X938687Y278660D02*
X943613Y278660D01*
X943613Y279619D02*
X938687Y279619D01*
X938687Y280578D02*
X943613Y280578D01*
X925987Y281273D02*
X925987Y266193D01*
X925987Y281273D02*
X930913Y281273D01*
X930913Y266193D01*
X925987Y266193D01*
X925987Y267152D02*
X930913Y267152D01*
X930913Y268111D02*
X925987Y268111D01*
X925987Y269070D02*
X930913Y269070D01*
X930913Y270029D02*
X925987Y270029D01*
X925987Y270988D02*
X930913Y270988D01*
X930913Y271947D02*
X925987Y271947D01*
X925987Y272906D02*
X930913Y272906D01*
X930913Y273865D02*
X925987Y273865D01*
X925987Y274824D02*
X930913Y274824D01*
X930913Y275783D02*
X925987Y275783D01*
X925987Y276742D02*
X930913Y276742D01*
X930913Y277701D02*
X925987Y277701D01*
X925987Y278660D02*
X930913Y278660D01*
X930913Y279619D02*
X925987Y279619D01*
X925987Y280578D02*
X930913Y280578D01*
X913287Y281273D02*
X913287Y266193D01*
X913287Y281273D02*
X918213Y281273D01*
X918213Y266193D01*
X913287Y266193D01*
X913287Y267152D02*
X918213Y267152D01*
X918213Y268111D02*
X913287Y268111D01*
X913287Y269070D02*
X918213Y269070D01*
X918213Y270029D02*
X913287Y270029D01*
X913287Y270988D02*
X918213Y270988D01*
X918213Y271947D02*
X913287Y271947D01*
X913287Y272906D02*
X918213Y272906D01*
X918213Y273865D02*
X913287Y273865D01*
X913287Y274824D02*
X918213Y274824D01*
X918213Y275783D02*
X913287Y275783D01*
X913287Y276742D02*
X918213Y276742D01*
X918213Y277701D02*
X913287Y277701D01*
X913287Y278660D02*
X918213Y278660D01*
X918213Y279619D02*
X913287Y279619D01*
X913287Y280578D02*
X918213Y280578D01*
X900587Y281273D02*
X900587Y266193D01*
X900587Y281273D02*
X905513Y281273D01*
X905513Y266193D01*
X900587Y266193D01*
X900587Y267152D02*
X905513Y267152D01*
X905513Y268111D02*
X900587Y268111D01*
X900587Y269070D02*
X905513Y269070D01*
X905513Y270029D02*
X900587Y270029D01*
X900587Y270988D02*
X905513Y270988D01*
X905513Y271947D02*
X900587Y271947D01*
X900587Y272906D02*
X905513Y272906D01*
X905513Y273865D02*
X900587Y273865D01*
X900587Y274824D02*
X905513Y274824D01*
X905513Y275783D02*
X900587Y275783D01*
X900587Y276742D02*
X905513Y276742D01*
X905513Y277701D02*
X900587Y277701D01*
X900587Y278660D02*
X905513Y278660D01*
X905513Y279619D02*
X900587Y279619D01*
X900587Y280578D02*
X905513Y280578D01*
X900587Y228207D02*
X900587Y213127D01*
X900587Y228207D02*
X905513Y228207D01*
X905513Y213127D01*
X900587Y213127D01*
X900587Y214086D02*
X905513Y214086D01*
X905513Y215045D02*
X900587Y215045D01*
X900587Y216004D02*
X905513Y216004D01*
X905513Y216963D02*
X900587Y216963D01*
X900587Y217922D02*
X905513Y217922D01*
X905513Y218881D02*
X900587Y218881D01*
X900587Y219840D02*
X905513Y219840D01*
X905513Y220799D02*
X900587Y220799D01*
X900587Y221758D02*
X905513Y221758D01*
X905513Y222717D02*
X900587Y222717D01*
X900587Y223676D02*
X905513Y223676D01*
X905513Y224635D02*
X900587Y224635D01*
X900587Y225594D02*
X905513Y225594D01*
X905513Y226553D02*
X900587Y226553D01*
X900587Y227512D02*
X905513Y227512D01*
X913287Y228207D02*
X913287Y213127D01*
X913287Y228207D02*
X918213Y228207D01*
X918213Y213127D01*
X913287Y213127D01*
X913287Y214086D02*
X918213Y214086D01*
X918213Y215045D02*
X913287Y215045D01*
X913287Y216004D02*
X918213Y216004D01*
X918213Y216963D02*
X913287Y216963D01*
X913287Y217922D02*
X918213Y217922D01*
X918213Y218881D02*
X913287Y218881D01*
X913287Y219840D02*
X918213Y219840D01*
X918213Y220799D02*
X913287Y220799D01*
X913287Y221758D02*
X918213Y221758D01*
X918213Y222717D02*
X913287Y222717D01*
X913287Y223676D02*
X918213Y223676D01*
X918213Y224635D02*
X913287Y224635D01*
X913287Y225594D02*
X918213Y225594D01*
X918213Y226553D02*
X913287Y226553D01*
X913287Y227512D02*
X918213Y227512D01*
X925987Y228207D02*
X925987Y213127D01*
X925987Y228207D02*
X930913Y228207D01*
X930913Y213127D01*
X925987Y213127D01*
X925987Y214086D02*
X930913Y214086D01*
X930913Y215045D02*
X925987Y215045D01*
X925987Y216004D02*
X930913Y216004D01*
X930913Y216963D02*
X925987Y216963D01*
X925987Y217922D02*
X930913Y217922D01*
X930913Y218881D02*
X925987Y218881D01*
X925987Y219840D02*
X930913Y219840D01*
X930913Y220799D02*
X925987Y220799D01*
X925987Y221758D02*
X930913Y221758D01*
X930913Y222717D02*
X925987Y222717D01*
X925987Y223676D02*
X930913Y223676D01*
X930913Y224635D02*
X925987Y224635D01*
X925987Y225594D02*
X930913Y225594D01*
X930913Y226553D02*
X925987Y226553D01*
X925987Y227512D02*
X930913Y227512D01*
X938687Y228207D02*
X938687Y213127D01*
X938687Y228207D02*
X943613Y228207D01*
X943613Y213127D01*
X938687Y213127D01*
X938687Y214086D02*
X943613Y214086D01*
X943613Y215045D02*
X938687Y215045D01*
X938687Y216004D02*
X943613Y216004D01*
X943613Y216963D02*
X938687Y216963D01*
X938687Y217922D02*
X943613Y217922D01*
X943613Y218881D02*
X938687Y218881D01*
X938687Y219840D02*
X943613Y219840D01*
X943613Y220799D02*
X938687Y220799D01*
X938687Y221758D02*
X943613Y221758D01*
X943613Y222717D02*
X938687Y222717D01*
X938687Y223676D02*
X943613Y223676D01*
X943613Y224635D02*
X938687Y224635D01*
X938687Y225594D02*
X943613Y225594D01*
X943613Y226553D02*
X938687Y226553D01*
X938687Y227512D02*
X943613Y227512D01*
D18*
X931775Y237525D02*
X912425Y237525D01*
X912425Y256875D01*
X931775Y256875D01*
X931775Y237525D01*
X931775Y239567D02*
X912425Y239567D01*
X912425Y241609D02*
X931775Y241609D01*
X931775Y243651D02*
X912425Y243651D01*
X912425Y245693D02*
X931775Y245693D01*
X931775Y247735D02*
X912425Y247735D01*
X912425Y249777D02*
X931775Y249777D01*
X931775Y251819D02*
X912425Y251819D01*
X912425Y253861D02*
X931775Y253861D01*
X931775Y255903D02*
X912425Y255903D01*
D13*
X585420Y126825D02*
X585420Y112615D01*
X585420Y126825D02*
X590880Y126825D01*
X590880Y112615D01*
X585420Y112615D01*
X585420Y113603D02*
X590880Y113603D01*
X590880Y114591D02*
X585420Y114591D01*
X585420Y115579D02*
X590880Y115579D01*
X590880Y116567D02*
X585420Y116567D01*
X585420Y117555D02*
X590880Y117555D01*
X590880Y118543D02*
X585420Y118543D01*
X585420Y119531D02*
X590880Y119531D01*
X590880Y120519D02*
X585420Y120519D01*
X585420Y121507D02*
X590880Y121507D01*
X590880Y122495D02*
X585420Y122495D01*
X585420Y123483D02*
X590880Y123483D01*
X590880Y124471D02*
X585420Y124471D01*
X585420Y125459D02*
X590880Y125459D01*
X590880Y126447D02*
X585420Y126447D01*
X572720Y126825D02*
X572720Y112615D01*
X572720Y126825D02*
X578180Y126825D01*
X578180Y112615D01*
X572720Y112615D01*
X572720Y113603D02*
X578180Y113603D01*
X578180Y114591D02*
X572720Y114591D01*
X572720Y115579D02*
X578180Y115579D01*
X578180Y116567D02*
X572720Y116567D01*
X572720Y117555D02*
X578180Y117555D01*
X578180Y118543D02*
X572720Y118543D01*
X572720Y119531D02*
X578180Y119531D01*
X578180Y120519D02*
X572720Y120519D01*
X572720Y121507D02*
X578180Y121507D01*
X578180Y122495D02*
X572720Y122495D01*
X572720Y123483D02*
X578180Y123483D01*
X578180Y124471D02*
X572720Y124471D01*
X572720Y125459D02*
X578180Y125459D01*
X578180Y126447D02*
X572720Y126447D01*
X560020Y126825D02*
X560020Y112615D01*
X560020Y126825D02*
X565480Y126825D01*
X565480Y112615D01*
X560020Y112615D01*
X560020Y113603D02*
X565480Y113603D01*
X565480Y114591D02*
X560020Y114591D01*
X560020Y115579D02*
X565480Y115579D01*
X565480Y116567D02*
X560020Y116567D01*
X560020Y117555D02*
X565480Y117555D01*
X565480Y118543D02*
X560020Y118543D01*
X560020Y119531D02*
X565480Y119531D01*
X565480Y120519D02*
X560020Y120519D01*
X560020Y121507D02*
X565480Y121507D01*
X565480Y122495D02*
X560020Y122495D01*
X560020Y123483D02*
X565480Y123483D01*
X565480Y124471D02*
X560020Y124471D01*
X560020Y125459D02*
X565480Y125459D01*
X565480Y126447D02*
X560020Y126447D01*
X547320Y126825D02*
X547320Y112615D01*
X547320Y126825D02*
X552780Y126825D01*
X552780Y112615D01*
X547320Y112615D01*
X547320Y113603D02*
X552780Y113603D01*
X552780Y114591D02*
X547320Y114591D01*
X547320Y115579D02*
X552780Y115579D01*
X552780Y116567D02*
X547320Y116567D01*
X547320Y117555D02*
X552780Y117555D01*
X552780Y118543D02*
X547320Y118543D01*
X547320Y119531D02*
X552780Y119531D01*
X552780Y120519D02*
X547320Y120519D01*
X547320Y121507D02*
X552780Y121507D01*
X552780Y122495D02*
X547320Y122495D01*
X547320Y123483D02*
X552780Y123483D01*
X552780Y124471D02*
X547320Y124471D01*
X547320Y125459D02*
X552780Y125459D01*
X552780Y126447D02*
X547320Y126447D01*
X547320Y72585D02*
X547320Y58375D01*
X547320Y72585D02*
X552780Y72585D01*
X552780Y58375D01*
X547320Y58375D01*
X547320Y59363D02*
X552780Y59363D01*
X552780Y60351D02*
X547320Y60351D01*
X547320Y61339D02*
X552780Y61339D01*
X552780Y62327D02*
X547320Y62327D01*
X547320Y63315D02*
X552780Y63315D01*
X552780Y64303D02*
X547320Y64303D01*
X547320Y65291D02*
X552780Y65291D01*
X552780Y66279D02*
X547320Y66279D01*
X547320Y67267D02*
X552780Y67267D01*
X552780Y68255D02*
X547320Y68255D01*
X547320Y69243D02*
X552780Y69243D01*
X552780Y70231D02*
X547320Y70231D01*
X547320Y71219D02*
X552780Y71219D01*
X552780Y72207D02*
X547320Y72207D01*
X560020Y72585D02*
X560020Y58375D01*
X560020Y72585D02*
X565480Y72585D01*
X565480Y58375D01*
X560020Y58375D01*
X560020Y59363D02*
X565480Y59363D01*
X565480Y60351D02*
X560020Y60351D01*
X560020Y61339D02*
X565480Y61339D01*
X565480Y62327D02*
X560020Y62327D01*
X560020Y63315D02*
X565480Y63315D01*
X565480Y64303D02*
X560020Y64303D01*
X560020Y65291D02*
X565480Y65291D01*
X565480Y66279D02*
X560020Y66279D01*
X560020Y67267D02*
X565480Y67267D01*
X565480Y68255D02*
X560020Y68255D01*
X560020Y69243D02*
X565480Y69243D01*
X565480Y70231D02*
X560020Y70231D01*
X560020Y71219D02*
X565480Y71219D01*
X565480Y72207D02*
X560020Y72207D01*
X572720Y72585D02*
X572720Y58375D01*
X572720Y72585D02*
X578180Y72585D01*
X578180Y58375D01*
X572720Y58375D01*
X572720Y59363D02*
X578180Y59363D01*
X578180Y60351D02*
X572720Y60351D01*
X572720Y61339D02*
X578180Y61339D01*
X578180Y62327D02*
X572720Y62327D01*
X572720Y63315D02*
X578180Y63315D01*
X578180Y64303D02*
X572720Y64303D01*
X572720Y65291D02*
X578180Y65291D01*
X578180Y66279D02*
X572720Y66279D01*
X572720Y67267D02*
X578180Y67267D01*
X578180Y68255D02*
X572720Y68255D01*
X572720Y69243D02*
X578180Y69243D01*
X578180Y70231D02*
X572720Y70231D01*
X572720Y71219D02*
X578180Y71219D01*
X578180Y72207D02*
X572720Y72207D01*
X585420Y72585D02*
X585420Y58375D01*
X585420Y72585D02*
X590880Y72585D01*
X590880Y58375D01*
X585420Y58375D01*
X585420Y59363D02*
X590880Y59363D01*
X590880Y60351D02*
X585420Y60351D01*
X585420Y61339D02*
X590880Y61339D01*
X590880Y62327D02*
X585420Y62327D01*
X585420Y63315D02*
X590880Y63315D01*
X590880Y64303D02*
X585420Y64303D01*
X585420Y65291D02*
X590880Y65291D01*
X590880Y66279D02*
X585420Y66279D01*
X585420Y67267D02*
X590880Y67267D01*
X590880Y68255D02*
X585420Y68255D01*
X585420Y69243D02*
X590880Y69243D01*
X590880Y70231D02*
X585420Y70231D01*
X585420Y71219D02*
X590880Y71219D01*
X590880Y72207D02*
X585420Y72207D01*
X729580Y69975D02*
X729580Y84185D01*
X729580Y69975D02*
X724120Y69975D01*
X724120Y84185D01*
X729580Y84185D01*
X729580Y70963D02*
X724120Y70963D01*
X724120Y71951D02*
X729580Y71951D01*
X729580Y72939D02*
X724120Y72939D01*
X724120Y73927D02*
X729580Y73927D01*
X729580Y74915D02*
X724120Y74915D01*
X724120Y75903D02*
X729580Y75903D01*
X729580Y76891D02*
X724120Y76891D01*
X724120Y77879D02*
X729580Y77879D01*
X729580Y78867D02*
X724120Y78867D01*
X724120Y79855D02*
X729580Y79855D01*
X729580Y80843D02*
X724120Y80843D01*
X724120Y81831D02*
X729580Y81831D01*
X729580Y82819D02*
X724120Y82819D01*
X724120Y83807D02*
X729580Y83807D01*
X742280Y84185D02*
X742280Y69975D01*
X736820Y69975D01*
X736820Y84185D01*
X742280Y84185D01*
X742280Y70963D02*
X736820Y70963D01*
X736820Y71951D02*
X742280Y71951D01*
X742280Y72939D02*
X736820Y72939D01*
X736820Y73927D02*
X742280Y73927D01*
X742280Y74915D02*
X736820Y74915D01*
X736820Y75903D02*
X742280Y75903D01*
X742280Y76891D02*
X736820Y76891D01*
X736820Y77879D02*
X742280Y77879D01*
X742280Y78867D02*
X736820Y78867D01*
X736820Y79855D02*
X742280Y79855D01*
X742280Y80843D02*
X736820Y80843D01*
X736820Y81831D02*
X742280Y81831D01*
X742280Y82819D02*
X736820Y82819D01*
X736820Y83807D02*
X742280Y83807D01*
X754980Y84185D02*
X754980Y69975D01*
X749520Y69975D01*
X749520Y84185D01*
X754980Y84185D01*
X754980Y70963D02*
X749520Y70963D01*
X749520Y71951D02*
X754980Y71951D01*
X754980Y72939D02*
X749520Y72939D01*
X749520Y73927D02*
X754980Y73927D01*
X754980Y74915D02*
X749520Y74915D01*
X749520Y75903D02*
X754980Y75903D01*
X754980Y76891D02*
X749520Y76891D01*
X749520Y77879D02*
X754980Y77879D01*
X754980Y78867D02*
X749520Y78867D01*
X749520Y79855D02*
X754980Y79855D01*
X754980Y80843D02*
X749520Y80843D01*
X749520Y81831D02*
X754980Y81831D01*
X754980Y82819D02*
X749520Y82819D01*
X749520Y83807D02*
X754980Y83807D01*
X767680Y84185D02*
X767680Y69975D01*
X762220Y69975D01*
X762220Y84185D01*
X767680Y84185D01*
X767680Y70963D02*
X762220Y70963D01*
X762220Y71951D02*
X767680Y71951D01*
X767680Y72939D02*
X762220Y72939D01*
X762220Y73927D02*
X767680Y73927D01*
X767680Y74915D02*
X762220Y74915D01*
X762220Y75903D02*
X767680Y75903D01*
X767680Y76891D02*
X762220Y76891D01*
X762220Y77879D02*
X767680Y77879D01*
X767680Y78867D02*
X762220Y78867D01*
X762220Y79855D02*
X767680Y79855D01*
X767680Y80843D02*
X762220Y80843D01*
X762220Y81831D02*
X767680Y81831D01*
X767680Y82819D02*
X762220Y82819D01*
X762220Y83807D02*
X767680Y83807D01*
X767680Y124215D02*
X767680Y138425D01*
X767680Y124215D02*
X762220Y124215D01*
X762220Y138425D01*
X767680Y138425D01*
X767680Y125203D02*
X762220Y125203D01*
X762220Y126191D02*
X767680Y126191D01*
X767680Y127179D02*
X762220Y127179D01*
X762220Y128167D02*
X767680Y128167D01*
X767680Y129155D02*
X762220Y129155D01*
X762220Y130143D02*
X767680Y130143D01*
X767680Y131131D02*
X762220Y131131D01*
X762220Y132119D02*
X767680Y132119D01*
X767680Y133107D02*
X762220Y133107D01*
X762220Y134095D02*
X767680Y134095D01*
X767680Y135083D02*
X762220Y135083D01*
X762220Y136071D02*
X767680Y136071D01*
X767680Y137059D02*
X762220Y137059D01*
X762220Y138047D02*
X767680Y138047D01*
X754980Y138425D02*
X754980Y124215D01*
X749520Y124215D01*
X749520Y138425D01*
X754980Y138425D01*
X754980Y125203D02*
X749520Y125203D01*
X749520Y126191D02*
X754980Y126191D01*
X754980Y127179D02*
X749520Y127179D01*
X749520Y128167D02*
X754980Y128167D01*
X754980Y129155D02*
X749520Y129155D01*
X749520Y130143D02*
X754980Y130143D01*
X754980Y131131D02*
X749520Y131131D01*
X749520Y132119D02*
X754980Y132119D01*
X754980Y133107D02*
X749520Y133107D01*
X749520Y134095D02*
X754980Y134095D01*
X754980Y135083D02*
X749520Y135083D01*
X749520Y136071D02*
X754980Y136071D01*
X754980Y137059D02*
X749520Y137059D01*
X749520Y138047D02*
X754980Y138047D01*
X742280Y138425D02*
X742280Y124215D01*
X736820Y124215D01*
X736820Y138425D01*
X742280Y138425D01*
X742280Y125203D02*
X736820Y125203D01*
X736820Y126191D02*
X742280Y126191D01*
X742280Y127179D02*
X736820Y127179D01*
X736820Y128167D02*
X742280Y128167D01*
X742280Y129155D02*
X736820Y129155D01*
X736820Y130143D02*
X742280Y130143D01*
X742280Y131131D02*
X736820Y131131D01*
X736820Y132119D02*
X742280Y132119D01*
X742280Y133107D02*
X736820Y133107D01*
X736820Y134095D02*
X742280Y134095D01*
X742280Y135083D02*
X736820Y135083D01*
X736820Y136071D02*
X742280Y136071D01*
X742280Y137059D02*
X736820Y137059D01*
X736820Y138047D02*
X742280Y138047D01*
X729580Y138425D02*
X729580Y124215D01*
X724120Y124215D01*
X724120Y138425D01*
X729580Y138425D01*
X729580Y125203D02*
X724120Y125203D01*
X724120Y126191D02*
X729580Y126191D01*
X729580Y127179D02*
X724120Y127179D01*
X724120Y128167D02*
X729580Y128167D01*
X729580Y129155D02*
X724120Y129155D01*
X724120Y130143D02*
X729580Y130143D01*
X729580Y131131D02*
X724120Y131131D01*
X724120Y132119D02*
X729580Y132119D01*
X729580Y133107D02*
X724120Y133107D01*
X724120Y134095D02*
X729580Y134095D01*
X729580Y135083D02*
X724120Y135083D01*
X724120Y136071D02*
X729580Y136071D01*
X729580Y137059D02*
X724120Y137059D01*
X724120Y138047D02*
X729580Y138047D01*
D19*
X307445Y305990D02*
X293715Y305990D01*
X307445Y305990D02*
X307445Y304010D01*
X293715Y304010D01*
X293715Y305990D01*
X293715Y304979D02*
X307445Y304979D01*
X307445Y305948D02*
X293715Y305948D01*
X293715Y310990D02*
X307445Y310990D01*
X307445Y309010D01*
X293715Y309010D01*
X293715Y310990D01*
X293715Y309979D02*
X307445Y309979D01*
X307445Y310948D02*
X293715Y310948D01*
X293715Y315990D02*
X307445Y315990D01*
X307445Y314010D01*
X293715Y314010D01*
X293715Y315990D01*
X293715Y314979D02*
X307445Y314979D01*
X307445Y315948D02*
X293715Y315948D01*
X293715Y320990D02*
X307445Y320990D01*
X307445Y319010D01*
X293715Y319010D01*
X293715Y320990D01*
X293715Y319979D02*
X307445Y319979D01*
X307445Y320948D02*
X293715Y320948D01*
X293715Y325990D02*
X307445Y325990D01*
X307445Y324010D01*
X293715Y324010D01*
X293715Y325990D01*
X293715Y324979D02*
X307445Y324979D01*
X307445Y325948D02*
X293715Y325948D01*
X293715Y330990D02*
X307445Y330990D01*
X307445Y329010D01*
X293715Y329010D01*
X293715Y330990D01*
X293715Y329979D02*
X307445Y329979D01*
X307445Y330948D02*
X293715Y330948D01*
X293715Y335990D02*
X307445Y335990D01*
X307445Y334010D01*
X293715Y334010D01*
X293715Y335990D01*
X293715Y334979D02*
X307445Y334979D01*
X307445Y335948D02*
X293715Y335948D01*
X293715Y340990D02*
X307445Y340990D01*
X307445Y339010D01*
X293715Y339010D01*
X293715Y340990D01*
X293715Y339979D02*
X307445Y339979D01*
X307445Y340948D02*
X293715Y340948D01*
X293715Y345990D02*
X307445Y345990D01*
X307445Y344010D01*
X293715Y344010D01*
X293715Y345990D01*
X293715Y344979D02*
X307445Y344979D01*
X307445Y345948D02*
X293715Y345948D01*
X293715Y350990D02*
X307445Y350990D01*
X307445Y349010D01*
X293715Y349010D01*
X293715Y350990D01*
X293715Y349979D02*
X307445Y349979D01*
X307445Y350948D02*
X293715Y350948D01*
X293715Y355990D02*
X307445Y355990D01*
X307445Y354010D01*
X293715Y354010D01*
X293715Y355990D01*
X293715Y354979D02*
X307445Y354979D01*
X307445Y355948D02*
X293715Y355948D01*
X293715Y360990D02*
X307445Y360990D01*
X307445Y359010D01*
X293715Y359010D01*
X293715Y360990D01*
X293715Y359979D02*
X307445Y359979D01*
X307445Y360948D02*
X293715Y360948D01*
X293715Y365990D02*
X307445Y365990D01*
X307445Y364010D01*
X293715Y364010D01*
X293715Y365990D01*
X293715Y364979D02*
X307445Y364979D01*
X307445Y365948D02*
X293715Y365948D01*
X293715Y370990D02*
X307445Y370990D01*
X307445Y369010D01*
X293715Y369010D01*
X293715Y370990D01*
X293715Y369979D02*
X307445Y369979D01*
X307445Y370948D02*
X293715Y370948D01*
X293715Y375990D02*
X307445Y375990D01*
X307445Y374010D01*
X293715Y374010D01*
X293715Y375990D01*
X293715Y374979D02*
X307445Y374979D01*
X307445Y375948D02*
X293715Y375948D01*
X293715Y380990D02*
X307445Y380990D01*
X307445Y379010D01*
X293715Y379010D01*
X293715Y380990D01*
X293715Y379979D02*
X307445Y379979D01*
X307445Y380948D02*
X293715Y380948D01*
X279710Y393015D02*
X279710Y406745D01*
X281690Y406745D01*
X281690Y393015D01*
X279710Y393015D01*
X279710Y393984D02*
X281690Y393984D01*
X281690Y394953D02*
X279710Y394953D01*
X279710Y395922D02*
X281690Y395922D01*
X281690Y396891D02*
X279710Y396891D01*
X279710Y397860D02*
X281690Y397860D01*
X281690Y398829D02*
X279710Y398829D01*
X279710Y399798D02*
X281690Y399798D01*
X281690Y400767D02*
X279710Y400767D01*
X279710Y401736D02*
X281690Y401736D01*
X281690Y402705D02*
X279710Y402705D01*
X279710Y403674D02*
X281690Y403674D01*
X281690Y404643D02*
X279710Y404643D01*
X279710Y405612D02*
X281690Y405612D01*
X281690Y406581D02*
X279710Y406581D01*
X274710Y406745D02*
X274710Y393015D01*
X274710Y406745D02*
X276690Y406745D01*
X276690Y393015D01*
X274710Y393015D01*
X274710Y393984D02*
X276690Y393984D01*
X276690Y394953D02*
X274710Y394953D01*
X274710Y395922D02*
X276690Y395922D01*
X276690Y396891D02*
X274710Y396891D01*
X274710Y397860D02*
X276690Y397860D01*
X276690Y398829D02*
X274710Y398829D01*
X274710Y399798D02*
X276690Y399798D01*
X276690Y400767D02*
X274710Y400767D01*
X274710Y401736D02*
X276690Y401736D01*
X276690Y402705D02*
X274710Y402705D01*
X274710Y403674D02*
X276690Y403674D01*
X276690Y404643D02*
X274710Y404643D01*
X274710Y405612D02*
X276690Y405612D01*
X276690Y406581D02*
X274710Y406581D01*
X269710Y406745D02*
X269710Y393015D01*
X269710Y406745D02*
X271690Y406745D01*
X271690Y393015D01*
X269710Y393015D01*
X269710Y393984D02*
X271690Y393984D01*
X271690Y394953D02*
X269710Y394953D01*
X269710Y395922D02*
X271690Y395922D01*
X271690Y396891D02*
X269710Y396891D01*
X269710Y397860D02*
X271690Y397860D01*
X271690Y398829D02*
X269710Y398829D01*
X269710Y399798D02*
X271690Y399798D01*
X271690Y400767D02*
X269710Y400767D01*
X269710Y401736D02*
X271690Y401736D01*
X271690Y402705D02*
X269710Y402705D01*
X269710Y403674D02*
X271690Y403674D01*
X271690Y404643D02*
X269710Y404643D01*
X269710Y405612D02*
X271690Y405612D01*
X271690Y406581D02*
X269710Y406581D01*
X264710Y406745D02*
X264710Y393015D01*
X264710Y406745D02*
X266690Y406745D01*
X266690Y393015D01*
X264710Y393015D01*
X264710Y393984D02*
X266690Y393984D01*
X266690Y394953D02*
X264710Y394953D01*
X264710Y395922D02*
X266690Y395922D01*
X266690Y396891D02*
X264710Y396891D01*
X264710Y397860D02*
X266690Y397860D01*
X266690Y398829D02*
X264710Y398829D01*
X264710Y399798D02*
X266690Y399798D01*
X266690Y400767D02*
X264710Y400767D01*
X264710Y401736D02*
X266690Y401736D01*
X266690Y402705D02*
X264710Y402705D01*
X264710Y403674D02*
X266690Y403674D01*
X266690Y404643D02*
X264710Y404643D01*
X264710Y405612D02*
X266690Y405612D01*
X266690Y406581D02*
X264710Y406581D01*
X259710Y406745D02*
X259710Y393015D01*
X259710Y406745D02*
X261690Y406745D01*
X261690Y393015D01*
X259710Y393015D01*
X259710Y393984D02*
X261690Y393984D01*
X261690Y394953D02*
X259710Y394953D01*
X259710Y395922D02*
X261690Y395922D01*
X261690Y396891D02*
X259710Y396891D01*
X259710Y397860D02*
X261690Y397860D01*
X261690Y398829D02*
X259710Y398829D01*
X259710Y399798D02*
X261690Y399798D01*
X261690Y400767D02*
X259710Y400767D01*
X259710Y401736D02*
X261690Y401736D01*
X261690Y402705D02*
X259710Y402705D01*
X259710Y403674D02*
X261690Y403674D01*
X261690Y404643D02*
X259710Y404643D01*
X259710Y405612D02*
X261690Y405612D01*
X261690Y406581D02*
X259710Y406581D01*
X254710Y406745D02*
X254710Y393015D01*
X254710Y406745D02*
X256690Y406745D01*
X256690Y393015D01*
X254710Y393015D01*
X254710Y393984D02*
X256690Y393984D01*
X256690Y394953D02*
X254710Y394953D01*
X254710Y395922D02*
X256690Y395922D01*
X256690Y396891D02*
X254710Y396891D01*
X254710Y397860D02*
X256690Y397860D01*
X256690Y398829D02*
X254710Y398829D01*
X254710Y399798D02*
X256690Y399798D01*
X256690Y400767D02*
X254710Y400767D01*
X254710Y401736D02*
X256690Y401736D01*
X256690Y402705D02*
X254710Y402705D01*
X254710Y403674D02*
X256690Y403674D01*
X256690Y404643D02*
X254710Y404643D01*
X254710Y405612D02*
X256690Y405612D01*
X256690Y406581D02*
X254710Y406581D01*
X249710Y406745D02*
X249710Y393015D01*
X249710Y406745D02*
X251690Y406745D01*
X251690Y393015D01*
X249710Y393015D01*
X249710Y393984D02*
X251690Y393984D01*
X251690Y394953D02*
X249710Y394953D01*
X249710Y395922D02*
X251690Y395922D01*
X251690Y396891D02*
X249710Y396891D01*
X249710Y397860D02*
X251690Y397860D01*
X251690Y398829D02*
X249710Y398829D01*
X249710Y399798D02*
X251690Y399798D01*
X251690Y400767D02*
X249710Y400767D01*
X249710Y401736D02*
X251690Y401736D01*
X251690Y402705D02*
X249710Y402705D01*
X249710Y403674D02*
X251690Y403674D01*
X251690Y404643D02*
X249710Y404643D01*
X249710Y405612D02*
X251690Y405612D01*
X251690Y406581D02*
X249710Y406581D01*
X244710Y406745D02*
X244710Y393015D01*
X244710Y406745D02*
X246690Y406745D01*
X246690Y393015D01*
X244710Y393015D01*
X244710Y393984D02*
X246690Y393984D01*
X246690Y394953D02*
X244710Y394953D01*
X244710Y395922D02*
X246690Y395922D01*
X246690Y396891D02*
X244710Y396891D01*
X244710Y397860D02*
X246690Y397860D01*
X246690Y398829D02*
X244710Y398829D01*
X244710Y399798D02*
X246690Y399798D01*
X246690Y400767D02*
X244710Y400767D01*
X244710Y401736D02*
X246690Y401736D01*
X246690Y402705D02*
X244710Y402705D01*
X244710Y403674D02*
X246690Y403674D01*
X246690Y404643D02*
X244710Y404643D01*
X244710Y405612D02*
X246690Y405612D01*
X246690Y406581D02*
X244710Y406581D01*
X239710Y406745D02*
X239710Y393015D01*
X239710Y406745D02*
X241690Y406745D01*
X241690Y393015D01*
X239710Y393015D01*
X239710Y393984D02*
X241690Y393984D01*
X241690Y394953D02*
X239710Y394953D01*
X239710Y395922D02*
X241690Y395922D01*
X241690Y396891D02*
X239710Y396891D01*
X239710Y397860D02*
X241690Y397860D01*
X241690Y398829D02*
X239710Y398829D01*
X239710Y399798D02*
X241690Y399798D01*
X241690Y400767D02*
X239710Y400767D01*
X239710Y401736D02*
X241690Y401736D01*
X241690Y402705D02*
X239710Y402705D01*
X239710Y403674D02*
X241690Y403674D01*
X241690Y404643D02*
X239710Y404643D01*
X239710Y405612D02*
X241690Y405612D01*
X241690Y406581D02*
X239710Y406581D01*
X234710Y406745D02*
X234710Y393015D01*
X234710Y406745D02*
X236690Y406745D01*
X236690Y393015D01*
X234710Y393015D01*
X234710Y393984D02*
X236690Y393984D01*
X236690Y394953D02*
X234710Y394953D01*
X234710Y395922D02*
X236690Y395922D01*
X236690Y396891D02*
X234710Y396891D01*
X234710Y397860D02*
X236690Y397860D01*
X236690Y398829D02*
X234710Y398829D01*
X234710Y399798D02*
X236690Y399798D01*
X236690Y400767D02*
X234710Y400767D01*
X234710Y401736D02*
X236690Y401736D01*
X236690Y402705D02*
X234710Y402705D01*
X234710Y403674D02*
X236690Y403674D01*
X236690Y404643D02*
X234710Y404643D01*
X234710Y405612D02*
X236690Y405612D01*
X236690Y406581D02*
X234710Y406581D01*
X229710Y406745D02*
X229710Y393015D01*
X229710Y406745D02*
X231690Y406745D01*
X231690Y393015D01*
X229710Y393015D01*
X229710Y393984D02*
X231690Y393984D01*
X231690Y394953D02*
X229710Y394953D01*
X229710Y395922D02*
X231690Y395922D01*
X231690Y396891D02*
X229710Y396891D01*
X229710Y397860D02*
X231690Y397860D01*
X231690Y398829D02*
X229710Y398829D01*
X229710Y399798D02*
X231690Y399798D01*
X231690Y400767D02*
X229710Y400767D01*
X229710Y401736D02*
X231690Y401736D01*
X231690Y402705D02*
X229710Y402705D01*
X229710Y403674D02*
X231690Y403674D01*
X231690Y404643D02*
X229710Y404643D01*
X229710Y405612D02*
X231690Y405612D01*
X231690Y406581D02*
X229710Y406581D01*
X224710Y406745D02*
X224710Y393015D01*
X224710Y406745D02*
X226690Y406745D01*
X226690Y393015D01*
X224710Y393015D01*
X224710Y393984D02*
X226690Y393984D01*
X226690Y394953D02*
X224710Y394953D01*
X224710Y395922D02*
X226690Y395922D01*
X226690Y396891D02*
X224710Y396891D01*
X224710Y397860D02*
X226690Y397860D01*
X226690Y398829D02*
X224710Y398829D01*
X224710Y399798D02*
X226690Y399798D01*
X226690Y400767D02*
X224710Y400767D01*
X224710Y401736D02*
X226690Y401736D01*
X226690Y402705D02*
X224710Y402705D01*
X224710Y403674D02*
X226690Y403674D01*
X226690Y404643D02*
X224710Y404643D01*
X224710Y405612D02*
X226690Y405612D01*
X226690Y406581D02*
X224710Y406581D01*
X219710Y406745D02*
X219710Y393015D01*
X219710Y406745D02*
X221690Y406745D01*
X221690Y393015D01*
X219710Y393015D01*
X219710Y393984D02*
X221690Y393984D01*
X221690Y394953D02*
X219710Y394953D01*
X219710Y395922D02*
X221690Y395922D01*
X221690Y396891D02*
X219710Y396891D01*
X219710Y397860D02*
X221690Y397860D01*
X221690Y398829D02*
X219710Y398829D01*
X219710Y399798D02*
X221690Y399798D01*
X221690Y400767D02*
X219710Y400767D01*
X219710Y401736D02*
X221690Y401736D01*
X221690Y402705D02*
X219710Y402705D01*
X219710Y403674D02*
X221690Y403674D01*
X221690Y404643D02*
X219710Y404643D01*
X219710Y405612D02*
X221690Y405612D01*
X221690Y406581D02*
X219710Y406581D01*
X214710Y406745D02*
X214710Y393015D01*
X214710Y406745D02*
X216690Y406745D01*
X216690Y393015D01*
X214710Y393015D01*
X214710Y393984D02*
X216690Y393984D01*
X216690Y394953D02*
X214710Y394953D01*
X214710Y395922D02*
X216690Y395922D01*
X216690Y396891D02*
X214710Y396891D01*
X214710Y397860D02*
X216690Y397860D01*
X216690Y398829D02*
X214710Y398829D01*
X214710Y399798D02*
X216690Y399798D01*
X216690Y400767D02*
X214710Y400767D01*
X214710Y401736D02*
X216690Y401736D01*
X216690Y402705D02*
X214710Y402705D01*
X214710Y403674D02*
X216690Y403674D01*
X216690Y404643D02*
X214710Y404643D01*
X214710Y405612D02*
X216690Y405612D01*
X216690Y406581D02*
X214710Y406581D01*
X209710Y406745D02*
X209710Y393015D01*
X209710Y406745D02*
X211690Y406745D01*
X211690Y393015D01*
X209710Y393015D01*
X209710Y393984D02*
X211690Y393984D01*
X211690Y394953D02*
X209710Y394953D01*
X209710Y395922D02*
X211690Y395922D01*
X211690Y396891D02*
X209710Y396891D01*
X209710Y397860D02*
X211690Y397860D01*
X211690Y398829D02*
X209710Y398829D01*
X209710Y399798D02*
X211690Y399798D01*
X211690Y400767D02*
X209710Y400767D01*
X209710Y401736D02*
X211690Y401736D01*
X211690Y402705D02*
X209710Y402705D01*
X209710Y403674D02*
X211690Y403674D01*
X211690Y404643D02*
X209710Y404643D01*
X209710Y405612D02*
X211690Y405612D01*
X211690Y406581D02*
X209710Y406581D01*
X204710Y406745D02*
X204710Y393015D01*
X204710Y406745D02*
X206690Y406745D01*
X206690Y393015D01*
X204710Y393015D01*
X204710Y393984D02*
X206690Y393984D01*
X206690Y394953D02*
X204710Y394953D01*
X204710Y395922D02*
X206690Y395922D01*
X206690Y396891D02*
X204710Y396891D01*
X204710Y397860D02*
X206690Y397860D01*
X206690Y398829D02*
X204710Y398829D01*
X204710Y399798D02*
X206690Y399798D01*
X206690Y400767D02*
X204710Y400767D01*
X204710Y401736D02*
X206690Y401736D01*
X206690Y402705D02*
X204710Y402705D01*
X204710Y403674D02*
X206690Y403674D01*
X206690Y404643D02*
X204710Y404643D01*
X204710Y405612D02*
X206690Y405612D01*
X206690Y406581D02*
X204710Y406581D01*
X192685Y380990D02*
X178955Y380990D01*
X192685Y380990D02*
X192685Y379010D01*
X178955Y379010D01*
X178955Y380990D01*
X178955Y379979D02*
X192685Y379979D01*
X192685Y380948D02*
X178955Y380948D01*
X178955Y375990D02*
X192685Y375990D01*
X192685Y374010D01*
X178955Y374010D01*
X178955Y375990D01*
X178955Y374979D02*
X192685Y374979D01*
X192685Y375948D02*
X178955Y375948D01*
X178955Y370990D02*
X192685Y370990D01*
X192685Y369010D01*
X178955Y369010D01*
X178955Y370990D01*
X178955Y369979D02*
X192685Y369979D01*
X192685Y370948D02*
X178955Y370948D01*
X178955Y365990D02*
X192685Y365990D01*
X192685Y364010D01*
X178955Y364010D01*
X178955Y365990D01*
X178955Y364979D02*
X192685Y364979D01*
X192685Y365948D02*
X178955Y365948D01*
X178955Y360990D02*
X192685Y360990D01*
X192685Y359010D01*
X178955Y359010D01*
X178955Y360990D01*
X178955Y359979D02*
X192685Y359979D01*
X192685Y360948D02*
X178955Y360948D01*
X178955Y355990D02*
X192685Y355990D01*
X192685Y354010D01*
X178955Y354010D01*
X178955Y355990D01*
X178955Y354979D02*
X192685Y354979D01*
X192685Y355948D02*
X178955Y355948D01*
X178955Y350990D02*
X192685Y350990D01*
X192685Y349010D01*
X178955Y349010D01*
X178955Y350990D01*
X178955Y349979D02*
X192685Y349979D01*
X192685Y350948D02*
X178955Y350948D01*
X178955Y345990D02*
X192685Y345990D01*
X192685Y344010D01*
X178955Y344010D01*
X178955Y345990D01*
X178955Y344979D02*
X192685Y344979D01*
X192685Y345948D02*
X178955Y345948D01*
X178955Y340990D02*
X192685Y340990D01*
X192685Y339010D01*
X178955Y339010D01*
X178955Y340990D01*
X178955Y339979D02*
X192685Y339979D01*
X192685Y340948D02*
X178955Y340948D01*
X178955Y335990D02*
X192685Y335990D01*
X192685Y334010D01*
X178955Y334010D01*
X178955Y335990D01*
X178955Y334979D02*
X192685Y334979D01*
X192685Y335948D02*
X178955Y335948D01*
X178955Y330990D02*
X192685Y330990D01*
X192685Y329010D01*
X178955Y329010D01*
X178955Y330990D01*
X178955Y329979D02*
X192685Y329979D01*
X192685Y330948D02*
X178955Y330948D01*
X178955Y325990D02*
X192685Y325990D01*
X192685Y324010D01*
X178955Y324010D01*
X178955Y325990D01*
X178955Y324979D02*
X192685Y324979D01*
X192685Y325948D02*
X178955Y325948D01*
X178955Y320990D02*
X192685Y320990D01*
X192685Y319010D01*
X178955Y319010D01*
X178955Y320990D01*
X178955Y319979D02*
X192685Y319979D01*
X192685Y320948D02*
X178955Y320948D01*
X178955Y315990D02*
X192685Y315990D01*
X192685Y314010D01*
X178955Y314010D01*
X178955Y315990D01*
X178955Y314979D02*
X192685Y314979D01*
X192685Y315948D02*
X178955Y315948D01*
X178955Y310990D02*
X192685Y310990D01*
X192685Y309010D01*
X178955Y309010D01*
X178955Y310990D01*
X178955Y309979D02*
X192685Y309979D01*
X192685Y310948D02*
X178955Y310948D01*
X178955Y305990D02*
X192685Y305990D01*
X192685Y304010D01*
X178955Y304010D01*
X178955Y305990D01*
X178955Y304979D02*
X192685Y304979D01*
X192685Y305948D02*
X178955Y305948D01*
X204710Y291985D02*
X204710Y278255D01*
X204710Y291985D02*
X206690Y291985D01*
X206690Y278255D01*
X204710Y278255D01*
X204710Y279224D02*
X206690Y279224D01*
X206690Y280193D02*
X204710Y280193D01*
X204710Y281162D02*
X206690Y281162D01*
X206690Y282131D02*
X204710Y282131D01*
X204710Y283100D02*
X206690Y283100D01*
X206690Y284069D02*
X204710Y284069D01*
X204710Y285038D02*
X206690Y285038D01*
X206690Y286007D02*
X204710Y286007D01*
X204710Y286976D02*
X206690Y286976D01*
X206690Y287945D02*
X204710Y287945D01*
X204710Y288914D02*
X206690Y288914D01*
X206690Y289883D02*
X204710Y289883D01*
X204710Y290852D02*
X206690Y290852D01*
X206690Y291821D02*
X204710Y291821D01*
X209710Y291985D02*
X209710Y278255D01*
X209710Y291985D02*
X211690Y291985D01*
X211690Y278255D01*
X209710Y278255D01*
X209710Y279224D02*
X211690Y279224D01*
X211690Y280193D02*
X209710Y280193D01*
X209710Y281162D02*
X211690Y281162D01*
X211690Y282131D02*
X209710Y282131D01*
X209710Y283100D02*
X211690Y283100D01*
X211690Y284069D02*
X209710Y284069D01*
X209710Y285038D02*
X211690Y285038D01*
X211690Y286007D02*
X209710Y286007D01*
X209710Y286976D02*
X211690Y286976D01*
X211690Y287945D02*
X209710Y287945D01*
X209710Y288914D02*
X211690Y288914D01*
X211690Y289883D02*
X209710Y289883D01*
X209710Y290852D02*
X211690Y290852D01*
X211690Y291821D02*
X209710Y291821D01*
X214710Y291985D02*
X214710Y278255D01*
X214710Y291985D02*
X216690Y291985D01*
X216690Y278255D01*
X214710Y278255D01*
X214710Y279224D02*
X216690Y279224D01*
X216690Y280193D02*
X214710Y280193D01*
X214710Y281162D02*
X216690Y281162D01*
X216690Y282131D02*
X214710Y282131D01*
X214710Y283100D02*
X216690Y283100D01*
X216690Y284069D02*
X214710Y284069D01*
X214710Y285038D02*
X216690Y285038D01*
X216690Y286007D02*
X214710Y286007D01*
X214710Y286976D02*
X216690Y286976D01*
X216690Y287945D02*
X214710Y287945D01*
X214710Y288914D02*
X216690Y288914D01*
X216690Y289883D02*
X214710Y289883D01*
X214710Y290852D02*
X216690Y290852D01*
X216690Y291821D02*
X214710Y291821D01*
X219710Y291985D02*
X219710Y278255D01*
X219710Y291985D02*
X221690Y291985D01*
X221690Y278255D01*
X219710Y278255D01*
X219710Y279224D02*
X221690Y279224D01*
X221690Y280193D02*
X219710Y280193D01*
X219710Y281162D02*
X221690Y281162D01*
X221690Y282131D02*
X219710Y282131D01*
X219710Y283100D02*
X221690Y283100D01*
X221690Y284069D02*
X219710Y284069D01*
X219710Y285038D02*
X221690Y285038D01*
X221690Y286007D02*
X219710Y286007D01*
X219710Y286976D02*
X221690Y286976D01*
X221690Y287945D02*
X219710Y287945D01*
X219710Y288914D02*
X221690Y288914D01*
X221690Y289883D02*
X219710Y289883D01*
X219710Y290852D02*
X221690Y290852D01*
X221690Y291821D02*
X219710Y291821D01*
X224710Y291985D02*
X224710Y278255D01*
X224710Y291985D02*
X226690Y291985D01*
X226690Y278255D01*
X224710Y278255D01*
X224710Y279224D02*
X226690Y279224D01*
X226690Y280193D02*
X224710Y280193D01*
X224710Y281162D02*
X226690Y281162D01*
X226690Y282131D02*
X224710Y282131D01*
X224710Y283100D02*
X226690Y283100D01*
X226690Y284069D02*
X224710Y284069D01*
X224710Y285038D02*
X226690Y285038D01*
X226690Y286007D02*
X224710Y286007D01*
X224710Y286976D02*
X226690Y286976D01*
X226690Y287945D02*
X224710Y287945D01*
X224710Y288914D02*
X226690Y288914D01*
X226690Y289883D02*
X224710Y289883D01*
X224710Y290852D02*
X226690Y290852D01*
X226690Y291821D02*
X224710Y291821D01*
X229710Y291985D02*
X229710Y278255D01*
X229710Y291985D02*
X231690Y291985D01*
X231690Y278255D01*
X229710Y278255D01*
X229710Y279224D02*
X231690Y279224D01*
X231690Y280193D02*
X229710Y280193D01*
X229710Y281162D02*
X231690Y281162D01*
X231690Y282131D02*
X229710Y282131D01*
X229710Y283100D02*
X231690Y283100D01*
X231690Y284069D02*
X229710Y284069D01*
X229710Y285038D02*
X231690Y285038D01*
X231690Y286007D02*
X229710Y286007D01*
X229710Y286976D02*
X231690Y286976D01*
X231690Y287945D02*
X229710Y287945D01*
X229710Y288914D02*
X231690Y288914D01*
X231690Y289883D02*
X229710Y289883D01*
X229710Y290852D02*
X231690Y290852D01*
X231690Y291821D02*
X229710Y291821D01*
X234710Y291985D02*
X234710Y278255D01*
X234710Y291985D02*
X236690Y291985D01*
X236690Y278255D01*
X234710Y278255D01*
X234710Y279224D02*
X236690Y279224D01*
X236690Y280193D02*
X234710Y280193D01*
X234710Y281162D02*
X236690Y281162D01*
X236690Y282131D02*
X234710Y282131D01*
X234710Y283100D02*
X236690Y283100D01*
X236690Y284069D02*
X234710Y284069D01*
X234710Y285038D02*
X236690Y285038D01*
X236690Y286007D02*
X234710Y286007D01*
X234710Y286976D02*
X236690Y286976D01*
X236690Y287945D02*
X234710Y287945D01*
X234710Y288914D02*
X236690Y288914D01*
X236690Y289883D02*
X234710Y289883D01*
X234710Y290852D02*
X236690Y290852D01*
X236690Y291821D02*
X234710Y291821D01*
X239710Y291985D02*
X239710Y278255D01*
X239710Y291985D02*
X241690Y291985D01*
X241690Y278255D01*
X239710Y278255D01*
X239710Y279224D02*
X241690Y279224D01*
X241690Y280193D02*
X239710Y280193D01*
X239710Y281162D02*
X241690Y281162D01*
X241690Y282131D02*
X239710Y282131D01*
X239710Y283100D02*
X241690Y283100D01*
X241690Y284069D02*
X239710Y284069D01*
X239710Y285038D02*
X241690Y285038D01*
X241690Y286007D02*
X239710Y286007D01*
X239710Y286976D02*
X241690Y286976D01*
X241690Y287945D02*
X239710Y287945D01*
X239710Y288914D02*
X241690Y288914D01*
X241690Y289883D02*
X239710Y289883D01*
X239710Y290852D02*
X241690Y290852D01*
X241690Y291821D02*
X239710Y291821D01*
X244710Y291985D02*
X244710Y278255D01*
X244710Y291985D02*
X246690Y291985D01*
X246690Y278255D01*
X244710Y278255D01*
X244710Y279224D02*
X246690Y279224D01*
X246690Y280193D02*
X244710Y280193D01*
X244710Y281162D02*
X246690Y281162D01*
X246690Y282131D02*
X244710Y282131D01*
X244710Y283100D02*
X246690Y283100D01*
X246690Y284069D02*
X244710Y284069D01*
X244710Y285038D02*
X246690Y285038D01*
X246690Y286007D02*
X244710Y286007D01*
X244710Y286976D02*
X246690Y286976D01*
X246690Y287945D02*
X244710Y287945D01*
X244710Y288914D02*
X246690Y288914D01*
X246690Y289883D02*
X244710Y289883D01*
X244710Y290852D02*
X246690Y290852D01*
X246690Y291821D02*
X244710Y291821D01*
X249710Y291985D02*
X249710Y278255D01*
X249710Y291985D02*
X251690Y291985D01*
X251690Y278255D01*
X249710Y278255D01*
X249710Y279224D02*
X251690Y279224D01*
X251690Y280193D02*
X249710Y280193D01*
X249710Y281162D02*
X251690Y281162D01*
X251690Y282131D02*
X249710Y282131D01*
X249710Y283100D02*
X251690Y283100D01*
X251690Y284069D02*
X249710Y284069D01*
X249710Y285038D02*
X251690Y285038D01*
X251690Y286007D02*
X249710Y286007D01*
X249710Y286976D02*
X251690Y286976D01*
X251690Y287945D02*
X249710Y287945D01*
X249710Y288914D02*
X251690Y288914D01*
X251690Y289883D02*
X249710Y289883D01*
X249710Y290852D02*
X251690Y290852D01*
X251690Y291821D02*
X249710Y291821D01*
X254710Y291985D02*
X254710Y278255D01*
X254710Y291985D02*
X256690Y291985D01*
X256690Y278255D01*
X254710Y278255D01*
X254710Y279224D02*
X256690Y279224D01*
X256690Y280193D02*
X254710Y280193D01*
X254710Y281162D02*
X256690Y281162D01*
X256690Y282131D02*
X254710Y282131D01*
X254710Y283100D02*
X256690Y283100D01*
X256690Y284069D02*
X254710Y284069D01*
X254710Y285038D02*
X256690Y285038D01*
X256690Y286007D02*
X254710Y286007D01*
X254710Y286976D02*
X256690Y286976D01*
X256690Y287945D02*
X254710Y287945D01*
X254710Y288914D02*
X256690Y288914D01*
X256690Y289883D02*
X254710Y289883D01*
X254710Y290852D02*
X256690Y290852D01*
X256690Y291821D02*
X254710Y291821D01*
X259710Y291985D02*
X259710Y278255D01*
X259710Y291985D02*
X261690Y291985D01*
X261690Y278255D01*
X259710Y278255D01*
X259710Y279224D02*
X261690Y279224D01*
X261690Y280193D02*
X259710Y280193D01*
X259710Y281162D02*
X261690Y281162D01*
X261690Y282131D02*
X259710Y282131D01*
X259710Y283100D02*
X261690Y283100D01*
X261690Y284069D02*
X259710Y284069D01*
X259710Y285038D02*
X261690Y285038D01*
X261690Y286007D02*
X259710Y286007D01*
X259710Y286976D02*
X261690Y286976D01*
X261690Y287945D02*
X259710Y287945D01*
X259710Y288914D02*
X261690Y288914D01*
X261690Y289883D02*
X259710Y289883D01*
X259710Y290852D02*
X261690Y290852D01*
X261690Y291821D02*
X259710Y291821D01*
X264710Y291985D02*
X264710Y278255D01*
X264710Y291985D02*
X266690Y291985D01*
X266690Y278255D01*
X264710Y278255D01*
X264710Y279224D02*
X266690Y279224D01*
X266690Y280193D02*
X264710Y280193D01*
X264710Y281162D02*
X266690Y281162D01*
X266690Y282131D02*
X264710Y282131D01*
X264710Y283100D02*
X266690Y283100D01*
X266690Y284069D02*
X264710Y284069D01*
X264710Y285038D02*
X266690Y285038D01*
X266690Y286007D02*
X264710Y286007D01*
X264710Y286976D02*
X266690Y286976D01*
X266690Y287945D02*
X264710Y287945D01*
X264710Y288914D02*
X266690Y288914D01*
X266690Y289883D02*
X264710Y289883D01*
X264710Y290852D02*
X266690Y290852D01*
X266690Y291821D02*
X264710Y291821D01*
X269710Y291985D02*
X269710Y278255D01*
X269710Y291985D02*
X271690Y291985D01*
X271690Y278255D01*
X269710Y278255D01*
X269710Y279224D02*
X271690Y279224D01*
X271690Y280193D02*
X269710Y280193D01*
X269710Y281162D02*
X271690Y281162D01*
X271690Y282131D02*
X269710Y282131D01*
X269710Y283100D02*
X271690Y283100D01*
X271690Y284069D02*
X269710Y284069D01*
X269710Y285038D02*
X271690Y285038D01*
X271690Y286007D02*
X269710Y286007D01*
X269710Y286976D02*
X271690Y286976D01*
X271690Y287945D02*
X269710Y287945D01*
X269710Y288914D02*
X271690Y288914D01*
X271690Y289883D02*
X269710Y289883D01*
X269710Y290852D02*
X271690Y290852D01*
X271690Y291821D02*
X269710Y291821D01*
X274710Y291985D02*
X274710Y278255D01*
X274710Y291985D02*
X276690Y291985D01*
X276690Y278255D01*
X274710Y278255D01*
X274710Y279224D02*
X276690Y279224D01*
X276690Y280193D02*
X274710Y280193D01*
X274710Y281162D02*
X276690Y281162D01*
X276690Y282131D02*
X274710Y282131D01*
X274710Y283100D02*
X276690Y283100D01*
X276690Y284069D02*
X274710Y284069D01*
X274710Y285038D02*
X276690Y285038D01*
X276690Y286007D02*
X274710Y286007D01*
X274710Y286976D02*
X276690Y286976D01*
X276690Y287945D02*
X274710Y287945D01*
X274710Y288914D02*
X276690Y288914D01*
X276690Y289883D02*
X274710Y289883D01*
X274710Y290852D02*
X276690Y290852D01*
X276690Y291821D02*
X274710Y291821D01*
X279710Y291985D02*
X279710Y278255D01*
X279710Y291985D02*
X281690Y291985D01*
X281690Y278255D01*
X279710Y278255D01*
X279710Y279224D02*
X281690Y279224D01*
X281690Y280193D02*
X279710Y280193D01*
X279710Y281162D02*
X281690Y281162D01*
X281690Y282131D02*
X279710Y282131D01*
X279710Y283100D02*
X281690Y283100D01*
X281690Y284069D02*
X279710Y284069D01*
X279710Y285038D02*
X281690Y285038D01*
X281690Y286007D02*
X279710Y286007D01*
X279710Y286976D02*
X281690Y286976D01*
X281690Y287945D02*
X279710Y287945D01*
X279710Y288914D02*
X281690Y288914D01*
X281690Y289883D02*
X279710Y289883D01*
X279710Y290852D02*
X281690Y290852D01*
X281690Y291821D02*
X279710Y291821D01*
X291990Y147090D02*
X291990Y134110D01*
X287010Y134110D01*
X287010Y147090D01*
X291990Y147090D01*
X291990Y135079D02*
X287010Y135079D01*
X287010Y136048D02*
X291990Y136048D01*
X291990Y137017D02*
X287010Y137017D01*
X287010Y137986D02*
X291990Y137986D01*
X291990Y138955D02*
X287010Y138955D01*
X287010Y139924D02*
X291990Y139924D01*
X291990Y140893D02*
X287010Y140893D01*
X287010Y141862D02*
X291990Y141862D01*
X291990Y142831D02*
X287010Y142831D01*
X287010Y143800D02*
X291990Y143800D01*
X291990Y144769D02*
X287010Y144769D01*
X287010Y145738D02*
X291990Y145738D01*
X291990Y146707D02*
X287010Y146707D01*
X301490Y147090D02*
X301490Y134110D01*
X296510Y134110D01*
X296510Y147090D01*
X301490Y147090D01*
X301490Y135079D02*
X296510Y135079D01*
X296510Y136048D02*
X301490Y136048D01*
X301490Y137017D02*
X296510Y137017D01*
X296510Y137986D02*
X301490Y137986D01*
X301490Y138955D02*
X296510Y138955D01*
X296510Y139924D02*
X301490Y139924D01*
X301490Y140893D02*
X296510Y140893D01*
X296510Y141862D02*
X301490Y141862D01*
X301490Y142831D02*
X296510Y142831D01*
X296510Y143800D02*
X301490Y143800D01*
X301490Y144769D02*
X296510Y144769D01*
X296510Y145738D02*
X301490Y145738D01*
X301490Y146707D02*
X296510Y146707D01*
X310990Y147090D02*
X310990Y134110D01*
X306010Y134110D01*
X306010Y147090D01*
X310990Y147090D01*
X310990Y135079D02*
X306010Y135079D01*
X306010Y136048D02*
X310990Y136048D01*
X310990Y137017D02*
X306010Y137017D01*
X306010Y137986D02*
X310990Y137986D01*
X310990Y138955D02*
X306010Y138955D01*
X306010Y139924D02*
X310990Y139924D01*
X310990Y140893D02*
X306010Y140893D01*
X306010Y141862D02*
X310990Y141862D01*
X310990Y142831D02*
X306010Y142831D01*
X306010Y143800D02*
X310990Y143800D01*
X310990Y144769D02*
X306010Y144769D01*
X306010Y145738D02*
X310990Y145738D01*
X310990Y146707D02*
X306010Y146707D01*
X310990Y159110D02*
X310990Y172090D01*
X310990Y159110D02*
X306010Y159110D01*
X306010Y172090D01*
X310990Y172090D01*
X310990Y160079D02*
X306010Y160079D01*
X306010Y161048D02*
X310990Y161048D01*
X310990Y162017D02*
X306010Y162017D01*
X306010Y162986D02*
X310990Y162986D01*
X310990Y163955D02*
X306010Y163955D01*
X306010Y164924D02*
X310990Y164924D01*
X310990Y165893D02*
X306010Y165893D01*
X306010Y166862D02*
X310990Y166862D01*
X310990Y167831D02*
X306010Y167831D01*
X306010Y168800D02*
X310990Y168800D01*
X310990Y169769D02*
X306010Y169769D01*
X306010Y170738D02*
X310990Y170738D01*
X310990Y171707D02*
X306010Y171707D01*
X301490Y172090D02*
X301490Y159110D01*
X296510Y159110D01*
X296510Y172090D01*
X301490Y172090D01*
X301490Y160079D02*
X296510Y160079D01*
X296510Y161048D02*
X301490Y161048D01*
X301490Y162017D02*
X296510Y162017D01*
X296510Y162986D02*
X301490Y162986D01*
X301490Y163955D02*
X296510Y163955D01*
X296510Y164924D02*
X301490Y164924D01*
X301490Y165893D02*
X296510Y165893D01*
X296510Y166862D02*
X301490Y166862D01*
X301490Y167831D02*
X296510Y167831D01*
X296510Y168800D02*
X301490Y168800D01*
X301490Y169769D02*
X296510Y169769D01*
X296510Y170738D02*
X301490Y170738D01*
X301490Y171707D02*
X296510Y171707D01*
X291990Y172090D02*
X291990Y159110D01*
X287010Y159110D01*
X287010Y172090D01*
X291990Y172090D01*
X291990Y160079D02*
X287010Y160079D01*
X287010Y161048D02*
X291990Y161048D01*
X291990Y162017D02*
X287010Y162017D01*
X287010Y162986D02*
X291990Y162986D01*
X291990Y163955D02*
X287010Y163955D01*
X287010Y164924D02*
X291990Y164924D01*
X291990Y165893D02*
X287010Y165893D01*
X287010Y166862D02*
X291990Y166862D01*
X291990Y167831D02*
X287010Y167831D01*
X287010Y168800D02*
X291990Y168800D01*
X291990Y169769D02*
X287010Y169769D01*
X287010Y170738D02*
X291990Y170738D01*
X291990Y171707D02*
X287010Y171707D01*
D20*
X555372Y195172D02*
X555372Y207628D01*
X563828Y207628D01*
X563828Y195172D01*
X555372Y195172D01*
X555372Y196165D02*
X563828Y196165D01*
X563828Y197158D02*
X555372Y197158D01*
X555372Y198151D02*
X563828Y198151D01*
X563828Y199144D02*
X555372Y199144D01*
X555372Y200137D02*
X563828Y200137D01*
X563828Y201130D02*
X555372Y201130D01*
X555372Y202123D02*
X563828Y202123D01*
X563828Y203116D02*
X555372Y203116D01*
X555372Y204109D02*
X563828Y204109D01*
X563828Y205102D02*
X555372Y205102D01*
X555372Y206095D02*
X563828Y206095D01*
X563828Y207088D02*
X555372Y207088D01*
X523372Y207628D02*
X523372Y195172D01*
X523372Y207628D02*
X531828Y207628D01*
X531828Y195172D01*
X523372Y195172D01*
X523372Y196165D02*
X531828Y196165D01*
X531828Y197158D02*
X523372Y197158D01*
X523372Y198151D02*
X531828Y198151D01*
X531828Y199144D02*
X523372Y199144D01*
X523372Y200137D02*
X531828Y200137D01*
X531828Y201130D02*
X523372Y201130D01*
X523372Y202123D02*
X531828Y202123D01*
X531828Y203116D02*
X523372Y203116D01*
X523372Y204109D02*
X531828Y204109D01*
X531828Y205102D02*
X523372Y205102D01*
X523372Y206095D02*
X531828Y206095D01*
X531828Y207088D02*
X523372Y207088D01*
X523372Y159628D02*
X523372Y147172D01*
X523372Y159628D02*
X531828Y159628D01*
X531828Y147172D01*
X523372Y147172D01*
X523372Y148165D02*
X531828Y148165D01*
X531828Y149158D02*
X523372Y149158D01*
X523372Y150151D02*
X531828Y150151D01*
X531828Y151144D02*
X523372Y151144D01*
X523372Y152137D02*
X531828Y152137D01*
X531828Y153130D02*
X523372Y153130D01*
X523372Y154123D02*
X531828Y154123D01*
X531828Y155116D02*
X523372Y155116D01*
X523372Y156109D02*
X531828Y156109D01*
X531828Y157102D02*
X523372Y157102D01*
X523372Y158095D02*
X531828Y158095D01*
X531828Y159088D02*
X523372Y159088D01*
X555372Y159628D02*
X555372Y147172D01*
X555372Y159628D02*
X563828Y159628D01*
X563828Y147172D01*
X555372Y147172D01*
X555372Y148165D02*
X563828Y148165D01*
X563828Y149158D02*
X555372Y149158D01*
X555372Y150151D02*
X563828Y150151D01*
X563828Y151144D02*
X555372Y151144D01*
X555372Y152137D02*
X563828Y152137D01*
X563828Y153130D02*
X555372Y153130D01*
X555372Y154123D02*
X563828Y154123D01*
X563828Y155116D02*
X555372Y155116D01*
X555372Y156109D02*
X563828Y156109D01*
X563828Y157102D02*
X555372Y157102D01*
X555372Y158095D02*
X563828Y158095D01*
X563828Y159088D02*
X555372Y159088D01*
X553872Y282872D02*
X553872Y295328D01*
X562328Y295328D01*
X562328Y282872D01*
X553872Y282872D01*
X553872Y283865D02*
X562328Y283865D01*
X562328Y284858D02*
X553872Y284858D01*
X553872Y285851D02*
X562328Y285851D01*
X562328Y286844D02*
X553872Y286844D01*
X553872Y287837D02*
X562328Y287837D01*
X562328Y288830D02*
X553872Y288830D01*
X553872Y289823D02*
X562328Y289823D01*
X562328Y290816D02*
X553872Y290816D01*
X553872Y291809D02*
X562328Y291809D01*
X562328Y292802D02*
X553872Y292802D01*
X553872Y293795D02*
X562328Y293795D01*
X562328Y294788D02*
X553872Y294788D01*
X521872Y295328D02*
X521872Y282872D01*
X521872Y295328D02*
X530328Y295328D01*
X530328Y282872D01*
X521872Y282872D01*
X521872Y283865D02*
X530328Y283865D01*
X530328Y284858D02*
X521872Y284858D01*
X521872Y285851D02*
X530328Y285851D01*
X530328Y286844D02*
X521872Y286844D01*
X521872Y287837D02*
X530328Y287837D01*
X530328Y288830D02*
X521872Y288830D01*
X521872Y289823D02*
X530328Y289823D01*
X530328Y290816D02*
X521872Y290816D01*
X521872Y291809D02*
X530328Y291809D01*
X530328Y292802D02*
X521872Y292802D01*
X521872Y293795D02*
X530328Y293795D01*
X530328Y294788D02*
X521872Y294788D01*
X521872Y247328D02*
X521872Y234872D01*
X521872Y247328D02*
X530328Y247328D01*
X530328Y234872D01*
X521872Y234872D01*
X521872Y235865D02*
X530328Y235865D01*
X530328Y236858D02*
X521872Y236858D01*
X521872Y237851D02*
X530328Y237851D01*
X530328Y238844D02*
X521872Y238844D01*
X521872Y239837D02*
X530328Y239837D01*
X530328Y240830D02*
X521872Y240830D01*
X521872Y241823D02*
X530328Y241823D01*
X530328Y242816D02*
X521872Y242816D01*
X521872Y243809D02*
X530328Y243809D01*
X530328Y244802D02*
X521872Y244802D01*
X521872Y245795D02*
X530328Y245795D01*
X530328Y246788D02*
X521872Y246788D01*
X553872Y247328D02*
X553872Y234872D01*
X553872Y247328D02*
X562328Y247328D01*
X562328Y234872D01*
X553872Y234872D01*
X553872Y235865D02*
X562328Y235865D01*
X562328Y236858D02*
X553872Y236858D01*
X553872Y237851D02*
X562328Y237851D01*
X562328Y238844D02*
X553872Y238844D01*
X553872Y239837D02*
X562328Y239837D01*
X562328Y240830D02*
X553872Y240830D01*
X553872Y241823D02*
X562328Y241823D01*
X562328Y242816D02*
X553872Y242816D01*
X553872Y243809D02*
X562328Y243809D01*
X562328Y244802D02*
X553872Y244802D01*
X553872Y245795D02*
X562328Y245795D01*
X562328Y246788D02*
X553872Y246788D01*
X635628Y247428D02*
X635628Y234972D01*
X627172Y234972D01*
X627172Y247428D01*
X635628Y247428D01*
X635628Y235965D02*
X627172Y235965D01*
X627172Y236958D02*
X635628Y236958D01*
X635628Y237951D02*
X627172Y237951D01*
X627172Y238944D02*
X635628Y238944D01*
X635628Y239937D02*
X627172Y239937D01*
X627172Y240930D02*
X635628Y240930D01*
X635628Y241923D02*
X627172Y241923D01*
X627172Y242916D02*
X635628Y242916D01*
X635628Y243909D02*
X627172Y243909D01*
X627172Y244902D02*
X635628Y244902D01*
X635628Y245895D02*
X627172Y245895D01*
X627172Y246888D02*
X635628Y246888D01*
X667628Y247428D02*
X667628Y234972D01*
X659172Y234972D01*
X659172Y247428D01*
X667628Y247428D01*
X667628Y235965D02*
X659172Y235965D01*
X659172Y236958D02*
X667628Y236958D01*
X667628Y237951D02*
X659172Y237951D01*
X659172Y238944D02*
X667628Y238944D01*
X667628Y239937D02*
X659172Y239937D01*
X659172Y240930D02*
X667628Y240930D01*
X667628Y241923D02*
X659172Y241923D01*
X659172Y242916D02*
X667628Y242916D01*
X667628Y243909D02*
X659172Y243909D01*
X659172Y244902D02*
X667628Y244902D01*
X667628Y245895D02*
X659172Y245895D01*
X659172Y246888D02*
X667628Y246888D01*
X667628Y282972D02*
X667628Y295428D01*
X667628Y282972D02*
X659172Y282972D01*
X659172Y295428D01*
X667628Y295428D01*
X667628Y283965D02*
X659172Y283965D01*
X659172Y284958D02*
X667628Y284958D01*
X667628Y285951D02*
X659172Y285951D01*
X659172Y286944D02*
X667628Y286944D01*
X667628Y287937D02*
X659172Y287937D01*
X659172Y288930D02*
X667628Y288930D01*
X667628Y289923D02*
X659172Y289923D01*
X659172Y290916D02*
X667628Y290916D01*
X667628Y291909D02*
X659172Y291909D01*
X659172Y292902D02*
X667628Y292902D01*
X667628Y293895D02*
X659172Y293895D01*
X659172Y294888D02*
X667628Y294888D01*
X635628Y295428D02*
X635628Y282972D01*
X627172Y282972D01*
X627172Y295428D01*
X635628Y295428D01*
X635628Y283965D02*
X627172Y283965D01*
X627172Y284958D02*
X635628Y284958D01*
X635628Y285951D02*
X627172Y285951D01*
X627172Y286944D02*
X635628Y286944D01*
X635628Y287937D02*
X627172Y287937D01*
X627172Y288930D02*
X635628Y288930D01*
X635628Y289923D02*
X627172Y289923D01*
X627172Y290916D02*
X635628Y290916D01*
X635628Y291909D02*
X627172Y291909D01*
X627172Y292902D02*
X635628Y292902D01*
X635628Y293895D02*
X627172Y293895D01*
X627172Y294888D02*
X635628Y294888D01*
X635228Y160628D02*
X635228Y148172D01*
X626772Y148172D01*
X626772Y160628D01*
X635228Y160628D01*
X635228Y149165D02*
X626772Y149165D01*
X626772Y150158D02*
X635228Y150158D01*
X635228Y151151D02*
X626772Y151151D01*
X626772Y152144D02*
X635228Y152144D01*
X635228Y153137D02*
X626772Y153137D01*
X626772Y154130D02*
X635228Y154130D01*
X635228Y155123D02*
X626772Y155123D01*
X626772Y156116D02*
X635228Y156116D01*
X635228Y157109D02*
X626772Y157109D01*
X626772Y158102D02*
X635228Y158102D01*
X635228Y159095D02*
X626772Y159095D01*
X626772Y160088D02*
X635228Y160088D01*
X667228Y160628D02*
X667228Y148172D01*
X658772Y148172D01*
X658772Y160628D01*
X667228Y160628D01*
X667228Y149165D02*
X658772Y149165D01*
X658772Y150158D02*
X667228Y150158D01*
X667228Y151151D02*
X658772Y151151D01*
X658772Y152144D02*
X667228Y152144D01*
X667228Y153137D02*
X658772Y153137D01*
X658772Y154130D02*
X667228Y154130D01*
X667228Y155123D02*
X658772Y155123D01*
X658772Y156116D02*
X667228Y156116D01*
X667228Y157109D02*
X658772Y157109D01*
X658772Y158102D02*
X667228Y158102D01*
X667228Y159095D02*
X658772Y159095D01*
X658772Y160088D02*
X667228Y160088D01*
X667228Y196172D02*
X667228Y208628D01*
X667228Y196172D02*
X658772Y196172D01*
X658772Y208628D01*
X667228Y208628D01*
X667228Y197165D02*
X658772Y197165D01*
X658772Y198158D02*
X667228Y198158D01*
X667228Y199151D02*
X658772Y199151D01*
X658772Y200144D02*
X667228Y200144D01*
X667228Y201137D02*
X658772Y201137D01*
X658772Y202130D02*
X667228Y202130D01*
X667228Y203123D02*
X658772Y203123D01*
X658772Y204116D02*
X667228Y204116D01*
X667228Y205109D02*
X658772Y205109D01*
X658772Y206102D02*
X667228Y206102D01*
X667228Y207095D02*
X658772Y207095D01*
X658772Y208088D02*
X667228Y208088D01*
X635228Y208628D02*
X635228Y196172D01*
X626772Y196172D01*
X626772Y208628D01*
X635228Y208628D01*
X635228Y197165D02*
X626772Y197165D01*
X626772Y198158D02*
X635228Y198158D01*
X635228Y199151D02*
X626772Y199151D01*
X626772Y200144D02*
X635228Y200144D01*
X635228Y201137D02*
X626772Y201137D01*
X626772Y202130D02*
X635228Y202130D01*
X635228Y203123D02*
X626772Y203123D01*
X626772Y204116D02*
X635228Y204116D01*
X635228Y205109D02*
X626772Y205109D01*
X626772Y206102D02*
X635228Y206102D01*
X635228Y207095D02*
X626772Y207095D01*
X626772Y208088D02*
X635228Y208088D01*
D10*
X737400Y383900D03*
X737400Y409300D03*
X737400Y434700D03*
X737400Y460100D03*
X737400Y485500D03*
X737400Y510900D03*
X737400Y536300D03*
X737400Y561700D03*
X737400Y587100D03*
X737400Y612500D03*
X737400Y637900D03*
X737400Y663300D03*
X737400Y688700D03*
X737400Y714100D03*
X68900Y330300D03*
X68900Y355700D03*
X68900Y381100D03*
X68900Y406500D03*
X68900Y431900D03*
X68900Y457300D03*
X910100Y105200D03*
X910100Y79800D03*
D21*
X148200Y631400D03*
D10*
X148200Y656800D03*
X148200Y682200D03*
X148200Y707600D03*
X281200Y535300D03*
X281200Y560700D03*
X281200Y586100D03*
X281200Y611500D03*
X281200Y636900D03*
X281200Y662300D03*
D22*
X869958Y136355D02*
X880702Y136355D01*
X869958Y136355D02*
X869958Y172245D01*
X880702Y172245D01*
X880702Y136355D01*
X880702Y137489D02*
X869958Y137489D01*
X869958Y138623D02*
X880702Y138623D01*
X880702Y139757D02*
X869958Y139757D01*
X869958Y140891D02*
X880702Y140891D01*
X880702Y142025D02*
X869958Y142025D01*
X869958Y143159D02*
X880702Y143159D01*
X880702Y144293D02*
X869958Y144293D01*
X869958Y145427D02*
X880702Y145427D01*
X880702Y146561D02*
X869958Y146561D01*
X869958Y147695D02*
X880702Y147695D01*
X880702Y148829D02*
X869958Y148829D01*
X869958Y149963D02*
X880702Y149963D01*
X880702Y151097D02*
X869958Y151097D01*
X869958Y152231D02*
X880702Y152231D01*
X880702Y153365D02*
X869958Y153365D01*
X869958Y154499D02*
X880702Y154499D01*
X880702Y155633D02*
X869958Y155633D01*
X869958Y156767D02*
X880702Y156767D01*
X880702Y157901D02*
X869958Y157901D01*
X869958Y159035D02*
X880702Y159035D01*
X880702Y160169D02*
X869958Y160169D01*
X869958Y161303D02*
X880702Y161303D01*
X880702Y162437D02*
X869958Y162437D01*
X869958Y163571D02*
X880702Y163571D01*
X880702Y164705D02*
X869958Y164705D01*
X869958Y165839D02*
X880702Y165839D01*
X880702Y166973D02*
X869958Y166973D01*
X869958Y168107D02*
X880702Y168107D01*
X880702Y169241D02*
X869958Y169241D01*
X869958Y170375D02*
X880702Y170375D01*
X880702Y171509D02*
X869958Y171509D01*
X897898Y136355D02*
X908642Y136355D01*
X897898Y136355D02*
X897898Y172245D01*
X908642Y172245D01*
X908642Y136355D01*
X908642Y137489D02*
X897898Y137489D01*
X897898Y138623D02*
X908642Y138623D01*
X908642Y139757D02*
X897898Y139757D01*
X897898Y140891D02*
X908642Y140891D01*
X908642Y142025D02*
X897898Y142025D01*
X897898Y143159D02*
X908642Y143159D01*
X908642Y144293D02*
X897898Y144293D01*
X897898Y145427D02*
X908642Y145427D01*
X908642Y146561D02*
X897898Y146561D01*
X897898Y147695D02*
X908642Y147695D01*
X908642Y148829D02*
X897898Y148829D01*
X897898Y149963D02*
X908642Y149963D01*
X908642Y151097D02*
X897898Y151097D01*
X897898Y152231D02*
X908642Y152231D01*
X908642Y153365D02*
X897898Y153365D01*
X897898Y154499D02*
X908642Y154499D01*
X908642Y155633D02*
X897898Y155633D01*
X897898Y156767D02*
X908642Y156767D01*
X908642Y157901D02*
X897898Y157901D01*
X897898Y159035D02*
X908642Y159035D01*
X908642Y160169D02*
X897898Y160169D01*
X897898Y161303D02*
X908642Y161303D01*
X908642Y162437D02*
X897898Y162437D01*
X897898Y163571D02*
X908642Y163571D01*
X908642Y164705D02*
X897898Y164705D01*
X897898Y165839D02*
X908642Y165839D01*
X908642Y166973D02*
X897898Y166973D01*
X897898Y168107D02*
X908642Y168107D01*
X908642Y169241D02*
X897898Y169241D01*
X897898Y170375D02*
X908642Y170375D01*
X908642Y171509D02*
X897898Y171509D01*
D10*
X918000Y323200D03*
X892600Y323200D03*
X138700Y147300D03*
X138700Y172700D03*
X187700Y147100D03*
X187700Y172500D03*
X892400Y369800D03*
X917800Y369800D03*
X867800Y370200D03*
X842400Y370200D03*
X842000Y322300D03*
X867400Y322300D03*
X867700Y247700D03*
X842300Y247700D03*
X547800Y440400D03*
X547800Y415000D03*
D23*
X810700Y140500D03*
D24*
X810700Y93500D03*
D23*
X810700Y46500D03*
D13*
X626520Y460820D02*
X626520Y467780D01*
X637480Y467780D01*
X637480Y460820D01*
X626520Y460820D01*
X626520Y461808D02*
X637480Y461808D01*
X637480Y462796D02*
X626520Y462796D01*
X626520Y463784D02*
X637480Y463784D01*
X637480Y464772D02*
X626520Y464772D01*
X626520Y465760D02*
X637480Y465760D01*
X637480Y466748D02*
X626520Y466748D01*
X626520Y467736D02*
X637480Y467736D01*
X626520Y449780D02*
X626520Y442820D01*
X626520Y449780D02*
X637480Y449780D01*
X637480Y442820D01*
X626520Y442820D01*
X626520Y443808D02*
X637480Y443808D01*
X637480Y444796D02*
X626520Y444796D01*
X626520Y445784D02*
X637480Y445784D01*
X637480Y446772D02*
X626520Y446772D01*
X626520Y447760D02*
X637480Y447760D01*
X637480Y448748D02*
X626520Y448748D01*
X626520Y449736D02*
X637480Y449736D01*
X292820Y115380D02*
X292820Y108420D01*
X292820Y115380D02*
X303780Y115380D01*
X303780Y108420D01*
X292820Y108420D01*
X292820Y109408D02*
X303780Y109408D01*
X303780Y110396D02*
X292820Y110396D01*
X292820Y111384D02*
X303780Y111384D01*
X303780Y112372D02*
X292820Y112372D01*
X292820Y113360D02*
X303780Y113360D01*
X303780Y114348D02*
X292820Y114348D01*
X292820Y115336D02*
X303780Y115336D01*
X292820Y97380D02*
X292820Y90420D01*
X292820Y97380D02*
X303780Y97380D01*
X303780Y90420D01*
X292820Y90420D01*
X292820Y91408D02*
X303780Y91408D01*
X303780Y92396D02*
X292820Y92396D01*
X292820Y93384D02*
X303780Y93384D01*
X303780Y94372D02*
X292820Y94372D01*
X292820Y95360D02*
X303780Y95360D01*
X303780Y96348D02*
X292820Y96348D01*
X292820Y97336D02*
X303780Y97336D01*
X133820Y122520D02*
X133820Y129480D01*
X144780Y129480D01*
X144780Y122520D01*
X133820Y122520D01*
X133820Y123508D02*
X144780Y123508D01*
X144780Y124496D02*
X133820Y124496D01*
X133820Y125484D02*
X144780Y125484D01*
X144780Y126472D02*
X133820Y126472D01*
X133820Y127460D02*
X144780Y127460D01*
X144780Y128448D02*
X133820Y128448D01*
X133820Y129436D02*
X144780Y129436D01*
X133820Y111480D02*
X133820Y104520D01*
X133820Y111480D02*
X144780Y111480D01*
X144780Y104520D01*
X133820Y104520D01*
X133820Y105508D02*
X144780Y105508D01*
X144780Y106496D02*
X133820Y106496D01*
X133820Y107484D02*
X144780Y107484D01*
X144780Y108472D02*
X133820Y108472D01*
X133820Y109460D02*
X144780Y109460D01*
X144780Y110448D02*
X133820Y110448D01*
X133820Y111436D02*
X144780Y111436D01*
X181820Y122620D02*
X181820Y129580D01*
X192780Y129580D01*
X192780Y122620D01*
X181820Y122620D01*
X181820Y123608D02*
X192780Y123608D01*
X192780Y124596D02*
X181820Y124596D01*
X181820Y125584D02*
X192780Y125584D01*
X192780Y126572D02*
X181820Y126572D01*
X181820Y127560D02*
X192780Y127560D01*
X192780Y128548D02*
X181820Y128548D01*
X181820Y129536D02*
X192780Y129536D01*
X181820Y111580D02*
X181820Y104620D01*
X181820Y111580D02*
X192780Y111580D01*
X192780Y104620D01*
X181820Y104620D01*
X181820Y105608D02*
X192780Y105608D01*
X192780Y106596D02*
X181820Y106596D01*
X181820Y107584D02*
X192780Y107584D01*
X192780Y108572D02*
X181820Y108572D01*
X181820Y109560D02*
X192780Y109560D01*
X192780Y110548D02*
X181820Y110548D01*
X181820Y111536D02*
X192780Y111536D01*
X698320Y646720D02*
X698320Y653680D01*
X709280Y653680D01*
X709280Y646720D01*
X698320Y646720D01*
X698320Y647708D02*
X709280Y647708D01*
X709280Y648696D02*
X698320Y648696D01*
X698320Y649684D02*
X709280Y649684D01*
X709280Y650672D02*
X698320Y650672D01*
X698320Y651660D02*
X709280Y651660D01*
X709280Y652648D02*
X698320Y652648D01*
X698320Y653636D02*
X709280Y653636D01*
X698320Y635680D02*
X698320Y628720D01*
X698320Y635680D02*
X709280Y635680D01*
X709280Y628720D01*
X698320Y628720D01*
X698320Y629708D02*
X709280Y629708D01*
X709280Y630696D02*
X698320Y630696D01*
X698320Y631684D02*
X709280Y631684D01*
X709280Y632672D02*
X698320Y632672D01*
X698320Y633660D02*
X709280Y633660D01*
X709280Y634648D02*
X698320Y634648D01*
X698320Y635636D02*
X709280Y635636D01*
X687320Y620780D02*
X687320Y613820D01*
X687320Y620780D02*
X698280Y620780D01*
X698280Y613820D01*
X687320Y613820D01*
X687320Y614808D02*
X698280Y614808D01*
X698280Y615796D02*
X687320Y615796D01*
X687320Y616784D02*
X698280Y616784D01*
X698280Y617772D02*
X687320Y617772D01*
X687320Y618760D02*
X698280Y618760D01*
X698280Y619748D02*
X687320Y619748D01*
X687320Y620736D02*
X698280Y620736D01*
X687320Y602780D02*
X687320Y595820D01*
X687320Y602780D02*
X698280Y602780D01*
X698280Y595820D01*
X687320Y595820D01*
X687320Y596808D02*
X698280Y596808D01*
X698280Y597796D02*
X687320Y597796D01*
X687320Y598784D02*
X698280Y598784D01*
X698280Y599772D02*
X687320Y599772D01*
X687320Y600760D02*
X698280Y600760D01*
X698280Y601748D02*
X687320Y601748D01*
X687320Y602736D02*
X698280Y602736D01*
X793320Y447380D02*
X793320Y440420D01*
X793320Y447380D02*
X804280Y447380D01*
X804280Y440420D01*
X793320Y440420D01*
X793320Y441408D02*
X804280Y441408D01*
X804280Y442396D02*
X793320Y442396D01*
X793320Y443384D02*
X804280Y443384D01*
X804280Y444372D02*
X793320Y444372D01*
X793320Y445360D02*
X804280Y445360D01*
X804280Y446348D02*
X793320Y446348D01*
X793320Y447336D02*
X804280Y447336D01*
X793320Y429380D02*
X793320Y422420D01*
X793320Y429380D02*
X804280Y429380D01*
X804280Y422420D01*
X793320Y422420D01*
X793320Y423408D02*
X804280Y423408D01*
X804280Y424396D02*
X793320Y424396D01*
X793320Y425384D02*
X804280Y425384D01*
X804280Y426372D02*
X793320Y426372D01*
X793320Y427360D02*
X804280Y427360D01*
X804280Y428348D02*
X793320Y428348D01*
X793320Y429336D02*
X804280Y429336D01*
X613480Y97320D02*
X606520Y97320D01*
X606520Y108280D01*
X613480Y108280D01*
X613480Y97320D01*
X613480Y98308D02*
X606520Y98308D01*
X606520Y99296D02*
X613480Y99296D01*
X613480Y100284D02*
X606520Y100284D01*
X606520Y101272D02*
X613480Y101272D01*
X613480Y102260D02*
X606520Y102260D01*
X606520Y103248D02*
X613480Y103248D01*
X613480Y104236D02*
X606520Y104236D01*
X606520Y105224D02*
X613480Y105224D01*
X613480Y106212D02*
X606520Y106212D01*
X606520Y107200D02*
X613480Y107200D01*
X613480Y108188D02*
X606520Y108188D01*
X624520Y97320D02*
X631480Y97320D01*
X624520Y97320D02*
X624520Y108280D01*
X631480Y108280D01*
X631480Y97320D01*
X631480Y98308D02*
X624520Y98308D01*
X624520Y99296D02*
X631480Y99296D01*
X631480Y100284D02*
X624520Y100284D01*
X624520Y101272D02*
X631480Y101272D01*
X631480Y102260D02*
X624520Y102260D01*
X624520Y103248D02*
X631480Y103248D01*
X631480Y104236D02*
X624520Y104236D01*
X624520Y105224D02*
X631480Y105224D01*
X631480Y106212D02*
X624520Y106212D01*
X624520Y107200D02*
X631480Y107200D01*
X631480Y108188D02*
X624520Y108188D01*
X852120Y210680D02*
X859080Y210680D01*
X859080Y199720D01*
X852120Y199720D01*
X852120Y210680D01*
X852120Y200708D02*
X859080Y200708D01*
X859080Y201696D02*
X852120Y201696D01*
X852120Y202684D02*
X859080Y202684D01*
X859080Y203672D02*
X852120Y203672D01*
X852120Y204660D02*
X859080Y204660D01*
X859080Y205648D02*
X852120Y205648D01*
X852120Y206636D02*
X859080Y206636D01*
X859080Y207624D02*
X852120Y207624D01*
X852120Y208612D02*
X859080Y208612D01*
X859080Y209600D02*
X852120Y209600D01*
X852120Y210588D02*
X859080Y210588D01*
X841080Y210680D02*
X834120Y210680D01*
X841080Y210680D02*
X841080Y199720D01*
X834120Y199720D01*
X834120Y210680D01*
X834120Y200708D02*
X841080Y200708D01*
X841080Y201696D02*
X834120Y201696D01*
X834120Y202684D02*
X841080Y202684D01*
X841080Y203672D02*
X834120Y203672D01*
X834120Y204660D02*
X841080Y204660D01*
X841080Y205648D02*
X834120Y205648D01*
X834120Y206636D02*
X841080Y206636D01*
X841080Y207624D02*
X834120Y207624D01*
X834120Y208612D02*
X841080Y208612D01*
X841080Y209600D02*
X834120Y209600D01*
X834120Y210588D02*
X841080Y210588D01*
X803320Y492220D02*
X803320Y499180D01*
X814280Y499180D01*
X814280Y492220D01*
X803320Y492220D01*
X803320Y493208D02*
X814280Y493208D01*
X814280Y494196D02*
X803320Y494196D01*
X803320Y495184D02*
X814280Y495184D01*
X814280Y496172D02*
X803320Y496172D01*
X803320Y497160D02*
X814280Y497160D01*
X814280Y498148D02*
X803320Y498148D01*
X803320Y499136D02*
X814280Y499136D01*
X803320Y481180D02*
X803320Y474220D01*
X803320Y481180D02*
X814280Y481180D01*
X814280Y474220D01*
X803320Y474220D01*
X803320Y475208D02*
X814280Y475208D01*
X814280Y476196D02*
X803320Y476196D01*
X803320Y477184D02*
X814280Y477184D01*
X814280Y478172D02*
X803320Y478172D01*
X803320Y479160D02*
X814280Y479160D01*
X814280Y480148D02*
X803320Y480148D01*
X803320Y481136D02*
X814280Y481136D01*
X534680Y520320D02*
X527720Y520320D01*
X527720Y531280D01*
X534680Y531280D01*
X534680Y520320D01*
X534680Y521308D02*
X527720Y521308D01*
X527720Y522296D02*
X534680Y522296D01*
X534680Y523284D02*
X527720Y523284D01*
X527720Y524272D02*
X534680Y524272D01*
X534680Y525260D02*
X527720Y525260D01*
X527720Y526248D02*
X534680Y526248D01*
X534680Y527236D02*
X527720Y527236D01*
X527720Y528224D02*
X534680Y528224D01*
X534680Y529212D02*
X527720Y529212D01*
X527720Y530200D02*
X534680Y530200D01*
X534680Y531188D02*
X527720Y531188D01*
X545720Y520320D02*
X552680Y520320D01*
X545720Y520320D02*
X545720Y531280D01*
X552680Y531280D01*
X552680Y520320D01*
X552680Y521308D02*
X545720Y521308D01*
X545720Y522296D02*
X552680Y522296D01*
X552680Y523284D02*
X545720Y523284D01*
X545720Y524272D02*
X552680Y524272D01*
X552680Y525260D02*
X545720Y525260D01*
X545720Y526248D02*
X552680Y526248D01*
X552680Y527236D02*
X545720Y527236D01*
X545720Y528224D02*
X552680Y528224D01*
X552680Y529212D02*
X545720Y529212D01*
X545720Y530200D02*
X552680Y530200D01*
X552680Y531188D02*
X545720Y531188D01*
X930620Y377020D02*
X937580Y377020D01*
X930620Y377020D02*
X930620Y387980D01*
X937580Y387980D01*
X937580Y377020D01*
X937580Y378008D02*
X930620Y378008D01*
X930620Y378996D02*
X937580Y378996D01*
X937580Y379984D02*
X930620Y379984D01*
X930620Y380972D02*
X937580Y380972D01*
X937580Y381960D02*
X930620Y381960D01*
X930620Y382948D02*
X937580Y382948D01*
X937580Y383936D02*
X930620Y383936D01*
X930620Y384924D02*
X937580Y384924D01*
X937580Y385912D02*
X930620Y385912D01*
X930620Y386900D02*
X937580Y386900D01*
X937580Y387888D02*
X930620Y387888D01*
X948620Y377020D02*
X955580Y377020D01*
X948620Y377020D02*
X948620Y387980D01*
X955580Y387980D01*
X955580Y377020D01*
X955580Y378008D02*
X948620Y378008D01*
X948620Y378996D02*
X955580Y378996D01*
X955580Y379984D02*
X948620Y379984D01*
X948620Y380972D02*
X955580Y380972D01*
X955580Y381960D02*
X948620Y381960D01*
X948620Y382948D02*
X955580Y382948D01*
X955580Y383936D02*
X948620Y383936D01*
X948620Y384924D02*
X955580Y384924D01*
X955580Y385912D02*
X948620Y385912D01*
X948620Y386900D02*
X955580Y386900D01*
X955580Y387888D02*
X948620Y387888D01*
X552680Y464120D02*
X552680Y471080D01*
X552680Y464120D02*
X541720Y464120D01*
X541720Y471080D01*
X552680Y471080D01*
X552680Y465108D02*
X541720Y465108D01*
X541720Y466096D02*
X552680Y466096D01*
X552680Y467084D02*
X541720Y467084D01*
X541720Y468072D02*
X552680Y468072D01*
X552680Y469060D02*
X541720Y469060D01*
X541720Y470048D02*
X552680Y470048D01*
X552680Y471036D02*
X541720Y471036D01*
X552680Y482120D02*
X552680Y489080D01*
X552680Y482120D02*
X541720Y482120D01*
X541720Y489080D01*
X552680Y489080D01*
X552680Y483108D02*
X541720Y483108D01*
X541720Y484096D02*
X552680Y484096D01*
X552680Y485084D02*
X541720Y485084D01*
X541720Y486072D02*
X552680Y486072D01*
X552680Y487060D02*
X541720Y487060D01*
X541720Y488048D02*
X552680Y488048D01*
X552680Y489036D02*
X541720Y489036D01*
X255180Y148480D02*
X255180Y141520D01*
X244220Y141520D01*
X244220Y148480D01*
X255180Y148480D01*
X255180Y142508D02*
X244220Y142508D01*
X244220Y143496D02*
X255180Y143496D01*
X255180Y144484D02*
X244220Y144484D01*
X244220Y145472D02*
X255180Y145472D01*
X255180Y146460D02*
X244220Y146460D01*
X244220Y147448D02*
X255180Y147448D01*
X255180Y148436D02*
X244220Y148436D01*
X255180Y159520D02*
X255180Y166480D01*
X255180Y159520D02*
X244220Y159520D01*
X244220Y166480D01*
X255180Y166480D01*
X255180Y160508D02*
X244220Y160508D01*
X244220Y161496D02*
X255180Y161496D01*
X255180Y162484D02*
X244220Y162484D01*
X244220Y163472D02*
X255180Y163472D01*
X255180Y164460D02*
X244220Y164460D01*
X244220Y165448D02*
X255180Y165448D01*
X255180Y166436D02*
X244220Y166436D01*
X156320Y400620D02*
X156320Y407580D01*
X167280Y407580D01*
X167280Y400620D01*
X156320Y400620D01*
X156320Y401608D02*
X167280Y401608D01*
X167280Y402596D02*
X156320Y402596D01*
X156320Y403584D02*
X167280Y403584D01*
X167280Y404572D02*
X156320Y404572D01*
X156320Y405560D02*
X167280Y405560D01*
X167280Y406548D02*
X156320Y406548D01*
X156320Y407536D02*
X167280Y407536D01*
X156320Y389580D02*
X156320Y382620D01*
X156320Y389580D02*
X167280Y389580D01*
X167280Y382620D01*
X156320Y382620D01*
X156320Y383608D02*
X167280Y383608D01*
X167280Y384596D02*
X156320Y384596D01*
X156320Y385584D02*
X167280Y385584D01*
X167280Y386572D02*
X156320Y386572D01*
X156320Y387560D02*
X167280Y387560D01*
X167280Y388548D02*
X156320Y388548D01*
X156320Y389536D02*
X167280Y389536D01*
X249680Y179780D02*
X249680Y172820D01*
X238720Y172820D01*
X238720Y179780D01*
X249680Y179780D01*
X249680Y173808D02*
X238720Y173808D01*
X238720Y174796D02*
X249680Y174796D01*
X249680Y175784D02*
X238720Y175784D01*
X238720Y176772D02*
X249680Y176772D01*
X249680Y177760D02*
X238720Y177760D01*
X238720Y178748D02*
X249680Y178748D01*
X249680Y179736D02*
X238720Y179736D01*
X249680Y190820D02*
X249680Y197780D01*
X249680Y190820D02*
X238720Y190820D01*
X238720Y197780D01*
X249680Y197780D01*
X249680Y191808D02*
X238720Y191808D01*
X238720Y192796D02*
X249680Y192796D01*
X249680Y193784D02*
X238720Y193784D01*
X238720Y194772D02*
X249680Y194772D01*
X249680Y195760D02*
X238720Y195760D01*
X238720Y196748D02*
X249680Y196748D01*
X249680Y197736D02*
X238720Y197736D01*
X883520Y225980D02*
X890480Y225980D01*
X890480Y215020D01*
X883520Y215020D01*
X883520Y225980D01*
X883520Y216008D02*
X890480Y216008D01*
X890480Y216996D02*
X883520Y216996D01*
X883520Y217984D02*
X890480Y217984D01*
X890480Y218972D02*
X883520Y218972D01*
X883520Y219960D02*
X890480Y219960D01*
X890480Y220948D02*
X883520Y220948D01*
X883520Y221936D02*
X890480Y221936D01*
X890480Y222924D02*
X883520Y222924D01*
X883520Y223912D02*
X890480Y223912D01*
X890480Y224900D02*
X883520Y224900D01*
X883520Y225888D02*
X890480Y225888D01*
X872480Y225980D02*
X865520Y225980D01*
X872480Y225980D02*
X872480Y215020D01*
X865520Y215020D01*
X865520Y225980D01*
X865520Y216008D02*
X872480Y216008D01*
X872480Y216996D02*
X865520Y216996D01*
X865520Y217984D02*
X872480Y217984D01*
X872480Y218972D02*
X865520Y218972D01*
X865520Y219960D02*
X872480Y219960D01*
X872480Y220948D02*
X865520Y220948D01*
X865520Y221936D02*
X872480Y221936D01*
X872480Y222924D02*
X865520Y222924D01*
X865520Y223912D02*
X872480Y223912D01*
X872480Y224900D02*
X865520Y224900D01*
X865520Y225888D02*
X872480Y225888D01*
X104520Y637120D02*
X104520Y644080D01*
X115480Y644080D01*
X115480Y637120D01*
X104520Y637120D01*
X104520Y638108D02*
X115480Y638108D01*
X115480Y639096D02*
X104520Y639096D01*
X104520Y640084D02*
X115480Y640084D01*
X115480Y641072D02*
X104520Y641072D01*
X104520Y642060D02*
X115480Y642060D01*
X115480Y643048D02*
X104520Y643048D01*
X104520Y644036D02*
X115480Y644036D01*
X104520Y626080D02*
X104520Y619120D01*
X104520Y626080D02*
X115480Y626080D01*
X115480Y619120D01*
X104520Y619120D01*
X104520Y620108D02*
X115480Y620108D01*
X115480Y621096D02*
X104520Y621096D01*
X104520Y622084D02*
X115480Y622084D01*
X115480Y623072D02*
X104520Y623072D01*
X104520Y624060D02*
X115480Y624060D01*
X115480Y625048D02*
X104520Y625048D01*
X104520Y626036D02*
X115480Y626036D01*
X321020Y391180D02*
X321020Y384220D01*
X321020Y391180D02*
X331980Y391180D01*
X331980Y384220D01*
X321020Y384220D01*
X321020Y385208D02*
X331980Y385208D01*
X331980Y386196D02*
X321020Y386196D01*
X321020Y387184D02*
X331980Y387184D01*
X331980Y388172D02*
X321020Y388172D01*
X321020Y389160D02*
X331980Y389160D01*
X331980Y390148D02*
X321020Y390148D01*
X321020Y391136D02*
X331980Y391136D01*
X321020Y373180D02*
X321020Y366220D01*
X321020Y373180D02*
X331980Y373180D01*
X331980Y366220D01*
X321020Y366220D01*
X321020Y367208D02*
X331980Y367208D01*
X331980Y368196D02*
X321020Y368196D01*
X321020Y369184D02*
X331980Y369184D01*
X331980Y370172D02*
X321020Y370172D01*
X321020Y371160D02*
X331980Y371160D01*
X331980Y372148D02*
X321020Y372148D01*
X321020Y373136D02*
X331980Y373136D01*
X435520Y318280D02*
X435520Y311320D01*
X435520Y318280D02*
X446480Y318280D01*
X446480Y311320D01*
X435520Y311320D01*
X435520Y312308D02*
X446480Y312308D01*
X446480Y313296D02*
X435520Y313296D01*
X435520Y314284D02*
X446480Y314284D01*
X446480Y315272D02*
X435520Y315272D01*
X435520Y316260D02*
X446480Y316260D01*
X446480Y317248D02*
X435520Y317248D01*
X435520Y318236D02*
X446480Y318236D01*
X435520Y300280D02*
X435520Y293320D01*
X435520Y300280D02*
X446480Y300280D01*
X446480Y293320D01*
X435520Y293320D01*
X435520Y294308D02*
X446480Y294308D01*
X446480Y295296D02*
X435520Y295296D01*
X435520Y296284D02*
X446480Y296284D01*
X446480Y297272D02*
X435520Y297272D01*
X435520Y298260D02*
X446480Y298260D01*
X446480Y299248D02*
X435520Y299248D01*
X435520Y300236D02*
X446480Y300236D01*
X330080Y150020D02*
X323120Y150020D01*
X323120Y160980D01*
X330080Y160980D01*
X330080Y150020D01*
X330080Y151008D02*
X323120Y151008D01*
X323120Y151996D02*
X330080Y151996D01*
X330080Y152984D02*
X323120Y152984D01*
X323120Y153972D02*
X330080Y153972D01*
X330080Y154960D02*
X323120Y154960D01*
X323120Y155948D02*
X330080Y155948D01*
X330080Y156936D02*
X323120Y156936D01*
X323120Y157924D02*
X330080Y157924D01*
X330080Y158912D02*
X323120Y158912D01*
X323120Y159900D02*
X330080Y159900D01*
X330080Y160888D02*
X323120Y160888D01*
X341120Y150020D02*
X348080Y150020D01*
X341120Y150020D02*
X341120Y160980D01*
X348080Y160980D01*
X348080Y150020D01*
X348080Y151008D02*
X341120Y151008D01*
X341120Y151996D02*
X348080Y151996D01*
X348080Y152984D02*
X341120Y152984D01*
X341120Y153972D02*
X348080Y153972D01*
X348080Y154960D02*
X341120Y154960D01*
X341120Y155948D02*
X348080Y155948D01*
X348080Y156936D02*
X341120Y156936D01*
X341120Y157924D02*
X348080Y157924D01*
X348080Y158912D02*
X341120Y158912D01*
X341120Y159900D02*
X348080Y159900D01*
X348080Y160888D02*
X341120Y160888D01*
X293480Y179520D02*
X286520Y179520D01*
X286520Y190480D01*
X293480Y190480D01*
X293480Y179520D01*
X293480Y180508D02*
X286520Y180508D01*
X286520Y181496D02*
X293480Y181496D01*
X293480Y182484D02*
X286520Y182484D01*
X286520Y183472D02*
X293480Y183472D01*
X293480Y184460D02*
X286520Y184460D01*
X286520Y185448D02*
X293480Y185448D01*
X293480Y186436D02*
X286520Y186436D01*
X286520Y187424D02*
X293480Y187424D01*
X293480Y188412D02*
X286520Y188412D01*
X286520Y189400D02*
X293480Y189400D01*
X293480Y190388D02*
X286520Y190388D01*
X304520Y179520D02*
X311480Y179520D01*
X304520Y179520D02*
X304520Y190480D01*
X311480Y190480D01*
X311480Y179520D01*
X311480Y180508D02*
X304520Y180508D01*
X304520Y181496D02*
X311480Y181496D01*
X311480Y182484D02*
X304520Y182484D01*
X304520Y183472D02*
X311480Y183472D01*
X311480Y184460D02*
X304520Y184460D01*
X304520Y185448D02*
X311480Y185448D01*
X311480Y186436D02*
X304520Y186436D01*
X304520Y187424D02*
X311480Y187424D01*
X311480Y188412D02*
X304520Y188412D01*
X304520Y189400D02*
X311480Y189400D01*
X311480Y190388D02*
X304520Y190388D01*
X280580Y105480D02*
X273620Y105480D01*
X280580Y105480D02*
X280580Y94520D01*
X273620Y94520D01*
X273620Y105480D01*
X273620Y95508D02*
X280580Y95508D01*
X280580Y96496D02*
X273620Y96496D01*
X273620Y97484D02*
X280580Y97484D01*
X280580Y98472D02*
X273620Y98472D01*
X273620Y99460D02*
X280580Y99460D01*
X280580Y100448D02*
X273620Y100448D01*
X273620Y101436D02*
X280580Y101436D01*
X280580Y102424D02*
X273620Y102424D01*
X273620Y103412D02*
X280580Y103412D01*
X280580Y104400D02*
X273620Y104400D01*
X273620Y105388D02*
X280580Y105388D01*
X262580Y105480D02*
X255620Y105480D01*
X262580Y105480D02*
X262580Y94520D01*
X255620Y94520D01*
X255620Y105480D01*
X255620Y95508D02*
X262580Y95508D01*
X262580Y96496D02*
X255620Y96496D01*
X255620Y97484D02*
X262580Y97484D01*
X262580Y98472D02*
X255620Y98472D01*
X255620Y99460D02*
X262580Y99460D01*
X262580Y100448D02*
X255620Y100448D01*
X255620Y101436D02*
X262580Y101436D01*
X262580Y102424D02*
X255620Y102424D01*
X255620Y103412D02*
X262580Y103412D01*
X262580Y104400D02*
X255620Y104400D01*
X255620Y105388D02*
X262580Y105388D01*
D25*
X942885Y124635D02*
X959915Y124635D01*
X942885Y124635D02*
X942885Y135165D01*
X959915Y135165D01*
X959915Y124635D01*
X959915Y125746D02*
X942885Y125746D01*
X942885Y126857D02*
X959915Y126857D01*
X959915Y127968D02*
X942885Y127968D01*
X942885Y129079D02*
X959915Y129079D01*
X959915Y130190D02*
X942885Y130190D01*
X942885Y131301D02*
X959915Y131301D01*
X959915Y132412D02*
X942885Y132412D01*
X942885Y133523D02*
X959915Y133523D01*
X959915Y134634D02*
X942885Y134634D01*
X942885Y94235D02*
X959915Y94235D01*
X942885Y94235D02*
X942885Y104765D01*
X959915Y104765D01*
X959915Y94235D01*
X959915Y95346D02*
X942885Y95346D01*
X942885Y96457D02*
X959915Y96457D01*
X959915Y97568D02*
X942885Y97568D01*
X942885Y98679D02*
X959915Y98679D01*
X959915Y99790D02*
X942885Y99790D01*
X942885Y100901D02*
X959915Y100901D01*
X959915Y102012D02*
X942885Y102012D01*
X942885Y103123D02*
X959915Y103123D01*
X959915Y104234D02*
X942885Y104234D01*
D19*
X870540Y626890D02*
X856060Y626890D01*
X870540Y626890D02*
X870540Y621910D01*
X856060Y621910D01*
X856060Y626890D01*
X856060Y622879D02*
X870540Y622879D01*
X870540Y623848D02*
X856060Y623848D01*
X856060Y624817D02*
X870540Y624817D01*
X870540Y625786D02*
X856060Y625786D01*
X856060Y626755D02*
X870540Y626755D01*
X870540Y639590D02*
X856060Y639590D01*
X870540Y639590D02*
X870540Y634610D01*
X856060Y634610D01*
X856060Y639590D01*
X856060Y635579D02*
X870540Y635579D01*
X870540Y636548D02*
X856060Y636548D01*
X856060Y637517D02*
X870540Y637517D01*
X870540Y638486D02*
X856060Y638486D01*
X856060Y639455D02*
X870540Y639455D01*
X870540Y652290D02*
X856060Y652290D01*
X870540Y652290D02*
X870540Y647310D01*
X856060Y647310D01*
X856060Y652290D01*
X856060Y648279D02*
X870540Y648279D01*
X870540Y649248D02*
X856060Y649248D01*
X856060Y650217D02*
X870540Y650217D01*
X870540Y651186D02*
X856060Y651186D01*
X856060Y652155D02*
X870540Y652155D01*
X870540Y664990D02*
X856060Y664990D01*
X870540Y664990D02*
X870540Y660010D01*
X856060Y660010D01*
X856060Y664990D01*
X856060Y660979D02*
X870540Y660979D01*
X870540Y661948D02*
X856060Y661948D01*
X856060Y662917D02*
X870540Y662917D01*
X870540Y663886D02*
X856060Y663886D01*
X856060Y664855D02*
X870540Y664855D01*
X816540Y626890D02*
X802060Y626890D01*
X816540Y626890D02*
X816540Y621910D01*
X802060Y621910D01*
X802060Y626890D01*
X802060Y622879D02*
X816540Y622879D01*
X816540Y623848D02*
X802060Y623848D01*
X802060Y624817D02*
X816540Y624817D01*
X816540Y625786D02*
X802060Y625786D01*
X802060Y626755D02*
X816540Y626755D01*
X816540Y639590D02*
X802060Y639590D01*
X816540Y639590D02*
X816540Y634610D01*
X802060Y634610D01*
X802060Y639590D01*
X802060Y635579D02*
X816540Y635579D01*
X816540Y636548D02*
X802060Y636548D01*
X802060Y637517D02*
X816540Y637517D01*
X816540Y638486D02*
X802060Y638486D01*
X802060Y639455D02*
X816540Y639455D01*
X816540Y652290D02*
X802060Y652290D01*
X816540Y652290D02*
X816540Y647310D01*
X802060Y647310D01*
X802060Y652290D01*
X802060Y648279D02*
X816540Y648279D01*
X816540Y649248D02*
X802060Y649248D01*
X802060Y650217D02*
X816540Y650217D01*
X816540Y651186D02*
X802060Y651186D01*
X802060Y652155D02*
X816540Y652155D01*
X816540Y664990D02*
X802060Y664990D01*
X816540Y664990D02*
X816540Y660010D01*
X802060Y660010D01*
X802060Y664990D01*
X802060Y660979D02*
X816540Y660979D01*
X816540Y661948D02*
X802060Y661948D01*
X802060Y662917D02*
X816540Y662917D01*
X816540Y663886D02*
X802060Y663886D01*
X802060Y664855D02*
X816540Y664855D01*
D26*
X945183Y455633D02*
X945183Y452167D01*
X925217Y452167D01*
X925217Y455633D01*
X945183Y455633D01*
X945183Y453150D02*
X925217Y453150D01*
X925217Y454133D02*
X945183Y454133D01*
X945183Y455116D02*
X925217Y455116D01*
X945183Y449133D02*
X945183Y445667D01*
X925217Y445667D01*
X925217Y449133D01*
X945183Y449133D01*
X945183Y446650D02*
X925217Y446650D01*
X925217Y447633D02*
X945183Y447633D01*
X945183Y448616D02*
X925217Y448616D01*
X945183Y458667D02*
X945183Y462133D01*
X945183Y458667D02*
X925217Y458667D01*
X925217Y462133D01*
X945183Y462133D01*
X945183Y459650D02*
X925217Y459650D01*
X925217Y460633D02*
X945183Y460633D01*
X945183Y461616D02*
X925217Y461616D01*
X945183Y471667D02*
X945183Y475133D01*
X945183Y471667D02*
X925217Y471667D01*
X925217Y475133D01*
X945183Y475133D01*
X945183Y472650D02*
X925217Y472650D01*
X925217Y473633D02*
X945183Y473633D01*
X945183Y474616D02*
X925217Y474616D01*
X945183Y468633D02*
X945183Y465167D01*
X925217Y465167D01*
X925217Y468633D01*
X945183Y468633D01*
X945183Y466150D02*
X925217Y466150D01*
X925217Y467133D02*
X945183Y467133D01*
X945183Y468116D02*
X925217Y468116D01*
D27*
X951550Y472150D02*
X971450Y472150D01*
X951550Y472150D02*
X951550Y482050D01*
X971450Y482050D01*
X971450Y472150D01*
X971450Y473195D02*
X951550Y473195D01*
X951550Y474240D02*
X971450Y474240D01*
X971450Y475285D02*
X951550Y475285D01*
X951550Y476330D02*
X971450Y476330D01*
X971450Y477375D02*
X951550Y477375D01*
X951550Y478420D02*
X971450Y478420D01*
X971450Y479465D02*
X951550Y479465D01*
X951550Y480510D02*
X971450Y480510D01*
X971450Y481555D02*
X951550Y481555D01*
X951550Y439150D02*
X971450Y439150D01*
X951550Y439150D02*
X951550Y449050D01*
X971450Y449050D01*
X971450Y439150D01*
X971450Y440195D02*
X951550Y440195D01*
X951550Y441240D02*
X971450Y441240D01*
X971450Y442285D02*
X951550Y442285D01*
X951550Y443330D02*
X971450Y443330D01*
X971450Y444375D02*
X951550Y444375D01*
X951550Y445420D02*
X971450Y445420D01*
X971450Y446465D02*
X951550Y446465D01*
X951550Y447510D02*
X971450Y447510D01*
X971450Y448555D02*
X951550Y448555D01*
D24*
X934750Y485100D03*
X934750Y435600D03*
D28*
X965500Y425600D03*
X965500Y495600D03*
D29*
X77700Y274288D02*
X77700Y267144D01*
X63413Y267144D02*
X63413Y274288D01*
X70556Y274288D02*
X70556Y267144D01*
X84844Y267144D02*
X84844Y274288D01*
X91988Y274288D02*
X91988Y267144D01*
X77700Y221106D02*
X77700Y213963D01*
X63413Y213963D02*
X63413Y221106D01*
X70556Y221106D02*
X70556Y213963D01*
X84844Y213963D02*
X84844Y221106D01*
X91988Y221106D02*
X91988Y213963D01*
X54681Y244125D02*
X47538Y244125D01*
X47538Y229838D02*
X54681Y229838D01*
X54681Y236981D02*
X47538Y236981D01*
X47538Y251269D02*
X54681Y251269D01*
X54681Y258413D02*
X47538Y258413D01*
X100719Y244125D02*
X107863Y244125D01*
X107863Y229838D02*
X100719Y229838D01*
X100719Y236981D02*
X107863Y236981D01*
X107863Y251269D02*
X100719Y251269D01*
X100719Y258413D02*
X107863Y258413D01*
D21*
X919700Y642000D03*
D30*
X919700Y667400D03*
X919700Y692800D03*
X945100Y692800D03*
X945100Y667400D03*
X945100Y642000D03*
D15*
X806700Y273439D03*
X806700Y208161D03*
D31*
X420005Y742995D02*
X420005Y751005D01*
X420005Y742995D02*
X405995Y742995D01*
X405995Y751005D01*
X420005Y751005D01*
X420005Y743935D02*
X405995Y743935D01*
X405995Y744875D02*
X420005Y744875D01*
X420005Y745815D02*
X405995Y745815D01*
X405995Y746755D02*
X420005Y746755D01*
X420005Y747695D02*
X405995Y747695D01*
X405995Y748635D02*
X420005Y748635D01*
X420005Y749575D02*
X405995Y749575D01*
X405995Y750515D02*
X420005Y750515D01*
X420005Y738305D02*
X420005Y730295D01*
X405995Y730295D01*
X405995Y738305D01*
X420005Y738305D01*
X420005Y731235D02*
X405995Y731235D01*
X405995Y732175D02*
X420005Y732175D01*
X420005Y733115D02*
X405995Y733115D01*
X405995Y734055D02*
X420005Y734055D01*
X420005Y734995D02*
X405995Y734995D01*
X405995Y735935D02*
X420005Y735935D01*
X420005Y736875D02*
X405995Y736875D01*
X405995Y737815D02*
X420005Y737815D01*
X420005Y725605D02*
X420005Y717595D01*
X405995Y717595D01*
X405995Y725605D01*
X420005Y725605D01*
X420005Y718535D02*
X405995Y718535D01*
X405995Y719475D02*
X420005Y719475D01*
X420005Y720415D02*
X405995Y720415D01*
X405995Y721355D02*
X420005Y721355D01*
X420005Y722295D02*
X405995Y722295D01*
X405995Y723235D02*
X420005Y723235D01*
X420005Y724175D02*
X405995Y724175D01*
X405995Y725115D02*
X420005Y725115D01*
X420005Y712905D02*
X420005Y704895D01*
X405995Y704895D01*
X405995Y712905D01*
X420005Y712905D01*
X420005Y705835D02*
X405995Y705835D01*
X405995Y706775D02*
X420005Y706775D01*
X420005Y707715D02*
X405995Y707715D01*
X405995Y708655D02*
X420005Y708655D01*
X420005Y709595D02*
X405995Y709595D01*
X405995Y710535D02*
X420005Y710535D01*
X420005Y711475D02*
X405995Y711475D01*
X405995Y712415D02*
X420005Y712415D01*
X420005Y700205D02*
X420005Y692195D01*
X405995Y692195D01*
X405995Y700205D01*
X420005Y700205D01*
X420005Y693135D02*
X405995Y693135D01*
X405995Y694075D02*
X420005Y694075D01*
X420005Y695015D02*
X405995Y695015D01*
X405995Y695955D02*
X420005Y695955D01*
X420005Y696895D02*
X405995Y696895D01*
X405995Y697835D02*
X420005Y697835D01*
X420005Y698775D02*
X405995Y698775D01*
X405995Y699715D02*
X420005Y699715D01*
X420005Y687505D02*
X420005Y679495D01*
X405995Y679495D01*
X405995Y687505D01*
X420005Y687505D01*
X420005Y680435D02*
X405995Y680435D01*
X405995Y681375D02*
X420005Y681375D01*
X420005Y682315D02*
X405995Y682315D01*
X405995Y683255D02*
X420005Y683255D01*
X420005Y684195D02*
X405995Y684195D01*
X405995Y685135D02*
X420005Y685135D01*
X420005Y686075D02*
X405995Y686075D01*
X405995Y687015D02*
X420005Y687015D01*
X420005Y674805D02*
X420005Y666795D01*
X405995Y666795D01*
X405995Y674805D01*
X420005Y674805D01*
X420005Y667735D02*
X405995Y667735D01*
X405995Y668675D02*
X420005Y668675D01*
X420005Y669615D02*
X405995Y669615D01*
X405995Y670555D02*
X420005Y670555D01*
X420005Y671495D02*
X405995Y671495D01*
X405995Y672435D02*
X420005Y672435D01*
X420005Y673375D02*
X405995Y673375D01*
X405995Y674315D02*
X420005Y674315D01*
X420005Y662105D02*
X420005Y654095D01*
X405995Y654095D01*
X405995Y662105D01*
X420005Y662105D01*
X420005Y655035D02*
X405995Y655035D01*
X405995Y655975D02*
X420005Y655975D01*
X420005Y656915D02*
X405995Y656915D01*
X405995Y657855D02*
X420005Y657855D01*
X420005Y658795D02*
X405995Y658795D01*
X405995Y659735D02*
X420005Y659735D01*
X420005Y660675D02*
X405995Y660675D01*
X405995Y661615D02*
X420005Y661615D01*
X420005Y649405D02*
X420005Y641395D01*
X405995Y641395D01*
X405995Y649405D01*
X420005Y649405D01*
X420005Y642335D02*
X405995Y642335D01*
X405995Y643275D02*
X420005Y643275D01*
X420005Y644215D02*
X405995Y644215D01*
X405995Y645155D02*
X420005Y645155D01*
X420005Y646095D02*
X405995Y646095D01*
X405995Y647035D02*
X420005Y647035D01*
X420005Y647975D02*
X405995Y647975D01*
X405995Y648915D02*
X420005Y648915D01*
X420005Y636705D02*
X420005Y628695D01*
X405995Y628695D01*
X405995Y636705D01*
X420005Y636705D01*
X420005Y629635D02*
X405995Y629635D01*
X405995Y630575D02*
X420005Y630575D01*
X420005Y631515D02*
X405995Y631515D01*
X405995Y632455D02*
X420005Y632455D01*
X420005Y633395D02*
X405995Y633395D01*
X405995Y634335D02*
X420005Y634335D01*
X420005Y635275D02*
X405995Y635275D01*
X405995Y636215D02*
X420005Y636215D01*
X420005Y624005D02*
X420005Y615995D01*
X405995Y615995D01*
X405995Y624005D01*
X420005Y624005D01*
X420005Y616935D02*
X405995Y616935D01*
X405995Y617875D02*
X420005Y617875D01*
X420005Y618815D02*
X405995Y618815D01*
X405995Y619755D02*
X420005Y619755D01*
X420005Y620695D02*
X405995Y620695D01*
X405995Y621635D02*
X420005Y621635D01*
X420005Y622575D02*
X405995Y622575D01*
X405995Y623515D02*
X420005Y623515D01*
X420005Y611305D02*
X420005Y603295D01*
X405995Y603295D01*
X405995Y611305D01*
X420005Y611305D01*
X420005Y604235D02*
X405995Y604235D01*
X405995Y605175D02*
X420005Y605175D01*
X420005Y606115D02*
X405995Y606115D01*
X405995Y607055D02*
X420005Y607055D01*
X420005Y607995D02*
X405995Y607995D01*
X405995Y608935D02*
X420005Y608935D01*
X420005Y609875D02*
X405995Y609875D01*
X405995Y610815D02*
X420005Y610815D01*
X420005Y598605D02*
X420005Y590595D01*
X405995Y590595D01*
X405995Y598605D01*
X420005Y598605D01*
X420005Y591535D02*
X405995Y591535D01*
X405995Y592475D02*
X420005Y592475D01*
X420005Y593415D02*
X405995Y593415D01*
X405995Y594355D02*
X420005Y594355D01*
X420005Y595295D02*
X405995Y595295D01*
X405995Y596235D02*
X420005Y596235D01*
X420005Y597175D02*
X405995Y597175D01*
X405995Y598115D02*
X420005Y598115D01*
X420005Y585905D02*
X420005Y577895D01*
X405995Y577895D01*
X405995Y585905D01*
X420005Y585905D01*
X420005Y578835D02*
X405995Y578835D01*
X405995Y579775D02*
X420005Y579775D01*
X420005Y580715D02*
X405995Y580715D01*
X405995Y581655D02*
X420005Y581655D01*
X420005Y582595D02*
X405995Y582595D01*
X405995Y583535D02*
X420005Y583535D01*
X420005Y584475D02*
X405995Y584475D01*
X405995Y585415D02*
X420005Y585415D01*
X441845Y574005D02*
X449855Y574005D01*
X449855Y559995D01*
X441845Y559995D01*
X441845Y574005D01*
X441845Y560935D02*
X449855Y560935D01*
X449855Y561875D02*
X441845Y561875D01*
X441845Y562815D02*
X449855Y562815D01*
X449855Y563755D02*
X441845Y563755D01*
X441845Y564695D02*
X449855Y564695D01*
X449855Y565635D02*
X441845Y565635D01*
X441845Y566575D02*
X449855Y566575D01*
X449855Y567515D02*
X441845Y567515D01*
X441845Y568455D02*
X449855Y568455D01*
X449855Y569395D02*
X441845Y569395D01*
X441845Y570335D02*
X449855Y570335D01*
X449855Y571275D02*
X441845Y571275D01*
X441845Y572215D02*
X449855Y572215D01*
X449855Y573155D02*
X441845Y573155D01*
X454545Y574005D02*
X462555Y574005D01*
X462555Y559995D01*
X454545Y559995D01*
X454545Y574005D01*
X454545Y560935D02*
X462555Y560935D01*
X462555Y561875D02*
X454545Y561875D01*
X454545Y562815D02*
X462555Y562815D01*
X462555Y563755D02*
X454545Y563755D01*
X454545Y564695D02*
X462555Y564695D01*
X462555Y565635D02*
X454545Y565635D01*
X454545Y566575D02*
X462555Y566575D01*
X462555Y567515D02*
X454545Y567515D01*
X454545Y568455D02*
X462555Y568455D01*
X462555Y569395D02*
X454545Y569395D01*
X454545Y570335D02*
X462555Y570335D01*
X462555Y571275D02*
X454545Y571275D01*
X454545Y572215D02*
X462555Y572215D01*
X462555Y573155D02*
X454545Y573155D01*
X467245Y574005D02*
X475255Y574005D01*
X475255Y559995D01*
X467245Y559995D01*
X467245Y574005D01*
X467245Y560935D02*
X475255Y560935D01*
X475255Y561875D02*
X467245Y561875D01*
X467245Y562815D02*
X475255Y562815D01*
X475255Y563755D02*
X467245Y563755D01*
X467245Y564695D02*
X475255Y564695D01*
X475255Y565635D02*
X467245Y565635D01*
X467245Y566575D02*
X475255Y566575D01*
X475255Y567515D02*
X467245Y567515D01*
X467245Y568455D02*
X475255Y568455D01*
X475255Y569395D02*
X467245Y569395D01*
X467245Y570335D02*
X475255Y570335D01*
X475255Y571275D02*
X467245Y571275D01*
X467245Y572215D02*
X475255Y572215D01*
X475255Y573155D02*
X467245Y573155D01*
X479945Y574005D02*
X487955Y574005D01*
X487955Y559995D01*
X479945Y559995D01*
X479945Y574005D01*
X479945Y560935D02*
X487955Y560935D01*
X487955Y561875D02*
X479945Y561875D01*
X479945Y562815D02*
X487955Y562815D01*
X487955Y563755D02*
X479945Y563755D01*
X479945Y564695D02*
X487955Y564695D01*
X487955Y565635D02*
X479945Y565635D01*
X479945Y566575D02*
X487955Y566575D01*
X487955Y567515D02*
X479945Y567515D01*
X479945Y568455D02*
X487955Y568455D01*
X487955Y569395D02*
X479945Y569395D01*
X479945Y570335D02*
X487955Y570335D01*
X487955Y571275D02*
X479945Y571275D01*
X479945Y572215D02*
X487955Y572215D01*
X487955Y573155D02*
X479945Y573155D01*
X492645Y574005D02*
X500655Y574005D01*
X500655Y559995D01*
X492645Y559995D01*
X492645Y574005D01*
X492645Y560935D02*
X500655Y560935D01*
X500655Y561875D02*
X492645Y561875D01*
X492645Y562815D02*
X500655Y562815D01*
X500655Y563755D02*
X492645Y563755D01*
X492645Y564695D02*
X500655Y564695D01*
X500655Y565635D02*
X492645Y565635D01*
X492645Y566575D02*
X500655Y566575D01*
X500655Y567515D02*
X492645Y567515D01*
X492645Y568455D02*
X500655Y568455D01*
X500655Y569395D02*
X492645Y569395D01*
X492645Y570335D02*
X500655Y570335D01*
X500655Y571275D02*
X492645Y571275D01*
X492645Y572215D02*
X500655Y572215D01*
X500655Y573155D02*
X492645Y573155D01*
X505345Y574005D02*
X513355Y574005D01*
X513355Y559995D01*
X505345Y559995D01*
X505345Y574005D01*
X505345Y560935D02*
X513355Y560935D01*
X513355Y561875D02*
X505345Y561875D01*
X505345Y562815D02*
X513355Y562815D01*
X513355Y563755D02*
X505345Y563755D01*
X505345Y564695D02*
X513355Y564695D01*
X513355Y565635D02*
X505345Y565635D01*
X505345Y566575D02*
X513355Y566575D01*
X513355Y567515D02*
X505345Y567515D01*
X505345Y568455D02*
X513355Y568455D01*
X513355Y569395D02*
X505345Y569395D01*
X505345Y570335D02*
X513355Y570335D01*
X513355Y571275D02*
X505345Y571275D01*
X505345Y572215D02*
X513355Y572215D01*
X513355Y573155D02*
X505345Y573155D01*
X518045Y574005D02*
X526055Y574005D01*
X526055Y559995D01*
X518045Y559995D01*
X518045Y574005D01*
X518045Y560935D02*
X526055Y560935D01*
X526055Y561875D02*
X518045Y561875D01*
X518045Y562815D02*
X526055Y562815D01*
X526055Y563755D02*
X518045Y563755D01*
X518045Y564695D02*
X526055Y564695D01*
X526055Y565635D02*
X518045Y565635D01*
X518045Y566575D02*
X526055Y566575D01*
X526055Y567515D02*
X518045Y567515D01*
X518045Y568455D02*
X526055Y568455D01*
X526055Y569395D02*
X518045Y569395D01*
X518045Y570335D02*
X526055Y570335D01*
X526055Y571275D02*
X518045Y571275D01*
X518045Y572215D02*
X526055Y572215D01*
X526055Y573155D02*
X518045Y573155D01*
X530745Y574005D02*
X538755Y574005D01*
X538755Y559995D01*
X530745Y559995D01*
X530745Y574005D01*
X530745Y560935D02*
X538755Y560935D01*
X538755Y561875D02*
X530745Y561875D01*
X530745Y562815D02*
X538755Y562815D01*
X538755Y563755D02*
X530745Y563755D01*
X530745Y564695D02*
X538755Y564695D01*
X538755Y565635D02*
X530745Y565635D01*
X530745Y566575D02*
X538755Y566575D01*
X538755Y567515D02*
X530745Y567515D01*
X530745Y568455D02*
X538755Y568455D01*
X538755Y569395D02*
X530745Y569395D01*
X530745Y570335D02*
X538755Y570335D01*
X538755Y571275D02*
X530745Y571275D01*
X530745Y572215D02*
X538755Y572215D01*
X538755Y573155D02*
X530745Y573155D01*
X543445Y574005D02*
X551455Y574005D01*
X551455Y559995D01*
X543445Y559995D01*
X543445Y574005D01*
X543445Y560935D02*
X551455Y560935D01*
X551455Y561875D02*
X543445Y561875D01*
X543445Y562815D02*
X551455Y562815D01*
X551455Y563755D02*
X543445Y563755D01*
X543445Y564695D02*
X551455Y564695D01*
X551455Y565635D02*
X543445Y565635D01*
X543445Y566575D02*
X551455Y566575D01*
X551455Y567515D02*
X543445Y567515D01*
X543445Y568455D02*
X551455Y568455D01*
X551455Y569395D02*
X543445Y569395D01*
X543445Y570335D02*
X551455Y570335D01*
X551455Y571275D02*
X543445Y571275D01*
X543445Y572215D02*
X551455Y572215D01*
X551455Y573155D02*
X543445Y573155D01*
X556145Y574005D02*
X564155Y574005D01*
X564155Y559995D01*
X556145Y559995D01*
X556145Y574005D01*
X556145Y560935D02*
X564155Y560935D01*
X564155Y561875D02*
X556145Y561875D01*
X556145Y562815D02*
X564155Y562815D01*
X564155Y563755D02*
X556145Y563755D01*
X556145Y564695D02*
X564155Y564695D01*
X564155Y565635D02*
X556145Y565635D01*
X556145Y566575D02*
X564155Y566575D01*
X564155Y567515D02*
X556145Y567515D01*
X556145Y568455D02*
X564155Y568455D01*
X564155Y569395D02*
X556145Y569395D01*
X556145Y570335D02*
X564155Y570335D01*
X564155Y571275D02*
X556145Y571275D01*
X556145Y572215D02*
X564155Y572215D01*
X564155Y573155D02*
X556145Y573155D01*
X600005Y577895D02*
X600005Y585905D01*
X600005Y577895D02*
X585995Y577895D01*
X585995Y585905D01*
X600005Y585905D01*
X600005Y578835D02*
X585995Y578835D01*
X585995Y579775D02*
X600005Y579775D01*
X600005Y580715D02*
X585995Y580715D01*
X585995Y581655D02*
X600005Y581655D01*
X600005Y582595D02*
X585995Y582595D01*
X585995Y583535D02*
X600005Y583535D01*
X600005Y584475D02*
X585995Y584475D01*
X585995Y585415D02*
X600005Y585415D01*
X600005Y590595D02*
X600005Y598605D01*
X600005Y590595D02*
X585995Y590595D01*
X585995Y598605D01*
X600005Y598605D01*
X600005Y591535D02*
X585995Y591535D01*
X585995Y592475D02*
X600005Y592475D01*
X600005Y593415D02*
X585995Y593415D01*
X585995Y594355D02*
X600005Y594355D01*
X600005Y595295D02*
X585995Y595295D01*
X585995Y596235D02*
X600005Y596235D01*
X600005Y597175D02*
X585995Y597175D01*
X585995Y598115D02*
X600005Y598115D01*
X600005Y603295D02*
X600005Y611305D01*
X600005Y603295D02*
X585995Y603295D01*
X585995Y611305D01*
X600005Y611305D01*
X600005Y604235D02*
X585995Y604235D01*
X585995Y605175D02*
X600005Y605175D01*
X600005Y606115D02*
X585995Y606115D01*
X585995Y607055D02*
X600005Y607055D01*
X600005Y607995D02*
X585995Y607995D01*
X585995Y608935D02*
X600005Y608935D01*
X600005Y609875D02*
X585995Y609875D01*
X585995Y610815D02*
X600005Y610815D01*
X600005Y615995D02*
X600005Y624005D01*
X600005Y615995D02*
X585995Y615995D01*
X585995Y624005D01*
X600005Y624005D01*
X600005Y616935D02*
X585995Y616935D01*
X585995Y617875D02*
X600005Y617875D01*
X600005Y618815D02*
X585995Y618815D01*
X585995Y619755D02*
X600005Y619755D01*
X600005Y620695D02*
X585995Y620695D01*
X585995Y621635D02*
X600005Y621635D01*
X600005Y622575D02*
X585995Y622575D01*
X585995Y623515D02*
X600005Y623515D01*
X600005Y628695D02*
X600005Y636705D01*
X600005Y628695D02*
X585995Y628695D01*
X585995Y636705D01*
X600005Y636705D01*
X600005Y629635D02*
X585995Y629635D01*
X585995Y630575D02*
X600005Y630575D01*
X600005Y631515D02*
X585995Y631515D01*
X585995Y632455D02*
X600005Y632455D01*
X600005Y633395D02*
X585995Y633395D01*
X585995Y634335D02*
X600005Y634335D01*
X600005Y635275D02*
X585995Y635275D01*
X585995Y636215D02*
X600005Y636215D01*
X600005Y641395D02*
X600005Y649405D01*
X600005Y641395D02*
X585995Y641395D01*
X585995Y649405D01*
X600005Y649405D01*
X600005Y642335D02*
X585995Y642335D01*
X585995Y643275D02*
X600005Y643275D01*
X600005Y644215D02*
X585995Y644215D01*
X585995Y645155D02*
X600005Y645155D01*
X600005Y646095D02*
X585995Y646095D01*
X585995Y647035D02*
X600005Y647035D01*
X600005Y647975D02*
X585995Y647975D01*
X585995Y648915D02*
X600005Y648915D01*
X600005Y654095D02*
X600005Y662105D01*
X600005Y654095D02*
X585995Y654095D01*
X585995Y662105D01*
X600005Y662105D01*
X600005Y655035D02*
X585995Y655035D01*
X585995Y655975D02*
X600005Y655975D01*
X600005Y656915D02*
X585995Y656915D01*
X585995Y657855D02*
X600005Y657855D01*
X600005Y658795D02*
X585995Y658795D01*
X585995Y659735D02*
X600005Y659735D01*
X600005Y660675D02*
X585995Y660675D01*
X585995Y661615D02*
X600005Y661615D01*
X600005Y666795D02*
X600005Y674805D01*
X600005Y666795D02*
X585995Y666795D01*
X585995Y674805D01*
X600005Y674805D01*
X600005Y667735D02*
X585995Y667735D01*
X585995Y668675D02*
X600005Y668675D01*
X600005Y669615D02*
X585995Y669615D01*
X585995Y670555D02*
X600005Y670555D01*
X600005Y671495D02*
X585995Y671495D01*
X585995Y672435D02*
X600005Y672435D01*
X600005Y673375D02*
X585995Y673375D01*
X585995Y674315D02*
X600005Y674315D01*
X600005Y679495D02*
X600005Y687505D01*
X600005Y679495D02*
X585995Y679495D01*
X585995Y687505D01*
X600005Y687505D01*
X600005Y680435D02*
X585995Y680435D01*
X585995Y681375D02*
X600005Y681375D01*
X600005Y682315D02*
X585995Y682315D01*
X585995Y683255D02*
X600005Y683255D01*
X600005Y684195D02*
X585995Y684195D01*
X585995Y685135D02*
X600005Y685135D01*
X600005Y686075D02*
X585995Y686075D01*
X585995Y687015D02*
X600005Y687015D01*
X600005Y692195D02*
X600005Y700205D01*
X600005Y692195D02*
X585995Y692195D01*
X585995Y700205D01*
X600005Y700205D01*
X600005Y693135D02*
X585995Y693135D01*
X585995Y694075D02*
X600005Y694075D01*
X600005Y695015D02*
X585995Y695015D01*
X585995Y695955D02*
X600005Y695955D01*
X600005Y696895D02*
X585995Y696895D01*
X585995Y697835D02*
X600005Y697835D01*
X600005Y698775D02*
X585995Y698775D01*
X585995Y699715D02*
X600005Y699715D01*
X600005Y704895D02*
X600005Y712905D01*
X600005Y704895D02*
X585995Y704895D01*
X585995Y712905D01*
X600005Y712905D01*
X600005Y705835D02*
X585995Y705835D01*
X585995Y706775D02*
X600005Y706775D01*
X600005Y707715D02*
X585995Y707715D01*
X585995Y708655D02*
X600005Y708655D01*
X600005Y709595D02*
X585995Y709595D01*
X585995Y710535D02*
X600005Y710535D01*
X600005Y711475D02*
X585995Y711475D01*
X585995Y712415D02*
X600005Y712415D01*
X600005Y717595D02*
X600005Y725605D01*
X600005Y717595D02*
X585995Y717595D01*
X585995Y725605D01*
X600005Y725605D01*
X600005Y718535D02*
X585995Y718535D01*
X585995Y719475D02*
X600005Y719475D01*
X600005Y720415D02*
X585995Y720415D01*
X585995Y721355D02*
X600005Y721355D01*
X600005Y722295D02*
X585995Y722295D01*
X585995Y723235D02*
X600005Y723235D01*
X600005Y724175D02*
X585995Y724175D01*
X585995Y725115D02*
X600005Y725115D01*
X600005Y730295D02*
X600005Y738305D01*
X600005Y730295D02*
X585995Y730295D01*
X585995Y738305D01*
X600005Y738305D01*
X600005Y731235D02*
X585995Y731235D01*
X585995Y732175D02*
X600005Y732175D01*
X600005Y733115D02*
X585995Y733115D01*
X585995Y734055D02*
X600005Y734055D01*
X600005Y734995D02*
X585995Y734995D01*
X585995Y735935D02*
X600005Y735935D01*
X600005Y736875D02*
X585995Y736875D01*
X585995Y737815D02*
X600005Y737815D01*
X600005Y742995D02*
X600005Y751005D01*
X600005Y742995D02*
X585995Y742995D01*
X585995Y751005D01*
X600005Y751005D01*
X600005Y743935D02*
X585995Y743935D01*
X585995Y744875D02*
X600005Y744875D01*
X600005Y745815D02*
X585995Y745815D01*
X585995Y746755D02*
X600005Y746755D01*
X600005Y747695D02*
X585995Y747695D01*
X585995Y748635D02*
X600005Y748635D01*
X600005Y749575D02*
X585995Y749575D01*
X585995Y750515D02*
X600005Y750515D01*
D32*
X530600Y697600D02*
X530600Y642400D01*
X475400Y642400D01*
X475400Y697600D01*
X530600Y697600D01*
X530600Y646960D02*
X475400Y646960D01*
X475400Y651520D02*
X530600Y651520D01*
X530600Y656080D02*
X475400Y656080D01*
X475400Y660640D02*
X530600Y660640D01*
X530600Y665200D02*
X475400Y665200D01*
X475400Y669760D02*
X530600Y669760D01*
X530600Y674320D02*
X475400Y674320D01*
X475400Y678880D02*
X530600Y678880D01*
X530600Y683440D02*
X475400Y683440D01*
X475400Y688000D02*
X530600Y688000D01*
X530600Y692560D02*
X475400Y692560D01*
X475400Y697120D02*
X530600Y697120D01*
D33*
X702180Y77080D02*
X726850Y77080D01*
X702180Y77080D02*
X701100Y76000D01*
X737400Y383900D02*
X763500Y410000D01*
X806500Y410000D02*
X817500Y421000D01*
X817500Y442500D01*
X816100Y443900D01*
X798800Y443900D01*
X806500Y410000D02*
X763500Y410000D01*
X750400Y383900D02*
X737400Y383900D01*
X750400Y383900D02*
X767000Y400500D01*
X810500Y400500D02*
X826500Y416500D01*
X826500Y488500D01*
X819300Y495700D02*
X808800Y495700D01*
X810500Y400500D02*
X767000Y400500D01*
X826500Y488500D02*
X819300Y495700D01*
X701100Y76000D02*
X690000Y76000D01*
X681000Y67000D02*
X681000Y29000D01*
X671000Y19000D01*
X136000Y56000D02*
X56250Y135750D01*
X37500Y154500D01*
X37500Y300000D01*
X37000Y300000D02*
X37000Y440000D01*
X37000Y440500D01*
X681000Y67000D02*
X690000Y76000D01*
X671000Y19000D02*
X330000Y19000D01*
X330000Y30000D02*
X259500Y30000D01*
X228000Y30000D01*
D24*
X700000Y100000D03*
D33*
X701100Y98900D01*
X701100Y76000D01*
X265700Y399880D02*
X265700Y434700D01*
X264400Y436000D01*
X210700Y432500D02*
X210700Y399880D01*
X210700Y432500D02*
X209900Y433300D01*
X185820Y335000D02*
X168300Y335000D01*
X159100Y325800D01*
X210700Y285120D02*
X210700Y272200D01*
X204500Y266000D02*
X204500Y251000D01*
X192900Y239400D01*
X190400Y239400D01*
X204500Y266000D02*
X210700Y272200D01*
X240700Y260200D02*
X243600Y257300D01*
X240700Y260200D02*
X240700Y285120D01*
X290000Y185000D02*
X289500Y184500D01*
X289500Y165600D01*
X290000Y185000D02*
X284500Y185000D01*
X280000Y180500D01*
X280000Y157000D01*
X286352Y150648D01*
X312763Y150648D02*
X312911Y150500D01*
X316000Y150500D01*
X312763Y150648D02*
X286352Y150648D01*
X259100Y100000D02*
X259500Y99600D01*
X259500Y30000D01*
X330000Y30000D02*
X330000Y19000D01*
X330000Y30000D02*
X330000Y73500D01*
X356500Y100000D01*
X356500Y126500D01*
X356500Y130000D01*
X356500Y149500D01*
X350500Y155500D01*
X344600Y155500D01*
X353400Y123400D02*
X333600Y123400D01*
X353400Y123400D02*
X356500Y126500D01*
X333600Y123400D02*
X333600Y132900D01*
X316000Y150500D01*
X187300Y108100D02*
X187300Y30000D01*
X139300Y59300D02*
X139300Y108000D01*
X139300Y59300D02*
X136000Y56000D01*
X233700Y257300D02*
X243600Y257300D01*
X233700Y257300D02*
X233500Y257500D01*
X228000Y252000D01*
X228000Y175500D01*
X228000Y30000D01*
X190400Y212400D02*
X190400Y239400D01*
X178000Y200000D02*
X120500Y200000D01*
X56250Y135750D01*
X178000Y200000D02*
X190400Y212400D01*
X159100Y325800D02*
X105800Y325800D01*
X80000Y300000D02*
X37500Y300000D01*
X37000Y300000D01*
X80000Y300000D02*
X105800Y325800D01*
D34*
X240000Y450000D03*
D33*
X254000Y436000D01*
X264400Y436000D01*
X240000Y450000D02*
X222500Y432500D01*
X210700Y432500D01*
X240000Y450000D02*
X240000Y460000D01*
X230500Y469500D01*
X180000Y469500D01*
X162750Y452250D01*
X161800Y451300D01*
X161800Y404100D01*
X412400Y733700D02*
X413000Y734300D01*
X412400Y733700D02*
X362500Y733700D01*
X362500Y741500D01*
X355000Y749000D01*
X31500Y749000D01*
X31500Y623500D02*
X31500Y471700D01*
X31500Y623500D02*
X31500Y749000D01*
X674100Y383900D02*
X737400Y383900D01*
X674100Y383900D02*
X674000Y384000D01*
X633000Y425000D01*
X633000Y445300D01*
X632000Y446300D01*
X737400Y383900D02*
X756800Y364500D01*
X841000Y591200D02*
X837500Y594700D01*
X782500Y364500D02*
X756800Y364500D01*
X782500Y364500D02*
X841000Y423000D01*
X841000Y550000D01*
X841000Y591200D01*
X837500Y594700D02*
X809300Y622900D01*
X809300Y624400D01*
D35*
X244200Y176300D02*
X243400Y175500D01*
X228000Y175500D01*
D33*
X356500Y130000D02*
X430000Y130000D01*
X500000Y200000D02*
X500000Y250000D01*
X424400Y280000D02*
X412700Y291700D01*
X500000Y200000D02*
X430000Y130000D01*
X500000Y250000D02*
X470000Y280000D01*
X424400Y280000D01*
X664900Y374900D02*
X674000Y384000D01*
X664900Y374900D02*
X499500Y374900D01*
X441900Y374900D01*
X333800Y395000D02*
X326500Y387700D01*
X479400Y395000D02*
X499500Y374900D01*
X479400Y395000D02*
X333800Y395000D01*
X844200Y553200D02*
X930500Y553200D01*
X844200Y553200D02*
X841000Y550000D01*
X54300Y457300D02*
X37000Y440000D01*
X54300Y457300D02*
X68900Y457300D01*
X45900Y457300D01*
X31500Y471700D01*
X32400Y622600D02*
X110000Y622600D01*
X32400Y622600D02*
X31500Y623500D01*
X187300Y30000D02*
X228000Y30000D01*
X187300Y30000D02*
X162000Y30000D01*
X136000Y56000D01*
X157700Y457300D02*
X68900Y457300D01*
X157700Y457300D02*
X162750Y452250D01*
D34*
X242000Y217500D03*
X248000Y123000D03*
X302500Y124500D03*
X297500Y52000D03*
D35*
X300580Y305000D02*
X324000Y305000D01*
X329944Y299056D01*
X329944Y276044D02*
X319000Y265100D01*
X329944Y276044D02*
X329944Y299056D01*
X347500Y375000D02*
X348900Y376400D01*
X318028Y375000D02*
X300580Y375000D01*
X318028Y375000D02*
X319395Y376367D01*
X333605Y376367D01*
X334972Y375000D01*
X347500Y375000D01*
X185820Y310000D02*
X160300Y310000D01*
X159100Y308800D01*
X285000Y325000D02*
X300580Y325000D01*
X285000Y325000D02*
X280000Y320000D01*
X280000Y307000D01*
X282000Y305000D01*
X300580Y305000D01*
D24*
X800000Y550000D03*
D35*
X241533Y399047D02*
X240700Y399880D01*
X241533Y399047D02*
X241533Y391400D01*
X261467Y371467D01*
X267933Y365000D01*
X270000Y365000D01*
X300580Y365000D01*
X215500Y294967D02*
X215500Y285320D01*
X215700Y285120D01*
X210233Y300233D02*
X200467Y310000D01*
X210233Y300233D02*
X215500Y294967D01*
X200467Y310000D02*
X185820Y310000D01*
X954400Y301100D02*
X954500Y301000D01*
X955500Y300000D01*
X832439Y247700D02*
X806700Y273439D01*
X832439Y247700D02*
X842300Y247700D01*
X859100Y264500D01*
X877500Y264500D01*
X894800Y247200D01*
X922100Y247200D01*
X924300Y245000D01*
X946500Y245000D01*
X959500Y258000D01*
X954500Y292000D02*
X954500Y301000D01*
X959500Y287000D02*
X959500Y258000D01*
X959500Y287000D02*
X954500Y292000D01*
X962200Y229300D02*
X962200Y189600D01*
X962200Y229300D02*
X946500Y245000D01*
X962200Y189600D02*
X962200Y161400D01*
X962500Y161100D01*
X910100Y79800D02*
X884400Y79800D01*
X873900Y90300D01*
X854200Y90300D01*
X810700Y133800D02*
X810700Y140500D01*
X810700Y133800D02*
X854200Y90300D01*
X810700Y140500D02*
X795700Y155500D01*
X752250Y140750D02*
X752250Y131320D01*
X767000Y155500D02*
X795700Y155500D01*
X767000Y155500D02*
X752250Y140750D01*
X752250Y131320D02*
X739550Y131320D01*
X739550Y77080D01*
X752250Y77080D01*
X746200Y70430D02*
X746200Y45900D01*
X746200Y70430D02*
X739550Y77080D01*
X746200Y45900D02*
X714200Y45900D01*
X701100Y59000D01*
X663000Y192000D02*
X663000Y202400D01*
X663000Y192000D02*
X656000Y185000D01*
X619000Y185000D01*
X604100Y199900D02*
X604100Y200400D01*
X604100Y199900D02*
X619000Y185000D01*
X604100Y200400D02*
X603500Y201000D01*
X603500Y216500D01*
X586500Y233500D01*
X586500Y243100D01*
X603800Y288400D02*
X622900Y307500D01*
X649500Y307500D01*
X663400Y293600D01*
X663400Y289200D01*
X586500Y253500D02*
X586500Y243100D01*
X597500Y264500D02*
X647500Y264500D01*
X663400Y280400D01*
X663400Y289200D01*
X591500Y258500D02*
X586500Y253500D01*
X591500Y258500D02*
X597500Y264500D01*
X591500Y258500D02*
X545500Y258500D01*
X545000Y258000D01*
X543000Y258000D01*
X526250Y241250D01*
X526100Y241100D01*
X570200Y173000D02*
X589100Y154100D01*
X570200Y173000D02*
X546000Y173000D01*
X527600Y154600D01*
X527600Y153400D01*
X527600Y142170D02*
X550050Y119720D01*
X527600Y142170D02*
X527600Y153400D01*
X383100Y296100D02*
X360400Y296100D01*
X383100Y296100D02*
X383400Y295800D01*
X391300Y295800D01*
X398200Y302700D02*
X407700Y302700D01*
X398200Y302700D02*
X391300Y295800D01*
X417700Y302700D02*
X417900Y302500D01*
X435300Y302500D02*
X441000Y296800D01*
X435300Y302500D02*
X417900Y302500D01*
X441000Y296800D02*
X470700Y296800D01*
X526250Y241250D01*
X333600Y106400D02*
X333600Y100600D01*
X297500Y64500D02*
X297500Y52000D01*
X297500Y64500D02*
X333600Y100600D01*
X299000Y129500D02*
X299000Y140600D01*
X299000Y129500D02*
X298500Y129000D01*
X302500Y125000D01*
X302500Y124500D01*
X243600Y219100D02*
X243600Y240300D01*
X243600Y219100D02*
X242000Y217500D01*
X249700Y145000D02*
X249700Y124700D01*
X248000Y123000D01*
X432100Y179100D02*
X432100Y192400D01*
X432100Y179100D02*
X421000Y168000D01*
X377000Y168000D01*
X368800Y176200D01*
X368800Y191900D01*
X368200Y192500D01*
X350000Y192500D02*
X319000Y223500D01*
X319000Y265100D01*
X350000Y192500D02*
X368200Y192500D01*
X300580Y375000D02*
X280000Y375000D01*
X270000Y365000D01*
X285000Y350000D02*
X300580Y350000D01*
X285000Y350000D02*
X280000Y355000D01*
X270000Y365000D01*
X280000Y355000D02*
X280000Y320000D01*
X200000Y370000D02*
X185820Y370000D01*
X200000Y370000D02*
X210000Y370000D01*
X260000Y370000D01*
X261467Y371467D01*
X210233Y369767D02*
X210233Y300233D01*
X210233Y369767D02*
X210000Y370000D01*
X159100Y308800D02*
X136800Y308800D01*
X124000Y296000D01*
X124000Y273500D01*
X133100Y264400D02*
X170700Y264400D01*
X133100Y264400D02*
X124000Y273500D01*
X170700Y264400D02*
X170700Y242100D01*
X173400Y239400D01*
X280000Y375000D02*
X324000Y419000D01*
X333500Y419000D02*
X445850Y531350D01*
X445850Y567000D01*
X333500Y419000D02*
X324000Y419000D01*
X142600Y387400D02*
X142600Y383600D01*
X345500Y733700D02*
X341700Y737500D01*
X93661Y737500D02*
X80700Y724539D01*
X93661Y737500D02*
X341700Y737500D01*
X413000Y747000D02*
X593000Y747000D01*
X704500Y747000D01*
X737400Y714100D01*
X810000Y714100D01*
X811700Y714100D01*
X863300Y662500D01*
X945100Y642000D02*
X954000Y642000D01*
X886200Y594700D02*
X854500Y594700D01*
X895000Y603500D02*
X895000Y646500D01*
X879000Y662500D01*
X863300Y662500D01*
X895000Y603500D02*
X886200Y594700D01*
X769365Y448035D02*
X772700Y444700D01*
X719403Y448035D02*
X706588Y460850D01*
X717903Y472165D01*
X719403Y448035D02*
X769365Y448035D01*
X748665Y472165D02*
X771500Y495000D01*
X748665Y472165D02*
X717903Y472165D01*
X771500Y495000D02*
X781500Y495000D01*
X781800Y495300D01*
X781800Y531800D01*
X800000Y550000D01*
X589161Y456361D02*
X547800Y415000D01*
X589161Y456361D02*
X601200Y456361D01*
X387200Y376400D02*
X348900Y376400D01*
X387200Y376400D02*
X392100Y371500D01*
X413300Y371500D01*
X414600Y372800D01*
X428000Y372800D01*
X436900Y363900D01*
X520100Y153400D02*
X527600Y153400D01*
X520100Y153400D02*
X509000Y164500D01*
X509000Y224000D01*
X526100Y241100D01*
D34*
X142000Y237500D03*
D35*
X143900Y239400D01*
X173400Y239400D01*
D34*
X472000Y357500D03*
D35*
X463600Y363900D02*
X446900Y363900D01*
X470000Y357500D02*
X472000Y357500D01*
X470000Y357500D02*
X463600Y363900D01*
X300580Y355000D02*
X300580Y350000D01*
D34*
X182500Y421500D03*
X291000Y458500D03*
D35*
X209900Y450300D02*
X196800Y450300D01*
X182500Y436000D02*
X182500Y421500D01*
X182500Y436000D02*
X196800Y450300D01*
X198000Y372000D02*
X200000Y370000D01*
X198000Y372000D02*
X198000Y406000D01*
X182500Y421500D01*
X264400Y453000D02*
X285500Y453000D01*
X291000Y458500D01*
X407700Y302700D02*
X417700Y302700D01*
D34*
X471500Y315500D03*
D35*
X470700Y314700D01*
X470700Y296800D01*
D33*
X609800Y47400D02*
X632700Y47400D01*
X609800Y47400D02*
X609400Y47800D01*
D36*
X596907Y47800D01*
X576925Y27818D01*
X351000Y27818D01*
X484400Y153400D02*
X527600Y153400D01*
X394000Y117500D02*
X345500Y69000D01*
X345500Y33318D01*
X351000Y27818D01*
X448500Y117500D02*
X484400Y153400D01*
X448500Y117500D02*
X394000Y117500D01*
X810000Y714100D02*
X949100Y714100D01*
X949500Y714500D01*
X962500Y701500D01*
X962500Y657500D01*
X947000Y642000D01*
X945100Y642000D01*
X961500Y444100D02*
X958050Y440650D01*
X973000Y408600D02*
X973000Y353000D01*
X963600Y343600D01*
X955100Y343600D01*
X954400Y301100D02*
X963600Y301100D01*
X971000Y308500D01*
X971000Y327700D01*
X955100Y343600D01*
X935200Y473400D02*
X935200Y484650D01*
X934750Y485100D01*
X935200Y473400D02*
X957800Y473400D01*
X961500Y477100D01*
X965500Y481100D01*
X965500Y495600D01*
X961500Y477100D02*
X961500Y444100D01*
X961500Y440000D01*
X961500Y429600D01*
X965500Y425600D01*
X965500Y416100D02*
X973000Y408600D01*
X965500Y416100D02*
X965500Y425600D01*
X939150Y440000D02*
X934750Y435600D01*
X939150Y440000D02*
X961500Y440000D01*
D35*
X98100Y431900D02*
X68900Y431900D01*
X98100Y431900D02*
X142600Y387400D01*
D33*
X593000Y620000D02*
X608000Y620000D01*
X628500Y599500D02*
X628500Y540000D01*
X683000Y485500D01*
X737400Y485500D01*
X628500Y599500D02*
X608000Y620000D01*
X605400Y594600D02*
X593000Y594600D01*
X605400Y594600D02*
X610000Y590000D01*
X610000Y540000D01*
X650500Y499500D01*
X650500Y452000D01*
X667800Y434700D01*
X737400Y434700D01*
X808200Y478300D02*
X808800Y477700D01*
X808200Y478300D02*
X781800Y478300D01*
X772800Y478300D01*
X754600Y460100D02*
X737400Y460100D01*
X754600Y460100D02*
X772800Y478300D01*
X330700Y560700D02*
X281200Y560700D01*
X390000Y620000D02*
X413000Y620000D01*
X390000Y620000D02*
X330700Y560700D01*
X325300Y535300D02*
X281200Y535300D01*
X397300Y607300D02*
X413000Y607300D01*
X397300Y607300D02*
X325300Y535300D01*
X324800Y662300D02*
X281200Y662300D01*
X324800Y662300D02*
X325000Y662500D01*
X336500Y662500D01*
X344800Y670800D02*
X413000Y670800D01*
X344800Y670800D02*
X336500Y662500D01*
X327500Y611500D02*
X281200Y611500D01*
X327500Y611500D02*
X360000Y644000D01*
X411600Y644000D01*
X413000Y645400D01*
X330900Y636900D02*
X281200Y636900D01*
X352100Y658100D02*
X413000Y658100D01*
X352100Y658100D02*
X330900Y636900D01*
X593000Y632700D02*
X593200Y632500D01*
X613000Y632500D01*
X641500Y604000D01*
X641500Y550500D01*
X681100Y510900D01*
X737400Y510900D01*
X625900Y658100D02*
X593000Y658100D01*
X662000Y576500D02*
X677000Y561500D01*
X737200Y561500D01*
X737400Y561700D01*
X662000Y622000D02*
X625900Y658100D01*
X662000Y622000D02*
X662000Y576500D01*
X620100Y645400D02*
X593000Y645400D01*
X620100Y645400D02*
X652000Y613500D01*
X652000Y562500D01*
X676500Y538000D01*
X735700Y538000D01*
X737400Y536300D01*
X616000Y683500D02*
X593000Y683500D01*
X616000Y683500D02*
X671500Y628000D01*
X671500Y595500D01*
X680500Y586500D01*
X681100Y587100D01*
X737400Y587100D01*
X740300Y590000D01*
X760000Y590000D01*
X770000Y600000D01*
X770000Y640000D01*
X792500Y662500D01*
X809300Y662500D01*
X624900Y721600D02*
X593000Y721600D01*
X624900Y721600D02*
X684000Y662500D01*
X736600Y662500D01*
X737400Y663300D01*
X755300Y663300D01*
X770500Y678500D01*
X820500Y678500D01*
X829500Y669500D01*
X829500Y659500D01*
X819800Y649800D01*
X809300Y649800D01*
X620100Y708900D02*
X593000Y708900D01*
X620100Y708900D02*
X679500Y649500D01*
X703100Y649500D01*
X703800Y650200D01*
X593200Y696000D02*
X593000Y696200D01*
X593200Y696000D02*
X617500Y696000D01*
X682000Y631500D01*
X682000Y627000D01*
X691700Y617300D01*
X692800Y617300D01*
D35*
X316000Y720000D02*
X309000Y727000D01*
X316000Y720000D02*
X411400Y720000D01*
D33*
X413000Y721600D01*
D35*
X309000Y727000D02*
X134500Y727000D01*
X110000Y702500D01*
X110000Y640600D01*
X91339Y659261D01*
X80700Y659261D01*
D33*
X632000Y490839D02*
X632000Y464300D01*
X632000Y490839D02*
X601200Y521639D01*
X601200Y534800D01*
X594500Y541500D01*
X594500Y580400D01*
X593000Y581900D01*
X593000Y734300D02*
X635200Y734300D01*
X681000Y688500D01*
X737200Y688500D01*
X737400Y688700D01*
X277938Y389457D02*
X276152Y391243D01*
X276152Y399428D02*
X275700Y399880D01*
D35*
X276152Y399428D02*
X276152Y391243D01*
X277938Y389457D02*
X283957Y389457D01*
X425500Y572000D02*
X439000Y585500D01*
X541500Y585500D01*
X547450Y579550D02*
X547450Y567000D01*
X425500Y531000D02*
X283957Y389457D01*
X425500Y531000D02*
X425500Y572000D01*
X541500Y585500D02*
X547450Y579550D01*
D33*
X413000Y532180D02*
X280700Y399880D01*
X413000Y532180D02*
X413000Y581900D01*
D36*
X330000Y408000D02*
X302000Y380000D01*
X300580Y380000D01*
X330000Y408000D02*
X393500Y408000D01*
X458550Y473050D02*
X458550Y567000D01*
X458550Y473050D02*
X393500Y408000D01*
D35*
X270700Y412200D02*
X270700Y399880D01*
X402600Y594600D02*
X413000Y594600D01*
X396000Y537500D02*
X270700Y412200D01*
X396000Y537500D02*
X396000Y588000D01*
X402600Y594600D01*
D33*
X240300Y656800D02*
X148200Y656800D01*
X267000Y683500D02*
X413000Y683500D01*
X267000Y683500D02*
X240300Y656800D01*
X930000Y596200D02*
X930500Y596200D01*
D35*
X919700Y606500D02*
X919700Y642000D01*
X919700Y606500D02*
X930000Y596200D01*
X180600Y599000D02*
X148200Y631400D01*
X180600Y599000D02*
X341000Y599000D01*
X374700Y632700D01*
X413000Y632700D01*
D33*
X797000Y427700D02*
X798800Y425900D01*
X797000Y427700D02*
X772700Y427700D01*
X765000Y420000D01*
X759100Y420000D02*
X748400Y409300D01*
X737400Y409300D01*
X759100Y420000D02*
X765000Y420000D01*
X437200Y91000D02*
X406100Y59900D01*
X437200Y91000D02*
X533000Y91000D01*
X537500Y95500D01*
X570500Y95500D01*
X575450Y100450D01*
X575450Y119720D01*
D34*
X520000Y500000D03*
D35*
X520500Y500500D01*
X520500Y515000D01*
X531200Y525700D01*
X531200Y525800D01*
D33*
X560150Y555150D02*
X560150Y567000D01*
X560150Y555150D02*
X550000Y545000D01*
X550000Y526600D01*
X549200Y525800D01*
X579300Y607300D02*
X593000Y607300D01*
X579300Y607300D02*
X574000Y602000D01*
X574000Y522900D01*
X547200Y496100D01*
X547200Y485600D01*
X547200Y467600D02*
X547200Y441000D01*
X547800Y440400D01*
X411700Y707600D02*
X148200Y707600D01*
X411700Y707600D02*
X413000Y708900D01*
X225700Y682200D02*
X148200Y682200D01*
X225700Y682200D02*
X238500Y695000D01*
X411800Y695000D01*
X413000Y696200D01*
D35*
X300580Y335000D02*
X781500Y335000D01*
X900400Y453900D02*
X935200Y453900D01*
X900400Y453900D02*
X781500Y335000D01*
X774893Y340000D02*
X300580Y340000D01*
X774893Y340000D02*
X895293Y460400D01*
X935200Y460400D01*
X385800Y205800D02*
X385800Y191900D01*
X385800Y205800D02*
X362100Y229500D01*
X329000Y310000D02*
X300580Y310000D01*
X329000Y310000D02*
X337000Y302000D01*
X337000Y276500D01*
X345000Y268500D01*
X371500Y268500D01*
X381000Y259000D01*
X381000Y244000D01*
X366500Y229500D01*
D33*
X362100Y229500D01*
X348300Y360000D02*
X300580Y360000D01*
X348300Y360000D02*
X348900Y359400D01*
X149200Y360000D02*
X142600Y366600D01*
X149200Y360000D02*
X185820Y360000D01*
X280700Y285120D02*
X300720Y265100D01*
X302000Y265100D01*
X205700Y282400D02*
X187700Y264400D01*
X205700Y282400D02*
X205700Y285120D01*
D34*
X120000Y380000D03*
D33*
X151500Y279500D02*
X181000Y279500D01*
X187700Y272800D02*
X187700Y264400D01*
X187700Y272800D02*
X181000Y279500D01*
D34*
X151500Y279500D03*
D33*
X142600Y366600D02*
X141700Y367500D01*
X127500Y367500D01*
X120000Y375000D01*
X120000Y380000D01*
D34*
X370000Y358500D03*
D33*
X349800Y358500D01*
X348900Y359400D01*
D34*
X318500Y293000D03*
D33*
X303500Y266600D02*
X302000Y265100D01*
X303500Y266600D02*
X303500Y282000D01*
X314500Y293000D01*
X318500Y293000D01*
X326200Y370000D02*
X300580Y370000D01*
X326200Y370000D02*
X326500Y369700D01*
D35*
X300580Y330000D02*
X430000Y330000D01*
X441000Y319000D01*
X441000Y314800D01*
X449100Y221500D02*
X449100Y192400D01*
D33*
X449100Y221500D02*
X457100Y229500D01*
D35*
X334000Y315000D02*
X300580Y315000D01*
X343000Y306000D02*
X343000Y282000D01*
X348500Y276500D01*
X389500Y276500D01*
X436500Y229500D01*
D33*
X457100Y229500D01*
D35*
X343000Y306000D02*
X334000Y315000D01*
X275700Y285120D02*
X275700Y251300D01*
X299000Y165600D02*
X299000Y157000D01*
X300500Y155500D02*
X326600Y155500D01*
X300500Y155500D02*
X299000Y157000D01*
X325600Y156500D02*
X325600Y201400D01*
X325600Y156500D02*
X326600Y155500D01*
X325600Y201400D02*
X275700Y251300D01*
X270700Y243407D02*
X270700Y285120D01*
X308500Y184500D02*
X308500Y165600D01*
D33*
X308500Y184500D02*
X308000Y185000D01*
X270900Y243407D02*
X270700Y243407D01*
D35*
X270900Y243407D02*
X308500Y205807D01*
X308500Y184500D01*
X265700Y237300D02*
X265700Y285120D01*
X265700Y237300D02*
X275000Y228000D01*
X275000Y191000D01*
X268000Y184000D01*
X268000Y85000D01*
X274000Y79000D01*
X283400Y79000D01*
X298300Y93900D01*
D33*
X310400Y93900D01*
X314000Y97500D02*
X314000Y129000D01*
X308500Y134500D01*
X308500Y140600D01*
X314000Y97500D02*
X310400Y93900D01*
X279400Y100000D02*
X277100Y100000D01*
X291300Y111900D02*
X298300Y111900D01*
X291300Y111900D02*
X279400Y100000D01*
X298300Y111900D02*
X298300Y112900D01*
X289500Y121700D01*
X289500Y140600D01*
D35*
X230700Y276700D02*
X230700Y285120D01*
X215000Y261000D02*
X215000Y218000D01*
X188000Y191000D01*
X149500Y191000D01*
X138700Y180200D01*
X138700Y172700D01*
X215000Y261000D02*
X230700Y276700D01*
X222000Y206800D02*
X187700Y172500D01*
X235700Y272700D02*
X235700Y285120D01*
X222000Y259000D02*
X222000Y206800D01*
X222000Y259000D02*
X235700Y272700D01*
D33*
X138700Y147300D02*
X138700Y126600D01*
X139300Y126000D01*
X187700Y126500D02*
X187700Y147100D01*
X187700Y126500D02*
X187300Y126100D01*
D36*
X300580Y345000D02*
X382600Y345000D01*
X392100Y354500D01*
D33*
X413300Y354500D01*
X414600Y355800D01*
D36*
X439000Y355800D01*
D33*
X441900Y352900D01*
D35*
X340000Y320000D02*
X300580Y320000D01*
X340000Y320000D02*
X346900Y313100D01*
X360400Y313100D01*
D33*
X360700Y312800D01*
X383400Y312800D01*
X411800Y312800D01*
X412700Y313700D01*
D35*
X185820Y345000D02*
X105500Y345000D01*
X100250Y350250D01*
X74350Y350250D01*
X68900Y355700D01*
X94000Y340000D02*
X185820Y340000D01*
X94000Y340000D02*
X82800Y328800D01*
X70400Y328800D02*
X68900Y330300D01*
X70400Y328800D02*
X82800Y328800D01*
X260700Y285120D02*
X260700Y231800D01*
X265200Y227300D01*
X259000Y172300D02*
X249700Y163000D01*
X259000Y198000D02*
X265200Y204200D01*
X259000Y198000D02*
X259000Y172300D01*
X265200Y204200D02*
X265200Y227300D01*
D33*
X185820Y365000D02*
X171000Y365000D01*
X161800Y374200D02*
X161800Y386100D01*
X161800Y374200D02*
X171000Y365000D01*
X255700Y206387D02*
X244200Y194887D01*
X244200Y194300D01*
X255700Y206387D02*
X255700Y285120D01*
D35*
X185820Y350000D02*
X114000Y350000D01*
X84400Y379600D01*
D33*
X703800Y632200D02*
X731700Y632200D01*
X737400Y637900D01*
D35*
X84400Y379600D02*
X70400Y379600D01*
X68900Y381100D01*
X125000Y355000D02*
X185820Y355000D01*
X125000Y355000D02*
X73500Y406500D01*
D33*
X692800Y599300D02*
X724200Y599300D01*
X737400Y612500D01*
D35*
X73500Y406500D02*
X68900Y406500D01*
D33*
X950000Y98100D02*
X951400Y99500D01*
X950000Y98100D02*
X950000Y70000D01*
X930000Y50000D01*
X814200Y50000D02*
X810700Y46500D01*
X814200Y50000D02*
X930000Y50000D01*
X810700Y46500D02*
X763800Y46500D01*
X763200Y45900D01*
X763200Y75330D01*
X764950Y77080D01*
X646000Y102500D02*
X628300Y102500D01*
X628000Y102800D01*
X629000Y119500D02*
X648000Y119500D01*
X629000Y119500D02*
X606100Y142400D01*
X648000Y119500D02*
X670000Y97500D01*
X670000Y118000D01*
X693500Y141500D02*
X693500Y173000D01*
X693500Y257000D01*
X693500Y300500D01*
X677000Y317000D01*
X605000Y317000D01*
X586800Y298800D01*
X586800Y288400D01*
X693500Y141500D02*
X670000Y118000D01*
X586800Y288400D02*
X586100Y289100D01*
X558100Y289100D01*
X606100Y154100D02*
X606100Y142400D01*
X606100Y154100D02*
X630700Y154100D01*
X631000Y154400D01*
X603500Y243100D02*
X603500Y243500D01*
X617000Y257000D01*
X693500Y257000D01*
X605400Y241200D02*
X603500Y243100D01*
X605400Y241200D02*
X631400Y241200D01*
X560600Y200400D02*
X559600Y201400D01*
X560600Y200400D02*
X587100Y200400D01*
X587100Y187900D01*
X602000Y173000D01*
X693500Y173000D01*
D24*
X660000Y50000D03*
D33*
X660000Y88500D01*
X646000Y102500D01*
X669500Y59500D02*
X660000Y50000D01*
X669500Y59500D02*
X670000Y59500D01*
X670000Y97500D01*
X588830Y64800D02*
X588150Y65480D01*
X588830Y64800D02*
X609400Y64800D01*
X609800Y64400D01*
X632700Y64400D01*
X633100Y64000D01*
X646000Y64000D02*
X660000Y50000D01*
X646000Y64000D02*
X633100Y64000D01*
X562750Y119720D02*
X562750Y139250D01*
X563000Y139500D01*
X559600Y142900D01*
X559600Y153400D01*
X420800Y100000D02*
X380700Y59900D01*
X420800Y100000D02*
X520000Y100000D01*
X525000Y105000D01*
X556000Y105000D01*
X562750Y111750D01*
X562750Y119720D01*
D36*
X481300Y35500D02*
X456900Y59900D01*
X481300Y35500D02*
X562500Y35500D01*
X575450Y48450D02*
X575450Y65480D01*
X575450Y48450D02*
X562500Y35500D01*
D33*
X482300Y57700D02*
X482300Y59900D01*
D36*
X482300Y57700D02*
X498000Y42000D01*
X552000Y42000D01*
X562750Y52750D02*
X562750Y65480D01*
X562750Y52750D02*
X552000Y42000D01*
D33*
X544470Y59900D02*
X507700Y59900D01*
X544470Y59900D02*
X550050Y65480D01*
X593080Y119720D02*
X610000Y102800D01*
X593080Y119720D02*
X588150Y119720D01*
X451600Y80000D02*
X431500Y59900D01*
X451600Y80000D02*
X540000Y80000D01*
X546000Y86000D01*
X579000Y86000D01*
X588150Y95150D01*
X588150Y119720D01*
X527600Y201400D02*
X558100Y231900D01*
X558100Y241100D01*
X544200Y271000D02*
X526100Y289100D01*
X544200Y271000D02*
X615500Y271000D01*
X631400Y286900D02*
X631400Y289200D01*
X631400Y286900D02*
X615500Y271000D01*
X663400Y234800D02*
X631000Y202400D01*
X663400Y234800D02*
X663400Y241200D01*
X772880Y131320D02*
X810700Y93500D01*
X772880Y131320D02*
X764950Y131320D01*
X954400Y318100D02*
X955000Y318700D01*
X941150Y314150D02*
X941150Y273733D01*
X945700Y318700D02*
X955000Y318700D01*
X945700Y318700D02*
X941150Y314150D01*
X917500Y442500D02*
X917900Y442900D01*
X917500Y442500D02*
X905500Y430500D01*
X905500Y411100D01*
X934100Y382500D01*
X934100Y338400D01*
X954400Y318100D01*
X917900Y442900D02*
X922400Y447400D01*
X935200Y447400D01*
X941150Y220667D02*
X941150Y193650D01*
X945200Y189600D01*
X945200Y161400D01*
X945500Y161100D01*
X945500Y136500D01*
X951400Y130600D01*
X951400Y129900D01*
X928450Y273733D02*
X930000Y275283D01*
X930000Y311200D02*
X918000Y323200D01*
X930000Y311200D02*
X930000Y275283D01*
X918000Y323200D02*
X918000Y369600D01*
X917800Y369800D01*
X915750Y287250D02*
X915750Y273733D01*
X915750Y287250D02*
X912000Y291000D01*
X889000Y291000D01*
X870000Y310000D01*
X870000Y319700D01*
X867400Y322300D01*
X867400Y369800D01*
X867800Y370200D01*
X892600Y369600D02*
X892600Y323200D01*
X892600Y369600D02*
X892400Y369800D01*
X892400Y387600D01*
X880000Y400000D01*
X860000Y400000D01*
X842400Y382400D02*
X842400Y370200D01*
X842400Y382400D02*
X860000Y400000D01*
X842400Y370200D02*
X842000Y369800D01*
X842000Y322300D01*
X842000Y298000D01*
X866267Y273733D02*
X903050Y273733D01*
X866267Y273733D02*
X842000Y298000D01*
X952100Y363600D02*
X952100Y382500D01*
X952100Y363600D02*
X955100Y360600D01*
X928450Y220667D02*
X928450Y202950D01*
X903270Y177770D02*
X903270Y154300D01*
X903270Y177770D02*
X928450Y202950D01*
X915750Y205750D02*
X915750Y220667D01*
X880000Y194500D02*
X876000Y190500D01*
X876000Y154970D01*
X875330Y154300D01*
X904500Y194500D02*
X915750Y205750D01*
X904500Y194500D02*
X880000Y194500D01*
X875330Y154300D02*
X873900Y152870D01*
X873900Y107300D01*
X908000Y107300D01*
X910100Y105200D01*
X903050Y220667D02*
X887167Y220667D01*
X887000Y220500D01*
X903050Y220667D02*
X903050Y209550D01*
X898700Y205200D02*
X855600Y205200D01*
X898700Y205200D02*
X903050Y209550D01*
X869000Y220500D02*
X869000Y246400D01*
X867700Y247700D01*
X837600Y205200D02*
X809661Y205200D01*
X806700Y208161D01*
M02*
