G04 EAGLE Gerber RS-274X export*
G75*
%MOMM*%
%FSLAX34Y34*%
%LPD*%
%INBottom Copper*%
%IPPOS*%
%AMOC8*
5,1,8,0,0,1.08239X$1,22.5*%
G01*
%ADD10C,1.879600*%
%ADD11C,2.184400*%
%ADD12R,1.879600X1.879600*%
%ADD13C,1.524000*%
%ADD14C,1.508000*%
%ADD15C,1.950000*%
%ADD16P,2.034460X8X112.500000*%
%ADD17C,0.254000*%
%ADD18C,1.308000*%
%ADD19C,0.177800*%
%ADD20C,0.200000*%

G36*
X990102Y-873D02*
X990102Y-873D01*
X990204Y-865D01*
X990232Y-853D01*
X990263Y-848D01*
X990355Y-804D01*
X990451Y-766D01*
X990474Y-746D01*
X990502Y-733D01*
X990577Y-663D01*
X990657Y-598D01*
X990674Y-572D01*
X990696Y-551D01*
X990747Y-462D01*
X990804Y-377D01*
X990810Y-353D01*
X990828Y-321D01*
X990886Y-61D01*
X990883Y-23D01*
X990888Y0D01*
X990888Y760000D01*
X990873Y760102D01*
X990865Y760204D01*
X990853Y760232D01*
X990848Y760263D01*
X990804Y760355D01*
X990766Y760451D01*
X990746Y760474D01*
X990733Y760502D01*
X990663Y760577D01*
X990598Y760657D01*
X990572Y760674D01*
X990551Y760696D01*
X990462Y760747D01*
X990377Y760804D01*
X990353Y760810D01*
X990321Y760828D01*
X990061Y760886D01*
X990023Y760883D01*
X990000Y760888D01*
X628984Y760888D01*
X628882Y760873D01*
X628780Y760865D01*
X628752Y760853D01*
X628721Y760848D01*
X628629Y760804D01*
X628533Y760766D01*
X628510Y760746D01*
X628482Y760733D01*
X628407Y760663D01*
X628327Y760598D01*
X628310Y760572D01*
X628288Y760551D01*
X628237Y760462D01*
X628180Y760377D01*
X628174Y760353D01*
X628156Y760321D01*
X628098Y760061D01*
X628101Y760023D01*
X628096Y760000D01*
X628096Y756753D01*
X626452Y752785D01*
X623415Y749748D01*
X619447Y748104D01*
X386553Y748104D01*
X382585Y749748D01*
X379548Y752785D01*
X377904Y756753D01*
X377904Y760000D01*
X377889Y760102D01*
X377881Y760204D01*
X377869Y760232D01*
X377864Y760263D01*
X377820Y760355D01*
X377782Y760451D01*
X377762Y760474D01*
X377749Y760502D01*
X377679Y760577D01*
X377614Y760657D01*
X377588Y760674D01*
X377567Y760696D01*
X377478Y760747D01*
X377393Y760804D01*
X377369Y760810D01*
X377337Y760828D01*
X377077Y760886D01*
X377039Y760883D01*
X377016Y760888D01*
X11000Y760888D01*
X10898Y760873D01*
X10796Y760865D01*
X10768Y760853D01*
X10737Y760848D01*
X10645Y760804D01*
X10549Y760766D01*
X10526Y760746D01*
X10498Y760733D01*
X10423Y760663D01*
X10343Y760598D01*
X10326Y760572D01*
X10304Y760551D01*
X10253Y760462D01*
X10196Y760377D01*
X10190Y760353D01*
X10172Y760321D01*
X10114Y760061D01*
X10117Y760023D01*
X10112Y760000D01*
X10112Y0D01*
X10127Y-102D01*
X10135Y-204D01*
X10147Y-232D01*
X10152Y-263D01*
X10196Y-355D01*
X10234Y-451D01*
X10254Y-474D01*
X10267Y-502D01*
X10337Y-577D01*
X10402Y-657D01*
X10428Y-674D01*
X10449Y-696D01*
X10538Y-747D01*
X10623Y-804D01*
X10647Y-810D01*
X10679Y-828D01*
X10939Y-886D01*
X10977Y-883D01*
X11000Y-888D01*
X990000Y-888D01*
X990102Y-873D01*
G37*
%LPC*%
G36*
X696479Y82299D02*
X696479Y82299D01*
X689973Y84994D01*
X684994Y89973D01*
X682299Y96479D01*
X682299Y103521D01*
X684994Y110027D01*
X689973Y115006D01*
X696479Y117701D01*
X701167Y117701D01*
X701188Y117704D01*
X701209Y117702D01*
X701319Y117724D01*
X701430Y117741D01*
X701449Y117750D01*
X701470Y117754D01*
X701508Y117778D01*
X701669Y117856D01*
X701752Y117933D01*
X701795Y117961D01*
X725709Y141875D01*
X725722Y141892D01*
X725738Y141905D01*
X725800Y141998D01*
X725867Y142089D01*
X725874Y142108D01*
X725885Y142126D01*
X725895Y142170D01*
X725954Y142340D01*
X725958Y142452D01*
X725969Y142503D01*
X725969Y367303D01*
X725966Y367323D01*
X725968Y367344D01*
X725946Y367455D01*
X725929Y367565D01*
X725920Y367584D01*
X725916Y367605D01*
X725892Y367644D01*
X725814Y367805D01*
X725737Y367887D01*
X725709Y367931D01*
X720819Y372821D01*
X717841Y380009D01*
X717841Y387791D01*
X720819Y394979D01*
X721812Y395972D01*
X721873Y396055D01*
X721939Y396133D01*
X721951Y396161D01*
X721969Y396186D01*
X722003Y396283D01*
X722043Y396377D01*
X722047Y396408D01*
X722057Y396437D01*
X722060Y396539D01*
X722071Y396642D01*
X722065Y396672D01*
X722066Y396703D01*
X722039Y396802D01*
X722019Y396902D01*
X722006Y396922D01*
X721996Y396959D01*
X721853Y397183D01*
X721825Y397208D01*
X721812Y397228D01*
X720819Y398221D01*
X717841Y405409D01*
X717841Y413191D01*
X720819Y420379D01*
X721812Y421372D01*
X721873Y421455D01*
X721939Y421533D01*
X721951Y421561D01*
X721969Y421586D01*
X722003Y421683D01*
X722043Y421777D01*
X722047Y421808D01*
X722057Y421837D01*
X722060Y421939D01*
X722071Y422042D01*
X722065Y422072D01*
X722066Y422103D01*
X722039Y422202D01*
X722019Y422302D01*
X722006Y422322D01*
X721996Y422359D01*
X721853Y422583D01*
X721825Y422608D01*
X721812Y422628D01*
X720819Y423621D01*
X717841Y430809D01*
X717841Y438591D01*
X720819Y445779D01*
X721812Y446772D01*
X721873Y446855D01*
X721939Y446933D01*
X721951Y446961D01*
X721969Y446986D01*
X722003Y447083D01*
X722043Y447177D01*
X722047Y447208D01*
X722057Y447237D01*
X722060Y447339D01*
X722071Y447442D01*
X722065Y447472D01*
X722066Y447503D01*
X722039Y447602D01*
X722019Y447702D01*
X722006Y447722D01*
X721996Y447759D01*
X721853Y447983D01*
X721825Y448008D01*
X721812Y448028D01*
X720819Y449021D01*
X717841Y456209D01*
X717841Y463991D01*
X720819Y471179D01*
X721812Y472172D01*
X721873Y472255D01*
X721939Y472333D01*
X721951Y472361D01*
X721969Y472386D01*
X722003Y472483D01*
X722043Y472577D01*
X722047Y472608D01*
X722057Y472637D01*
X722060Y472739D01*
X722071Y472842D01*
X722065Y472872D01*
X722066Y472903D01*
X722039Y473002D01*
X722019Y473102D01*
X722006Y473122D01*
X721996Y473159D01*
X721853Y473383D01*
X721825Y473408D01*
X721812Y473428D01*
X720819Y474421D01*
X717841Y481609D01*
X717841Y489391D01*
X720819Y496579D01*
X721812Y497572D01*
X721873Y497655D01*
X721939Y497733D01*
X721951Y497761D01*
X721969Y497786D01*
X722003Y497883D01*
X722043Y497977D01*
X722047Y498008D01*
X722057Y498037D01*
X722060Y498139D01*
X722071Y498242D01*
X722065Y498272D01*
X722066Y498303D01*
X722039Y498402D01*
X722019Y498502D01*
X722006Y498522D01*
X721996Y498559D01*
X721853Y498783D01*
X721825Y498808D01*
X721812Y498828D01*
X720819Y499821D01*
X717841Y507009D01*
X717841Y514791D01*
X720819Y521979D01*
X721812Y522972D01*
X721873Y523055D01*
X721939Y523133D01*
X721951Y523161D01*
X721969Y523186D01*
X722003Y523283D01*
X722043Y523377D01*
X722047Y523408D01*
X722057Y523437D01*
X722060Y523539D01*
X722071Y523642D01*
X722065Y523672D01*
X722066Y523703D01*
X722039Y523802D01*
X722019Y523902D01*
X722006Y523922D01*
X721996Y523959D01*
X721853Y524183D01*
X721825Y524208D01*
X721812Y524228D01*
X720819Y525221D01*
X717841Y532409D01*
X717841Y540191D01*
X720819Y547379D01*
X721812Y548372D01*
X721873Y548455D01*
X721939Y548533D01*
X721951Y548561D01*
X721969Y548586D01*
X722003Y548683D01*
X722043Y548777D01*
X722047Y548808D01*
X722057Y548837D01*
X722060Y548939D01*
X722071Y549042D01*
X722065Y549072D01*
X722066Y549103D01*
X722039Y549202D01*
X722019Y549302D01*
X722006Y549322D01*
X721996Y549359D01*
X721853Y549583D01*
X721825Y549608D01*
X721812Y549628D01*
X720819Y550621D01*
X717841Y557809D01*
X717841Y565591D01*
X720819Y572779D01*
X721812Y573772D01*
X721873Y573855D01*
X721939Y573933D01*
X721951Y573961D01*
X721969Y573986D01*
X722003Y574083D01*
X722043Y574177D01*
X722047Y574208D01*
X722057Y574237D01*
X722060Y574339D01*
X722071Y574442D01*
X722065Y574472D01*
X722066Y574503D01*
X722039Y574602D01*
X722019Y574702D01*
X722006Y574722D01*
X721996Y574759D01*
X721853Y574983D01*
X721825Y575008D01*
X721812Y575028D01*
X720819Y576021D01*
X717841Y583209D01*
X717841Y590991D01*
X720819Y598179D01*
X721812Y599172D01*
X721873Y599255D01*
X721939Y599333D01*
X721951Y599361D01*
X721969Y599386D01*
X722003Y599483D01*
X722043Y599577D01*
X722047Y599608D01*
X722057Y599637D01*
X722060Y599739D01*
X722071Y599842D01*
X722065Y599872D01*
X722066Y599903D01*
X722039Y600002D01*
X722019Y600102D01*
X722006Y600122D01*
X721996Y600159D01*
X721853Y600383D01*
X721825Y600408D01*
X721812Y600428D01*
X721161Y601079D01*
X721144Y601092D01*
X721131Y601108D01*
X721037Y601170D01*
X720947Y601237D01*
X720927Y601244D01*
X720909Y601255D01*
X720865Y601265D01*
X720696Y601324D01*
X720583Y601328D01*
X720533Y601339D01*
X584991Y601339D01*
X584970Y601336D01*
X584949Y601338D01*
X584839Y601316D01*
X584728Y601299D01*
X584709Y601290D01*
X584689Y601286D01*
X584650Y601262D01*
X584489Y601184D01*
X584406Y601107D01*
X584363Y601079D01*
X460822Y477538D01*
X456720Y475839D01*
X79717Y475839D01*
X79626Y475825D01*
X79534Y475820D01*
X79495Y475806D01*
X79454Y475799D01*
X79371Y475759D01*
X79285Y475727D01*
X79252Y475702D01*
X79215Y475684D01*
X79147Y475621D01*
X79075Y475564D01*
X79051Y475531D01*
X79021Y475502D01*
X78975Y475422D01*
X78922Y475347D01*
X78909Y475307D01*
X78889Y475272D01*
X78869Y475182D01*
X78840Y475094D01*
X78840Y475052D01*
X78831Y475012D01*
X78839Y474920D01*
X78838Y474828D01*
X78849Y474788D01*
X78853Y474747D01*
X78887Y474662D01*
X78913Y474573D01*
X78936Y474539D01*
X78952Y474500D01*
X79010Y474429D01*
X79061Y474352D01*
X79087Y474334D01*
X79119Y474294D01*
X79340Y474147D01*
X79360Y474142D01*
X79377Y474130D01*
X79979Y473881D01*
X85481Y468379D01*
X88459Y461191D01*
X88459Y453409D01*
X85481Y446221D01*
X79979Y440719D01*
X77957Y439881D01*
X77893Y439843D01*
X77825Y439813D01*
X77780Y439775D01*
X77729Y439744D01*
X77680Y439689D01*
X77624Y439640D01*
X77592Y439590D01*
X77552Y439545D01*
X77522Y439478D01*
X77482Y439415D01*
X77467Y439358D01*
X77442Y439303D01*
X77433Y439230D01*
X77414Y439158D01*
X77416Y439099D01*
X77409Y439040D01*
X77422Y438967D01*
X77424Y438893D01*
X77441Y438854D01*
X77455Y438778D01*
X77576Y438541D01*
X77577Y438540D01*
X77578Y438539D01*
X78242Y437625D01*
X79022Y436093D01*
X79554Y434458D01*
X79677Y433677D01*
X69789Y433677D01*
X69688Y433662D01*
X69585Y433653D01*
X69557Y433642D01*
X69526Y433637D01*
X69434Y433593D01*
X69339Y433554D01*
X69315Y433535D01*
X69287Y433522D01*
X69212Y433452D01*
X69132Y433387D01*
X69115Y433361D01*
X69093Y433340D01*
X69042Y433251D01*
X68985Y433166D01*
X68980Y433142D01*
X68961Y433110D01*
X68903Y432850D01*
X68906Y432812D01*
X68901Y432789D01*
X68901Y431011D01*
X68916Y430909D01*
X68925Y430807D01*
X68936Y430779D01*
X68941Y430748D01*
X68985Y430656D01*
X69024Y430560D01*
X69043Y430537D01*
X69056Y430509D01*
X69126Y430434D01*
X69191Y430354D01*
X69217Y430337D01*
X69238Y430315D01*
X69327Y430264D01*
X69412Y430207D01*
X69436Y430201D01*
X69469Y430183D01*
X69728Y430125D01*
X69766Y430128D01*
X69789Y430123D01*
X79677Y430123D01*
X79554Y429342D01*
X79022Y427707D01*
X78242Y426175D01*
X77578Y425261D01*
X77544Y425196D01*
X77501Y425135D01*
X77483Y425078D01*
X77456Y425025D01*
X77443Y424953D01*
X77420Y424882D01*
X77419Y424822D01*
X77409Y424764D01*
X77418Y424690D01*
X77417Y424616D01*
X77434Y424559D01*
X77441Y424500D01*
X77472Y424432D01*
X77493Y424361D01*
X77526Y424312D01*
X77550Y424258D01*
X77600Y424202D01*
X77641Y424140D01*
X77675Y424116D01*
X77726Y424058D01*
X77953Y423920D01*
X77956Y423920D01*
X77957Y423919D01*
X79979Y423081D01*
X85481Y417579D01*
X88459Y410391D01*
X88459Y402609D01*
X85481Y395421D01*
X84488Y394428D01*
X84427Y394345D01*
X84361Y394267D01*
X84349Y394239D01*
X84331Y394214D01*
X84297Y394117D01*
X84257Y394023D01*
X84253Y393992D01*
X84243Y393963D01*
X84240Y393860D01*
X84229Y393758D01*
X84235Y393728D01*
X84234Y393697D01*
X84261Y393598D01*
X84281Y393498D01*
X84294Y393477D01*
X84304Y393441D01*
X84447Y393217D01*
X84475Y393192D01*
X84488Y393172D01*
X85481Y392179D01*
X88459Y384991D01*
X88459Y377209D01*
X85481Y370021D01*
X84488Y369028D01*
X84427Y368945D01*
X84361Y368867D01*
X84349Y368839D01*
X84331Y368814D01*
X84297Y368717D01*
X84257Y368623D01*
X84253Y368592D01*
X84243Y368563D01*
X84240Y368460D01*
X84229Y368358D01*
X84235Y368328D01*
X84234Y368297D01*
X84261Y368198D01*
X84281Y368098D01*
X84294Y368077D01*
X84304Y368041D01*
X84447Y367817D01*
X84475Y367792D01*
X84488Y367772D01*
X85481Y366779D01*
X88459Y359591D01*
X88459Y351809D01*
X85481Y344621D01*
X84488Y343628D01*
X84427Y343545D01*
X84361Y343467D01*
X84349Y343439D01*
X84331Y343414D01*
X84297Y343317D01*
X84257Y343223D01*
X84253Y343192D01*
X84243Y343163D01*
X84240Y343061D01*
X84229Y342958D01*
X84235Y342928D01*
X84234Y342897D01*
X84261Y342798D01*
X84281Y342698D01*
X84294Y342678D01*
X84304Y342641D01*
X84447Y342417D01*
X84475Y342392D01*
X84488Y342372D01*
X85481Y341379D01*
X88459Y334191D01*
X88459Y326409D01*
X85481Y319221D01*
X79979Y313719D01*
X72791Y310741D01*
X65009Y310741D01*
X57821Y313719D01*
X52319Y319221D01*
X49341Y326409D01*
X49341Y334191D01*
X52319Y341379D01*
X53312Y342372D01*
X53373Y342455D01*
X53439Y342533D01*
X53451Y342561D01*
X53469Y342586D01*
X53503Y342683D01*
X53543Y342777D01*
X53547Y342808D01*
X53557Y342837D01*
X53560Y342940D01*
X53571Y343042D01*
X53565Y343072D01*
X53566Y343103D01*
X53539Y343202D01*
X53519Y343302D01*
X53506Y343323D01*
X53496Y343359D01*
X53353Y343583D01*
X53325Y343608D01*
X53312Y343628D01*
X52319Y344621D01*
X49341Y351809D01*
X49341Y359591D01*
X52319Y366779D01*
X53312Y367772D01*
X53373Y367855D01*
X53439Y367933D01*
X53451Y367961D01*
X53469Y367986D01*
X53503Y368083D01*
X53543Y368177D01*
X53547Y368208D01*
X53557Y368237D01*
X53560Y368339D01*
X53571Y368442D01*
X53565Y368472D01*
X53566Y368503D01*
X53539Y368602D01*
X53519Y368702D01*
X53506Y368722D01*
X53496Y368759D01*
X53353Y368983D01*
X53324Y369008D01*
X53312Y369028D01*
X52550Y369790D01*
X52533Y369802D01*
X52520Y369819D01*
X52426Y369881D01*
X52336Y369948D01*
X52316Y369955D01*
X52298Y369966D01*
X52254Y369976D01*
X52085Y370035D01*
X51972Y370039D01*
X51922Y370050D01*
X49202Y370050D01*
X45141Y371732D01*
X27632Y389241D01*
X25950Y393302D01*
X25950Y499198D01*
X27632Y503259D01*
X40302Y515929D01*
X40460Y516143D01*
X40477Y516192D01*
X40495Y516217D01*
X40538Y516322D01*
X43678Y519462D01*
X47780Y521161D01*
X265535Y521161D01*
X265586Y521168D01*
X265637Y521167D01*
X265717Y521188D01*
X265797Y521201D01*
X265844Y521223D01*
X265894Y521237D01*
X265963Y521281D01*
X266037Y521316D01*
X266074Y521351D01*
X266118Y521379D01*
X266171Y521442D01*
X266231Y521498D01*
X266257Y521542D01*
X266290Y521582D01*
X266322Y521657D01*
X266363Y521728D01*
X266374Y521779D01*
X266395Y521826D01*
X266403Y521908D01*
X266421Y521988D01*
X266417Y522039D01*
X266422Y522091D01*
X266406Y522171D01*
X266399Y522253D01*
X266380Y522301D01*
X266370Y522351D01*
X266342Y522395D01*
X266300Y522500D01*
X266187Y522639D01*
X266163Y522677D01*
X264619Y524221D01*
X261641Y531409D01*
X261641Y539191D01*
X264619Y546379D01*
X265612Y547372D01*
X265673Y547455D01*
X265739Y547533D01*
X265751Y547561D01*
X265769Y547586D01*
X265803Y547683D01*
X265843Y547777D01*
X265847Y547808D01*
X265857Y547837D01*
X265860Y547939D01*
X265871Y548042D01*
X265865Y548072D01*
X265866Y548103D01*
X265839Y548202D01*
X265819Y548302D01*
X265806Y548322D01*
X265796Y548359D01*
X265653Y548583D01*
X265625Y548608D01*
X265612Y548628D01*
X264619Y549621D01*
X261641Y556809D01*
X261641Y564591D01*
X264619Y571779D01*
X270121Y577281D01*
X272143Y578119D01*
X272207Y578157D01*
X272275Y578187D01*
X272320Y578225D01*
X272371Y578256D01*
X272420Y578311D01*
X272476Y578360D01*
X272508Y578410D01*
X272548Y578455D01*
X272578Y578522D01*
X272618Y578585D01*
X272633Y578642D01*
X272658Y578697D01*
X272667Y578770D01*
X272686Y578842D01*
X272684Y578901D01*
X272691Y578960D01*
X272678Y579033D01*
X272676Y579107D01*
X272659Y579146D01*
X272645Y579222D01*
X272524Y579459D01*
X272523Y579460D01*
X272522Y579461D01*
X271858Y580375D01*
X271078Y581907D01*
X270546Y583542D01*
X270423Y584323D01*
X280311Y584323D01*
X280412Y584338D01*
X280515Y584346D01*
X280543Y584358D01*
X280574Y584363D01*
X280666Y584407D01*
X280761Y584445D01*
X280785Y584465D01*
X280813Y584478D01*
X280888Y584548D01*
X280968Y584613D01*
X280985Y584639D01*
X281007Y584660D01*
X281058Y584749D01*
X281115Y584834D01*
X281120Y584858D01*
X281139Y584890D01*
X281197Y585150D01*
X281194Y585188D01*
X281199Y585211D01*
X281199Y586989D01*
X281184Y587090D01*
X281175Y587193D01*
X281164Y587221D01*
X281159Y587252D01*
X281115Y587344D01*
X281076Y587439D01*
X281057Y587463D01*
X281044Y587491D01*
X280974Y587566D01*
X280909Y587646D01*
X280883Y587663D01*
X280862Y587685D01*
X280773Y587736D01*
X280688Y587793D01*
X280664Y587799D01*
X280631Y587817D01*
X280372Y587875D01*
X280334Y587872D01*
X280311Y587877D01*
X270423Y587877D01*
X270546Y588658D01*
X271078Y590293D01*
X271858Y591825D01*
X272522Y592739D01*
X272556Y592804D01*
X272599Y592865D01*
X272617Y592922D01*
X272644Y592975D01*
X272657Y593047D01*
X272680Y593118D01*
X272681Y593178D01*
X272691Y593236D01*
X272682Y593310D01*
X272683Y593384D01*
X272666Y593441D01*
X272659Y593500D01*
X272628Y593568D01*
X272607Y593639D01*
X272574Y593688D01*
X272550Y593742D01*
X272500Y593798D01*
X272459Y593860D01*
X272425Y593884D01*
X272374Y593942D01*
X272147Y594080D01*
X272144Y594080D01*
X272143Y594081D01*
X270121Y594919D01*
X264619Y600421D01*
X261641Y607609D01*
X261641Y615391D01*
X264619Y622579D01*
X265612Y623572D01*
X265673Y623655D01*
X265739Y623733D01*
X265751Y623761D01*
X265769Y623786D01*
X265803Y623883D01*
X265843Y623977D01*
X265847Y624008D01*
X265857Y624037D01*
X265860Y624139D01*
X265871Y624242D01*
X265865Y624272D01*
X265866Y624303D01*
X265839Y624402D01*
X265819Y624502D01*
X265806Y624522D01*
X265796Y624559D01*
X265653Y624783D01*
X265625Y624808D01*
X265612Y624828D01*
X264619Y625821D01*
X261641Y633009D01*
X261641Y640791D01*
X264619Y647979D01*
X265612Y648972D01*
X265673Y649055D01*
X265739Y649133D01*
X265751Y649161D01*
X265769Y649186D01*
X265803Y649283D01*
X265843Y649377D01*
X265847Y649408D01*
X265857Y649437D01*
X265860Y649539D01*
X265871Y649642D01*
X265865Y649672D01*
X265866Y649703D01*
X265839Y649802D01*
X265819Y649902D01*
X265806Y649922D01*
X265796Y649959D01*
X265653Y650183D01*
X265625Y650208D01*
X265612Y650228D01*
X264619Y651221D01*
X261641Y658409D01*
X261641Y666191D01*
X264619Y673379D01*
X270121Y678881D01*
X277309Y681859D01*
X285091Y681859D01*
X292279Y678881D01*
X297781Y673379D01*
X300759Y666191D01*
X300759Y658409D01*
X297781Y651221D01*
X296788Y650228D01*
X296727Y650145D01*
X296661Y650067D01*
X296649Y650039D01*
X296631Y650014D01*
X296597Y649917D01*
X296557Y649823D01*
X296553Y649792D01*
X296543Y649763D01*
X296540Y649660D01*
X296529Y649558D01*
X296535Y649528D01*
X296534Y649497D01*
X296561Y649398D01*
X296581Y649298D01*
X296594Y649277D01*
X296604Y649241D01*
X296747Y649017D01*
X296775Y648992D01*
X296788Y648972D01*
X297781Y647979D01*
X300759Y640791D01*
X300759Y633009D01*
X297781Y625821D01*
X296788Y624828D01*
X296727Y624745D01*
X296661Y624667D01*
X296649Y624639D01*
X296631Y624614D01*
X296597Y624517D01*
X296557Y624423D01*
X296553Y624392D01*
X296543Y624363D01*
X296540Y624260D01*
X296529Y624158D01*
X296535Y624128D01*
X296534Y624097D01*
X296561Y623998D01*
X296581Y623898D01*
X296594Y623877D01*
X296604Y623841D01*
X296747Y623617D01*
X296775Y623592D01*
X296788Y623572D01*
X297781Y622579D01*
X300759Y615391D01*
X300759Y607609D01*
X297781Y600421D01*
X292279Y594919D01*
X290257Y594081D01*
X290193Y594043D01*
X290125Y594013D01*
X290080Y593975D01*
X290029Y593944D01*
X289980Y593889D01*
X289924Y593840D01*
X289892Y593790D01*
X289852Y593745D01*
X289822Y593678D01*
X289782Y593615D01*
X289767Y593558D01*
X289742Y593503D01*
X289733Y593430D01*
X289714Y593358D01*
X289716Y593299D01*
X289709Y593240D01*
X289722Y593167D01*
X289724Y593093D01*
X289741Y593054D01*
X289755Y592978D01*
X289876Y592741D01*
X289877Y592740D01*
X289878Y592739D01*
X290542Y591825D01*
X291322Y590293D01*
X291854Y588658D01*
X291977Y587877D01*
X282089Y587877D01*
X281988Y587862D01*
X281885Y587853D01*
X281857Y587842D01*
X281826Y587837D01*
X281734Y587793D01*
X281639Y587754D01*
X281615Y587735D01*
X281587Y587722D01*
X281512Y587652D01*
X281432Y587587D01*
X281415Y587561D01*
X281393Y587540D01*
X281342Y587451D01*
X281285Y587366D01*
X281280Y587342D01*
X281261Y587310D01*
X281203Y587050D01*
X281206Y587012D01*
X281201Y586989D01*
X281201Y585211D01*
X281216Y585109D01*
X281225Y585007D01*
X281236Y584979D01*
X281241Y584948D01*
X281285Y584856D01*
X281324Y584760D01*
X281343Y584737D01*
X281356Y584709D01*
X281426Y584634D01*
X281491Y584554D01*
X281517Y584537D01*
X281538Y584515D01*
X281627Y584464D01*
X281712Y584407D01*
X281736Y584401D01*
X281769Y584383D01*
X282028Y584325D01*
X282066Y584328D01*
X282089Y584323D01*
X291977Y584323D01*
X291854Y583542D01*
X291322Y581907D01*
X290542Y580375D01*
X289878Y579461D01*
X289844Y579396D01*
X289801Y579335D01*
X289783Y579278D01*
X289756Y579225D01*
X289743Y579153D01*
X289720Y579082D01*
X289719Y579022D01*
X289709Y578964D01*
X289718Y578890D01*
X289717Y578816D01*
X289734Y578759D01*
X289741Y578700D01*
X289772Y578632D01*
X289793Y578561D01*
X289826Y578512D01*
X289850Y578458D01*
X289900Y578402D01*
X289941Y578340D01*
X289975Y578316D01*
X290026Y578258D01*
X290253Y578120D01*
X290256Y578120D01*
X290257Y578119D01*
X292279Y577281D01*
X297781Y571779D01*
X300759Y564591D01*
X300759Y556809D01*
X297781Y549621D01*
X296788Y548628D01*
X296727Y548545D01*
X296661Y548467D01*
X296649Y548439D01*
X296631Y548414D01*
X296597Y548317D01*
X296557Y548223D01*
X296553Y548192D01*
X296543Y548163D01*
X296540Y548060D01*
X296529Y547958D01*
X296535Y547928D01*
X296534Y547897D01*
X296561Y547798D01*
X296581Y547698D01*
X296594Y547677D01*
X296604Y547641D01*
X296747Y547417D01*
X296775Y547392D01*
X296788Y547372D01*
X297781Y546379D01*
X300759Y539191D01*
X300759Y531409D01*
X297781Y524221D01*
X296237Y522677D01*
X296207Y522636D01*
X296169Y522600D01*
X296128Y522529D01*
X296080Y522463D01*
X296063Y522414D01*
X296037Y522370D01*
X296019Y522290D01*
X295992Y522212D01*
X295990Y522160D01*
X295979Y522110D01*
X295986Y522028D01*
X295983Y521946D01*
X295997Y521897D01*
X296001Y521845D01*
X296031Y521769D01*
X296053Y521690D01*
X296081Y521646D01*
X296100Y521598D01*
X296152Y521535D01*
X296196Y521466D01*
X296235Y521432D01*
X296267Y521392D01*
X296336Y521347D01*
X296398Y521294D01*
X296446Y521273D01*
X296489Y521245D01*
X296539Y521233D01*
X296643Y521189D01*
X296821Y521171D01*
X296865Y521161D01*
X435009Y521161D01*
X435030Y521164D01*
X435051Y521162D01*
X435161Y521184D01*
X435272Y521201D01*
X435291Y521210D01*
X435311Y521214D01*
X435350Y521238D01*
X435511Y521316D01*
X435594Y521393D01*
X435637Y521421D01*
X561578Y647362D01*
X565680Y649061D01*
X720533Y649061D01*
X720553Y649064D01*
X720574Y649062D01*
X720685Y649084D01*
X720795Y649101D01*
X720814Y649110D01*
X720835Y649114D01*
X720873Y649138D01*
X721035Y649216D01*
X721117Y649293D01*
X721161Y649321D01*
X721812Y649972D01*
X721872Y650054D01*
X721939Y650133D01*
X721951Y650161D01*
X721969Y650186D01*
X722003Y650283D01*
X722043Y650377D01*
X722047Y650408D01*
X722057Y650437D01*
X722060Y650539D01*
X722071Y650642D01*
X722065Y650672D01*
X722066Y650703D01*
X722039Y650802D01*
X722019Y650902D01*
X722006Y650922D01*
X721996Y650959D01*
X721853Y651183D01*
X721825Y651208D01*
X721812Y651228D01*
X720819Y652221D01*
X717841Y659409D01*
X717841Y667191D01*
X720819Y674379D01*
X721812Y675372D01*
X721836Y675405D01*
X721838Y675407D01*
X721841Y675412D01*
X721873Y675455D01*
X721939Y675533D01*
X721951Y675561D01*
X721969Y675586D01*
X722003Y675683D01*
X722043Y675777D01*
X722047Y675808D01*
X722057Y675837D01*
X722060Y675939D01*
X722071Y676042D01*
X722065Y676072D01*
X722066Y676103D01*
X722039Y676202D01*
X722019Y676302D01*
X722006Y676322D01*
X721996Y676359D01*
X721853Y676583D01*
X721825Y676608D01*
X721812Y676628D01*
X720819Y677621D01*
X717841Y684809D01*
X717841Y692591D01*
X720819Y699779D01*
X726321Y705281D01*
X728343Y706119D01*
X728407Y706157D01*
X728475Y706187D01*
X728520Y706225D01*
X728571Y706256D01*
X728620Y706311D01*
X728676Y706360D01*
X728708Y706410D01*
X728748Y706455D01*
X728778Y706522D01*
X728818Y706585D01*
X728833Y706642D01*
X728858Y706697D01*
X728867Y706770D01*
X728886Y706842D01*
X728884Y706901D01*
X728891Y706960D01*
X728878Y707033D01*
X728876Y707107D01*
X728859Y707146D01*
X728845Y707222D01*
X728724Y707459D01*
X728723Y707460D01*
X728722Y707461D01*
X728058Y708375D01*
X727278Y709907D01*
X726746Y711542D01*
X726623Y712323D01*
X736511Y712323D01*
X736612Y712338D01*
X736715Y712346D01*
X736743Y712358D01*
X736774Y712363D01*
X736866Y712407D01*
X736961Y712445D01*
X736985Y712465D01*
X737013Y712478D01*
X737088Y712548D01*
X737168Y712613D01*
X737185Y712639D01*
X737207Y712660D01*
X737258Y712749D01*
X737315Y712834D01*
X737320Y712858D01*
X737339Y712890D01*
X737397Y713150D01*
X737394Y713188D01*
X737399Y713211D01*
X737399Y714101D01*
X737401Y714101D01*
X737401Y713211D01*
X737416Y713109D01*
X737425Y713007D01*
X737436Y712979D01*
X737441Y712948D01*
X737485Y712856D01*
X737524Y712760D01*
X737543Y712737D01*
X737556Y712709D01*
X737626Y712634D01*
X737691Y712554D01*
X737717Y712537D01*
X737738Y712515D01*
X737827Y712464D01*
X737912Y712407D01*
X737936Y712401D01*
X737969Y712383D01*
X738228Y712325D01*
X738266Y712328D01*
X738289Y712323D01*
X748177Y712323D01*
X748054Y711542D01*
X747522Y709907D01*
X746742Y708375D01*
X746078Y707461D01*
X746044Y707396D01*
X746001Y707335D01*
X745983Y707278D01*
X745956Y707225D01*
X745943Y707153D01*
X745920Y707082D01*
X745919Y707022D01*
X745909Y706964D01*
X745918Y706890D01*
X745917Y706816D01*
X745934Y706759D01*
X745941Y706700D01*
X745972Y706632D01*
X745993Y706561D01*
X746026Y706512D01*
X746050Y706458D01*
X746100Y706402D01*
X746141Y706340D01*
X746175Y706316D01*
X746226Y706258D01*
X746453Y706120D01*
X746456Y706120D01*
X746457Y706119D01*
X748479Y705281D01*
X753981Y699779D01*
X756959Y692591D01*
X756959Y684809D01*
X753981Y677621D01*
X752988Y676628D01*
X752927Y676545D01*
X752861Y676467D01*
X752849Y676439D01*
X752831Y676414D01*
X752797Y676317D01*
X752757Y676223D01*
X752753Y676192D01*
X752743Y676163D01*
X752740Y676060D01*
X752729Y675958D01*
X752735Y675928D01*
X752734Y675897D01*
X752761Y675798D01*
X752781Y675698D01*
X752794Y675677D01*
X752804Y675641D01*
X752947Y675417D01*
X752976Y675392D01*
X752988Y675372D01*
X753639Y674721D01*
X753656Y674708D01*
X753669Y674692D01*
X753763Y674630D01*
X753853Y674563D01*
X753873Y674556D01*
X753891Y674545D01*
X753935Y674535D01*
X754104Y674476D01*
X754217Y674472D01*
X754267Y674461D01*
X768309Y674461D01*
X768330Y674464D01*
X768351Y674462D01*
X768461Y674484D01*
X768572Y674501D01*
X768591Y674510D01*
X768612Y674514D01*
X768650Y674538D01*
X768811Y674616D01*
X768894Y674693D01*
X768937Y674721D01*
X816413Y722197D01*
X816414Y722197D01*
X819678Y725462D01*
X823780Y727161D01*
X949720Y727161D01*
X953822Y725462D01*
X957086Y722197D01*
X957087Y722197D01*
X969197Y710087D01*
X969197Y710086D01*
X972462Y706822D01*
X974161Y702720D01*
X974161Y683080D01*
X972462Y678978D01*
X969197Y675714D01*
X969197Y675713D01*
X964919Y671435D01*
X964906Y671418D01*
X964890Y671405D01*
X964828Y671312D01*
X964761Y671221D01*
X964754Y671201D01*
X964743Y671184D01*
X964733Y671139D01*
X964674Y670970D01*
X964670Y670858D01*
X964659Y670807D01*
X964659Y659299D01*
X954582Y649222D01*
X954521Y649139D01*
X954454Y649061D01*
X954442Y649032D01*
X954424Y649008D01*
X954390Y648911D01*
X954350Y648816D01*
X954347Y648786D01*
X954337Y648756D01*
X954333Y648654D01*
X954323Y648552D01*
X954329Y648522D01*
X954327Y648491D01*
X954354Y648392D01*
X954375Y648291D01*
X954387Y648271D01*
X954397Y648234D01*
X954540Y648010D01*
X954569Y647985D01*
X954582Y647965D01*
X956023Y646524D01*
X956023Y643777D01*
X945989Y643777D01*
X945888Y643762D01*
X945785Y643753D01*
X945757Y643742D01*
X945726Y643737D01*
X945634Y643693D01*
X945539Y643654D01*
X945515Y643635D01*
X945487Y643622D01*
X945412Y643552D01*
X945332Y643487D01*
X945315Y643461D01*
X945293Y643440D01*
X945242Y643351D01*
X945185Y643266D01*
X945180Y643242D01*
X945161Y643210D01*
X945103Y642950D01*
X945106Y642912D01*
X945101Y642889D01*
X945101Y641999D01*
X944211Y641999D01*
X944109Y641984D01*
X944007Y641975D01*
X943979Y641964D01*
X943948Y641959D01*
X943856Y641915D01*
X943760Y641876D01*
X943737Y641857D01*
X943709Y641844D01*
X943634Y641774D01*
X943554Y641709D01*
X943537Y641683D01*
X943515Y641662D01*
X943464Y641573D01*
X943407Y641488D01*
X943401Y641464D01*
X943383Y641431D01*
X943325Y641172D01*
X943328Y641134D01*
X943323Y641111D01*
X943323Y631077D01*
X940521Y631077D01*
X940516Y631081D01*
X940506Y631084D01*
X940497Y631090D01*
X940381Y631128D01*
X940265Y631168D01*
X940254Y631169D01*
X940244Y631172D01*
X940122Y631173D01*
X939999Y631177D01*
X939989Y631175D01*
X939978Y631175D01*
X939861Y631140D01*
X939743Y631107D01*
X939734Y631102D01*
X939724Y631099D01*
X939622Y631031D01*
X939518Y630965D01*
X939511Y630957D01*
X939503Y630951D01*
X939485Y630926D01*
X939346Y630762D01*
X939309Y630674D01*
X939281Y630635D01*
X937712Y626846D01*
X934854Y623988D01*
X931119Y622441D01*
X908281Y622441D01*
X904546Y623988D01*
X901688Y626846D01*
X900141Y630581D01*
X900141Y653419D01*
X900801Y655011D01*
X900803Y655021D01*
X900808Y655030D01*
X900835Y655150D01*
X900865Y655269D01*
X900864Y655280D01*
X900866Y655290D01*
X900856Y655412D01*
X900849Y655535D01*
X900845Y655544D01*
X900845Y655555D01*
X900799Y655669D01*
X900756Y655783D01*
X900750Y655792D01*
X900746Y655802D01*
X900668Y655897D01*
X900593Y655994D01*
X900585Y656000D01*
X900578Y656008D01*
X900476Y656076D01*
X900376Y656146D01*
X900366Y656150D01*
X900357Y656155D01*
X900326Y656162D01*
X900123Y656228D01*
X900027Y656229D01*
X899980Y656239D01*
X822691Y656239D01*
X822670Y656236D01*
X822649Y656238D01*
X822539Y656216D01*
X822428Y656199D01*
X822409Y656190D01*
X822389Y656186D01*
X822350Y656162D01*
X822189Y656084D01*
X822106Y656007D01*
X822063Y655979D01*
X757219Y591135D01*
X757206Y591118D01*
X757190Y591105D01*
X757128Y591012D01*
X757061Y590921D01*
X757054Y590901D01*
X757043Y590884D01*
X757033Y590839D01*
X756974Y590670D01*
X756970Y590557D01*
X756959Y590507D01*
X756959Y583209D01*
X753981Y576021D01*
X752988Y575028D01*
X752927Y574945D01*
X752861Y574867D01*
X752849Y574839D01*
X752831Y574814D01*
X752797Y574717D01*
X752757Y574623D01*
X752753Y574592D01*
X752743Y574563D01*
X752740Y574460D01*
X752729Y574358D01*
X752735Y574328D01*
X752734Y574297D01*
X752761Y574198D01*
X752781Y574098D01*
X752794Y574077D01*
X752804Y574041D01*
X752947Y573817D01*
X752975Y573792D01*
X752988Y573772D01*
X753981Y572779D01*
X756959Y565591D01*
X756959Y557809D01*
X753981Y550621D01*
X752988Y549628D01*
X752927Y549545D01*
X752861Y549467D01*
X752849Y549439D01*
X752831Y549414D01*
X752797Y549317D01*
X752757Y549223D01*
X752753Y549192D01*
X752743Y549163D01*
X752740Y549060D01*
X752729Y548958D01*
X752735Y548928D01*
X752734Y548897D01*
X752761Y548798D01*
X752781Y548698D01*
X752794Y548677D01*
X752804Y548641D01*
X752947Y548417D01*
X752975Y548392D01*
X752988Y548372D01*
X753981Y547379D01*
X756959Y540191D01*
X756959Y532409D01*
X753981Y525221D01*
X752988Y524228D01*
X752927Y524145D01*
X752861Y524067D01*
X752849Y524039D01*
X752831Y524014D01*
X752797Y523917D01*
X752757Y523823D01*
X752753Y523792D01*
X752743Y523763D01*
X752740Y523660D01*
X752729Y523558D01*
X752735Y523528D01*
X752734Y523497D01*
X752761Y523398D01*
X752781Y523298D01*
X752794Y523277D01*
X752804Y523241D01*
X752947Y523017D01*
X752975Y522992D01*
X752988Y522972D01*
X753981Y521979D01*
X756959Y514791D01*
X756959Y507009D01*
X753981Y499821D01*
X752988Y498828D01*
X752927Y498745D01*
X752861Y498667D01*
X752849Y498639D01*
X752831Y498614D01*
X752797Y498517D01*
X752757Y498423D01*
X752753Y498392D01*
X752743Y498363D01*
X752740Y498260D01*
X752729Y498158D01*
X752735Y498128D01*
X752734Y498097D01*
X752761Y497998D01*
X752781Y497898D01*
X752794Y497877D01*
X752804Y497841D01*
X752947Y497617D01*
X752975Y497592D01*
X752988Y497572D01*
X753981Y496579D01*
X756959Y489391D01*
X756959Y481609D01*
X753981Y474421D01*
X752988Y473428D01*
X752927Y473345D01*
X752861Y473267D01*
X752849Y473239D01*
X752831Y473214D01*
X752797Y473117D01*
X752757Y473023D01*
X752753Y472992D01*
X752743Y472963D01*
X752740Y472860D01*
X752729Y472758D01*
X752735Y472728D01*
X752734Y472697D01*
X752761Y472598D01*
X752781Y472498D01*
X752794Y472477D01*
X752804Y472441D01*
X752947Y472217D01*
X752975Y472192D01*
X752988Y472172D01*
X753981Y471179D01*
X756959Y463991D01*
X756959Y456209D01*
X753981Y449021D01*
X752988Y448028D01*
X752927Y447945D01*
X752861Y447867D01*
X752849Y447839D01*
X752831Y447814D01*
X752797Y447717D01*
X752757Y447623D01*
X752753Y447592D01*
X752743Y447563D01*
X752740Y447460D01*
X752729Y447358D01*
X752735Y447328D01*
X752734Y447297D01*
X752761Y447198D01*
X752781Y447098D01*
X752794Y447077D01*
X752804Y447041D01*
X752947Y446817D01*
X752975Y446792D01*
X752988Y446772D01*
X753981Y445779D01*
X756959Y438591D01*
X756959Y430809D01*
X753981Y423621D01*
X752988Y422628D01*
X752927Y422545D01*
X752861Y422467D01*
X752849Y422439D01*
X752831Y422414D01*
X752797Y422317D01*
X752757Y422223D01*
X752753Y422192D01*
X752743Y422163D01*
X752740Y422060D01*
X752729Y421958D01*
X752735Y421928D01*
X752734Y421897D01*
X752761Y421798D01*
X752781Y421698D01*
X752794Y421677D01*
X752804Y421641D01*
X752947Y421417D01*
X752975Y421392D01*
X752988Y421372D01*
X753981Y420379D01*
X756959Y413191D01*
X756959Y405409D01*
X753981Y398221D01*
X752988Y397228D01*
X752927Y397145D01*
X752861Y397067D01*
X752849Y397039D01*
X752831Y397014D01*
X752797Y396917D01*
X752757Y396823D01*
X752753Y396792D01*
X752743Y396763D01*
X752740Y396660D01*
X752729Y396558D01*
X752735Y396528D01*
X752734Y396497D01*
X752761Y396398D01*
X752781Y396298D01*
X752794Y396277D01*
X752804Y396241D01*
X752947Y396017D01*
X752975Y395992D01*
X752988Y395972D01*
X753981Y394979D01*
X756959Y387791D01*
X756959Y380009D01*
X753981Y372821D01*
X749091Y367931D01*
X749078Y367914D01*
X749062Y367901D01*
X749000Y367807D01*
X748933Y367717D01*
X748926Y367697D01*
X748915Y367679D01*
X748905Y367635D01*
X748846Y367466D01*
X748842Y367353D01*
X748831Y367303D01*
X748831Y135126D01*
X747091Y130925D01*
X717961Y101795D01*
X717948Y101778D01*
X717932Y101765D01*
X717870Y101672D01*
X717803Y101581D01*
X717796Y101562D01*
X717785Y101544D01*
X717775Y101500D01*
X717716Y101330D01*
X717712Y101218D01*
X717701Y101167D01*
X717701Y96479D01*
X715006Y89973D01*
X710027Y84994D01*
X703521Y82299D01*
X696479Y82299D01*
G37*
%LPD*%
%LPC*%
G36*
X376809Y40341D02*
X376809Y40341D01*
X369621Y43319D01*
X364119Y48821D01*
X361141Y56009D01*
X361141Y63791D01*
X364119Y70979D01*
X369621Y76481D01*
X376809Y79459D01*
X384591Y79459D01*
X391779Y76481D01*
X392772Y75488D01*
X392855Y75427D01*
X392933Y75361D01*
X392961Y75349D01*
X392986Y75331D01*
X393083Y75297D01*
X393177Y75257D01*
X393208Y75253D01*
X393237Y75243D01*
X393339Y75240D01*
X393442Y75229D01*
X393472Y75235D01*
X393503Y75234D01*
X393602Y75261D01*
X393702Y75281D01*
X393722Y75294D01*
X393759Y75304D01*
X393983Y75447D01*
X394008Y75476D01*
X394028Y75488D01*
X394790Y76250D01*
X394802Y76267D01*
X394819Y76280D01*
X394881Y76374D01*
X394948Y76464D01*
X394955Y76484D01*
X394966Y76502D01*
X394976Y76546D01*
X395035Y76715D01*
X395039Y76828D01*
X395050Y76878D01*
X395050Y98298D01*
X396732Y102359D01*
X413741Y119368D01*
X417802Y121050D01*
X465055Y121050D01*
X465076Y121053D01*
X465097Y121051D01*
X465207Y121073D01*
X465318Y121090D01*
X465337Y121099D01*
X465357Y121103D01*
X465396Y121127D01*
X465557Y121205D01*
X465640Y121282D01*
X465683Y121310D01*
X488690Y144317D01*
X488703Y144334D01*
X488719Y144347D01*
X488781Y144440D01*
X488848Y144531D01*
X488855Y144551D01*
X488866Y144568D01*
X488876Y144613D01*
X488935Y144782D01*
X488939Y144895D01*
X488950Y144945D01*
X488950Y482198D01*
X490632Y486259D01*
X503039Y498666D01*
X503052Y498683D01*
X503068Y498696D01*
X503130Y498789D01*
X503197Y498880D01*
X503204Y498900D01*
X503215Y498917D01*
X503225Y498962D01*
X503284Y499131D01*
X503288Y499244D01*
X503299Y499294D01*
X503299Y503322D01*
X505842Y509460D01*
X510540Y514158D01*
X516678Y516701D01*
X523322Y516701D01*
X529460Y514158D01*
X534158Y509460D01*
X536701Y503322D01*
X536701Y496678D01*
X534158Y490540D01*
X529460Y485842D01*
X523322Y483299D01*
X519294Y483299D01*
X519273Y483296D01*
X519252Y483298D01*
X519142Y483276D01*
X519031Y483259D01*
X519012Y483250D01*
X518992Y483246D01*
X518953Y483222D01*
X518792Y483144D01*
X518709Y483067D01*
X518666Y483039D01*
X511310Y475683D01*
X511297Y475666D01*
X511281Y475653D01*
X511219Y475560D01*
X511152Y475469D01*
X511145Y475449D01*
X511134Y475432D01*
X511124Y475387D01*
X511065Y475218D01*
X511061Y475105D01*
X511050Y475055D01*
X511050Y137802D01*
X509368Y133741D01*
X476259Y100632D01*
X472198Y98950D01*
X424945Y98950D01*
X424924Y98947D01*
X424903Y98949D01*
X424793Y98927D01*
X424682Y98910D01*
X424663Y98901D01*
X424643Y98897D01*
X424604Y98873D01*
X424443Y98795D01*
X424360Y98718D01*
X424317Y98690D01*
X417410Y91783D01*
X417397Y91766D01*
X417381Y91753D01*
X417319Y91660D01*
X417252Y91569D01*
X417245Y91549D01*
X417234Y91532D01*
X417224Y91487D01*
X417165Y91318D01*
X417161Y91205D01*
X417150Y91155D01*
X417150Y76878D01*
X417153Y76858D01*
X417151Y76837D01*
X417173Y76726D01*
X417190Y76616D01*
X417199Y76597D01*
X417203Y76576D01*
X417227Y76537D01*
X417305Y76376D01*
X417382Y76294D01*
X417410Y76250D01*
X418172Y75488D01*
X418255Y75427D01*
X418333Y75361D01*
X418361Y75349D01*
X418386Y75331D01*
X418483Y75297D01*
X418577Y75257D01*
X418608Y75253D01*
X418637Y75243D01*
X418739Y75240D01*
X418842Y75229D01*
X418872Y75235D01*
X418903Y75234D01*
X419002Y75261D01*
X419102Y75281D01*
X419122Y75294D01*
X419159Y75304D01*
X419383Y75447D01*
X419408Y75475D01*
X419428Y75488D01*
X420421Y76481D01*
X427609Y79459D01*
X435391Y79459D01*
X442579Y76481D01*
X443572Y75488D01*
X443655Y75427D01*
X443733Y75361D01*
X443761Y75349D01*
X443786Y75331D01*
X443883Y75297D01*
X443977Y75257D01*
X444008Y75253D01*
X444037Y75243D01*
X444139Y75240D01*
X444242Y75229D01*
X444272Y75235D01*
X444303Y75234D01*
X444402Y75261D01*
X444502Y75281D01*
X444522Y75294D01*
X444559Y75304D01*
X444783Y75447D01*
X444808Y75475D01*
X444828Y75488D01*
X445821Y76481D01*
X453009Y79459D01*
X460791Y79459D01*
X467979Y76481D01*
X468972Y75488D01*
X469055Y75427D01*
X469133Y75361D01*
X469161Y75349D01*
X469186Y75331D01*
X469283Y75297D01*
X469377Y75257D01*
X469408Y75253D01*
X469437Y75243D01*
X469539Y75240D01*
X469642Y75229D01*
X469672Y75235D01*
X469703Y75234D01*
X469802Y75261D01*
X469902Y75281D01*
X469922Y75294D01*
X469959Y75304D01*
X470183Y75447D01*
X470208Y75475D01*
X470228Y75488D01*
X471221Y76481D01*
X478409Y79459D01*
X486191Y79459D01*
X493379Y76481D01*
X494372Y75488D01*
X494455Y75427D01*
X494533Y75361D01*
X494561Y75349D01*
X494586Y75331D01*
X494683Y75297D01*
X494777Y75257D01*
X494808Y75253D01*
X494837Y75243D01*
X494939Y75240D01*
X495042Y75229D01*
X495072Y75235D01*
X495103Y75234D01*
X495202Y75261D01*
X495302Y75281D01*
X495322Y75294D01*
X495359Y75304D01*
X495583Y75447D01*
X495608Y75475D01*
X495628Y75488D01*
X496621Y76481D01*
X503809Y79459D01*
X511591Y79459D01*
X518779Y76481D01*
X524281Y70979D01*
X527259Y63791D01*
X527259Y56009D01*
X524281Y48821D01*
X518779Y43319D01*
X511591Y40341D01*
X503809Y40341D01*
X496621Y43319D01*
X495628Y44312D01*
X495545Y44373D01*
X495467Y44439D01*
X495439Y44451D01*
X495414Y44469D01*
X495317Y44503D01*
X495223Y44543D01*
X495192Y44547D01*
X495163Y44557D01*
X495060Y44560D01*
X494958Y44571D01*
X494928Y44565D01*
X494897Y44566D01*
X494798Y44539D01*
X494698Y44519D01*
X494677Y44506D01*
X494641Y44496D01*
X494417Y44353D01*
X494392Y44325D01*
X494372Y44312D01*
X493379Y43319D01*
X486191Y40341D01*
X478409Y40341D01*
X471221Y43319D01*
X470228Y44312D01*
X470145Y44373D01*
X470067Y44439D01*
X470039Y44451D01*
X470014Y44469D01*
X469917Y44503D01*
X469823Y44543D01*
X469792Y44547D01*
X469763Y44557D01*
X469660Y44560D01*
X469558Y44571D01*
X469528Y44565D01*
X469497Y44566D01*
X469398Y44539D01*
X469298Y44519D01*
X469277Y44506D01*
X469241Y44496D01*
X469017Y44353D01*
X468992Y44325D01*
X468972Y44312D01*
X467979Y43319D01*
X460791Y40341D01*
X453009Y40341D01*
X445821Y43319D01*
X444828Y44312D01*
X444745Y44373D01*
X444667Y44439D01*
X444639Y44451D01*
X444614Y44469D01*
X444517Y44503D01*
X444423Y44543D01*
X444392Y44547D01*
X444363Y44557D01*
X444260Y44560D01*
X444158Y44571D01*
X444128Y44565D01*
X444097Y44566D01*
X443998Y44539D01*
X443898Y44519D01*
X443877Y44506D01*
X443841Y44496D01*
X443617Y44353D01*
X443592Y44325D01*
X443572Y44312D01*
X442579Y43319D01*
X435391Y40341D01*
X427609Y40341D01*
X420421Y43319D01*
X419428Y44312D01*
X419345Y44373D01*
X419267Y44439D01*
X419239Y44451D01*
X419214Y44469D01*
X419117Y44503D01*
X419023Y44543D01*
X418992Y44547D01*
X418963Y44557D01*
X418860Y44560D01*
X418758Y44571D01*
X418728Y44565D01*
X418697Y44566D01*
X418598Y44539D01*
X418498Y44519D01*
X418477Y44506D01*
X418441Y44496D01*
X418217Y44353D01*
X418192Y44325D01*
X418172Y44312D01*
X417179Y43319D01*
X409991Y40341D01*
X402209Y40341D01*
X395021Y43319D01*
X394028Y44312D01*
X393945Y44373D01*
X393867Y44439D01*
X393839Y44451D01*
X393814Y44469D01*
X393717Y44503D01*
X393623Y44543D01*
X393592Y44547D01*
X393563Y44557D01*
X393460Y44560D01*
X393358Y44571D01*
X393328Y44565D01*
X393297Y44566D01*
X393198Y44539D01*
X393098Y44519D01*
X393077Y44506D01*
X393041Y44496D01*
X392817Y44353D01*
X392792Y44325D01*
X392772Y44312D01*
X391779Y43319D01*
X384591Y40341D01*
X376809Y40341D01*
G37*
%LPD*%
%LPC*%
G36*
X148178Y262799D02*
X148178Y262799D01*
X142040Y265342D01*
X137342Y270040D01*
X134799Y276178D01*
X134799Y279667D01*
X134796Y279688D01*
X134798Y279709D01*
X134776Y279819D01*
X134759Y279930D01*
X134750Y279949D01*
X134746Y279970D01*
X134722Y280008D01*
X134644Y280169D01*
X134567Y280252D01*
X134539Y280295D01*
X110309Y304525D01*
X108569Y308726D01*
X108569Y367444D01*
X108566Y367465D01*
X108568Y367486D01*
X108546Y367596D01*
X108529Y367707D01*
X108520Y367726D01*
X108516Y367747D01*
X108492Y367785D01*
X108414Y367947D01*
X108337Y368029D01*
X108309Y368072D01*
X105842Y370540D01*
X103299Y376678D01*
X103299Y383322D01*
X105842Y389460D01*
X110540Y394158D01*
X116678Y396701D01*
X123322Y396701D01*
X129460Y394158D01*
X131927Y391691D01*
X131944Y391678D01*
X131958Y391662D01*
X132051Y391600D01*
X132141Y391533D01*
X132161Y391526D01*
X132179Y391515D01*
X132223Y391505D01*
X132393Y391446D01*
X132505Y391442D01*
X132556Y391431D01*
X350774Y391431D01*
X354975Y389691D01*
X369205Y375461D01*
X369222Y375448D01*
X369235Y375432D01*
X369328Y375370D01*
X369419Y375303D01*
X369438Y375296D01*
X369456Y375285D01*
X369500Y375275D01*
X369670Y375216D01*
X369782Y375212D01*
X369833Y375201D01*
X373322Y375201D01*
X379460Y372658D01*
X384158Y367960D01*
X386701Y361822D01*
X386701Y355178D01*
X384158Y349040D01*
X379460Y344342D01*
X373322Y341799D01*
X369833Y341799D01*
X369812Y341796D01*
X369791Y341798D01*
X369681Y341776D01*
X369570Y341759D01*
X369551Y341750D01*
X369530Y341746D01*
X369492Y341722D01*
X369331Y341644D01*
X369248Y341567D01*
X369205Y341539D01*
X332020Y304355D01*
X331959Y304272D01*
X331893Y304194D01*
X331881Y304165D01*
X331862Y304141D01*
X331829Y304044D01*
X331788Y303949D01*
X331785Y303919D01*
X331775Y303890D01*
X331771Y303787D01*
X331761Y303685D01*
X331767Y303655D01*
X331766Y303624D01*
X331793Y303525D01*
X331813Y303424D01*
X331826Y303404D01*
X331836Y303367D01*
X331978Y303143D01*
X332007Y303118D01*
X332020Y303098D01*
X332658Y302460D01*
X335201Y296322D01*
X335201Y289678D01*
X332658Y283540D01*
X327960Y278842D01*
X321822Y276299D01*
X315178Y276299D01*
X309040Y278842D01*
X304342Y283540D01*
X301799Y289678D01*
X301799Y296322D01*
X304342Y302460D01*
X306809Y304928D01*
X306822Y304944D01*
X306838Y304958D01*
X306859Y304990D01*
X306877Y305007D01*
X306912Y305067D01*
X306967Y305141D01*
X306974Y305161D01*
X306985Y305179D01*
X306991Y305206D01*
X307009Y305237D01*
X307026Y305311D01*
X307054Y305393D01*
X307056Y305447D01*
X307067Y305497D01*
X307064Y305533D01*
X307069Y305556D01*
X307069Y309274D01*
X308809Y313475D01*
X353039Y357705D01*
X353052Y357722D01*
X353068Y357735D01*
X353130Y357828D01*
X353197Y357919D01*
X353204Y357938D01*
X353215Y357956D01*
X353225Y358000D01*
X353284Y358170D01*
X353288Y358282D01*
X353299Y358333D01*
X353299Y358667D01*
X353296Y358688D01*
X353298Y358709D01*
X353276Y358819D01*
X353259Y358930D01*
X353250Y358949D01*
X353246Y358970D01*
X353222Y359008D01*
X353144Y359169D01*
X353067Y359252D01*
X353039Y359295D01*
X344025Y368309D01*
X344008Y368322D01*
X343995Y368338D01*
X343902Y368400D01*
X343811Y368467D01*
X343792Y368474D01*
X343774Y368485D01*
X343730Y368495D01*
X343560Y368554D01*
X343448Y368558D01*
X343397Y368569D01*
X132556Y368569D01*
X132535Y368566D01*
X132514Y368568D01*
X132404Y368546D01*
X132293Y368529D01*
X132274Y368520D01*
X132253Y368516D01*
X132215Y368492D01*
X132053Y368414D01*
X131971Y368337D01*
X131927Y368309D01*
X131691Y368072D01*
X131678Y368056D01*
X131662Y368042D01*
X131600Y367949D01*
X131533Y367858D01*
X131526Y367839D01*
X131515Y367821D01*
X131505Y367777D01*
X131446Y367607D01*
X131442Y367495D01*
X131431Y367444D01*
X131431Y316103D01*
X131434Y316082D01*
X131432Y316061D01*
X131454Y315951D01*
X131471Y315840D01*
X131480Y315821D01*
X131484Y315800D01*
X131508Y315762D01*
X131586Y315601D01*
X131663Y315518D01*
X131691Y315475D01*
X150705Y296461D01*
X150722Y296448D01*
X150735Y296432D01*
X150828Y296370D01*
X150919Y296303D01*
X150938Y296296D01*
X150956Y296285D01*
X151000Y296275D01*
X151170Y296216D01*
X151282Y296212D01*
X151333Y296201D01*
X154822Y296201D01*
X160960Y293658D01*
X165658Y288960D01*
X168201Y282822D01*
X168201Y276178D01*
X165658Y270040D01*
X160960Y265342D01*
X154822Y262799D01*
X148178Y262799D01*
G37*
%LPD*%
%LPC*%
G36*
X807163Y28719D02*
X807163Y28719D01*
X800628Y31426D01*
X797245Y34809D01*
X797228Y34822D01*
X797215Y34838D01*
X797121Y34900D01*
X797031Y34967D01*
X797011Y34974D01*
X796994Y34985D01*
X796949Y34995D01*
X796780Y35054D01*
X796667Y35058D01*
X796617Y35069D01*
X670385Y35069D01*
X670122Y35029D01*
X670076Y35007D01*
X670045Y35002D01*
X663521Y32299D01*
X656479Y32299D01*
X649973Y34994D01*
X644994Y39973D01*
X642299Y46479D01*
X642299Y53521D01*
X644994Y60027D01*
X649973Y65006D01*
X656479Y67701D01*
X663521Y67701D01*
X670027Y65006D01*
X675006Y60027D01*
X675647Y58479D01*
X675679Y58426D01*
X675702Y58368D01*
X675747Y58313D01*
X675784Y58251D01*
X675831Y58210D01*
X675870Y58162D01*
X675929Y58122D01*
X675983Y58075D01*
X676039Y58049D01*
X676091Y58015D01*
X676138Y58004D01*
X676225Y57965D01*
X676437Y57938D01*
X676468Y57931D01*
X796617Y57931D01*
X796638Y57934D01*
X796659Y57932D01*
X796769Y57954D01*
X796880Y57971D01*
X796899Y57980D01*
X796919Y57984D01*
X796958Y58008D01*
X797119Y58086D01*
X797202Y58163D01*
X797245Y58191D01*
X800628Y61574D01*
X807163Y64281D01*
X814237Y64281D01*
X820772Y61574D01*
X825774Y56572D01*
X828481Y50037D01*
X828481Y42963D01*
X825774Y36428D01*
X820772Y31426D01*
X814237Y28719D01*
X807163Y28719D01*
G37*
%LPD*%
%LPC*%
G36*
X136781Y611841D02*
X136781Y611841D01*
X133046Y613388D01*
X130188Y616246D01*
X128641Y619981D01*
X128641Y642819D01*
X130188Y646554D01*
X130536Y646902D01*
X130573Y646952D01*
X130617Y646995D01*
X130652Y647058D01*
X130694Y647116D01*
X130714Y647174D01*
X130744Y647229D01*
X130758Y647299D01*
X130781Y647367D01*
X130783Y647429D01*
X130791Y647465D01*
X130793Y647473D01*
X130792Y647474D01*
X130796Y647490D01*
X130787Y647536D01*
X130787Y647538D01*
X130791Y647632D01*
X130775Y647690D01*
X130771Y647738D01*
X130742Y647809D01*
X130734Y647839D01*
X130729Y647870D01*
X128641Y652910D01*
X128641Y660691D01*
X131619Y667879D01*
X132612Y668872D01*
X132673Y668955D01*
X132739Y669033D01*
X132751Y669061D01*
X132769Y669086D01*
X132803Y669183D01*
X132843Y669277D01*
X132847Y669308D01*
X132857Y669337D01*
X132860Y669439D01*
X132871Y669542D01*
X132865Y669572D01*
X132866Y669603D01*
X132839Y669702D01*
X132819Y669802D01*
X132806Y669822D01*
X132796Y669859D01*
X132653Y670083D01*
X132625Y670108D01*
X132612Y670128D01*
X131619Y671121D01*
X128641Y678309D01*
X128641Y686091D01*
X131619Y693279D01*
X132612Y694272D01*
X132673Y694355D01*
X132739Y694433D01*
X132751Y694461D01*
X132769Y694486D01*
X132803Y694583D01*
X132843Y694677D01*
X132847Y694708D01*
X132857Y694737D01*
X132860Y694839D01*
X132871Y694942D01*
X132865Y694972D01*
X132866Y695003D01*
X132839Y695102D01*
X132819Y695202D01*
X132806Y695222D01*
X132796Y695259D01*
X132653Y695483D01*
X132625Y695508D01*
X132612Y695528D01*
X131619Y696521D01*
X128641Y703709D01*
X128641Y711491D01*
X131619Y718679D01*
X137121Y724181D01*
X144309Y727159D01*
X152091Y727159D01*
X159279Y724181D01*
X164781Y718679D01*
X167759Y711491D01*
X167759Y703709D01*
X164781Y696521D01*
X163788Y695528D01*
X163727Y695445D01*
X163661Y695367D01*
X163649Y695339D01*
X163631Y695314D01*
X163597Y695217D01*
X163557Y695123D01*
X163553Y695092D01*
X163543Y695063D01*
X163540Y694960D01*
X163529Y694858D01*
X163535Y694828D01*
X163534Y694797D01*
X163561Y694698D01*
X163581Y694598D01*
X163594Y694577D01*
X163604Y694541D01*
X163747Y694317D01*
X163775Y694292D01*
X163788Y694272D01*
X164781Y693279D01*
X167759Y686091D01*
X167759Y678309D01*
X164781Y671121D01*
X163788Y670128D01*
X163727Y670045D01*
X163661Y669967D01*
X163649Y669939D01*
X163631Y669914D01*
X163597Y669817D01*
X163557Y669723D01*
X163553Y669692D01*
X163543Y669663D01*
X163540Y669560D01*
X163529Y669458D01*
X163535Y669428D01*
X163534Y669397D01*
X163561Y669298D01*
X163581Y669198D01*
X163594Y669177D01*
X163604Y669141D01*
X163747Y668917D01*
X163775Y668892D01*
X163788Y668872D01*
X164781Y667879D01*
X167759Y660691D01*
X167759Y652910D01*
X165671Y647870D01*
X165669Y647862D01*
X165665Y647855D01*
X165654Y647804D01*
X165632Y647753D01*
X165625Y647681D01*
X165607Y647612D01*
X165608Y647598D01*
X165607Y647595D01*
X165610Y647561D01*
X165611Y647550D01*
X165605Y647488D01*
X165619Y647418D01*
X165623Y647346D01*
X165644Y647288D01*
X165657Y647227D01*
X165682Y647187D01*
X165716Y647097D01*
X165847Y646928D01*
X165864Y646902D01*
X166212Y646554D01*
X167759Y642819D01*
X167759Y619981D01*
X166212Y616246D01*
X163354Y613388D01*
X159619Y611841D01*
X136781Y611841D01*
G37*
%LPD*%
%LPC*%
G36*
X838109Y302741D02*
X838109Y302741D01*
X830921Y305719D01*
X825419Y311221D01*
X822441Y318409D01*
X822441Y326191D01*
X825419Y333379D01*
X830921Y338881D01*
X838109Y341859D01*
X845891Y341859D01*
X853079Y338881D01*
X854072Y337888D01*
X854155Y337827D01*
X854233Y337761D01*
X854261Y337749D01*
X854286Y337731D01*
X854383Y337697D01*
X854477Y337657D01*
X854508Y337653D01*
X854537Y337643D01*
X854639Y337640D01*
X854742Y337629D01*
X854772Y337635D01*
X854803Y337634D01*
X854902Y337661D01*
X855002Y337681D01*
X855022Y337694D01*
X855059Y337704D01*
X855283Y337847D01*
X855308Y337875D01*
X855328Y337888D01*
X856321Y338881D01*
X863509Y341859D01*
X871291Y341859D01*
X878479Y338881D01*
X878922Y338438D01*
X879004Y338378D01*
X879083Y338311D01*
X879111Y338299D01*
X879136Y338281D01*
X879233Y338247D01*
X879327Y338207D01*
X879358Y338203D01*
X879387Y338193D01*
X879489Y338190D01*
X879592Y338179D01*
X879622Y338185D01*
X879653Y338184D01*
X879752Y338211D01*
X879852Y338231D01*
X879872Y338244D01*
X879909Y338254D01*
X880133Y338397D01*
X880158Y338425D01*
X880178Y338438D01*
X881521Y339781D01*
X888709Y342759D01*
X896491Y342759D01*
X903679Y339781D01*
X904672Y338788D01*
X904755Y338727D01*
X904833Y338661D01*
X904861Y338649D01*
X904886Y338631D01*
X904983Y338597D01*
X905077Y338557D01*
X905108Y338553D01*
X905137Y338543D01*
X905240Y338540D01*
X905342Y338529D01*
X905372Y338535D01*
X905403Y338534D01*
X905502Y338561D01*
X905602Y338581D01*
X905623Y338594D01*
X905659Y338604D01*
X905883Y338747D01*
X905908Y338775D01*
X905928Y338788D01*
X906921Y339781D01*
X914109Y342759D01*
X921891Y342759D01*
X929079Y339781D01*
X934581Y334279D01*
X937559Y327091D01*
X937559Y319309D01*
X934581Y312121D01*
X929079Y306619D01*
X921891Y303641D01*
X914109Y303641D01*
X906921Y306619D01*
X905928Y307612D01*
X905845Y307673D01*
X905767Y307739D01*
X905739Y307751D01*
X905714Y307769D01*
X905617Y307803D01*
X905523Y307843D01*
X905492Y307847D01*
X905463Y307857D01*
X905361Y307860D01*
X905258Y307871D01*
X905228Y307865D01*
X905197Y307866D01*
X905098Y307839D01*
X904998Y307819D01*
X904978Y307806D01*
X904941Y307796D01*
X904717Y307653D01*
X904692Y307625D01*
X904672Y307612D01*
X903679Y306619D01*
X896491Y303641D01*
X888709Y303641D01*
X881521Y306619D01*
X881078Y307062D01*
X880995Y307123D01*
X880917Y307189D01*
X880889Y307201D01*
X880864Y307219D01*
X880767Y307253D01*
X880673Y307293D01*
X880642Y307297D01*
X880613Y307307D01*
X880510Y307310D01*
X880408Y307321D01*
X880378Y307315D01*
X880347Y307316D01*
X880248Y307289D01*
X880148Y307269D01*
X880127Y307256D01*
X880091Y307246D01*
X879867Y307103D01*
X879842Y307075D01*
X879822Y307062D01*
X878479Y305719D01*
X871291Y302741D01*
X863509Y302741D01*
X856321Y305719D01*
X855328Y306712D01*
X855245Y306773D01*
X855167Y306839D01*
X855139Y306851D01*
X855114Y306869D01*
X855017Y306903D01*
X854923Y306943D01*
X854892Y306947D01*
X854863Y306957D01*
X854760Y306960D01*
X854658Y306971D01*
X854628Y306965D01*
X854597Y306966D01*
X854498Y306939D01*
X854398Y306919D01*
X854377Y306906D01*
X854341Y306896D01*
X854117Y306753D01*
X854092Y306725D01*
X854072Y306712D01*
X853079Y305719D01*
X845891Y302741D01*
X838109Y302741D01*
G37*
%LPD*%
%LPC*%
G36*
X888509Y350241D02*
X888509Y350241D01*
X881321Y353219D01*
X880528Y354012D01*
X880445Y354073D01*
X880367Y354139D01*
X880339Y354151D01*
X880314Y354169D01*
X880217Y354203D01*
X880123Y354243D01*
X880092Y354247D01*
X880063Y354257D01*
X879960Y354260D01*
X879858Y354271D01*
X879828Y354265D01*
X879797Y354266D01*
X879698Y354239D01*
X879598Y354219D01*
X879578Y354206D01*
X879541Y354196D01*
X879317Y354053D01*
X879292Y354024D01*
X879272Y354012D01*
X878879Y353619D01*
X871691Y350641D01*
X863909Y350641D01*
X856721Y353619D01*
X855728Y354612D01*
X855645Y354673D01*
X855567Y354739D01*
X855539Y354751D01*
X855514Y354769D01*
X855417Y354803D01*
X855323Y354843D01*
X855292Y354847D01*
X855263Y354857D01*
X855161Y354860D01*
X855058Y354871D01*
X855028Y354865D01*
X854997Y354866D01*
X854898Y354839D01*
X854798Y354819D01*
X854778Y354806D01*
X854741Y354796D01*
X854517Y354653D01*
X854492Y354625D01*
X854472Y354612D01*
X853479Y353619D01*
X846291Y350641D01*
X838509Y350641D01*
X831321Y353619D01*
X825819Y359121D01*
X822841Y366309D01*
X822841Y374091D01*
X825819Y381279D01*
X831321Y386781D01*
X838509Y389759D01*
X846291Y389759D01*
X853479Y386781D01*
X854472Y385788D01*
X854555Y385727D01*
X854633Y385661D01*
X854661Y385649D01*
X854686Y385631D01*
X854783Y385597D01*
X854877Y385557D01*
X854908Y385553D01*
X854937Y385543D01*
X855040Y385540D01*
X855142Y385529D01*
X855172Y385535D01*
X855203Y385534D01*
X855302Y385561D01*
X855402Y385581D01*
X855423Y385594D01*
X855459Y385604D01*
X855683Y385747D01*
X855708Y385775D01*
X855728Y385788D01*
X856721Y386781D01*
X863909Y389759D01*
X871691Y389759D01*
X878879Y386781D01*
X879672Y385988D01*
X879754Y385928D01*
X879833Y385861D01*
X879861Y385849D01*
X879886Y385831D01*
X879983Y385797D01*
X880077Y385757D01*
X880108Y385753D01*
X880137Y385743D01*
X880239Y385740D01*
X880342Y385729D01*
X880372Y385735D01*
X880403Y385734D01*
X880502Y385761D01*
X880602Y385781D01*
X880622Y385794D01*
X880659Y385804D01*
X880883Y385947D01*
X880908Y385975D01*
X880928Y385988D01*
X881321Y386381D01*
X888509Y389359D01*
X896291Y389359D01*
X903479Y386381D01*
X904472Y385388D01*
X904555Y385327D01*
X904633Y385261D01*
X904661Y385249D01*
X904686Y385231D01*
X904783Y385197D01*
X904877Y385157D01*
X904908Y385153D01*
X904937Y385143D01*
X905040Y385140D01*
X905142Y385129D01*
X905172Y385135D01*
X905203Y385134D01*
X905302Y385161D01*
X905402Y385181D01*
X905423Y385194D01*
X905459Y385204D01*
X905683Y385347D01*
X905708Y385375D01*
X905728Y385388D01*
X906721Y386381D01*
X913909Y389359D01*
X921691Y389359D01*
X928879Y386381D01*
X934381Y380879D01*
X937359Y373691D01*
X937359Y365909D01*
X934381Y358721D01*
X928879Y353219D01*
X921691Y350241D01*
X913909Y350241D01*
X906721Y353219D01*
X905728Y354212D01*
X905645Y354273D01*
X905567Y354339D01*
X905539Y354351D01*
X905514Y354369D01*
X905417Y354403D01*
X905323Y354443D01*
X905292Y354447D01*
X905263Y354457D01*
X905161Y354460D01*
X905058Y354471D01*
X905028Y354465D01*
X904997Y354466D01*
X904898Y354439D01*
X904798Y354419D01*
X904778Y354406D01*
X904741Y354396D01*
X904517Y354253D01*
X904492Y354225D01*
X904472Y354212D01*
X903479Y353219D01*
X896291Y350241D01*
X888509Y350241D01*
G37*
%LPD*%
%LPC*%
G36*
X183809Y127541D02*
X183809Y127541D01*
X176621Y130519D01*
X171119Y136021D01*
X168141Y143209D01*
X168141Y150991D01*
X171119Y158179D01*
X172112Y159172D01*
X172173Y159255D01*
X172239Y159333D01*
X172251Y159361D01*
X172269Y159386D01*
X172303Y159483D01*
X172343Y159577D01*
X172347Y159608D01*
X172357Y159637D01*
X172360Y159739D01*
X172371Y159842D01*
X172365Y159872D01*
X172366Y159903D01*
X172339Y160002D01*
X172319Y160102D01*
X172306Y160122D01*
X172296Y160159D01*
X172153Y160383D01*
X172125Y160408D01*
X172112Y160428D01*
X171119Y161421D01*
X168141Y168609D01*
X168141Y176391D01*
X171119Y183579D01*
X176621Y189081D01*
X183809Y192059D01*
X191591Y192059D01*
X198779Y189081D01*
X204281Y183579D01*
X207259Y176391D01*
X207259Y168609D01*
X204281Y161421D01*
X203288Y160428D01*
X203227Y160345D01*
X203161Y160267D01*
X203149Y160239D01*
X203131Y160214D01*
X203097Y160117D01*
X203057Y160023D01*
X203053Y159992D01*
X203043Y159963D01*
X203040Y159860D01*
X203029Y159758D01*
X203035Y159728D01*
X203034Y159697D01*
X203061Y159598D01*
X203081Y159498D01*
X203094Y159477D01*
X203104Y159441D01*
X203247Y159217D01*
X203275Y159192D01*
X203288Y159172D01*
X204281Y158179D01*
X207259Y150991D01*
X207259Y143209D01*
X204281Y136021D01*
X198779Y130519D01*
X191591Y127541D01*
X183809Y127541D01*
G37*
%LPD*%
%LPC*%
G36*
X134809Y127741D02*
X134809Y127741D01*
X127621Y130719D01*
X122119Y136221D01*
X119141Y143409D01*
X119141Y151191D01*
X122119Y158379D01*
X123112Y159372D01*
X123173Y159455D01*
X123239Y159533D01*
X123251Y159561D01*
X123269Y159586D01*
X123303Y159683D01*
X123343Y159777D01*
X123347Y159808D01*
X123357Y159837D01*
X123360Y159939D01*
X123371Y160042D01*
X123365Y160072D01*
X123366Y160103D01*
X123339Y160202D01*
X123319Y160302D01*
X123306Y160322D01*
X123296Y160359D01*
X123153Y160583D01*
X123125Y160608D01*
X123112Y160628D01*
X122119Y161621D01*
X119141Y168809D01*
X119141Y176591D01*
X122119Y183779D01*
X127621Y189281D01*
X134809Y192259D01*
X142591Y192259D01*
X149779Y189281D01*
X155281Y183779D01*
X158259Y176591D01*
X158259Y168809D01*
X155281Y161621D01*
X154288Y160628D01*
X154227Y160545D01*
X154161Y160467D01*
X154149Y160439D01*
X154131Y160414D01*
X154097Y160317D01*
X154057Y160223D01*
X154053Y160192D01*
X154043Y160163D01*
X154040Y160060D01*
X154029Y159958D01*
X154035Y159928D01*
X154034Y159897D01*
X154061Y159798D01*
X154081Y159698D01*
X154094Y159677D01*
X154104Y159641D01*
X154247Y159417D01*
X154275Y159392D01*
X154288Y159372D01*
X155281Y158379D01*
X158259Y151191D01*
X158259Y143409D01*
X155281Y136221D01*
X149779Y130719D01*
X142591Y127741D01*
X134809Y127741D01*
G37*
%LPD*%
%LPC*%
G36*
X76506Y638178D02*
X76506Y638178D01*
X68758Y641388D01*
X62827Y647319D01*
X59617Y655067D01*
X59617Y663455D01*
X62827Y671203D01*
X68758Y677134D01*
X76506Y680344D01*
X84894Y680344D01*
X92642Y677134D01*
X98573Y671203D01*
X101783Y663455D01*
X101783Y655067D01*
X98573Y647319D01*
X92642Y641388D01*
X84894Y638178D01*
X76506Y638178D01*
G37*
%LPD*%
%LPC*%
G36*
X597006Y500556D02*
X597006Y500556D01*
X589258Y503766D01*
X583327Y509697D01*
X580117Y517445D01*
X580117Y525833D01*
X583327Y533581D01*
X589258Y539512D01*
X597006Y542722D01*
X605394Y542722D01*
X613142Y539512D01*
X619073Y533581D01*
X622283Y525833D01*
X622283Y517445D01*
X619073Y509697D01*
X613142Y503766D01*
X605394Y500556D01*
X597006Y500556D01*
G37*
%LPD*%
%LPC*%
G36*
X802506Y187078D02*
X802506Y187078D01*
X794758Y190288D01*
X788827Y196219D01*
X785617Y203967D01*
X785617Y212355D01*
X788827Y220103D01*
X794758Y226034D01*
X802506Y229244D01*
X810894Y229244D01*
X818642Y226034D01*
X824573Y220103D01*
X827783Y212355D01*
X827783Y203967D01*
X824573Y196219D01*
X818642Y190288D01*
X810894Y187078D01*
X802506Y187078D01*
G37*
%LPD*%
%LPC*%
G36*
X547799Y414999D02*
X547799Y414999D01*
X547799Y415889D01*
X547784Y415990D01*
X547775Y416093D01*
X547764Y416121D01*
X547759Y416152D01*
X547715Y416244D01*
X547676Y416339D01*
X547657Y416363D01*
X547644Y416391D01*
X547574Y416466D01*
X547509Y416546D01*
X547483Y416563D01*
X547462Y416585D01*
X547373Y416636D01*
X547288Y416693D01*
X547264Y416699D01*
X547231Y416717D01*
X546972Y416775D01*
X546934Y416772D01*
X546911Y416777D01*
X537023Y416777D01*
X537146Y417558D01*
X537678Y419193D01*
X538458Y420725D01*
X539122Y421639D01*
X539156Y421704D01*
X539199Y421765D01*
X539217Y421822D01*
X539244Y421875D01*
X539257Y421947D01*
X539280Y422018D01*
X539281Y422078D01*
X539291Y422136D01*
X539282Y422210D01*
X539283Y422284D01*
X539266Y422341D01*
X539259Y422400D01*
X539228Y422468D01*
X539207Y422539D01*
X539174Y422588D01*
X539150Y422642D01*
X539100Y422698D01*
X539059Y422760D01*
X539025Y422784D01*
X538974Y422842D01*
X538747Y422980D01*
X538744Y422980D01*
X538743Y422981D01*
X536721Y423819D01*
X531219Y429321D01*
X528241Y436509D01*
X528241Y444291D01*
X531219Y451479D01*
X536721Y456981D01*
X543909Y459959D01*
X551691Y459959D01*
X558879Y456981D01*
X564381Y451479D01*
X567359Y444291D01*
X567359Y436509D01*
X564381Y429321D01*
X558879Y423819D01*
X556857Y422981D01*
X556793Y422943D01*
X556725Y422913D01*
X556680Y422875D01*
X556629Y422844D01*
X556580Y422789D01*
X556524Y422740D01*
X556492Y422690D01*
X556452Y422645D01*
X556422Y422578D01*
X556382Y422515D01*
X556367Y422458D01*
X556342Y422403D01*
X556333Y422330D01*
X556314Y422258D01*
X556316Y422199D01*
X556309Y422140D01*
X556322Y422067D01*
X556324Y421993D01*
X556341Y421954D01*
X556355Y421878D01*
X556476Y421641D01*
X556477Y421640D01*
X556478Y421639D01*
X557142Y420725D01*
X557922Y419193D01*
X558454Y417558D01*
X558577Y416777D01*
X548689Y416777D01*
X548588Y416762D01*
X548485Y416753D01*
X548457Y416742D01*
X548426Y416737D01*
X548334Y416693D01*
X548239Y416654D01*
X548215Y416635D01*
X548187Y416622D01*
X548112Y416552D01*
X548032Y416487D01*
X548015Y416461D01*
X547993Y416440D01*
X547942Y416351D01*
X547885Y416266D01*
X547880Y416242D01*
X547861Y416210D01*
X547803Y415950D01*
X547806Y415912D01*
X547801Y415889D01*
X547801Y414999D01*
X547799Y414999D01*
G37*
%LPD*%
%LPC*%
G36*
X910099Y79799D02*
X910099Y79799D01*
X910099Y80689D01*
X910084Y80790D01*
X910075Y80893D01*
X910064Y80921D01*
X910059Y80952D01*
X910015Y81044D01*
X909976Y81139D01*
X909957Y81163D01*
X909944Y81191D01*
X909874Y81266D01*
X909809Y81346D01*
X909783Y81363D01*
X909762Y81385D01*
X909673Y81436D01*
X909588Y81493D01*
X909564Y81499D01*
X909531Y81517D01*
X909272Y81575D01*
X909234Y81572D01*
X909211Y81577D01*
X899323Y81577D01*
X899446Y82358D01*
X899978Y83993D01*
X900758Y85525D01*
X901422Y86439D01*
X901456Y86504D01*
X901499Y86565D01*
X901517Y86622D01*
X901544Y86675D01*
X901557Y86747D01*
X901580Y86818D01*
X901581Y86878D01*
X901591Y86936D01*
X901582Y87010D01*
X901583Y87084D01*
X901566Y87141D01*
X901559Y87200D01*
X901528Y87268D01*
X901507Y87339D01*
X901474Y87388D01*
X901450Y87442D01*
X901400Y87498D01*
X901359Y87560D01*
X901325Y87584D01*
X901274Y87642D01*
X901047Y87780D01*
X901044Y87780D01*
X901043Y87781D01*
X899021Y88619D01*
X893519Y94121D01*
X890541Y101309D01*
X890541Y109091D01*
X893519Y116279D01*
X899021Y121781D01*
X906209Y124759D01*
X913991Y124759D01*
X921179Y121781D01*
X926681Y116279D01*
X929659Y109091D01*
X929659Y101309D01*
X926681Y94121D01*
X921179Y88619D01*
X919157Y87781D01*
X919093Y87743D01*
X919025Y87713D01*
X918980Y87675D01*
X918929Y87644D01*
X918880Y87589D01*
X918824Y87540D01*
X918792Y87490D01*
X918752Y87445D01*
X918722Y87378D01*
X918682Y87315D01*
X918667Y87258D01*
X918642Y87203D01*
X918633Y87130D01*
X918614Y87058D01*
X918616Y86999D01*
X918609Y86940D01*
X918622Y86867D01*
X918624Y86793D01*
X918641Y86754D01*
X918655Y86678D01*
X918776Y86441D01*
X918777Y86440D01*
X918778Y86439D01*
X919442Y85525D01*
X920222Y83993D01*
X920754Y82358D01*
X920877Y81577D01*
X910989Y81577D01*
X910888Y81562D01*
X910785Y81553D01*
X910757Y81542D01*
X910726Y81537D01*
X910634Y81493D01*
X910539Y81454D01*
X910515Y81435D01*
X910487Y81422D01*
X910412Y81352D01*
X910332Y81287D01*
X910315Y81261D01*
X910293Y81240D01*
X910242Y81151D01*
X910185Y81066D01*
X910180Y81042D01*
X910161Y81010D01*
X910103Y80750D01*
X910106Y80712D01*
X910101Y80689D01*
X910101Y79799D01*
X910099Y79799D01*
G37*
%LPD*%
%LPC*%
G36*
X863809Y228141D02*
X863809Y228141D01*
X856621Y231119D01*
X851119Y236621D01*
X850281Y238643D01*
X850243Y238707D01*
X850213Y238775D01*
X850175Y238820D01*
X850144Y238871D01*
X850089Y238920D01*
X850040Y238976D01*
X849990Y239008D01*
X849945Y239048D01*
X849878Y239078D01*
X849815Y239118D01*
X849758Y239133D01*
X849703Y239158D01*
X849630Y239167D01*
X849558Y239186D01*
X849499Y239184D01*
X849440Y239191D01*
X849367Y239178D01*
X849293Y239176D01*
X849254Y239159D01*
X849178Y239145D01*
X848941Y239024D01*
X848940Y239023D01*
X848939Y239022D01*
X848025Y238358D01*
X846493Y237578D01*
X844858Y237046D01*
X844077Y236923D01*
X844077Y246811D01*
X844062Y246912D01*
X844053Y247015D01*
X844042Y247043D01*
X844037Y247074D01*
X843993Y247166D01*
X843954Y247261D01*
X843935Y247285D01*
X843922Y247313D01*
X843852Y247388D01*
X843787Y247468D01*
X843761Y247485D01*
X843740Y247507D01*
X843651Y247558D01*
X843566Y247615D01*
X843542Y247620D01*
X843510Y247639D01*
X843250Y247697D01*
X843212Y247694D01*
X843189Y247699D01*
X842299Y247699D01*
X842299Y247701D01*
X843189Y247701D01*
X843290Y247716D01*
X843393Y247725D01*
X843421Y247736D01*
X843452Y247741D01*
X843544Y247785D01*
X843639Y247824D01*
X843663Y247843D01*
X843691Y247856D01*
X843766Y247926D01*
X843846Y247991D01*
X843863Y248017D01*
X843885Y248038D01*
X843936Y248127D01*
X843993Y248212D01*
X843999Y248236D01*
X844017Y248269D01*
X844075Y248528D01*
X844072Y248566D01*
X844077Y248589D01*
X844077Y258477D01*
X844858Y258354D01*
X846493Y257822D01*
X848025Y257042D01*
X848939Y256378D01*
X849004Y256344D01*
X849065Y256301D01*
X849122Y256283D01*
X849175Y256256D01*
X849247Y256243D01*
X849318Y256220D01*
X849378Y256219D01*
X849436Y256209D01*
X849510Y256218D01*
X849584Y256217D01*
X849641Y256234D01*
X849700Y256241D01*
X849768Y256272D01*
X849839Y256293D01*
X849888Y256326D01*
X849942Y256350D01*
X849998Y256400D01*
X850060Y256441D01*
X850084Y256475D01*
X850142Y256526D01*
X850280Y256753D01*
X850280Y256756D01*
X850281Y256757D01*
X851119Y258779D01*
X856621Y264281D01*
X863809Y267259D01*
X871591Y267259D01*
X878779Y264281D01*
X884281Y258779D01*
X887259Y251591D01*
X887259Y243809D01*
X884281Y236621D01*
X878779Y231119D01*
X871591Y228141D01*
X863809Y228141D01*
G37*
%LPD*%
%LPC*%
G36*
X807179Y75799D02*
X807179Y75799D01*
X800673Y78494D01*
X795694Y83473D01*
X792999Y89979D01*
X792999Y97021D01*
X795694Y103527D01*
X800673Y108506D01*
X807179Y111201D01*
X814221Y111201D01*
X820727Y108506D01*
X825706Y103527D01*
X828401Y97021D01*
X828401Y89979D01*
X825706Y83473D01*
X820727Y78494D01*
X814221Y75799D01*
X807179Y75799D01*
G37*
%LPD*%
%LPC*%
G36*
X236678Y433299D02*
X236678Y433299D01*
X230540Y435842D01*
X225842Y440540D01*
X223299Y446678D01*
X223299Y453322D01*
X225842Y459460D01*
X230540Y464158D01*
X236678Y466701D01*
X243322Y466701D01*
X249460Y464158D01*
X254158Y459460D01*
X256701Y453322D01*
X256701Y446678D01*
X254158Y440540D01*
X249460Y435842D01*
X243322Y433299D01*
X236678Y433299D01*
G37*
%LPD*%
%LPC*%
G36*
X82477Y726316D02*
X82477Y726316D01*
X82477Y736859D01*
X83615Y736679D01*
X85478Y736074D01*
X87224Y735184D01*
X88808Y734033D01*
X90194Y732647D01*
X91345Y731063D01*
X92235Y729317D01*
X92840Y727454D01*
X93020Y726316D01*
X82477Y726316D01*
G37*
%LPD*%
%LPC*%
G36*
X808477Y275216D02*
X808477Y275216D01*
X808477Y285759D01*
X809615Y285579D01*
X811478Y284974D01*
X813224Y284084D01*
X814808Y282933D01*
X816194Y281547D01*
X817345Y279963D01*
X818235Y278217D01*
X818840Y276354D01*
X819020Y275216D01*
X808477Y275216D01*
G37*
%LPD*%
%LPC*%
G36*
X602977Y458138D02*
X602977Y458138D01*
X602977Y468681D01*
X604115Y468501D01*
X605978Y467896D01*
X607724Y467006D01*
X609308Y465855D01*
X610694Y464469D01*
X611845Y462885D01*
X612735Y461139D01*
X613340Y459276D01*
X613520Y458138D01*
X602977Y458138D01*
G37*
%LPD*%
%LPC*%
G36*
X68380Y726316D02*
X68380Y726316D01*
X68560Y727454D01*
X69165Y729317D01*
X70055Y731063D01*
X71206Y732647D01*
X72592Y734033D01*
X74176Y735184D01*
X75922Y736074D01*
X77785Y736679D01*
X78923Y736859D01*
X78923Y726316D01*
X68380Y726316D01*
G37*
%LPD*%
%LPC*%
G36*
X602977Y454584D02*
X602977Y454584D01*
X613520Y454584D01*
X613340Y453446D01*
X612735Y451583D01*
X611845Y449837D01*
X610694Y448253D01*
X609308Y446867D01*
X607724Y445716D01*
X605978Y444826D01*
X604115Y444221D01*
X602977Y444041D01*
X602977Y454584D01*
G37*
%LPD*%
%LPC*%
G36*
X808477Y271662D02*
X808477Y271662D01*
X819020Y271662D01*
X818840Y270524D01*
X818235Y268661D01*
X817345Y266915D01*
X816194Y265331D01*
X814808Y263945D01*
X813224Y262794D01*
X811478Y261904D01*
X809615Y261299D01*
X808477Y261119D01*
X808477Y271662D01*
G37*
%LPD*%
%LPC*%
G36*
X82477Y722762D02*
X82477Y722762D01*
X93020Y722762D01*
X92840Y721624D01*
X92235Y719761D01*
X91345Y718015D01*
X90194Y716431D01*
X88808Y715045D01*
X87224Y713894D01*
X85478Y713004D01*
X83615Y712399D01*
X82477Y712219D01*
X82477Y722762D01*
G37*
%LPD*%
%LPC*%
G36*
X794380Y275216D02*
X794380Y275216D01*
X794560Y276354D01*
X795165Y278217D01*
X796055Y279963D01*
X797206Y281547D01*
X798592Y282933D01*
X800176Y284084D01*
X801922Y284974D01*
X803785Y285579D01*
X804923Y285759D01*
X804923Y275216D01*
X794380Y275216D01*
G37*
%LPD*%
%LPC*%
G36*
X588880Y458138D02*
X588880Y458138D01*
X589060Y459276D01*
X589665Y461139D01*
X590555Y462885D01*
X591706Y464469D01*
X593092Y465855D01*
X594676Y467006D01*
X596422Y467896D01*
X598285Y468501D01*
X599423Y468681D01*
X599423Y458138D01*
X588880Y458138D01*
G37*
%LPD*%
%LPC*%
G36*
X77785Y712399D02*
X77785Y712399D01*
X75922Y713004D01*
X74176Y713894D01*
X72592Y715045D01*
X71206Y716431D01*
X70055Y718015D01*
X69165Y719761D01*
X68560Y721624D01*
X68380Y722762D01*
X78923Y722762D01*
X78923Y712219D01*
X77785Y712399D01*
G37*
%LPD*%
%LPC*%
G36*
X803785Y261299D02*
X803785Y261299D01*
X801922Y261904D01*
X800176Y262794D01*
X798592Y263945D01*
X797206Y265331D01*
X796055Y266915D01*
X795165Y268661D01*
X794560Y270524D01*
X794380Y271662D01*
X804923Y271662D01*
X804923Y261119D01*
X803785Y261299D01*
G37*
%LPD*%
%LPC*%
G36*
X598285Y444221D02*
X598285Y444221D01*
X596422Y444826D01*
X594676Y445716D01*
X593092Y446867D01*
X591706Y448253D01*
X590555Y449837D01*
X589665Y451583D01*
X589060Y453446D01*
X588880Y454584D01*
X599423Y454584D01*
X599423Y444041D01*
X598285Y444221D01*
G37*
%LPD*%
%LPC*%
G36*
X967277Y497377D02*
X967277Y497377D01*
X967277Y506734D01*
X968140Y506597D01*
X969828Y506049D01*
X971409Y505243D01*
X972845Y504200D01*
X974100Y502945D01*
X975143Y501509D01*
X975949Y499928D01*
X976497Y498240D01*
X976634Y497377D01*
X967277Y497377D01*
G37*
%LPD*%
%LPC*%
G36*
X967277Y427377D02*
X967277Y427377D01*
X967277Y436734D01*
X968140Y436597D01*
X969828Y436049D01*
X971409Y435243D01*
X972845Y434200D01*
X974100Y432945D01*
X975143Y431509D01*
X975949Y429928D01*
X976497Y428240D01*
X976634Y427377D01*
X967277Y427377D01*
G37*
%LPD*%
%LPC*%
G36*
X954366Y497377D02*
X954366Y497377D01*
X954503Y498240D01*
X955051Y499928D01*
X955857Y501509D01*
X956900Y502945D01*
X958155Y504200D01*
X959591Y505243D01*
X961172Y506049D01*
X962860Y506597D01*
X963723Y506734D01*
X963723Y497377D01*
X954366Y497377D01*
G37*
%LPD*%
%LPC*%
G36*
X954366Y427377D02*
X954366Y427377D01*
X954503Y428240D01*
X955051Y429928D01*
X955857Y431509D01*
X956900Y432945D01*
X958155Y434200D01*
X959591Y435243D01*
X961172Y436049D01*
X962860Y436597D01*
X963723Y436734D01*
X963723Y427377D01*
X954366Y427377D01*
G37*
%LPD*%
%LPC*%
G36*
X967277Y423823D02*
X967277Y423823D01*
X976634Y423823D01*
X976497Y422960D01*
X975949Y421272D01*
X975143Y419691D01*
X974100Y418255D01*
X972845Y417000D01*
X971409Y415957D01*
X969828Y415151D01*
X968140Y414603D01*
X967277Y414466D01*
X967277Y423823D01*
G37*
%LPD*%
%LPC*%
G36*
X967277Y493823D02*
X967277Y493823D01*
X976634Y493823D01*
X976497Y492960D01*
X975949Y491272D01*
X975143Y489691D01*
X974100Y488255D01*
X972845Y487000D01*
X971409Y485957D01*
X969828Y485151D01*
X968140Y484603D01*
X967277Y484466D01*
X967277Y493823D01*
G37*
%LPD*%
%LPC*%
G36*
X962860Y414603D02*
X962860Y414603D01*
X961172Y415151D01*
X959591Y415957D01*
X958155Y417000D01*
X956900Y418255D01*
X955857Y419691D01*
X955051Y421272D01*
X954503Y422960D01*
X954366Y423823D01*
X963723Y423823D01*
X963723Y414466D01*
X962860Y414603D01*
G37*
%LPD*%
%LPC*%
G36*
X962860Y484603D02*
X962860Y484603D01*
X961172Y485151D01*
X959591Y485957D01*
X958155Y487000D01*
X956900Y488255D01*
X955857Y489691D01*
X955051Y491272D01*
X954503Y492960D01*
X954366Y493823D01*
X963723Y493823D01*
X963723Y484466D01*
X962860Y484603D01*
G37*
%LPD*%
%LPC*%
G36*
X946877Y631077D02*
X946877Y631077D01*
X946877Y640223D01*
X956023Y640223D01*
X956023Y637476D01*
X949624Y631077D01*
X946877Y631077D01*
G37*
%LPD*%
%LPC*%
G36*
X739177Y715877D02*
X739177Y715877D01*
X739177Y724877D01*
X739958Y724754D01*
X741593Y724222D01*
X743125Y723442D01*
X744516Y722431D01*
X745731Y721216D01*
X746742Y719825D01*
X747522Y718293D01*
X748054Y716658D01*
X748177Y715877D01*
X739177Y715877D01*
G37*
%LPD*%
%LPC*%
G36*
X726623Y715877D02*
X726623Y715877D01*
X726746Y716658D01*
X727278Y718293D01*
X728058Y719825D01*
X729069Y721216D01*
X730284Y722431D01*
X731675Y723442D01*
X733207Y724222D01*
X734842Y724754D01*
X735623Y724877D01*
X735623Y715877D01*
X726623Y715877D01*
G37*
%LPD*%
%LPC*%
G36*
X911877Y78023D02*
X911877Y78023D01*
X920877Y78023D01*
X920754Y77242D01*
X920222Y75607D01*
X919442Y74075D01*
X918431Y72684D01*
X917216Y71469D01*
X915825Y70458D01*
X914293Y69678D01*
X912658Y69146D01*
X911877Y69023D01*
X911877Y78023D01*
G37*
%LPD*%
%LPC*%
G36*
X549577Y413223D02*
X549577Y413223D01*
X558577Y413223D01*
X558454Y412442D01*
X557922Y410807D01*
X557142Y409275D01*
X556131Y407884D01*
X554916Y406669D01*
X553525Y405658D01*
X551993Y404878D01*
X550358Y404346D01*
X549577Y404223D01*
X549577Y413223D01*
G37*
%LPD*%
%LPC*%
G36*
X831523Y249477D02*
X831523Y249477D01*
X831646Y250258D01*
X832178Y251893D01*
X832958Y253425D01*
X833969Y254816D01*
X835184Y256031D01*
X836575Y257042D01*
X838107Y257822D01*
X839742Y258354D01*
X840523Y258477D01*
X840523Y249477D01*
X831523Y249477D01*
G37*
%LPD*%
%LPC*%
G36*
X907542Y69146D02*
X907542Y69146D01*
X905907Y69678D01*
X904375Y70458D01*
X902984Y71469D01*
X901769Y72684D01*
X900758Y74075D01*
X899978Y75607D01*
X899446Y77242D01*
X899323Y78023D01*
X908323Y78023D01*
X908323Y69023D01*
X907542Y69146D01*
G37*
%LPD*%
%LPC*%
G36*
X545242Y404346D02*
X545242Y404346D01*
X543607Y404878D01*
X542075Y405658D01*
X540684Y406669D01*
X539469Y407884D01*
X538458Y409275D01*
X537678Y410807D01*
X537146Y412442D01*
X537023Y413223D01*
X546023Y413223D01*
X546023Y404223D01*
X545242Y404346D01*
G37*
%LPD*%
%LPC*%
G36*
X839742Y237046D02*
X839742Y237046D01*
X838107Y237578D01*
X836575Y238358D01*
X835184Y239369D01*
X833969Y240584D01*
X832958Y241975D01*
X832178Y243507D01*
X831646Y245142D01*
X831523Y245923D01*
X840523Y245923D01*
X840523Y236923D01*
X839742Y237046D01*
G37*
%LPD*%
%LPC*%
G36*
X812477Y142277D02*
X812477Y142277D01*
X812477Y149470D01*
X813368Y149293D01*
X815032Y148604D01*
X816529Y147603D01*
X817803Y146329D01*
X818804Y144832D01*
X819493Y143168D01*
X819670Y142277D01*
X812477Y142277D01*
G37*
%LPD*%
%LPC*%
G36*
X801730Y142277D02*
X801730Y142277D01*
X801907Y143168D01*
X802596Y144832D01*
X803597Y146329D01*
X804871Y147603D01*
X806368Y148604D01*
X808032Y149293D01*
X808923Y149470D01*
X808923Y142277D01*
X801730Y142277D01*
G37*
%LPD*%
%LPC*%
G36*
X812477Y138723D02*
X812477Y138723D01*
X819670Y138723D01*
X819493Y137832D01*
X818804Y136168D01*
X817803Y134671D01*
X816529Y133397D01*
X815032Y132396D01*
X813368Y131707D01*
X812477Y131530D01*
X812477Y138723D01*
G37*
%LPD*%
%LPC*%
G36*
X808032Y131707D02*
X808032Y131707D01*
X806368Y132396D01*
X804871Y133397D01*
X803597Y134671D01*
X802596Y136168D01*
X801907Y137832D01*
X801730Y138723D01*
X808923Y138723D01*
X808923Y131530D01*
X808032Y131707D01*
G37*
%LPD*%
%LPC*%
G36*
X936527Y486877D02*
X936527Y486877D01*
X936527Y493989D01*
X937394Y493816D01*
X939044Y493133D01*
X940528Y492141D01*
X941791Y490878D01*
X942783Y489394D01*
X943466Y487744D01*
X943639Y486877D01*
X936527Y486877D01*
G37*
%LPD*%
%LPC*%
G36*
X936527Y437377D02*
X936527Y437377D01*
X936527Y444489D01*
X937394Y444316D01*
X939044Y443633D01*
X940528Y442641D01*
X941791Y441378D01*
X942783Y439894D01*
X943466Y438244D01*
X943639Y437377D01*
X936527Y437377D01*
G37*
%LPD*%
%LPC*%
G36*
X925861Y486877D02*
X925861Y486877D01*
X926034Y487744D01*
X926717Y489394D01*
X927709Y490878D01*
X928972Y492141D01*
X930456Y493133D01*
X932106Y493816D01*
X932973Y493989D01*
X932973Y486877D01*
X925861Y486877D01*
G37*
%LPD*%
%LPC*%
G36*
X936527Y483323D02*
X936527Y483323D01*
X943639Y483323D01*
X943466Y482456D01*
X942783Y480806D01*
X941791Y479322D01*
X940528Y478059D01*
X939044Y477067D01*
X937394Y476384D01*
X936527Y476211D01*
X936527Y483323D01*
G37*
%LPD*%
%LPC*%
G36*
X936527Y433823D02*
X936527Y433823D01*
X943639Y433823D01*
X943466Y432956D01*
X942783Y431306D01*
X941791Y429822D01*
X940528Y428559D01*
X939044Y427567D01*
X937394Y426884D01*
X936527Y426711D01*
X936527Y433823D01*
G37*
%LPD*%
%LPC*%
G36*
X925861Y437377D02*
X925861Y437377D01*
X926034Y438244D01*
X926717Y439894D01*
X927709Y441378D01*
X928972Y442641D01*
X930456Y443633D01*
X932106Y444316D01*
X932973Y444489D01*
X932973Y437377D01*
X925861Y437377D01*
G37*
%LPD*%
%LPC*%
G36*
X932106Y476384D02*
X932106Y476384D01*
X930456Y477067D01*
X928972Y478059D01*
X927709Y479322D01*
X926717Y480806D01*
X926034Y482456D01*
X925861Y483323D01*
X932973Y483323D01*
X932973Y476211D01*
X932106Y476384D01*
G37*
%LPD*%
%LPC*%
G36*
X932106Y426884D02*
X932106Y426884D01*
X930456Y427567D01*
X928972Y428559D01*
X927709Y429822D01*
X926717Y431306D01*
X926034Y432956D01*
X925861Y433823D01*
X932973Y433823D01*
X932973Y426711D01*
X932106Y426884D01*
G37*
%LPD*%
%LPC*%
G36*
X934749Y485099D02*
X934749Y485099D01*
X934749Y485101D01*
X934751Y485101D01*
X934751Y485099D01*
X934749Y485099D01*
G37*
%LPD*%
%LPC*%
G36*
X601199Y456360D02*
X601199Y456360D01*
X601199Y456362D01*
X601201Y456362D01*
X601201Y456360D01*
X601199Y456360D01*
G37*
%LPD*%
%LPC*%
G36*
X965499Y425599D02*
X965499Y425599D01*
X965499Y425601D01*
X965501Y425601D01*
X965501Y425599D01*
X965499Y425599D01*
G37*
%LPD*%
%LPC*%
G36*
X810699Y140499D02*
X810699Y140499D01*
X810699Y140501D01*
X810701Y140501D01*
X810701Y140499D01*
X810699Y140499D01*
G37*
%LPD*%
%LPC*%
G36*
X965499Y495599D02*
X965499Y495599D01*
X965499Y495601D01*
X965501Y495601D01*
X965501Y495599D01*
X965499Y495599D01*
G37*
%LPD*%
%LPC*%
G36*
X934749Y435599D02*
X934749Y435599D01*
X934749Y435601D01*
X934751Y435601D01*
X934751Y435599D01*
X934749Y435599D01*
G37*
%LPD*%
%LPC*%
G36*
X80699Y724538D02*
X80699Y724538D01*
X80699Y724540D01*
X80701Y724540D01*
X80701Y724538D01*
X80699Y724538D01*
G37*
%LPD*%
%LPC*%
G36*
X806699Y273438D02*
X806699Y273438D01*
X806699Y273440D01*
X806701Y273440D01*
X806701Y273438D01*
X806699Y273438D01*
G37*
%LPD*%
D10*
X380700Y59900D03*
X406100Y59900D03*
X431500Y59900D03*
X456900Y59900D03*
X482300Y59900D03*
X507700Y59900D03*
D11*
X601200Y521639D03*
X601200Y456361D03*
X80700Y724539D03*
X80700Y659261D03*
D10*
X737400Y383900D03*
X737400Y409300D03*
X737400Y434700D03*
X737400Y460100D03*
X737400Y485500D03*
X737400Y510900D03*
X737400Y536300D03*
X737400Y561700D03*
X737400Y587100D03*
X737400Y612500D03*
X737400Y637900D03*
X737400Y663300D03*
X737400Y688700D03*
X737400Y714100D03*
X68900Y330300D03*
X68900Y355700D03*
X68900Y381100D03*
X68900Y406500D03*
X68900Y431900D03*
X68900Y457300D03*
X910100Y105200D03*
X910100Y79800D03*
D12*
X148200Y631400D03*
D10*
X148200Y656800D03*
X148200Y682200D03*
X148200Y707600D03*
X281200Y535300D03*
X281200Y560700D03*
X281200Y586100D03*
X281200Y611500D03*
X281200Y636900D03*
X281200Y662300D03*
X918000Y323200D03*
X892600Y323200D03*
X138700Y147300D03*
X138700Y172700D03*
X187700Y147100D03*
X187700Y172500D03*
X892400Y369800D03*
X917800Y369800D03*
X867800Y370200D03*
X842400Y370200D03*
X842000Y322300D03*
X867400Y322300D03*
X867700Y247700D03*
X842300Y247700D03*
X547800Y440400D03*
X547800Y415000D03*
D13*
X810700Y140500D03*
D14*
X810700Y93500D03*
D13*
X810700Y46500D03*
D14*
X934750Y485100D03*
X934750Y435600D03*
D15*
X965500Y425600D03*
X965500Y495600D03*
D12*
X919700Y642000D03*
D16*
X919700Y667400D03*
X919700Y692800D03*
X945100Y692800D03*
X945100Y667400D03*
X945100Y642000D03*
D11*
X806700Y273439D03*
X806700Y208161D03*
D14*
X700000Y100000D03*
D17*
X737400Y137400D01*
X737400Y383900D01*
D18*
X240000Y450000D03*
X242000Y217500D03*
X248000Y123000D03*
X302500Y124500D03*
X297500Y52000D03*
D14*
X800000Y550000D03*
D19*
X780000Y171200D02*
X810700Y140500D01*
X780000Y171200D02*
X780000Y248500D01*
X804939Y273439D01*
X806700Y273439D01*
D18*
X142000Y237500D03*
X182500Y421500D03*
X291000Y458500D03*
D19*
X258500Y421500D02*
X182500Y421500D01*
X258500Y421500D02*
X260000Y420000D01*
X291000Y451000D01*
X291000Y458500D01*
D18*
X471500Y315500D03*
D20*
X800000Y550000D02*
X868000Y618000D01*
X931000Y618000D01*
X945100Y632100D01*
X945100Y642000D01*
X817700Y667400D02*
X737400Y587100D01*
X817700Y667400D02*
X919700Y667400D01*
X773300Y663300D02*
X737400Y663300D01*
X826000Y716000D02*
X947500Y716000D01*
X963000Y700500D01*
X963000Y685300D02*
X945100Y667400D01*
X826000Y716000D02*
X773300Y663300D01*
X963000Y685300D02*
X963000Y700500D01*
D18*
X520000Y500000D03*
D19*
X500000Y480000D02*
X500000Y140000D01*
X470000Y110000D01*
X420000Y110000D01*
X406100Y96100D01*
X406100Y59900D01*
X500000Y480000D02*
X520000Y500000D01*
D18*
X120000Y380000D03*
X151500Y279500D03*
D17*
X120000Y311000D01*
X120000Y380000D01*
D18*
X370000Y358500D03*
D17*
X348500Y380000D02*
X120000Y380000D01*
X348500Y380000D02*
X370000Y358500D01*
D18*
X318500Y293000D03*
D17*
X318500Y307000D02*
X370000Y358500D01*
X318500Y307000D02*
X318500Y293000D01*
D20*
X567900Y637900D02*
X737400Y637900D01*
X567900Y637900D02*
X440000Y510000D01*
X50000Y510000D01*
D19*
X37000Y497000D01*
X37000Y395500D01*
X51400Y381100D01*
X68900Y381100D01*
D20*
X50000Y487000D02*
X454500Y487000D01*
X580000Y612500D01*
X737400Y612500D01*
D19*
X50000Y487000D02*
X47000Y484000D01*
X47000Y417500D01*
X58000Y406500D01*
X68900Y406500D01*
D14*
X660000Y50000D03*
D17*
X663500Y46500D02*
X810700Y46500D01*
X663500Y46500D02*
X660000Y50000D01*
M02*
