G04 EAGLE Gerber RS-274X export*
G75*
%MOMM*%
%FSLAX34Y34*%
%LPD*%
%INSoldermask Top*%
%IPNEG*%
%AMOC8*
5,1,8,0,0,1.08239X$1,22.5*%
G01*
%ADD10C,1.981200*%
%ADD11C,0.238272*%
%ADD12C,0.233172*%
%ADD13C,0.184800*%
%ADD14C,0.148763*%
%ADD15C,2.286000*%
%ADD16C,0.308222*%
%ADD17C,0.163213*%
%ADD18C,0.315222*%
%ADD19C,0.171600*%
%ADD20C,0.154350*%
%ADD21C,0.165000*%
%ADD22C,0.198550*%
%ADD23R,1.981200X1.981200*%
%ADD24C,0.220216*%
%ADD25C,1.625600*%
%ADD26C,1.609600*%
%ADD27C,0.216172*%
%ADD28C,0.155247*%
%ADD29C,0.216288*%
%ADD30C,2.051600*%
%ADD31P,2.144431X8X112.500000*%
%ADD32C,0.188100*%
%ADD33C,0.610159*%
%ADD34C,1.409600*%


D10*
X380700Y59900D03*
X406100Y59900D03*
X431500Y59900D03*
X456900Y59900D03*
X482300Y59900D03*
X507700Y59900D03*
D11*
X368317Y740517D02*
X356683Y740517D01*
X368317Y740517D02*
X368317Y726883D01*
X356683Y726883D01*
X356683Y740517D01*
X356683Y729147D02*
X368317Y729147D01*
X368317Y731411D02*
X356683Y731411D01*
X356683Y733675D02*
X368317Y733675D01*
X368317Y735939D02*
X356683Y735939D01*
X356683Y738203D02*
X368317Y738203D01*
X368317Y740467D02*
X356683Y740467D01*
X351317Y740517D02*
X339683Y740517D01*
X351317Y740517D02*
X351317Y726883D01*
X339683Y726883D01*
X339683Y740517D01*
X339683Y729147D02*
X351317Y729147D01*
X351317Y731411D02*
X339683Y731411D01*
X339683Y733675D02*
X351317Y733675D01*
X351317Y735939D02*
X339683Y735939D01*
X339683Y738203D02*
X351317Y738203D01*
X351317Y740467D02*
X339683Y740467D01*
X307817Y258283D02*
X296183Y258283D01*
X296183Y271917D01*
X307817Y271917D01*
X307817Y258283D01*
X307817Y260547D02*
X296183Y260547D01*
X296183Y262811D02*
X307817Y262811D01*
X307817Y265075D02*
X296183Y265075D01*
X296183Y267339D02*
X307817Y267339D01*
X307817Y269603D02*
X296183Y269603D01*
X296183Y271867D02*
X307817Y271867D01*
X313183Y258283D02*
X324817Y258283D01*
X313183Y258283D02*
X313183Y271917D01*
X324817Y271917D01*
X324817Y258283D01*
X324817Y260547D02*
X313183Y260547D01*
X313183Y262811D02*
X324817Y262811D01*
X324817Y265075D02*
X313183Y265075D01*
X313183Y267339D02*
X324817Y267339D01*
X324817Y269603D02*
X313183Y269603D01*
X313183Y271867D02*
X324817Y271867D01*
X236783Y263117D02*
X236783Y251483D01*
X236783Y263117D02*
X250417Y263117D01*
X250417Y251483D01*
X236783Y251483D01*
X236783Y253747D02*
X250417Y253747D01*
X250417Y256011D02*
X236783Y256011D01*
X236783Y258275D02*
X250417Y258275D01*
X250417Y260539D02*
X236783Y260539D01*
X236783Y262803D02*
X250417Y262803D01*
X236783Y246117D02*
X236783Y234483D01*
X236783Y246117D02*
X250417Y246117D01*
X250417Y234483D01*
X236783Y234483D01*
X236783Y236747D02*
X250417Y236747D01*
X250417Y239011D02*
X236783Y239011D01*
X236783Y241275D02*
X250417Y241275D01*
X250417Y243539D02*
X236783Y243539D01*
X236783Y245803D02*
X250417Y245803D01*
X355717Y353583D02*
X355717Y365217D01*
X355717Y353583D02*
X342083Y353583D01*
X342083Y365217D01*
X355717Y365217D01*
X355717Y355847D02*
X342083Y355847D01*
X342083Y358111D02*
X355717Y358111D01*
X355717Y360375D02*
X342083Y360375D01*
X342083Y362639D02*
X355717Y362639D01*
X355717Y364903D02*
X342083Y364903D01*
X355717Y370583D02*
X355717Y382217D01*
X355717Y370583D02*
X342083Y370583D01*
X342083Y382217D01*
X355717Y382217D01*
X355717Y372847D02*
X342083Y372847D01*
X342083Y375111D02*
X355717Y375111D01*
X355717Y377375D02*
X342083Y377375D01*
X342083Y379639D02*
X355717Y379639D01*
X355717Y381903D02*
X342083Y381903D01*
X961217Y306917D02*
X961217Y295283D01*
X947583Y295283D01*
X947583Y306917D01*
X961217Y306917D01*
X961217Y297547D02*
X947583Y297547D01*
X947583Y299811D02*
X961217Y299811D01*
X961217Y302075D02*
X947583Y302075D01*
X947583Y304339D02*
X961217Y304339D01*
X961217Y306603D02*
X947583Y306603D01*
X961217Y312283D02*
X961217Y323917D01*
X961217Y312283D02*
X947583Y312283D01*
X947583Y323917D01*
X961217Y323917D01*
X961217Y314547D02*
X947583Y314547D01*
X947583Y316811D02*
X961217Y316811D01*
X961217Y319075D02*
X947583Y319075D01*
X947583Y321339D02*
X961217Y321339D01*
X961217Y323603D02*
X947583Y323603D01*
X216717Y427483D02*
X216717Y439117D01*
X216717Y427483D02*
X203083Y427483D01*
X203083Y439117D01*
X216717Y439117D01*
X216717Y429747D02*
X203083Y429747D01*
X203083Y432011D02*
X216717Y432011D01*
X216717Y434275D02*
X203083Y434275D01*
X203083Y436539D02*
X216717Y436539D01*
X216717Y438803D02*
X203083Y438803D01*
X216717Y444483D02*
X216717Y456117D01*
X216717Y444483D02*
X203083Y444483D01*
X203083Y456117D01*
X216717Y456117D01*
X216717Y446747D02*
X203083Y446747D01*
X203083Y449011D02*
X216717Y449011D01*
X216717Y451275D02*
X203083Y451275D01*
X203083Y453539D02*
X216717Y453539D01*
X216717Y455803D02*
X203083Y455803D01*
X271217Y441817D02*
X271217Y430183D01*
X257583Y430183D01*
X257583Y441817D01*
X271217Y441817D01*
X271217Y432447D02*
X257583Y432447D01*
X257583Y434711D02*
X271217Y434711D01*
X271217Y436975D02*
X257583Y436975D01*
X257583Y439239D02*
X271217Y439239D01*
X271217Y441503D02*
X257583Y441503D01*
X271217Y447183D02*
X271217Y458817D01*
X271217Y447183D02*
X257583Y447183D01*
X257583Y458817D01*
X271217Y458817D01*
X271217Y449447D02*
X257583Y449447D01*
X257583Y451711D02*
X271217Y451711D01*
X271217Y453975D02*
X257583Y453975D01*
X257583Y456239D02*
X271217Y456239D01*
X271217Y458503D02*
X257583Y458503D01*
X152283Y331617D02*
X152283Y319983D01*
X152283Y331617D02*
X165917Y331617D01*
X165917Y319983D01*
X152283Y319983D01*
X152283Y322247D02*
X165917Y322247D01*
X165917Y324511D02*
X152283Y324511D01*
X152283Y326775D02*
X165917Y326775D01*
X165917Y329039D02*
X152283Y329039D01*
X152283Y331303D02*
X165917Y331303D01*
X152283Y314617D02*
X152283Y302983D01*
X152283Y314617D02*
X165917Y314617D01*
X165917Y302983D01*
X152283Y302983D01*
X152283Y305247D02*
X165917Y305247D01*
X165917Y307511D02*
X152283Y307511D01*
X152283Y309775D02*
X165917Y309775D01*
X165917Y312039D02*
X152283Y312039D01*
X152283Y314303D02*
X165917Y314303D01*
X149417Y360783D02*
X149417Y372417D01*
X149417Y360783D02*
X135783Y360783D01*
X135783Y372417D01*
X149417Y372417D01*
X149417Y363047D02*
X135783Y363047D01*
X135783Y365311D02*
X149417Y365311D01*
X149417Y367575D02*
X135783Y367575D01*
X135783Y369839D02*
X149417Y369839D01*
X149417Y372103D02*
X135783Y372103D01*
X149417Y377783D02*
X149417Y389417D01*
X149417Y377783D02*
X135783Y377783D01*
X135783Y389417D01*
X149417Y389417D01*
X149417Y380047D02*
X135783Y380047D01*
X135783Y382311D02*
X149417Y382311D01*
X149417Y384575D02*
X135783Y384575D01*
X135783Y386839D02*
X149417Y386839D01*
X149417Y389103D02*
X135783Y389103D01*
X421417Y361617D02*
X421417Y349983D01*
X407783Y349983D01*
X407783Y361617D01*
X421417Y361617D01*
X421417Y352247D02*
X407783Y352247D01*
X407783Y354511D02*
X421417Y354511D01*
X421417Y356775D02*
X407783Y356775D01*
X407783Y359039D02*
X421417Y359039D01*
X421417Y361303D02*
X407783Y361303D01*
X421417Y366983D02*
X421417Y378617D01*
X421417Y366983D02*
X407783Y366983D01*
X407783Y378617D01*
X421417Y378617D01*
X421417Y369247D02*
X407783Y369247D01*
X407783Y371511D02*
X421417Y371511D01*
X421417Y373775D02*
X407783Y373775D01*
X407783Y376039D02*
X421417Y376039D01*
X421417Y378303D02*
X407783Y378303D01*
X398917Y360317D02*
X398917Y348683D01*
X385283Y348683D01*
X385283Y360317D01*
X398917Y360317D01*
X398917Y350947D02*
X385283Y350947D01*
X385283Y353211D02*
X398917Y353211D01*
X398917Y355475D02*
X385283Y355475D01*
X385283Y357739D02*
X398917Y357739D01*
X398917Y360003D02*
X385283Y360003D01*
X398917Y365683D02*
X398917Y377317D01*
X398917Y365683D02*
X385283Y365683D01*
X385283Y377317D01*
X398917Y377317D01*
X398917Y367947D02*
X385283Y367947D01*
X385283Y370211D02*
X398917Y370211D01*
X398917Y372475D02*
X385283Y372475D01*
X385283Y374739D02*
X398917Y374739D01*
X398917Y377003D02*
X385283Y377003D01*
X779517Y421883D02*
X779517Y433517D01*
X779517Y421883D02*
X765883Y421883D01*
X765883Y433517D01*
X779517Y433517D01*
X779517Y424147D02*
X765883Y424147D01*
X765883Y426411D02*
X779517Y426411D01*
X779517Y428675D02*
X765883Y428675D01*
X765883Y430939D02*
X779517Y430939D01*
X779517Y433203D02*
X765883Y433203D01*
X779517Y438883D02*
X779517Y450517D01*
X779517Y438883D02*
X765883Y438883D01*
X765883Y450517D01*
X779517Y450517D01*
X779517Y441147D02*
X765883Y441147D01*
X765883Y443411D02*
X779517Y443411D01*
X779517Y445675D02*
X765883Y445675D01*
X765883Y447939D02*
X779517Y447939D01*
X779517Y450203D02*
X765883Y450203D01*
X376583Y318617D02*
X376583Y306983D01*
X376583Y318617D02*
X390217Y318617D01*
X390217Y306983D01*
X376583Y306983D01*
X376583Y309247D02*
X390217Y309247D01*
X390217Y311511D02*
X376583Y311511D01*
X376583Y313775D02*
X390217Y313775D01*
X390217Y316039D02*
X376583Y316039D01*
X376583Y318303D02*
X390217Y318303D01*
X376583Y301617D02*
X376583Y289983D01*
X376583Y301617D02*
X390217Y301617D01*
X390217Y289983D01*
X376583Y289983D01*
X376583Y292247D02*
X390217Y292247D01*
X390217Y294511D02*
X376583Y294511D01*
X376583Y296775D02*
X390217Y296775D01*
X390217Y299039D02*
X376583Y299039D01*
X376583Y301303D02*
X390217Y301303D01*
X353583Y307283D02*
X353583Y318917D01*
X367217Y318917D01*
X367217Y307283D01*
X353583Y307283D01*
X353583Y309547D02*
X367217Y309547D01*
X367217Y311811D02*
X353583Y311811D01*
X353583Y314075D02*
X367217Y314075D01*
X367217Y316339D02*
X353583Y316339D01*
X353583Y318603D02*
X367217Y318603D01*
X353583Y301917D02*
X353583Y290283D01*
X353583Y301917D02*
X367217Y301917D01*
X367217Y290283D01*
X353583Y290283D01*
X353583Y292547D02*
X367217Y292547D01*
X367217Y294811D02*
X353583Y294811D01*
X353583Y297075D02*
X367217Y297075D01*
X367217Y299339D02*
X353583Y299339D01*
X353583Y301603D02*
X367217Y301603D01*
X961917Y337783D02*
X961917Y349417D01*
X961917Y337783D02*
X948283Y337783D01*
X948283Y349417D01*
X961917Y349417D01*
X961917Y340047D02*
X948283Y340047D01*
X948283Y342311D02*
X961917Y342311D01*
X961917Y344575D02*
X948283Y344575D01*
X948283Y346839D02*
X961917Y346839D01*
X961917Y349103D02*
X948283Y349103D01*
X961917Y354783D02*
X961917Y366417D01*
X961917Y354783D02*
X948283Y354783D01*
X948283Y366417D01*
X961917Y366417D01*
X961917Y357047D02*
X948283Y357047D01*
X948283Y359311D02*
X961917Y359311D01*
X961917Y361575D02*
X948283Y361575D01*
X948283Y363839D02*
X961917Y363839D01*
X961917Y366103D02*
X948283Y366103D01*
X956383Y196417D02*
X968017Y196417D01*
X968017Y182783D01*
X956383Y182783D01*
X956383Y196417D01*
X956383Y185047D02*
X968017Y185047D01*
X968017Y187311D02*
X956383Y187311D01*
X956383Y189575D02*
X968017Y189575D01*
X968017Y191839D02*
X956383Y191839D01*
X956383Y194103D02*
X968017Y194103D01*
X968017Y196367D02*
X956383Y196367D01*
X951017Y196417D02*
X939383Y196417D01*
X951017Y196417D02*
X951017Y182783D01*
X939383Y182783D01*
X939383Y196417D01*
X939383Y185047D02*
X951017Y185047D01*
X951017Y187311D02*
X939383Y187311D01*
X939383Y189575D02*
X951017Y189575D01*
X951017Y191839D02*
X939383Y191839D01*
X939383Y194103D02*
X951017Y194103D01*
X951017Y196367D02*
X939383Y196367D01*
X956683Y167917D02*
X968317Y167917D01*
X968317Y154283D01*
X956683Y154283D01*
X956683Y167917D01*
X956683Y156547D02*
X968317Y156547D01*
X968317Y158811D02*
X956683Y158811D01*
X956683Y161075D02*
X968317Y161075D01*
X968317Y163339D02*
X956683Y163339D01*
X956683Y165603D02*
X968317Y165603D01*
X968317Y167867D02*
X956683Y167867D01*
X951317Y167917D02*
X939683Y167917D01*
X951317Y167917D02*
X951317Y154283D01*
X939683Y154283D01*
X939683Y167917D01*
X939683Y156547D02*
X951317Y156547D01*
X951317Y158811D02*
X939683Y158811D01*
X939683Y161075D02*
X951317Y161075D01*
X951317Y163339D02*
X939683Y163339D01*
X939683Y165603D02*
X951317Y165603D01*
X951317Y167867D02*
X939683Y167867D01*
X867083Y113117D02*
X867083Y101483D01*
X867083Y113117D02*
X880717Y113117D01*
X880717Y101483D01*
X867083Y101483D01*
X867083Y103747D02*
X880717Y103747D01*
X880717Y106011D02*
X867083Y106011D01*
X867083Y108275D02*
X880717Y108275D01*
X880717Y110539D02*
X867083Y110539D01*
X867083Y112803D02*
X880717Y112803D01*
X867083Y96117D02*
X867083Y84483D01*
X867083Y96117D02*
X880717Y96117D01*
X880717Y84483D01*
X867083Y84483D01*
X867083Y86747D02*
X880717Y86747D01*
X880717Y89011D02*
X867083Y89011D01*
X867083Y91275D02*
X880717Y91275D01*
X880717Y93539D02*
X867083Y93539D01*
X867083Y95803D02*
X880717Y95803D01*
X611917Y160917D02*
X600283Y160917D01*
X611917Y160917D02*
X611917Y147283D01*
X600283Y147283D01*
X600283Y160917D01*
X600283Y149547D02*
X611917Y149547D01*
X611917Y151811D02*
X600283Y151811D01*
X600283Y154075D02*
X611917Y154075D01*
X611917Y156339D02*
X600283Y156339D01*
X600283Y158603D02*
X611917Y158603D01*
X611917Y160867D02*
X600283Y160867D01*
X594917Y160917D02*
X583283Y160917D01*
X594917Y160917D02*
X594917Y147283D01*
X583283Y147283D01*
X583283Y160917D01*
X583283Y149547D02*
X594917Y149547D01*
X594917Y151811D02*
X583283Y151811D01*
X583283Y154075D02*
X594917Y154075D01*
X594917Y156339D02*
X583283Y156339D01*
X583283Y158603D02*
X594917Y158603D01*
X594917Y160867D02*
X583283Y160867D01*
X581283Y193583D02*
X592917Y193583D01*
X581283Y193583D02*
X581283Y207217D01*
X592917Y207217D01*
X592917Y193583D01*
X592917Y195847D02*
X581283Y195847D01*
X581283Y198111D02*
X592917Y198111D01*
X592917Y200375D02*
X581283Y200375D01*
X581283Y202639D02*
X592917Y202639D01*
X592917Y204903D02*
X581283Y204903D01*
X581283Y207167D02*
X592917Y207167D01*
X598283Y193583D02*
X609917Y193583D01*
X598283Y193583D02*
X598283Y207217D01*
X609917Y207217D01*
X609917Y193583D01*
X609917Y195847D02*
X598283Y195847D01*
X598283Y198111D02*
X609917Y198111D01*
X609917Y200375D02*
X598283Y200375D01*
X598283Y202639D02*
X609917Y202639D01*
X609917Y204903D02*
X598283Y204903D01*
X598283Y207167D02*
X609917Y207167D01*
X592617Y281583D02*
X580983Y281583D01*
X580983Y295217D01*
X592617Y295217D01*
X592617Y281583D01*
X592617Y283847D02*
X580983Y283847D01*
X580983Y286111D02*
X592617Y286111D01*
X592617Y288375D02*
X580983Y288375D01*
X580983Y290639D02*
X592617Y290639D01*
X592617Y292903D02*
X580983Y292903D01*
X580983Y295167D02*
X592617Y295167D01*
X597983Y281583D02*
X609617Y281583D01*
X597983Y281583D02*
X597983Y295217D01*
X609617Y295217D01*
X609617Y281583D01*
X609617Y283847D02*
X597983Y283847D01*
X597983Y286111D02*
X609617Y286111D01*
X609617Y288375D02*
X597983Y288375D01*
X597983Y290639D02*
X609617Y290639D01*
X609617Y292903D02*
X597983Y292903D01*
X597983Y295167D02*
X609617Y295167D01*
X609317Y249917D02*
X597683Y249917D01*
X609317Y249917D02*
X609317Y236283D01*
X597683Y236283D01*
X597683Y249917D01*
X597683Y238547D02*
X609317Y238547D01*
X609317Y240811D02*
X597683Y240811D01*
X597683Y243075D02*
X609317Y243075D01*
X609317Y245339D02*
X597683Y245339D01*
X597683Y247603D02*
X609317Y247603D01*
X609317Y249867D02*
X597683Y249867D01*
X592317Y249917D02*
X580683Y249917D01*
X592317Y249917D02*
X592317Y236283D01*
X580683Y236283D01*
X580683Y249917D01*
X580683Y238547D02*
X592317Y238547D01*
X592317Y240811D02*
X580683Y240811D01*
X580683Y243075D02*
X592317Y243075D01*
X592317Y245339D02*
X580683Y245339D01*
X580683Y247603D02*
X592317Y247603D01*
X592317Y249867D02*
X580683Y249867D01*
X326783Y129217D02*
X326783Y117583D01*
X326783Y129217D02*
X340417Y129217D01*
X340417Y117583D01*
X326783Y117583D01*
X326783Y119847D02*
X340417Y119847D01*
X340417Y122111D02*
X326783Y122111D01*
X326783Y124375D02*
X340417Y124375D01*
X340417Y126639D02*
X326783Y126639D01*
X326783Y128903D02*
X340417Y128903D01*
X326783Y112217D02*
X326783Y100583D01*
X326783Y112217D02*
X340417Y112217D01*
X340417Y100583D01*
X326783Y100583D01*
X326783Y102847D02*
X340417Y102847D01*
X340417Y105111D02*
X326783Y105111D01*
X326783Y107375D02*
X340417Y107375D01*
X340417Y109639D02*
X326783Y109639D01*
X326783Y111903D02*
X340417Y111903D01*
X602583Y70617D02*
X602583Y58983D01*
X602583Y70617D02*
X616217Y70617D01*
X616217Y58983D01*
X602583Y58983D01*
X602583Y61247D02*
X616217Y61247D01*
X616217Y63511D02*
X602583Y63511D01*
X602583Y65775D02*
X616217Y65775D01*
X616217Y68039D02*
X602583Y68039D01*
X602583Y70303D02*
X616217Y70303D01*
X602583Y53617D02*
X602583Y41983D01*
X602583Y53617D02*
X616217Y53617D01*
X616217Y41983D01*
X602583Y41983D01*
X602583Y44247D02*
X616217Y44247D01*
X616217Y46511D02*
X602583Y46511D01*
X602583Y48775D02*
X616217Y48775D01*
X616217Y51039D02*
X602583Y51039D01*
X602583Y53303D02*
X616217Y53303D01*
X625883Y58583D02*
X625883Y70217D01*
X639517Y70217D01*
X639517Y58583D01*
X625883Y58583D01*
X625883Y60847D02*
X639517Y60847D01*
X639517Y63111D02*
X625883Y63111D01*
X625883Y65375D02*
X639517Y65375D01*
X639517Y67639D02*
X625883Y67639D01*
X625883Y69903D02*
X639517Y69903D01*
X625883Y53217D02*
X625883Y41583D01*
X625883Y53217D02*
X639517Y53217D01*
X639517Y41583D01*
X625883Y41583D01*
X625883Y43847D02*
X639517Y43847D01*
X639517Y46111D02*
X625883Y46111D01*
X625883Y48375D02*
X639517Y48375D01*
X639517Y50639D02*
X625883Y50639D01*
X625883Y52903D02*
X639517Y52903D01*
X788617Y472483D02*
X788617Y484117D01*
X788617Y472483D02*
X774983Y472483D01*
X774983Y484117D01*
X788617Y484117D01*
X788617Y474747D02*
X774983Y474747D01*
X774983Y477011D02*
X788617Y477011D01*
X788617Y479275D02*
X774983Y479275D01*
X774983Y481539D02*
X788617Y481539D01*
X788617Y483803D02*
X774983Y483803D01*
X788617Y489483D02*
X788617Y501117D01*
X788617Y489483D02*
X774983Y489483D01*
X774983Y501117D01*
X788617Y501117D01*
X788617Y491747D02*
X774983Y491747D01*
X774983Y494011D02*
X788617Y494011D01*
X788617Y496275D02*
X774983Y496275D01*
X774983Y498539D02*
X788617Y498539D01*
X788617Y500803D02*
X774983Y500803D01*
X831683Y587883D02*
X843317Y587883D01*
X831683Y587883D02*
X831683Y601517D01*
X843317Y601517D01*
X843317Y587883D01*
X843317Y590147D02*
X831683Y590147D01*
X831683Y592411D02*
X843317Y592411D01*
X843317Y594675D02*
X831683Y594675D01*
X831683Y596939D02*
X843317Y596939D01*
X843317Y599203D02*
X831683Y599203D01*
X831683Y601467D02*
X843317Y601467D01*
X848683Y587883D02*
X860317Y587883D01*
X848683Y587883D02*
X848683Y601517D01*
X860317Y601517D01*
X860317Y587883D01*
X860317Y590147D02*
X848683Y590147D01*
X848683Y592411D02*
X860317Y592411D01*
X860317Y594675D02*
X848683Y594675D01*
X848683Y596939D02*
X860317Y596939D01*
X860317Y599203D02*
X848683Y599203D01*
X848683Y601467D02*
X860317Y601467D01*
X769017Y52717D02*
X757383Y52717D01*
X769017Y52717D02*
X769017Y39083D01*
X757383Y39083D01*
X757383Y52717D01*
X757383Y41347D02*
X769017Y41347D01*
X769017Y43611D02*
X757383Y43611D01*
X757383Y45875D02*
X769017Y45875D01*
X769017Y48139D02*
X757383Y48139D01*
X757383Y50403D02*
X769017Y50403D01*
X769017Y52667D02*
X757383Y52667D01*
X752017Y52717D02*
X740383Y52717D01*
X752017Y52717D02*
X752017Y39083D01*
X740383Y39083D01*
X740383Y52717D01*
X740383Y41347D02*
X752017Y41347D01*
X752017Y43611D02*
X740383Y43611D01*
X740383Y45875D02*
X752017Y45875D01*
X752017Y48139D02*
X740383Y48139D01*
X740383Y50403D02*
X752017Y50403D01*
X752017Y52667D02*
X740383Y52667D01*
X694283Y70183D02*
X694283Y81817D01*
X707917Y81817D01*
X707917Y70183D01*
X694283Y70183D01*
X694283Y72447D02*
X707917Y72447D01*
X707917Y74711D02*
X694283Y74711D01*
X694283Y76975D02*
X707917Y76975D01*
X707917Y79239D02*
X694283Y79239D01*
X694283Y81503D02*
X707917Y81503D01*
X694283Y64817D02*
X694283Y53183D01*
X694283Y64817D02*
X707917Y64817D01*
X707917Y53183D01*
X694283Y53183D01*
X694283Y55447D02*
X707917Y55447D01*
X707917Y57711D02*
X694283Y57711D01*
X694283Y59975D02*
X707917Y59975D01*
X707917Y62239D02*
X694283Y62239D01*
X694283Y64503D02*
X707917Y64503D01*
X391617Y198717D02*
X379983Y198717D01*
X391617Y198717D02*
X391617Y185083D01*
X379983Y185083D01*
X379983Y198717D01*
X379983Y187347D02*
X391617Y187347D01*
X391617Y189611D02*
X379983Y189611D01*
X379983Y191875D02*
X391617Y191875D01*
X391617Y194139D02*
X379983Y194139D01*
X379983Y196403D02*
X391617Y196403D01*
X391617Y198667D02*
X379983Y198667D01*
X374617Y198717D02*
X362983Y198717D01*
X374617Y198717D02*
X374617Y185083D01*
X362983Y185083D01*
X362983Y198717D01*
X362983Y187347D02*
X374617Y187347D01*
X374617Y189611D02*
X362983Y189611D01*
X362983Y191875D02*
X374617Y191875D01*
X374617Y194139D02*
X362983Y194139D01*
X362983Y196403D02*
X374617Y196403D01*
X374617Y198667D02*
X362983Y198667D01*
X443283Y199217D02*
X454917Y199217D01*
X454917Y185583D01*
X443283Y185583D01*
X443283Y199217D01*
X443283Y187847D02*
X454917Y187847D01*
X454917Y190111D02*
X443283Y190111D01*
X443283Y192375D02*
X454917Y192375D01*
X454917Y194639D02*
X443283Y194639D01*
X443283Y196903D02*
X454917Y196903D01*
X454917Y199167D02*
X443283Y199167D01*
X437917Y199217D02*
X426283Y199217D01*
X437917Y199217D02*
X437917Y185583D01*
X426283Y185583D01*
X426283Y199217D01*
X426283Y187847D02*
X437917Y187847D01*
X437917Y190111D02*
X426283Y190111D01*
X426283Y192375D02*
X437917Y192375D01*
X437917Y194639D02*
X426283Y194639D01*
X426283Y196903D02*
X437917Y196903D01*
X437917Y199167D02*
X426283Y199167D01*
X196217Y246217D02*
X184583Y246217D01*
X196217Y246217D02*
X196217Y232583D01*
X184583Y232583D01*
X184583Y246217D01*
X184583Y234847D02*
X196217Y234847D01*
X196217Y237111D02*
X184583Y237111D01*
X184583Y239375D02*
X196217Y239375D01*
X196217Y241639D02*
X184583Y241639D01*
X184583Y243903D02*
X196217Y243903D01*
X196217Y246167D02*
X184583Y246167D01*
X179217Y246217D02*
X167583Y246217D01*
X179217Y246217D02*
X179217Y232583D01*
X167583Y232583D01*
X167583Y246217D01*
X167583Y234847D02*
X179217Y234847D01*
X179217Y237111D02*
X167583Y237111D01*
X167583Y239375D02*
X179217Y239375D01*
X179217Y241639D02*
X167583Y241639D01*
X167583Y243903D02*
X179217Y243903D01*
X179217Y246167D02*
X167583Y246167D01*
X181883Y271217D02*
X193517Y271217D01*
X193517Y257583D01*
X181883Y257583D01*
X181883Y271217D01*
X181883Y259847D02*
X193517Y259847D01*
X193517Y262111D02*
X181883Y262111D01*
X181883Y264375D02*
X193517Y264375D01*
X193517Y266639D02*
X181883Y266639D01*
X181883Y268903D02*
X193517Y268903D01*
X193517Y271167D02*
X181883Y271167D01*
X176517Y271217D02*
X164883Y271217D01*
X176517Y271217D02*
X176517Y257583D01*
X164883Y257583D01*
X164883Y271217D01*
X164883Y259847D02*
X176517Y259847D01*
X176517Y262111D02*
X164883Y262111D01*
X164883Y264375D02*
X176517Y264375D01*
X176517Y266639D02*
X164883Y266639D01*
X164883Y268903D02*
X176517Y268903D01*
X176517Y271167D02*
X164883Y271167D01*
D12*
X923808Y547508D02*
X923808Y558892D01*
X937192Y558892D01*
X937192Y547508D01*
X923808Y547508D01*
X923808Y549723D02*
X937192Y549723D01*
X937192Y551938D02*
X923808Y551938D01*
X923808Y554153D02*
X937192Y554153D01*
X937192Y556368D02*
X923808Y556368D01*
X923808Y558583D02*
X937192Y558583D01*
X937192Y590508D02*
X937192Y601892D01*
X937192Y590508D02*
X923808Y590508D01*
X923808Y601892D01*
X937192Y601892D01*
X937192Y592723D02*
X923808Y592723D01*
X923808Y594938D02*
X937192Y594938D01*
X937192Y597153D02*
X923808Y597153D01*
X923808Y599368D02*
X937192Y599368D01*
X937192Y601583D02*
X923808Y601583D01*
D13*
X417176Y295176D02*
X408224Y295176D01*
X417176Y295176D02*
X417176Y288224D01*
X408224Y288224D01*
X408224Y295176D01*
X408224Y289980D02*
X417176Y289980D01*
X417176Y291736D02*
X408224Y291736D01*
X408224Y293492D02*
X417176Y293492D01*
D14*
X413190Y304210D02*
X422210Y304210D01*
X422210Y301190D01*
X413190Y301190D01*
X413190Y304210D01*
X413190Y302604D02*
X422210Y302604D01*
X422210Y304018D02*
X413190Y304018D01*
D13*
X417176Y317176D02*
X408224Y317176D01*
X417176Y317176D02*
X417176Y310224D01*
X408224Y310224D01*
X408224Y317176D01*
X408224Y311980D02*
X417176Y311980D01*
X417176Y313736D02*
X408224Y313736D01*
X408224Y315492D02*
X417176Y315492D01*
D14*
X412210Y304210D02*
X403190Y304210D01*
X412210Y304210D02*
X412210Y301190D01*
X403190Y301190D01*
X403190Y304210D01*
X403190Y302604D02*
X412210Y302604D01*
X412210Y304018D02*
X403190Y304018D01*
D13*
X437424Y371424D02*
X446376Y371424D01*
X437424Y371424D02*
X437424Y378376D01*
X446376Y378376D01*
X446376Y371424D01*
X446376Y373180D02*
X437424Y373180D01*
X437424Y374936D02*
X446376Y374936D01*
X446376Y376692D02*
X437424Y376692D01*
D14*
X441410Y362390D02*
X432390Y362390D01*
X432390Y365410D01*
X441410Y365410D01*
X441410Y362390D01*
X441410Y363804D02*
X432390Y363804D01*
X432390Y365218D02*
X441410Y365218D01*
D13*
X437424Y349424D02*
X446376Y349424D01*
X437424Y349424D02*
X437424Y356376D01*
X446376Y356376D01*
X446376Y349424D01*
X446376Y351180D02*
X437424Y351180D01*
X437424Y352936D02*
X446376Y352936D01*
X446376Y354692D02*
X437424Y354692D01*
D14*
X442390Y362390D02*
X451410Y362390D01*
X442390Y362390D02*
X442390Y365410D01*
X451410Y365410D01*
X451410Y362390D01*
X451410Y363804D02*
X442390Y363804D01*
X442390Y365218D02*
X451410Y365218D01*
D15*
X601200Y521639D03*
X601200Y456361D03*
X80700Y724539D03*
X80700Y659261D03*
D16*
X430133Y238967D02*
X484067Y238967D01*
X484067Y220033D01*
X430133Y220033D01*
X430133Y238967D01*
X430133Y222961D02*
X484067Y222961D01*
X484067Y225889D02*
X430133Y225889D01*
X430133Y228817D02*
X484067Y228817D01*
X484067Y231745D02*
X430133Y231745D01*
X430133Y234673D02*
X484067Y234673D01*
X484067Y237601D02*
X430133Y237601D01*
X389067Y238967D02*
X335133Y238967D01*
X389067Y238967D02*
X389067Y220033D01*
X335133Y220033D01*
X335133Y238967D01*
X335133Y222961D02*
X389067Y222961D01*
X389067Y225889D02*
X335133Y225889D01*
X335133Y228817D02*
X389067Y228817D01*
X389067Y231745D02*
X335133Y231745D01*
X335133Y234673D02*
X389067Y234673D01*
X389067Y237601D02*
X335133Y237601D01*
D17*
X938702Y266208D02*
X938702Y281258D01*
X943598Y281258D01*
X943598Y266208D01*
X938702Y266208D01*
X938702Y267758D02*
X943598Y267758D01*
X943598Y269308D02*
X938702Y269308D01*
X938702Y270858D02*
X943598Y270858D01*
X943598Y272408D02*
X938702Y272408D01*
X938702Y273958D02*
X943598Y273958D01*
X943598Y275508D02*
X938702Y275508D01*
X938702Y277058D02*
X943598Y277058D01*
X943598Y278608D02*
X938702Y278608D01*
X938702Y280158D02*
X943598Y280158D01*
X926002Y281258D02*
X926002Y266208D01*
X926002Y281258D02*
X930898Y281258D01*
X930898Y266208D01*
X926002Y266208D01*
X926002Y267758D02*
X930898Y267758D01*
X930898Y269308D02*
X926002Y269308D01*
X926002Y270858D02*
X930898Y270858D01*
X930898Y272408D02*
X926002Y272408D01*
X926002Y273958D02*
X930898Y273958D01*
X930898Y275508D02*
X926002Y275508D01*
X926002Y277058D02*
X930898Y277058D01*
X930898Y278608D02*
X926002Y278608D01*
X926002Y280158D02*
X930898Y280158D01*
X913302Y281258D02*
X913302Y266208D01*
X913302Y281258D02*
X918198Y281258D01*
X918198Y266208D01*
X913302Y266208D01*
X913302Y267758D02*
X918198Y267758D01*
X918198Y269308D02*
X913302Y269308D01*
X913302Y270858D02*
X918198Y270858D01*
X918198Y272408D02*
X913302Y272408D01*
X913302Y273958D02*
X918198Y273958D01*
X918198Y275508D02*
X913302Y275508D01*
X913302Y277058D02*
X918198Y277058D01*
X918198Y278608D02*
X913302Y278608D01*
X913302Y280158D02*
X918198Y280158D01*
X900602Y281258D02*
X900602Y266208D01*
X900602Y281258D02*
X905498Y281258D01*
X905498Y266208D01*
X900602Y266208D01*
X900602Y267758D02*
X905498Y267758D01*
X905498Y269308D02*
X900602Y269308D01*
X900602Y270858D02*
X905498Y270858D01*
X905498Y272408D02*
X900602Y272408D01*
X900602Y273958D02*
X905498Y273958D01*
X905498Y275508D02*
X900602Y275508D01*
X900602Y277058D02*
X905498Y277058D01*
X905498Y278608D02*
X900602Y278608D01*
X900602Y280158D02*
X905498Y280158D01*
X900602Y228192D02*
X900602Y213142D01*
X900602Y228192D02*
X905498Y228192D01*
X905498Y213142D01*
X900602Y213142D01*
X900602Y214692D02*
X905498Y214692D01*
X905498Y216242D02*
X900602Y216242D01*
X900602Y217792D02*
X905498Y217792D01*
X905498Y219342D02*
X900602Y219342D01*
X900602Y220892D02*
X905498Y220892D01*
X905498Y222442D02*
X900602Y222442D01*
X900602Y223992D02*
X905498Y223992D01*
X905498Y225542D02*
X900602Y225542D01*
X900602Y227092D02*
X905498Y227092D01*
X913302Y228192D02*
X913302Y213142D01*
X913302Y228192D02*
X918198Y228192D01*
X918198Y213142D01*
X913302Y213142D01*
X913302Y214692D02*
X918198Y214692D01*
X918198Y216242D02*
X913302Y216242D01*
X913302Y217792D02*
X918198Y217792D01*
X918198Y219342D02*
X913302Y219342D01*
X913302Y220892D02*
X918198Y220892D01*
X918198Y222442D02*
X913302Y222442D01*
X913302Y223992D02*
X918198Y223992D01*
X918198Y225542D02*
X913302Y225542D01*
X913302Y227092D02*
X918198Y227092D01*
X926002Y228192D02*
X926002Y213142D01*
X926002Y228192D02*
X930898Y228192D01*
X930898Y213142D01*
X926002Y213142D01*
X926002Y214692D02*
X930898Y214692D01*
X930898Y216242D02*
X926002Y216242D01*
X926002Y217792D02*
X930898Y217792D01*
X930898Y219342D02*
X926002Y219342D01*
X926002Y220892D02*
X930898Y220892D01*
X930898Y222442D02*
X926002Y222442D01*
X926002Y223992D02*
X930898Y223992D01*
X930898Y225542D02*
X926002Y225542D01*
X926002Y227092D02*
X930898Y227092D01*
X938702Y228192D02*
X938702Y213142D01*
X938702Y228192D02*
X943598Y228192D01*
X943598Y213142D01*
X938702Y213142D01*
X938702Y214692D02*
X943598Y214692D01*
X943598Y216242D02*
X938702Y216242D01*
X938702Y217792D02*
X943598Y217792D01*
X943598Y219342D02*
X938702Y219342D01*
X938702Y220892D02*
X943598Y220892D01*
X943598Y222442D02*
X938702Y222442D01*
X938702Y223992D02*
X943598Y223992D01*
X943598Y225542D02*
X938702Y225542D01*
X938702Y227092D02*
X943598Y227092D01*
D18*
X931782Y237518D02*
X912418Y237518D01*
X912418Y256882D01*
X931782Y256882D01*
X931782Y237518D01*
X931782Y240512D02*
X912418Y240512D01*
X912418Y243506D02*
X931782Y243506D01*
X931782Y246500D02*
X912418Y246500D01*
X912418Y249494D02*
X931782Y249494D01*
X931782Y252488D02*
X912418Y252488D01*
X912418Y255482D02*
X931782Y255482D01*
D19*
X585433Y126812D02*
X585433Y112628D01*
X585433Y126812D02*
X590867Y126812D01*
X590867Y112628D01*
X585433Y112628D01*
X585433Y114258D02*
X590867Y114258D01*
X590867Y115888D02*
X585433Y115888D01*
X585433Y117518D02*
X590867Y117518D01*
X590867Y119148D02*
X585433Y119148D01*
X585433Y120778D02*
X590867Y120778D01*
X590867Y122408D02*
X585433Y122408D01*
X585433Y124038D02*
X590867Y124038D01*
X590867Y125668D02*
X585433Y125668D01*
X572733Y126812D02*
X572733Y112628D01*
X572733Y126812D02*
X578167Y126812D01*
X578167Y112628D01*
X572733Y112628D01*
X572733Y114258D02*
X578167Y114258D01*
X578167Y115888D02*
X572733Y115888D01*
X572733Y117518D02*
X578167Y117518D01*
X578167Y119148D02*
X572733Y119148D01*
X572733Y120778D02*
X578167Y120778D01*
X578167Y122408D02*
X572733Y122408D01*
X572733Y124038D02*
X578167Y124038D01*
X578167Y125668D02*
X572733Y125668D01*
X560033Y126812D02*
X560033Y112628D01*
X560033Y126812D02*
X565467Y126812D01*
X565467Y112628D01*
X560033Y112628D01*
X560033Y114258D02*
X565467Y114258D01*
X565467Y115888D02*
X560033Y115888D01*
X560033Y117518D02*
X565467Y117518D01*
X565467Y119148D02*
X560033Y119148D01*
X560033Y120778D02*
X565467Y120778D01*
X565467Y122408D02*
X560033Y122408D01*
X560033Y124038D02*
X565467Y124038D01*
X565467Y125668D02*
X560033Y125668D01*
X547333Y126812D02*
X547333Y112628D01*
X547333Y126812D02*
X552767Y126812D01*
X552767Y112628D01*
X547333Y112628D01*
X547333Y114258D02*
X552767Y114258D01*
X552767Y115888D02*
X547333Y115888D01*
X547333Y117518D02*
X552767Y117518D01*
X552767Y119148D02*
X547333Y119148D01*
X547333Y120778D02*
X552767Y120778D01*
X552767Y122408D02*
X547333Y122408D01*
X547333Y124038D02*
X552767Y124038D01*
X552767Y125668D02*
X547333Y125668D01*
X547333Y72572D02*
X547333Y58388D01*
X547333Y72572D02*
X552767Y72572D01*
X552767Y58388D01*
X547333Y58388D01*
X547333Y60018D02*
X552767Y60018D01*
X552767Y61648D02*
X547333Y61648D01*
X547333Y63278D02*
X552767Y63278D01*
X552767Y64908D02*
X547333Y64908D01*
X547333Y66538D02*
X552767Y66538D01*
X552767Y68168D02*
X547333Y68168D01*
X547333Y69798D02*
X552767Y69798D01*
X552767Y71428D02*
X547333Y71428D01*
X560033Y72572D02*
X560033Y58388D01*
X560033Y72572D02*
X565467Y72572D01*
X565467Y58388D01*
X560033Y58388D01*
X560033Y60018D02*
X565467Y60018D01*
X565467Y61648D02*
X560033Y61648D01*
X560033Y63278D02*
X565467Y63278D01*
X565467Y64908D02*
X560033Y64908D01*
X560033Y66538D02*
X565467Y66538D01*
X565467Y68168D02*
X560033Y68168D01*
X560033Y69798D02*
X565467Y69798D01*
X565467Y71428D02*
X560033Y71428D01*
X572733Y72572D02*
X572733Y58388D01*
X572733Y72572D02*
X578167Y72572D01*
X578167Y58388D01*
X572733Y58388D01*
X572733Y60018D02*
X578167Y60018D01*
X578167Y61648D02*
X572733Y61648D01*
X572733Y63278D02*
X578167Y63278D01*
X578167Y64908D02*
X572733Y64908D01*
X572733Y66538D02*
X578167Y66538D01*
X578167Y68168D02*
X572733Y68168D01*
X572733Y69798D02*
X578167Y69798D01*
X578167Y71428D02*
X572733Y71428D01*
X585433Y72572D02*
X585433Y58388D01*
X585433Y72572D02*
X590867Y72572D01*
X590867Y58388D01*
X585433Y58388D01*
X585433Y60018D02*
X590867Y60018D01*
X590867Y61648D02*
X585433Y61648D01*
X585433Y63278D02*
X590867Y63278D01*
X590867Y64908D02*
X585433Y64908D01*
X585433Y66538D02*
X590867Y66538D01*
X590867Y68168D02*
X585433Y68168D01*
X585433Y69798D02*
X590867Y69798D01*
X590867Y71428D02*
X585433Y71428D01*
X729567Y69988D02*
X729567Y84172D01*
X729567Y69988D02*
X724133Y69988D01*
X724133Y84172D01*
X729567Y84172D01*
X729567Y71618D02*
X724133Y71618D01*
X724133Y73248D02*
X729567Y73248D01*
X729567Y74878D02*
X724133Y74878D01*
X724133Y76508D02*
X729567Y76508D01*
X729567Y78138D02*
X724133Y78138D01*
X724133Y79768D02*
X729567Y79768D01*
X729567Y81398D02*
X724133Y81398D01*
X724133Y83028D02*
X729567Y83028D01*
X742267Y84172D02*
X742267Y69988D01*
X736833Y69988D01*
X736833Y84172D01*
X742267Y84172D01*
X742267Y71618D02*
X736833Y71618D01*
X736833Y73248D02*
X742267Y73248D01*
X742267Y74878D02*
X736833Y74878D01*
X736833Y76508D02*
X742267Y76508D01*
X742267Y78138D02*
X736833Y78138D01*
X736833Y79768D02*
X742267Y79768D01*
X742267Y81398D02*
X736833Y81398D01*
X736833Y83028D02*
X742267Y83028D01*
X754967Y84172D02*
X754967Y69988D01*
X749533Y69988D01*
X749533Y84172D01*
X754967Y84172D01*
X754967Y71618D02*
X749533Y71618D01*
X749533Y73248D02*
X754967Y73248D01*
X754967Y74878D02*
X749533Y74878D01*
X749533Y76508D02*
X754967Y76508D01*
X754967Y78138D02*
X749533Y78138D01*
X749533Y79768D02*
X754967Y79768D01*
X754967Y81398D02*
X749533Y81398D01*
X749533Y83028D02*
X754967Y83028D01*
X767667Y84172D02*
X767667Y69988D01*
X762233Y69988D01*
X762233Y84172D01*
X767667Y84172D01*
X767667Y71618D02*
X762233Y71618D01*
X762233Y73248D02*
X767667Y73248D01*
X767667Y74878D02*
X762233Y74878D01*
X762233Y76508D02*
X767667Y76508D01*
X767667Y78138D02*
X762233Y78138D01*
X762233Y79768D02*
X767667Y79768D01*
X767667Y81398D02*
X762233Y81398D01*
X762233Y83028D02*
X767667Y83028D01*
X767667Y124228D02*
X767667Y138412D01*
X767667Y124228D02*
X762233Y124228D01*
X762233Y138412D01*
X767667Y138412D01*
X767667Y125858D02*
X762233Y125858D01*
X762233Y127488D02*
X767667Y127488D01*
X767667Y129118D02*
X762233Y129118D01*
X762233Y130748D02*
X767667Y130748D01*
X767667Y132378D02*
X762233Y132378D01*
X762233Y134008D02*
X767667Y134008D01*
X767667Y135638D02*
X762233Y135638D01*
X762233Y137268D02*
X767667Y137268D01*
X754967Y138412D02*
X754967Y124228D01*
X749533Y124228D01*
X749533Y138412D01*
X754967Y138412D01*
X754967Y125858D02*
X749533Y125858D01*
X749533Y127488D02*
X754967Y127488D01*
X754967Y129118D02*
X749533Y129118D01*
X749533Y130748D02*
X754967Y130748D01*
X754967Y132378D02*
X749533Y132378D01*
X749533Y134008D02*
X754967Y134008D01*
X754967Y135638D02*
X749533Y135638D01*
X749533Y137268D02*
X754967Y137268D01*
X742267Y138412D02*
X742267Y124228D01*
X736833Y124228D01*
X736833Y138412D01*
X742267Y138412D01*
X742267Y125858D02*
X736833Y125858D01*
X736833Y127488D02*
X742267Y127488D01*
X742267Y129118D02*
X736833Y129118D01*
X736833Y130748D02*
X742267Y130748D01*
X742267Y132378D02*
X736833Y132378D01*
X736833Y134008D02*
X742267Y134008D01*
X742267Y135638D02*
X736833Y135638D01*
X736833Y137268D02*
X742267Y137268D01*
X729567Y138412D02*
X729567Y124228D01*
X724133Y124228D01*
X724133Y138412D01*
X729567Y138412D01*
X729567Y125858D02*
X724133Y125858D01*
X724133Y127488D02*
X729567Y127488D01*
X729567Y129118D02*
X724133Y129118D01*
X724133Y130748D02*
X729567Y130748D01*
X729567Y132378D02*
X724133Y132378D01*
X724133Y134008D02*
X729567Y134008D01*
X729567Y135638D02*
X724133Y135638D01*
X724133Y137268D02*
X729567Y137268D01*
D20*
X307437Y305982D02*
X293723Y305982D01*
X307437Y305982D02*
X307437Y304018D01*
X293723Y304018D01*
X293723Y305982D01*
X293723Y305485D02*
X307437Y305485D01*
X307437Y310982D02*
X293723Y310982D01*
X307437Y310982D02*
X307437Y309018D01*
X293723Y309018D01*
X293723Y310982D01*
X293723Y310485D02*
X307437Y310485D01*
X307437Y315982D02*
X293723Y315982D01*
X307437Y315982D02*
X307437Y314018D01*
X293723Y314018D01*
X293723Y315982D01*
X293723Y315485D02*
X307437Y315485D01*
X307437Y320982D02*
X293723Y320982D01*
X307437Y320982D02*
X307437Y319018D01*
X293723Y319018D01*
X293723Y320982D01*
X293723Y320485D02*
X307437Y320485D01*
X307437Y325982D02*
X293723Y325982D01*
X307437Y325982D02*
X307437Y324018D01*
X293723Y324018D01*
X293723Y325982D01*
X293723Y325485D02*
X307437Y325485D01*
X307437Y330982D02*
X293723Y330982D01*
X307437Y330982D02*
X307437Y329018D01*
X293723Y329018D01*
X293723Y330982D01*
X293723Y330485D02*
X307437Y330485D01*
X307437Y335982D02*
X293723Y335982D01*
X307437Y335982D02*
X307437Y334018D01*
X293723Y334018D01*
X293723Y335982D01*
X293723Y335485D02*
X307437Y335485D01*
X307437Y340982D02*
X293723Y340982D01*
X307437Y340982D02*
X307437Y339018D01*
X293723Y339018D01*
X293723Y340982D01*
X293723Y340485D02*
X307437Y340485D01*
X307437Y345982D02*
X293723Y345982D01*
X307437Y345982D02*
X307437Y344018D01*
X293723Y344018D01*
X293723Y345982D01*
X293723Y345485D02*
X307437Y345485D01*
X307437Y350982D02*
X293723Y350982D01*
X307437Y350982D02*
X307437Y349018D01*
X293723Y349018D01*
X293723Y350982D01*
X293723Y350485D02*
X307437Y350485D01*
X307437Y355982D02*
X293723Y355982D01*
X307437Y355982D02*
X307437Y354018D01*
X293723Y354018D01*
X293723Y355982D01*
X293723Y355485D02*
X307437Y355485D01*
X307437Y360982D02*
X293723Y360982D01*
X307437Y360982D02*
X307437Y359018D01*
X293723Y359018D01*
X293723Y360982D01*
X293723Y360485D02*
X307437Y360485D01*
X307437Y365982D02*
X293723Y365982D01*
X307437Y365982D02*
X307437Y364018D01*
X293723Y364018D01*
X293723Y365982D01*
X293723Y365485D02*
X307437Y365485D01*
X307437Y370982D02*
X293723Y370982D01*
X307437Y370982D02*
X307437Y369018D01*
X293723Y369018D01*
X293723Y370982D01*
X293723Y370485D02*
X307437Y370485D01*
X307437Y375982D02*
X293723Y375982D01*
X307437Y375982D02*
X307437Y374018D01*
X293723Y374018D01*
X293723Y375982D01*
X293723Y375485D02*
X307437Y375485D01*
X307437Y380982D02*
X293723Y380982D01*
X307437Y380982D02*
X307437Y379018D01*
X293723Y379018D01*
X293723Y380982D01*
X293723Y380485D02*
X307437Y380485D01*
X279718Y393023D02*
X279718Y406737D01*
X281682Y406737D01*
X281682Y393023D01*
X279718Y393023D01*
X279718Y394490D02*
X281682Y394490D01*
X281682Y395957D02*
X279718Y395957D01*
X279718Y397424D02*
X281682Y397424D01*
X281682Y398891D02*
X279718Y398891D01*
X279718Y400358D02*
X281682Y400358D01*
X281682Y401825D02*
X279718Y401825D01*
X279718Y403292D02*
X281682Y403292D01*
X281682Y404759D02*
X279718Y404759D01*
X279718Y406226D02*
X281682Y406226D01*
X274718Y406737D02*
X274718Y393023D01*
X274718Y406737D02*
X276682Y406737D01*
X276682Y393023D01*
X274718Y393023D01*
X274718Y394490D02*
X276682Y394490D01*
X276682Y395957D02*
X274718Y395957D01*
X274718Y397424D02*
X276682Y397424D01*
X276682Y398891D02*
X274718Y398891D01*
X274718Y400358D02*
X276682Y400358D01*
X276682Y401825D02*
X274718Y401825D01*
X274718Y403292D02*
X276682Y403292D01*
X276682Y404759D02*
X274718Y404759D01*
X274718Y406226D02*
X276682Y406226D01*
X269718Y406737D02*
X269718Y393023D01*
X269718Y406737D02*
X271682Y406737D01*
X271682Y393023D01*
X269718Y393023D01*
X269718Y394490D02*
X271682Y394490D01*
X271682Y395957D02*
X269718Y395957D01*
X269718Y397424D02*
X271682Y397424D01*
X271682Y398891D02*
X269718Y398891D01*
X269718Y400358D02*
X271682Y400358D01*
X271682Y401825D02*
X269718Y401825D01*
X269718Y403292D02*
X271682Y403292D01*
X271682Y404759D02*
X269718Y404759D01*
X269718Y406226D02*
X271682Y406226D01*
X264718Y406737D02*
X264718Y393023D01*
X264718Y406737D02*
X266682Y406737D01*
X266682Y393023D01*
X264718Y393023D01*
X264718Y394490D02*
X266682Y394490D01*
X266682Y395957D02*
X264718Y395957D01*
X264718Y397424D02*
X266682Y397424D01*
X266682Y398891D02*
X264718Y398891D01*
X264718Y400358D02*
X266682Y400358D01*
X266682Y401825D02*
X264718Y401825D01*
X264718Y403292D02*
X266682Y403292D01*
X266682Y404759D02*
X264718Y404759D01*
X264718Y406226D02*
X266682Y406226D01*
X259718Y406737D02*
X259718Y393023D01*
X259718Y406737D02*
X261682Y406737D01*
X261682Y393023D01*
X259718Y393023D01*
X259718Y394490D02*
X261682Y394490D01*
X261682Y395957D02*
X259718Y395957D01*
X259718Y397424D02*
X261682Y397424D01*
X261682Y398891D02*
X259718Y398891D01*
X259718Y400358D02*
X261682Y400358D01*
X261682Y401825D02*
X259718Y401825D01*
X259718Y403292D02*
X261682Y403292D01*
X261682Y404759D02*
X259718Y404759D01*
X259718Y406226D02*
X261682Y406226D01*
X254718Y406737D02*
X254718Y393023D01*
X254718Y406737D02*
X256682Y406737D01*
X256682Y393023D01*
X254718Y393023D01*
X254718Y394490D02*
X256682Y394490D01*
X256682Y395957D02*
X254718Y395957D01*
X254718Y397424D02*
X256682Y397424D01*
X256682Y398891D02*
X254718Y398891D01*
X254718Y400358D02*
X256682Y400358D01*
X256682Y401825D02*
X254718Y401825D01*
X254718Y403292D02*
X256682Y403292D01*
X256682Y404759D02*
X254718Y404759D01*
X254718Y406226D02*
X256682Y406226D01*
X249718Y406737D02*
X249718Y393023D01*
X249718Y406737D02*
X251682Y406737D01*
X251682Y393023D01*
X249718Y393023D01*
X249718Y394490D02*
X251682Y394490D01*
X251682Y395957D02*
X249718Y395957D01*
X249718Y397424D02*
X251682Y397424D01*
X251682Y398891D02*
X249718Y398891D01*
X249718Y400358D02*
X251682Y400358D01*
X251682Y401825D02*
X249718Y401825D01*
X249718Y403292D02*
X251682Y403292D01*
X251682Y404759D02*
X249718Y404759D01*
X249718Y406226D02*
X251682Y406226D01*
X244718Y406737D02*
X244718Y393023D01*
X244718Y406737D02*
X246682Y406737D01*
X246682Y393023D01*
X244718Y393023D01*
X244718Y394490D02*
X246682Y394490D01*
X246682Y395957D02*
X244718Y395957D01*
X244718Y397424D02*
X246682Y397424D01*
X246682Y398891D02*
X244718Y398891D01*
X244718Y400358D02*
X246682Y400358D01*
X246682Y401825D02*
X244718Y401825D01*
X244718Y403292D02*
X246682Y403292D01*
X246682Y404759D02*
X244718Y404759D01*
X244718Y406226D02*
X246682Y406226D01*
X239718Y406737D02*
X239718Y393023D01*
X239718Y406737D02*
X241682Y406737D01*
X241682Y393023D01*
X239718Y393023D01*
X239718Y394490D02*
X241682Y394490D01*
X241682Y395957D02*
X239718Y395957D01*
X239718Y397424D02*
X241682Y397424D01*
X241682Y398891D02*
X239718Y398891D01*
X239718Y400358D02*
X241682Y400358D01*
X241682Y401825D02*
X239718Y401825D01*
X239718Y403292D02*
X241682Y403292D01*
X241682Y404759D02*
X239718Y404759D01*
X239718Y406226D02*
X241682Y406226D01*
X234718Y406737D02*
X234718Y393023D01*
X234718Y406737D02*
X236682Y406737D01*
X236682Y393023D01*
X234718Y393023D01*
X234718Y394490D02*
X236682Y394490D01*
X236682Y395957D02*
X234718Y395957D01*
X234718Y397424D02*
X236682Y397424D01*
X236682Y398891D02*
X234718Y398891D01*
X234718Y400358D02*
X236682Y400358D01*
X236682Y401825D02*
X234718Y401825D01*
X234718Y403292D02*
X236682Y403292D01*
X236682Y404759D02*
X234718Y404759D01*
X234718Y406226D02*
X236682Y406226D01*
X229718Y406737D02*
X229718Y393023D01*
X229718Y406737D02*
X231682Y406737D01*
X231682Y393023D01*
X229718Y393023D01*
X229718Y394490D02*
X231682Y394490D01*
X231682Y395957D02*
X229718Y395957D01*
X229718Y397424D02*
X231682Y397424D01*
X231682Y398891D02*
X229718Y398891D01*
X229718Y400358D02*
X231682Y400358D01*
X231682Y401825D02*
X229718Y401825D01*
X229718Y403292D02*
X231682Y403292D01*
X231682Y404759D02*
X229718Y404759D01*
X229718Y406226D02*
X231682Y406226D01*
X224718Y406737D02*
X224718Y393023D01*
X224718Y406737D02*
X226682Y406737D01*
X226682Y393023D01*
X224718Y393023D01*
X224718Y394490D02*
X226682Y394490D01*
X226682Y395957D02*
X224718Y395957D01*
X224718Y397424D02*
X226682Y397424D01*
X226682Y398891D02*
X224718Y398891D01*
X224718Y400358D02*
X226682Y400358D01*
X226682Y401825D02*
X224718Y401825D01*
X224718Y403292D02*
X226682Y403292D01*
X226682Y404759D02*
X224718Y404759D01*
X224718Y406226D02*
X226682Y406226D01*
X219718Y406737D02*
X219718Y393023D01*
X219718Y406737D02*
X221682Y406737D01*
X221682Y393023D01*
X219718Y393023D01*
X219718Y394490D02*
X221682Y394490D01*
X221682Y395957D02*
X219718Y395957D01*
X219718Y397424D02*
X221682Y397424D01*
X221682Y398891D02*
X219718Y398891D01*
X219718Y400358D02*
X221682Y400358D01*
X221682Y401825D02*
X219718Y401825D01*
X219718Y403292D02*
X221682Y403292D01*
X221682Y404759D02*
X219718Y404759D01*
X219718Y406226D02*
X221682Y406226D01*
X214718Y406737D02*
X214718Y393023D01*
X214718Y406737D02*
X216682Y406737D01*
X216682Y393023D01*
X214718Y393023D01*
X214718Y394490D02*
X216682Y394490D01*
X216682Y395957D02*
X214718Y395957D01*
X214718Y397424D02*
X216682Y397424D01*
X216682Y398891D02*
X214718Y398891D01*
X214718Y400358D02*
X216682Y400358D01*
X216682Y401825D02*
X214718Y401825D01*
X214718Y403292D02*
X216682Y403292D01*
X216682Y404759D02*
X214718Y404759D01*
X214718Y406226D02*
X216682Y406226D01*
X209718Y406737D02*
X209718Y393023D01*
X209718Y406737D02*
X211682Y406737D01*
X211682Y393023D01*
X209718Y393023D01*
X209718Y394490D02*
X211682Y394490D01*
X211682Y395957D02*
X209718Y395957D01*
X209718Y397424D02*
X211682Y397424D01*
X211682Y398891D02*
X209718Y398891D01*
X209718Y400358D02*
X211682Y400358D01*
X211682Y401825D02*
X209718Y401825D01*
X209718Y403292D02*
X211682Y403292D01*
X211682Y404759D02*
X209718Y404759D01*
X209718Y406226D02*
X211682Y406226D01*
X204718Y406737D02*
X204718Y393023D01*
X204718Y406737D02*
X206682Y406737D01*
X206682Y393023D01*
X204718Y393023D01*
X204718Y394490D02*
X206682Y394490D01*
X206682Y395957D02*
X204718Y395957D01*
X204718Y397424D02*
X206682Y397424D01*
X206682Y398891D02*
X204718Y398891D01*
X204718Y400358D02*
X206682Y400358D01*
X206682Y401825D02*
X204718Y401825D01*
X204718Y403292D02*
X206682Y403292D01*
X206682Y404759D02*
X204718Y404759D01*
X204718Y406226D02*
X206682Y406226D01*
X192677Y380982D02*
X178963Y380982D01*
X192677Y380982D02*
X192677Y379018D01*
X178963Y379018D01*
X178963Y380982D01*
X178963Y380485D02*
X192677Y380485D01*
X192677Y375982D02*
X178963Y375982D01*
X192677Y375982D02*
X192677Y374018D01*
X178963Y374018D01*
X178963Y375982D01*
X178963Y375485D02*
X192677Y375485D01*
X192677Y370982D02*
X178963Y370982D01*
X192677Y370982D02*
X192677Y369018D01*
X178963Y369018D01*
X178963Y370982D01*
X178963Y370485D02*
X192677Y370485D01*
X192677Y365982D02*
X178963Y365982D01*
X192677Y365982D02*
X192677Y364018D01*
X178963Y364018D01*
X178963Y365982D01*
X178963Y365485D02*
X192677Y365485D01*
X192677Y360982D02*
X178963Y360982D01*
X192677Y360982D02*
X192677Y359018D01*
X178963Y359018D01*
X178963Y360982D01*
X178963Y360485D02*
X192677Y360485D01*
X192677Y355982D02*
X178963Y355982D01*
X192677Y355982D02*
X192677Y354018D01*
X178963Y354018D01*
X178963Y355982D01*
X178963Y355485D02*
X192677Y355485D01*
X192677Y350982D02*
X178963Y350982D01*
X192677Y350982D02*
X192677Y349018D01*
X178963Y349018D01*
X178963Y350982D01*
X178963Y350485D02*
X192677Y350485D01*
X192677Y345982D02*
X178963Y345982D01*
X192677Y345982D02*
X192677Y344018D01*
X178963Y344018D01*
X178963Y345982D01*
X178963Y345485D02*
X192677Y345485D01*
X192677Y340982D02*
X178963Y340982D01*
X192677Y340982D02*
X192677Y339018D01*
X178963Y339018D01*
X178963Y340982D01*
X178963Y340485D02*
X192677Y340485D01*
X192677Y335982D02*
X178963Y335982D01*
X192677Y335982D02*
X192677Y334018D01*
X178963Y334018D01*
X178963Y335982D01*
X178963Y335485D02*
X192677Y335485D01*
X192677Y330982D02*
X178963Y330982D01*
X192677Y330982D02*
X192677Y329018D01*
X178963Y329018D01*
X178963Y330982D01*
X178963Y330485D02*
X192677Y330485D01*
X192677Y325982D02*
X178963Y325982D01*
X192677Y325982D02*
X192677Y324018D01*
X178963Y324018D01*
X178963Y325982D01*
X178963Y325485D02*
X192677Y325485D01*
X192677Y320982D02*
X178963Y320982D01*
X192677Y320982D02*
X192677Y319018D01*
X178963Y319018D01*
X178963Y320982D01*
X178963Y320485D02*
X192677Y320485D01*
X192677Y315982D02*
X178963Y315982D01*
X192677Y315982D02*
X192677Y314018D01*
X178963Y314018D01*
X178963Y315982D01*
X178963Y315485D02*
X192677Y315485D01*
X192677Y310982D02*
X178963Y310982D01*
X192677Y310982D02*
X192677Y309018D01*
X178963Y309018D01*
X178963Y310982D01*
X178963Y310485D02*
X192677Y310485D01*
X192677Y305982D02*
X178963Y305982D01*
X192677Y305982D02*
X192677Y304018D01*
X178963Y304018D01*
X178963Y305982D01*
X178963Y305485D02*
X192677Y305485D01*
X204718Y291977D02*
X204718Y278263D01*
X204718Y291977D02*
X206682Y291977D01*
X206682Y278263D01*
X204718Y278263D01*
X204718Y279730D02*
X206682Y279730D01*
X206682Y281197D02*
X204718Y281197D01*
X204718Y282664D02*
X206682Y282664D01*
X206682Y284131D02*
X204718Y284131D01*
X204718Y285598D02*
X206682Y285598D01*
X206682Y287065D02*
X204718Y287065D01*
X204718Y288532D02*
X206682Y288532D01*
X206682Y289999D02*
X204718Y289999D01*
X204718Y291466D02*
X206682Y291466D01*
X209718Y291977D02*
X209718Y278263D01*
X209718Y291977D02*
X211682Y291977D01*
X211682Y278263D01*
X209718Y278263D01*
X209718Y279730D02*
X211682Y279730D01*
X211682Y281197D02*
X209718Y281197D01*
X209718Y282664D02*
X211682Y282664D01*
X211682Y284131D02*
X209718Y284131D01*
X209718Y285598D02*
X211682Y285598D01*
X211682Y287065D02*
X209718Y287065D01*
X209718Y288532D02*
X211682Y288532D01*
X211682Y289999D02*
X209718Y289999D01*
X209718Y291466D02*
X211682Y291466D01*
X214718Y291977D02*
X214718Y278263D01*
X214718Y291977D02*
X216682Y291977D01*
X216682Y278263D01*
X214718Y278263D01*
X214718Y279730D02*
X216682Y279730D01*
X216682Y281197D02*
X214718Y281197D01*
X214718Y282664D02*
X216682Y282664D01*
X216682Y284131D02*
X214718Y284131D01*
X214718Y285598D02*
X216682Y285598D01*
X216682Y287065D02*
X214718Y287065D01*
X214718Y288532D02*
X216682Y288532D01*
X216682Y289999D02*
X214718Y289999D01*
X214718Y291466D02*
X216682Y291466D01*
X219718Y291977D02*
X219718Y278263D01*
X219718Y291977D02*
X221682Y291977D01*
X221682Y278263D01*
X219718Y278263D01*
X219718Y279730D02*
X221682Y279730D01*
X221682Y281197D02*
X219718Y281197D01*
X219718Y282664D02*
X221682Y282664D01*
X221682Y284131D02*
X219718Y284131D01*
X219718Y285598D02*
X221682Y285598D01*
X221682Y287065D02*
X219718Y287065D01*
X219718Y288532D02*
X221682Y288532D01*
X221682Y289999D02*
X219718Y289999D01*
X219718Y291466D02*
X221682Y291466D01*
X224718Y291977D02*
X224718Y278263D01*
X224718Y291977D02*
X226682Y291977D01*
X226682Y278263D01*
X224718Y278263D01*
X224718Y279730D02*
X226682Y279730D01*
X226682Y281197D02*
X224718Y281197D01*
X224718Y282664D02*
X226682Y282664D01*
X226682Y284131D02*
X224718Y284131D01*
X224718Y285598D02*
X226682Y285598D01*
X226682Y287065D02*
X224718Y287065D01*
X224718Y288532D02*
X226682Y288532D01*
X226682Y289999D02*
X224718Y289999D01*
X224718Y291466D02*
X226682Y291466D01*
X229718Y291977D02*
X229718Y278263D01*
X229718Y291977D02*
X231682Y291977D01*
X231682Y278263D01*
X229718Y278263D01*
X229718Y279730D02*
X231682Y279730D01*
X231682Y281197D02*
X229718Y281197D01*
X229718Y282664D02*
X231682Y282664D01*
X231682Y284131D02*
X229718Y284131D01*
X229718Y285598D02*
X231682Y285598D01*
X231682Y287065D02*
X229718Y287065D01*
X229718Y288532D02*
X231682Y288532D01*
X231682Y289999D02*
X229718Y289999D01*
X229718Y291466D02*
X231682Y291466D01*
X234718Y291977D02*
X234718Y278263D01*
X234718Y291977D02*
X236682Y291977D01*
X236682Y278263D01*
X234718Y278263D01*
X234718Y279730D02*
X236682Y279730D01*
X236682Y281197D02*
X234718Y281197D01*
X234718Y282664D02*
X236682Y282664D01*
X236682Y284131D02*
X234718Y284131D01*
X234718Y285598D02*
X236682Y285598D01*
X236682Y287065D02*
X234718Y287065D01*
X234718Y288532D02*
X236682Y288532D01*
X236682Y289999D02*
X234718Y289999D01*
X234718Y291466D02*
X236682Y291466D01*
X239718Y291977D02*
X239718Y278263D01*
X239718Y291977D02*
X241682Y291977D01*
X241682Y278263D01*
X239718Y278263D01*
X239718Y279730D02*
X241682Y279730D01*
X241682Y281197D02*
X239718Y281197D01*
X239718Y282664D02*
X241682Y282664D01*
X241682Y284131D02*
X239718Y284131D01*
X239718Y285598D02*
X241682Y285598D01*
X241682Y287065D02*
X239718Y287065D01*
X239718Y288532D02*
X241682Y288532D01*
X241682Y289999D02*
X239718Y289999D01*
X239718Y291466D02*
X241682Y291466D01*
X244718Y291977D02*
X244718Y278263D01*
X244718Y291977D02*
X246682Y291977D01*
X246682Y278263D01*
X244718Y278263D01*
X244718Y279730D02*
X246682Y279730D01*
X246682Y281197D02*
X244718Y281197D01*
X244718Y282664D02*
X246682Y282664D01*
X246682Y284131D02*
X244718Y284131D01*
X244718Y285598D02*
X246682Y285598D01*
X246682Y287065D02*
X244718Y287065D01*
X244718Y288532D02*
X246682Y288532D01*
X246682Y289999D02*
X244718Y289999D01*
X244718Y291466D02*
X246682Y291466D01*
X249718Y291977D02*
X249718Y278263D01*
X249718Y291977D02*
X251682Y291977D01*
X251682Y278263D01*
X249718Y278263D01*
X249718Y279730D02*
X251682Y279730D01*
X251682Y281197D02*
X249718Y281197D01*
X249718Y282664D02*
X251682Y282664D01*
X251682Y284131D02*
X249718Y284131D01*
X249718Y285598D02*
X251682Y285598D01*
X251682Y287065D02*
X249718Y287065D01*
X249718Y288532D02*
X251682Y288532D01*
X251682Y289999D02*
X249718Y289999D01*
X249718Y291466D02*
X251682Y291466D01*
X254718Y291977D02*
X254718Y278263D01*
X254718Y291977D02*
X256682Y291977D01*
X256682Y278263D01*
X254718Y278263D01*
X254718Y279730D02*
X256682Y279730D01*
X256682Y281197D02*
X254718Y281197D01*
X254718Y282664D02*
X256682Y282664D01*
X256682Y284131D02*
X254718Y284131D01*
X254718Y285598D02*
X256682Y285598D01*
X256682Y287065D02*
X254718Y287065D01*
X254718Y288532D02*
X256682Y288532D01*
X256682Y289999D02*
X254718Y289999D01*
X254718Y291466D02*
X256682Y291466D01*
X259718Y291977D02*
X259718Y278263D01*
X259718Y291977D02*
X261682Y291977D01*
X261682Y278263D01*
X259718Y278263D01*
X259718Y279730D02*
X261682Y279730D01*
X261682Y281197D02*
X259718Y281197D01*
X259718Y282664D02*
X261682Y282664D01*
X261682Y284131D02*
X259718Y284131D01*
X259718Y285598D02*
X261682Y285598D01*
X261682Y287065D02*
X259718Y287065D01*
X259718Y288532D02*
X261682Y288532D01*
X261682Y289999D02*
X259718Y289999D01*
X259718Y291466D02*
X261682Y291466D01*
X264718Y291977D02*
X264718Y278263D01*
X264718Y291977D02*
X266682Y291977D01*
X266682Y278263D01*
X264718Y278263D01*
X264718Y279730D02*
X266682Y279730D01*
X266682Y281197D02*
X264718Y281197D01*
X264718Y282664D02*
X266682Y282664D01*
X266682Y284131D02*
X264718Y284131D01*
X264718Y285598D02*
X266682Y285598D01*
X266682Y287065D02*
X264718Y287065D01*
X264718Y288532D02*
X266682Y288532D01*
X266682Y289999D02*
X264718Y289999D01*
X264718Y291466D02*
X266682Y291466D01*
X269718Y291977D02*
X269718Y278263D01*
X269718Y291977D02*
X271682Y291977D01*
X271682Y278263D01*
X269718Y278263D01*
X269718Y279730D02*
X271682Y279730D01*
X271682Y281197D02*
X269718Y281197D01*
X269718Y282664D02*
X271682Y282664D01*
X271682Y284131D02*
X269718Y284131D01*
X269718Y285598D02*
X271682Y285598D01*
X271682Y287065D02*
X269718Y287065D01*
X269718Y288532D02*
X271682Y288532D01*
X271682Y289999D02*
X269718Y289999D01*
X269718Y291466D02*
X271682Y291466D01*
X274718Y291977D02*
X274718Y278263D01*
X274718Y291977D02*
X276682Y291977D01*
X276682Y278263D01*
X274718Y278263D01*
X274718Y279730D02*
X276682Y279730D01*
X276682Y281197D02*
X274718Y281197D01*
X274718Y282664D02*
X276682Y282664D01*
X276682Y284131D02*
X274718Y284131D01*
X274718Y285598D02*
X276682Y285598D01*
X276682Y287065D02*
X274718Y287065D01*
X274718Y288532D02*
X276682Y288532D01*
X276682Y289999D02*
X274718Y289999D01*
X274718Y291466D02*
X276682Y291466D01*
X279718Y291977D02*
X279718Y278263D01*
X279718Y291977D02*
X281682Y291977D01*
X281682Y278263D01*
X279718Y278263D01*
X279718Y279730D02*
X281682Y279730D01*
X281682Y281197D02*
X279718Y281197D01*
X279718Y282664D02*
X281682Y282664D01*
X281682Y284131D02*
X279718Y284131D01*
X279718Y285598D02*
X281682Y285598D01*
X281682Y287065D02*
X279718Y287065D01*
X279718Y288532D02*
X281682Y288532D01*
X281682Y289999D02*
X279718Y289999D01*
X279718Y291466D02*
X281682Y291466D01*
D21*
X291975Y147075D02*
X291975Y134125D01*
X287025Y134125D01*
X287025Y147075D01*
X291975Y147075D01*
X291975Y135692D02*
X287025Y135692D01*
X287025Y137259D02*
X291975Y137259D01*
X291975Y138826D02*
X287025Y138826D01*
X287025Y140393D02*
X291975Y140393D01*
X291975Y141960D02*
X287025Y141960D01*
X287025Y143527D02*
X291975Y143527D01*
X291975Y145094D02*
X287025Y145094D01*
X287025Y146661D02*
X291975Y146661D01*
X301475Y147075D02*
X301475Y134125D01*
X296525Y134125D01*
X296525Y147075D01*
X301475Y147075D01*
X301475Y135692D02*
X296525Y135692D01*
X296525Y137259D02*
X301475Y137259D01*
X301475Y138826D02*
X296525Y138826D01*
X296525Y140393D02*
X301475Y140393D01*
X301475Y141960D02*
X296525Y141960D01*
X296525Y143527D02*
X301475Y143527D01*
X301475Y145094D02*
X296525Y145094D01*
X296525Y146661D02*
X301475Y146661D01*
X310975Y147075D02*
X310975Y134125D01*
X306025Y134125D01*
X306025Y147075D01*
X310975Y147075D01*
X310975Y135692D02*
X306025Y135692D01*
X306025Y137259D02*
X310975Y137259D01*
X310975Y138826D02*
X306025Y138826D01*
X306025Y140393D02*
X310975Y140393D01*
X310975Y141960D02*
X306025Y141960D01*
X306025Y143527D02*
X310975Y143527D01*
X310975Y145094D02*
X306025Y145094D01*
X306025Y146661D02*
X310975Y146661D01*
X310975Y159125D02*
X310975Y172075D01*
X310975Y159125D02*
X306025Y159125D01*
X306025Y172075D01*
X310975Y172075D01*
X310975Y160692D02*
X306025Y160692D01*
X306025Y162259D02*
X310975Y162259D01*
X310975Y163826D02*
X306025Y163826D01*
X306025Y165393D02*
X310975Y165393D01*
X310975Y166960D02*
X306025Y166960D01*
X306025Y168527D02*
X310975Y168527D01*
X310975Y170094D02*
X306025Y170094D01*
X306025Y171661D02*
X310975Y171661D01*
X301475Y172075D02*
X301475Y159125D01*
X296525Y159125D01*
X296525Y172075D01*
X301475Y172075D01*
X301475Y160692D02*
X296525Y160692D01*
X296525Y162259D02*
X301475Y162259D01*
X301475Y163826D02*
X296525Y163826D01*
X296525Y165393D02*
X301475Y165393D01*
X301475Y166960D02*
X296525Y166960D01*
X296525Y168527D02*
X301475Y168527D01*
X301475Y170094D02*
X296525Y170094D01*
X296525Y171661D02*
X301475Y171661D01*
X291975Y172075D02*
X291975Y159125D01*
X287025Y159125D01*
X287025Y172075D01*
X291975Y172075D01*
X291975Y160692D02*
X287025Y160692D01*
X287025Y162259D02*
X291975Y162259D01*
X291975Y163826D02*
X287025Y163826D01*
X287025Y165393D02*
X291975Y165393D01*
X291975Y166960D02*
X287025Y166960D01*
X287025Y168527D02*
X291975Y168527D01*
X291975Y170094D02*
X287025Y170094D01*
X287025Y171661D02*
X291975Y171661D01*
D22*
X555368Y195168D02*
X555368Y207632D01*
X563832Y207632D01*
X563832Y195168D01*
X555368Y195168D01*
X555368Y197055D02*
X563832Y197055D01*
X563832Y198942D02*
X555368Y198942D01*
X555368Y200829D02*
X563832Y200829D01*
X563832Y202716D02*
X555368Y202716D01*
X555368Y204603D02*
X563832Y204603D01*
X563832Y206490D02*
X555368Y206490D01*
X523368Y207632D02*
X523368Y195168D01*
X523368Y207632D02*
X531832Y207632D01*
X531832Y195168D01*
X523368Y195168D01*
X523368Y197055D02*
X531832Y197055D01*
X531832Y198942D02*
X523368Y198942D01*
X523368Y200829D02*
X531832Y200829D01*
X531832Y202716D02*
X523368Y202716D01*
X523368Y204603D02*
X531832Y204603D01*
X531832Y206490D02*
X523368Y206490D01*
X523368Y159632D02*
X523368Y147168D01*
X523368Y159632D02*
X531832Y159632D01*
X531832Y147168D01*
X523368Y147168D01*
X523368Y149055D02*
X531832Y149055D01*
X531832Y150942D02*
X523368Y150942D01*
X523368Y152829D02*
X531832Y152829D01*
X531832Y154716D02*
X523368Y154716D01*
X523368Y156603D02*
X531832Y156603D01*
X531832Y158490D02*
X523368Y158490D01*
X555368Y159632D02*
X555368Y147168D01*
X555368Y159632D02*
X563832Y159632D01*
X563832Y147168D01*
X555368Y147168D01*
X555368Y149055D02*
X563832Y149055D01*
X563832Y150942D02*
X555368Y150942D01*
X555368Y152829D02*
X563832Y152829D01*
X563832Y154716D02*
X555368Y154716D01*
X555368Y156603D02*
X563832Y156603D01*
X563832Y158490D02*
X555368Y158490D01*
X553868Y282868D02*
X553868Y295332D01*
X562332Y295332D01*
X562332Y282868D01*
X553868Y282868D01*
X553868Y284755D02*
X562332Y284755D01*
X562332Y286642D02*
X553868Y286642D01*
X553868Y288529D02*
X562332Y288529D01*
X562332Y290416D02*
X553868Y290416D01*
X553868Y292303D02*
X562332Y292303D01*
X562332Y294190D02*
X553868Y294190D01*
X521868Y295332D02*
X521868Y282868D01*
X521868Y295332D02*
X530332Y295332D01*
X530332Y282868D01*
X521868Y282868D01*
X521868Y284755D02*
X530332Y284755D01*
X530332Y286642D02*
X521868Y286642D01*
X521868Y288529D02*
X530332Y288529D01*
X530332Y290416D02*
X521868Y290416D01*
X521868Y292303D02*
X530332Y292303D01*
X530332Y294190D02*
X521868Y294190D01*
X521868Y247332D02*
X521868Y234868D01*
X521868Y247332D02*
X530332Y247332D01*
X530332Y234868D01*
X521868Y234868D01*
X521868Y236755D02*
X530332Y236755D01*
X530332Y238642D02*
X521868Y238642D01*
X521868Y240529D02*
X530332Y240529D01*
X530332Y242416D02*
X521868Y242416D01*
X521868Y244303D02*
X530332Y244303D01*
X530332Y246190D02*
X521868Y246190D01*
X553868Y247332D02*
X553868Y234868D01*
X553868Y247332D02*
X562332Y247332D01*
X562332Y234868D01*
X553868Y234868D01*
X553868Y236755D02*
X562332Y236755D01*
X562332Y238642D02*
X553868Y238642D01*
X553868Y240529D02*
X562332Y240529D01*
X562332Y242416D02*
X553868Y242416D01*
X553868Y244303D02*
X562332Y244303D01*
X562332Y246190D02*
X553868Y246190D01*
X635632Y247432D02*
X635632Y234968D01*
X627168Y234968D01*
X627168Y247432D01*
X635632Y247432D01*
X635632Y236855D02*
X627168Y236855D01*
X627168Y238742D02*
X635632Y238742D01*
X635632Y240629D02*
X627168Y240629D01*
X627168Y242516D02*
X635632Y242516D01*
X635632Y244403D02*
X627168Y244403D01*
X627168Y246290D02*
X635632Y246290D01*
X667632Y247432D02*
X667632Y234968D01*
X659168Y234968D01*
X659168Y247432D01*
X667632Y247432D01*
X667632Y236855D02*
X659168Y236855D01*
X659168Y238742D02*
X667632Y238742D01*
X667632Y240629D02*
X659168Y240629D01*
X659168Y242516D02*
X667632Y242516D01*
X667632Y244403D02*
X659168Y244403D01*
X659168Y246290D02*
X667632Y246290D01*
X667632Y282968D02*
X667632Y295432D01*
X667632Y282968D02*
X659168Y282968D01*
X659168Y295432D01*
X667632Y295432D01*
X667632Y284855D02*
X659168Y284855D01*
X659168Y286742D02*
X667632Y286742D01*
X667632Y288629D02*
X659168Y288629D01*
X659168Y290516D02*
X667632Y290516D01*
X667632Y292403D02*
X659168Y292403D01*
X659168Y294290D02*
X667632Y294290D01*
X635632Y295432D02*
X635632Y282968D01*
X627168Y282968D01*
X627168Y295432D01*
X635632Y295432D01*
X635632Y284855D02*
X627168Y284855D01*
X627168Y286742D02*
X635632Y286742D01*
X635632Y288629D02*
X627168Y288629D01*
X627168Y290516D02*
X635632Y290516D01*
X635632Y292403D02*
X627168Y292403D01*
X627168Y294290D02*
X635632Y294290D01*
X635232Y160632D02*
X635232Y148168D01*
X626768Y148168D01*
X626768Y160632D01*
X635232Y160632D01*
X635232Y150055D02*
X626768Y150055D01*
X626768Y151942D02*
X635232Y151942D01*
X635232Y153829D02*
X626768Y153829D01*
X626768Y155716D02*
X635232Y155716D01*
X635232Y157603D02*
X626768Y157603D01*
X626768Y159490D02*
X635232Y159490D01*
X667232Y160632D02*
X667232Y148168D01*
X658768Y148168D01*
X658768Y160632D01*
X667232Y160632D01*
X667232Y150055D02*
X658768Y150055D01*
X658768Y151942D02*
X667232Y151942D01*
X667232Y153829D02*
X658768Y153829D01*
X658768Y155716D02*
X667232Y155716D01*
X667232Y157603D02*
X658768Y157603D01*
X658768Y159490D02*
X667232Y159490D01*
X667232Y196168D02*
X667232Y208632D01*
X667232Y196168D02*
X658768Y196168D01*
X658768Y208632D01*
X667232Y208632D01*
X667232Y198055D02*
X658768Y198055D01*
X658768Y199942D02*
X667232Y199942D01*
X667232Y201829D02*
X658768Y201829D01*
X658768Y203716D02*
X667232Y203716D01*
X667232Y205603D02*
X658768Y205603D01*
X658768Y207490D02*
X667232Y207490D01*
X635232Y208632D02*
X635232Y196168D01*
X626768Y196168D01*
X626768Y208632D01*
X635232Y208632D01*
X635232Y198055D02*
X626768Y198055D01*
X626768Y199942D02*
X635232Y199942D01*
X635232Y201829D02*
X626768Y201829D01*
X626768Y203716D02*
X635232Y203716D01*
X635232Y205603D02*
X626768Y205603D01*
X626768Y207490D02*
X635232Y207490D01*
D10*
X737400Y383900D03*
X737400Y409300D03*
X737400Y434700D03*
X737400Y460100D03*
X737400Y485500D03*
X737400Y510900D03*
X737400Y536300D03*
X737400Y561700D03*
X737400Y587100D03*
X737400Y612500D03*
X737400Y637900D03*
X737400Y663300D03*
X737400Y688700D03*
X737400Y714100D03*
X68900Y330300D03*
X68900Y355700D03*
X68900Y381100D03*
X68900Y406500D03*
X68900Y431900D03*
X68900Y457300D03*
X910100Y105200D03*
X910100Y79800D03*
D23*
X148200Y631400D03*
D10*
X148200Y656800D03*
X148200Y682200D03*
X148200Y707600D03*
X281200Y535300D03*
X281200Y560700D03*
X281200Y586100D03*
X281200Y611500D03*
X281200Y636900D03*
X281200Y662300D03*
D24*
X869954Y136351D02*
X880706Y136351D01*
X869954Y136351D02*
X869954Y172249D01*
X880706Y172249D01*
X880706Y136351D01*
X880706Y138443D02*
X869954Y138443D01*
X869954Y140535D02*
X880706Y140535D01*
X880706Y142627D02*
X869954Y142627D01*
X869954Y144719D02*
X880706Y144719D01*
X880706Y146811D02*
X869954Y146811D01*
X869954Y148903D02*
X880706Y148903D01*
X880706Y150995D02*
X869954Y150995D01*
X869954Y153087D02*
X880706Y153087D01*
X880706Y155179D02*
X869954Y155179D01*
X869954Y157271D02*
X880706Y157271D01*
X880706Y159363D02*
X869954Y159363D01*
X869954Y161455D02*
X880706Y161455D01*
X880706Y163547D02*
X869954Y163547D01*
X869954Y165639D02*
X880706Y165639D01*
X880706Y167731D02*
X869954Y167731D01*
X869954Y169823D02*
X880706Y169823D01*
X880706Y171915D02*
X869954Y171915D01*
X897894Y136351D02*
X908646Y136351D01*
X897894Y136351D02*
X897894Y172249D01*
X908646Y172249D01*
X908646Y136351D01*
X908646Y138443D02*
X897894Y138443D01*
X897894Y140535D02*
X908646Y140535D01*
X908646Y142627D02*
X897894Y142627D01*
X897894Y144719D02*
X908646Y144719D01*
X908646Y146811D02*
X897894Y146811D01*
X897894Y148903D02*
X908646Y148903D01*
X908646Y150995D02*
X897894Y150995D01*
X897894Y153087D02*
X908646Y153087D01*
X908646Y155179D02*
X897894Y155179D01*
X897894Y157271D02*
X908646Y157271D01*
X908646Y159363D02*
X897894Y159363D01*
X897894Y161455D02*
X908646Y161455D01*
X908646Y163547D02*
X897894Y163547D01*
X897894Y165639D02*
X908646Y165639D01*
X908646Y167731D02*
X897894Y167731D01*
X897894Y169823D02*
X908646Y169823D01*
X908646Y171915D02*
X897894Y171915D01*
D10*
X918000Y323200D03*
X892600Y323200D03*
X138700Y147300D03*
X138700Y172700D03*
X187700Y147100D03*
X187700Y172500D03*
X892400Y369800D03*
X917800Y369800D03*
X867800Y370200D03*
X842400Y370200D03*
X842000Y322300D03*
X867400Y322300D03*
X867700Y247700D03*
X842300Y247700D03*
X547800Y440400D03*
X547800Y415000D03*
D25*
X810700Y140500D03*
D26*
X810700Y93500D03*
D25*
X810700Y46500D03*
D13*
X626524Y460824D02*
X626524Y467776D01*
X637476Y467776D01*
X637476Y460824D01*
X626524Y460824D01*
X626524Y462580D02*
X637476Y462580D01*
X637476Y464336D02*
X626524Y464336D01*
X626524Y466092D02*
X637476Y466092D01*
X626524Y449776D02*
X626524Y442824D01*
X626524Y449776D02*
X637476Y449776D01*
X637476Y442824D01*
X626524Y442824D01*
X626524Y444580D02*
X637476Y444580D01*
X637476Y446336D02*
X626524Y446336D01*
X626524Y448092D02*
X637476Y448092D01*
X292824Y115376D02*
X292824Y108424D01*
X292824Y115376D02*
X303776Y115376D01*
X303776Y108424D01*
X292824Y108424D01*
X292824Y110180D02*
X303776Y110180D01*
X303776Y111936D02*
X292824Y111936D01*
X292824Y113692D02*
X303776Y113692D01*
X292824Y97376D02*
X292824Y90424D01*
X292824Y97376D02*
X303776Y97376D01*
X303776Y90424D01*
X292824Y90424D01*
X292824Y92180D02*
X303776Y92180D01*
X303776Y93936D02*
X292824Y93936D01*
X292824Y95692D02*
X303776Y95692D01*
X133824Y122524D02*
X133824Y129476D01*
X144776Y129476D01*
X144776Y122524D01*
X133824Y122524D01*
X133824Y124280D02*
X144776Y124280D01*
X144776Y126036D02*
X133824Y126036D01*
X133824Y127792D02*
X144776Y127792D01*
X133824Y111476D02*
X133824Y104524D01*
X133824Y111476D02*
X144776Y111476D01*
X144776Y104524D01*
X133824Y104524D01*
X133824Y106280D02*
X144776Y106280D01*
X144776Y108036D02*
X133824Y108036D01*
X133824Y109792D02*
X144776Y109792D01*
X181824Y122624D02*
X181824Y129576D01*
X192776Y129576D01*
X192776Y122624D01*
X181824Y122624D01*
X181824Y124380D02*
X192776Y124380D01*
X192776Y126136D02*
X181824Y126136D01*
X181824Y127892D02*
X192776Y127892D01*
X181824Y111576D02*
X181824Y104624D01*
X181824Y111576D02*
X192776Y111576D01*
X192776Y104624D01*
X181824Y104624D01*
X181824Y106380D02*
X192776Y106380D01*
X192776Y108136D02*
X181824Y108136D01*
X181824Y109892D02*
X192776Y109892D01*
X698324Y646724D02*
X698324Y653676D01*
X709276Y653676D01*
X709276Y646724D01*
X698324Y646724D01*
X698324Y648480D02*
X709276Y648480D01*
X709276Y650236D02*
X698324Y650236D01*
X698324Y651992D02*
X709276Y651992D01*
X698324Y635676D02*
X698324Y628724D01*
X698324Y635676D02*
X709276Y635676D01*
X709276Y628724D01*
X698324Y628724D01*
X698324Y630480D02*
X709276Y630480D01*
X709276Y632236D02*
X698324Y632236D01*
X698324Y633992D02*
X709276Y633992D01*
X687324Y620776D02*
X687324Y613824D01*
X687324Y620776D02*
X698276Y620776D01*
X698276Y613824D01*
X687324Y613824D01*
X687324Y615580D02*
X698276Y615580D01*
X698276Y617336D02*
X687324Y617336D01*
X687324Y619092D02*
X698276Y619092D01*
X687324Y602776D02*
X687324Y595824D01*
X687324Y602776D02*
X698276Y602776D01*
X698276Y595824D01*
X687324Y595824D01*
X687324Y597580D02*
X698276Y597580D01*
X698276Y599336D02*
X687324Y599336D01*
X687324Y601092D02*
X698276Y601092D01*
X793324Y447376D02*
X793324Y440424D01*
X793324Y447376D02*
X804276Y447376D01*
X804276Y440424D01*
X793324Y440424D01*
X793324Y442180D02*
X804276Y442180D01*
X804276Y443936D02*
X793324Y443936D01*
X793324Y445692D02*
X804276Y445692D01*
X793324Y429376D02*
X793324Y422424D01*
X793324Y429376D02*
X804276Y429376D01*
X804276Y422424D01*
X793324Y422424D01*
X793324Y424180D02*
X804276Y424180D01*
X804276Y425936D02*
X793324Y425936D01*
X793324Y427692D02*
X804276Y427692D01*
X613476Y97324D02*
X606524Y97324D01*
X606524Y108276D01*
X613476Y108276D01*
X613476Y97324D01*
X613476Y99080D02*
X606524Y99080D01*
X606524Y100836D02*
X613476Y100836D01*
X613476Y102592D02*
X606524Y102592D01*
X606524Y104348D02*
X613476Y104348D01*
X613476Y106104D02*
X606524Y106104D01*
X606524Y107860D02*
X613476Y107860D01*
X624524Y97324D02*
X631476Y97324D01*
X624524Y97324D02*
X624524Y108276D01*
X631476Y108276D01*
X631476Y97324D01*
X631476Y99080D02*
X624524Y99080D01*
X624524Y100836D02*
X631476Y100836D01*
X631476Y102592D02*
X624524Y102592D01*
X624524Y104348D02*
X631476Y104348D01*
X631476Y106104D02*
X624524Y106104D01*
X624524Y107860D02*
X631476Y107860D01*
X852124Y210676D02*
X859076Y210676D01*
X859076Y199724D01*
X852124Y199724D01*
X852124Y210676D01*
X852124Y201480D02*
X859076Y201480D01*
X859076Y203236D02*
X852124Y203236D01*
X852124Y204992D02*
X859076Y204992D01*
X859076Y206748D02*
X852124Y206748D01*
X852124Y208504D02*
X859076Y208504D01*
X859076Y210260D02*
X852124Y210260D01*
X841076Y210676D02*
X834124Y210676D01*
X841076Y210676D02*
X841076Y199724D01*
X834124Y199724D01*
X834124Y210676D01*
X834124Y201480D02*
X841076Y201480D01*
X841076Y203236D02*
X834124Y203236D01*
X834124Y204992D02*
X841076Y204992D01*
X841076Y206748D02*
X834124Y206748D01*
X834124Y208504D02*
X841076Y208504D01*
X841076Y210260D02*
X834124Y210260D01*
X803324Y492224D02*
X803324Y499176D01*
X814276Y499176D01*
X814276Y492224D01*
X803324Y492224D01*
X803324Y493980D02*
X814276Y493980D01*
X814276Y495736D02*
X803324Y495736D01*
X803324Y497492D02*
X814276Y497492D01*
X803324Y481176D02*
X803324Y474224D01*
X803324Y481176D02*
X814276Y481176D01*
X814276Y474224D01*
X803324Y474224D01*
X803324Y475980D02*
X814276Y475980D01*
X814276Y477736D02*
X803324Y477736D01*
X803324Y479492D02*
X814276Y479492D01*
X534676Y520324D02*
X527724Y520324D01*
X527724Y531276D01*
X534676Y531276D01*
X534676Y520324D01*
X534676Y522080D02*
X527724Y522080D01*
X527724Y523836D02*
X534676Y523836D01*
X534676Y525592D02*
X527724Y525592D01*
X527724Y527348D02*
X534676Y527348D01*
X534676Y529104D02*
X527724Y529104D01*
X527724Y530860D02*
X534676Y530860D01*
X545724Y520324D02*
X552676Y520324D01*
X545724Y520324D02*
X545724Y531276D01*
X552676Y531276D01*
X552676Y520324D01*
X552676Y522080D02*
X545724Y522080D01*
X545724Y523836D02*
X552676Y523836D01*
X552676Y525592D02*
X545724Y525592D01*
X545724Y527348D02*
X552676Y527348D01*
X552676Y529104D02*
X545724Y529104D01*
X545724Y530860D02*
X552676Y530860D01*
X930624Y377024D02*
X937576Y377024D01*
X930624Y377024D02*
X930624Y387976D01*
X937576Y387976D01*
X937576Y377024D01*
X937576Y378780D02*
X930624Y378780D01*
X930624Y380536D02*
X937576Y380536D01*
X937576Y382292D02*
X930624Y382292D01*
X930624Y384048D02*
X937576Y384048D01*
X937576Y385804D02*
X930624Y385804D01*
X930624Y387560D02*
X937576Y387560D01*
X948624Y377024D02*
X955576Y377024D01*
X948624Y377024D02*
X948624Y387976D01*
X955576Y387976D01*
X955576Y377024D01*
X955576Y378780D02*
X948624Y378780D01*
X948624Y380536D02*
X955576Y380536D01*
X955576Y382292D02*
X948624Y382292D01*
X948624Y384048D02*
X955576Y384048D01*
X955576Y385804D02*
X948624Y385804D01*
X948624Y387560D02*
X955576Y387560D01*
X552676Y464124D02*
X552676Y471076D01*
X552676Y464124D02*
X541724Y464124D01*
X541724Y471076D01*
X552676Y471076D01*
X552676Y465880D02*
X541724Y465880D01*
X541724Y467636D02*
X552676Y467636D01*
X552676Y469392D02*
X541724Y469392D01*
X552676Y482124D02*
X552676Y489076D01*
X552676Y482124D02*
X541724Y482124D01*
X541724Y489076D01*
X552676Y489076D01*
X552676Y483880D02*
X541724Y483880D01*
X541724Y485636D02*
X552676Y485636D01*
X552676Y487392D02*
X541724Y487392D01*
X255176Y148476D02*
X255176Y141524D01*
X244224Y141524D01*
X244224Y148476D01*
X255176Y148476D01*
X255176Y143280D02*
X244224Y143280D01*
X244224Y145036D02*
X255176Y145036D01*
X255176Y146792D02*
X244224Y146792D01*
X255176Y159524D02*
X255176Y166476D01*
X255176Y159524D02*
X244224Y159524D01*
X244224Y166476D01*
X255176Y166476D01*
X255176Y161280D02*
X244224Y161280D01*
X244224Y163036D02*
X255176Y163036D01*
X255176Y164792D02*
X244224Y164792D01*
X156324Y400624D02*
X156324Y407576D01*
X167276Y407576D01*
X167276Y400624D01*
X156324Y400624D01*
X156324Y402380D02*
X167276Y402380D01*
X167276Y404136D02*
X156324Y404136D01*
X156324Y405892D02*
X167276Y405892D01*
X156324Y389576D02*
X156324Y382624D01*
X156324Y389576D02*
X167276Y389576D01*
X167276Y382624D01*
X156324Y382624D01*
X156324Y384380D02*
X167276Y384380D01*
X167276Y386136D02*
X156324Y386136D01*
X156324Y387892D02*
X167276Y387892D01*
X249676Y179776D02*
X249676Y172824D01*
X238724Y172824D01*
X238724Y179776D01*
X249676Y179776D01*
X249676Y174580D02*
X238724Y174580D01*
X238724Y176336D02*
X249676Y176336D01*
X249676Y178092D02*
X238724Y178092D01*
X249676Y190824D02*
X249676Y197776D01*
X249676Y190824D02*
X238724Y190824D01*
X238724Y197776D01*
X249676Y197776D01*
X249676Y192580D02*
X238724Y192580D01*
X238724Y194336D02*
X249676Y194336D01*
X249676Y196092D02*
X238724Y196092D01*
X883524Y225976D02*
X890476Y225976D01*
X890476Y215024D01*
X883524Y215024D01*
X883524Y225976D01*
X883524Y216780D02*
X890476Y216780D01*
X890476Y218536D02*
X883524Y218536D01*
X883524Y220292D02*
X890476Y220292D01*
X890476Y222048D02*
X883524Y222048D01*
X883524Y223804D02*
X890476Y223804D01*
X890476Y225560D02*
X883524Y225560D01*
X872476Y225976D02*
X865524Y225976D01*
X872476Y225976D02*
X872476Y215024D01*
X865524Y215024D01*
X865524Y225976D01*
X865524Y216780D02*
X872476Y216780D01*
X872476Y218536D02*
X865524Y218536D01*
X865524Y220292D02*
X872476Y220292D01*
X872476Y222048D02*
X865524Y222048D01*
X865524Y223804D02*
X872476Y223804D01*
X872476Y225560D02*
X865524Y225560D01*
X104524Y637124D02*
X104524Y644076D01*
X115476Y644076D01*
X115476Y637124D01*
X104524Y637124D01*
X104524Y638880D02*
X115476Y638880D01*
X115476Y640636D02*
X104524Y640636D01*
X104524Y642392D02*
X115476Y642392D01*
X104524Y626076D02*
X104524Y619124D01*
X104524Y626076D02*
X115476Y626076D01*
X115476Y619124D01*
X104524Y619124D01*
X104524Y620880D02*
X115476Y620880D01*
X115476Y622636D02*
X104524Y622636D01*
X104524Y624392D02*
X115476Y624392D01*
X321024Y391176D02*
X321024Y384224D01*
X321024Y391176D02*
X331976Y391176D01*
X331976Y384224D01*
X321024Y384224D01*
X321024Y385980D02*
X331976Y385980D01*
X331976Y387736D02*
X321024Y387736D01*
X321024Y389492D02*
X331976Y389492D01*
X321024Y373176D02*
X321024Y366224D01*
X321024Y373176D02*
X331976Y373176D01*
X331976Y366224D01*
X321024Y366224D01*
X321024Y367980D02*
X331976Y367980D01*
X331976Y369736D02*
X321024Y369736D01*
X321024Y371492D02*
X331976Y371492D01*
X435524Y318276D02*
X435524Y311324D01*
X435524Y318276D02*
X446476Y318276D01*
X446476Y311324D01*
X435524Y311324D01*
X435524Y313080D02*
X446476Y313080D01*
X446476Y314836D02*
X435524Y314836D01*
X435524Y316592D02*
X446476Y316592D01*
X435524Y300276D02*
X435524Y293324D01*
X435524Y300276D02*
X446476Y300276D01*
X446476Y293324D01*
X435524Y293324D01*
X435524Y295080D02*
X446476Y295080D01*
X446476Y296836D02*
X435524Y296836D01*
X435524Y298592D02*
X446476Y298592D01*
X330076Y150024D02*
X323124Y150024D01*
X323124Y160976D01*
X330076Y160976D01*
X330076Y150024D01*
X330076Y151780D02*
X323124Y151780D01*
X323124Y153536D02*
X330076Y153536D01*
X330076Y155292D02*
X323124Y155292D01*
X323124Y157048D02*
X330076Y157048D01*
X330076Y158804D02*
X323124Y158804D01*
X323124Y160560D02*
X330076Y160560D01*
X341124Y150024D02*
X348076Y150024D01*
X341124Y150024D02*
X341124Y160976D01*
X348076Y160976D01*
X348076Y150024D01*
X348076Y151780D02*
X341124Y151780D01*
X341124Y153536D02*
X348076Y153536D01*
X348076Y155292D02*
X341124Y155292D01*
X341124Y157048D02*
X348076Y157048D01*
X348076Y158804D02*
X341124Y158804D01*
X341124Y160560D02*
X348076Y160560D01*
X293476Y179524D02*
X286524Y179524D01*
X286524Y190476D01*
X293476Y190476D01*
X293476Y179524D01*
X293476Y181280D02*
X286524Y181280D01*
X286524Y183036D02*
X293476Y183036D01*
X293476Y184792D02*
X286524Y184792D01*
X286524Y186548D02*
X293476Y186548D01*
X293476Y188304D02*
X286524Y188304D01*
X286524Y190060D02*
X293476Y190060D01*
X304524Y179524D02*
X311476Y179524D01*
X304524Y179524D02*
X304524Y190476D01*
X311476Y190476D01*
X311476Y179524D01*
X311476Y181280D02*
X304524Y181280D01*
X304524Y183036D02*
X311476Y183036D01*
X311476Y184792D02*
X304524Y184792D01*
X304524Y186548D02*
X311476Y186548D01*
X311476Y188304D02*
X304524Y188304D01*
X304524Y190060D02*
X311476Y190060D01*
X280576Y105476D02*
X273624Y105476D01*
X280576Y105476D02*
X280576Y94524D01*
X273624Y94524D01*
X273624Y105476D01*
X273624Y96280D02*
X280576Y96280D01*
X280576Y98036D02*
X273624Y98036D01*
X273624Y99792D02*
X280576Y99792D01*
X280576Y101548D02*
X273624Y101548D01*
X273624Y103304D02*
X280576Y103304D01*
X280576Y105060D02*
X273624Y105060D01*
X262576Y105476D02*
X255624Y105476D01*
X262576Y105476D02*
X262576Y94524D01*
X255624Y94524D01*
X255624Y105476D01*
X255624Y96280D02*
X262576Y96280D01*
X262576Y98036D02*
X255624Y98036D01*
X255624Y99792D02*
X262576Y99792D01*
X262576Y101548D02*
X255624Y101548D01*
X255624Y103304D02*
X262576Y103304D01*
X262576Y105060D02*
X255624Y105060D01*
D27*
X942873Y124623D02*
X959927Y124623D01*
X942873Y124623D02*
X942873Y135177D01*
X959927Y135177D01*
X959927Y124623D01*
X959927Y126677D02*
X942873Y126677D01*
X942873Y128731D02*
X959927Y128731D01*
X959927Y130785D02*
X942873Y130785D01*
X942873Y132839D02*
X959927Y132839D01*
X959927Y134893D02*
X942873Y134893D01*
X942873Y94223D02*
X959927Y94223D01*
X942873Y94223D02*
X942873Y104777D01*
X959927Y104777D01*
X959927Y94223D01*
X959927Y96277D02*
X942873Y96277D01*
X942873Y98331D02*
X959927Y98331D01*
X959927Y100385D02*
X942873Y100385D01*
X942873Y102439D02*
X959927Y102439D01*
X959927Y104493D02*
X942873Y104493D01*
D21*
X870525Y626875D02*
X856075Y626875D01*
X870525Y626875D02*
X870525Y621925D01*
X856075Y621925D01*
X856075Y626875D01*
X856075Y623492D02*
X870525Y623492D01*
X870525Y625059D02*
X856075Y625059D01*
X856075Y626626D02*
X870525Y626626D01*
X870525Y639575D02*
X856075Y639575D01*
X870525Y639575D02*
X870525Y634625D01*
X856075Y634625D01*
X856075Y639575D01*
X856075Y636192D02*
X870525Y636192D01*
X870525Y637759D02*
X856075Y637759D01*
X856075Y639326D02*
X870525Y639326D01*
X870525Y652275D02*
X856075Y652275D01*
X870525Y652275D02*
X870525Y647325D01*
X856075Y647325D01*
X856075Y652275D01*
X856075Y648892D02*
X870525Y648892D01*
X870525Y650459D02*
X856075Y650459D01*
X856075Y652026D02*
X870525Y652026D01*
X870525Y664975D02*
X856075Y664975D01*
X870525Y664975D02*
X870525Y660025D01*
X856075Y660025D01*
X856075Y664975D01*
X856075Y661592D02*
X870525Y661592D01*
X870525Y663159D02*
X856075Y663159D01*
X856075Y664726D02*
X870525Y664726D01*
X816525Y626875D02*
X802075Y626875D01*
X816525Y626875D02*
X816525Y621925D01*
X802075Y621925D01*
X802075Y626875D01*
X802075Y623492D02*
X816525Y623492D01*
X816525Y625059D02*
X802075Y625059D01*
X802075Y626626D02*
X816525Y626626D01*
X816525Y639575D02*
X802075Y639575D01*
X816525Y639575D02*
X816525Y634625D01*
X802075Y634625D01*
X802075Y639575D01*
X802075Y636192D02*
X816525Y636192D01*
X816525Y637759D02*
X802075Y637759D01*
X802075Y639326D02*
X816525Y639326D01*
X816525Y652275D02*
X802075Y652275D01*
X816525Y652275D02*
X816525Y647325D01*
X802075Y647325D01*
X802075Y652275D01*
X802075Y648892D02*
X816525Y648892D01*
X816525Y650459D02*
X802075Y650459D01*
X802075Y652026D02*
X816525Y652026D01*
X816525Y664975D02*
X802075Y664975D01*
X816525Y664975D02*
X816525Y660025D01*
X802075Y660025D01*
X802075Y664975D01*
X802075Y661592D02*
X816525Y661592D01*
X816525Y663159D02*
X802075Y663159D01*
X802075Y664726D02*
X816525Y664726D01*
D28*
X945178Y455628D02*
X945178Y452172D01*
X925222Y452172D01*
X925222Y455628D01*
X945178Y455628D01*
X945178Y453646D02*
X925222Y453646D01*
X925222Y455120D02*
X945178Y455120D01*
X945178Y449128D02*
X945178Y445672D01*
X925222Y445672D01*
X925222Y449128D01*
X945178Y449128D01*
X945178Y447146D02*
X925222Y447146D01*
X925222Y448620D02*
X945178Y448620D01*
X945178Y458672D02*
X945178Y462128D01*
X945178Y458672D02*
X925222Y458672D01*
X925222Y462128D01*
X945178Y462128D01*
X945178Y460146D02*
X925222Y460146D01*
X925222Y461620D02*
X945178Y461620D01*
X945178Y471672D02*
X945178Y475128D01*
X945178Y471672D02*
X925222Y471672D01*
X925222Y475128D01*
X945178Y475128D01*
X945178Y473146D02*
X925222Y473146D01*
X925222Y474620D02*
X945178Y474620D01*
X945178Y468628D02*
X945178Y465172D01*
X925222Y465172D01*
X925222Y468628D01*
X945178Y468628D01*
X945178Y466646D02*
X925222Y466646D01*
X925222Y468120D02*
X945178Y468120D01*
D29*
X951573Y472173D02*
X971427Y472173D01*
X951573Y472173D02*
X951573Y482027D01*
X971427Y482027D01*
X971427Y472173D01*
X971427Y474228D02*
X951573Y474228D01*
X951573Y476283D02*
X971427Y476283D01*
X971427Y478338D02*
X951573Y478338D01*
X951573Y480393D02*
X971427Y480393D01*
X971427Y439173D02*
X951573Y439173D01*
X951573Y449027D01*
X971427Y449027D01*
X971427Y439173D01*
X971427Y441228D02*
X951573Y441228D01*
X951573Y443283D02*
X971427Y443283D01*
X971427Y445338D02*
X951573Y445338D01*
X951573Y447393D02*
X971427Y447393D01*
D26*
X934750Y485100D03*
X934750Y435600D03*
D30*
X965500Y425600D03*
X965500Y495600D03*
D23*
X919700Y642000D03*
D31*
X919700Y667400D03*
X919700Y692800D03*
X945100Y692800D03*
X945100Y667400D03*
X945100Y642000D03*
D15*
X806700Y273439D03*
X806700Y208161D03*
D32*
X420010Y742990D02*
X420010Y751010D01*
X420010Y742990D02*
X405990Y742990D01*
X405990Y751010D01*
X420010Y751010D01*
X420010Y744777D02*
X405990Y744777D01*
X405990Y746564D02*
X420010Y746564D01*
X420010Y748351D02*
X405990Y748351D01*
X405990Y750138D02*
X420010Y750138D01*
X420010Y738310D02*
X420010Y730290D01*
X405990Y730290D01*
X405990Y738310D01*
X420010Y738310D01*
X420010Y732077D02*
X405990Y732077D01*
X405990Y733864D02*
X420010Y733864D01*
X420010Y735651D02*
X405990Y735651D01*
X405990Y737438D02*
X420010Y737438D01*
X420010Y725610D02*
X420010Y717590D01*
X405990Y717590D01*
X405990Y725610D01*
X420010Y725610D01*
X420010Y719377D02*
X405990Y719377D01*
X405990Y721164D02*
X420010Y721164D01*
X420010Y722951D02*
X405990Y722951D01*
X405990Y724738D02*
X420010Y724738D01*
X420010Y712910D02*
X420010Y704890D01*
X405990Y704890D01*
X405990Y712910D01*
X420010Y712910D01*
X420010Y706677D02*
X405990Y706677D01*
X405990Y708464D02*
X420010Y708464D01*
X420010Y710251D02*
X405990Y710251D01*
X405990Y712038D02*
X420010Y712038D01*
X420010Y700210D02*
X420010Y692190D01*
X405990Y692190D01*
X405990Y700210D01*
X420010Y700210D01*
X420010Y693977D02*
X405990Y693977D01*
X405990Y695764D02*
X420010Y695764D01*
X420010Y697551D02*
X405990Y697551D01*
X405990Y699338D02*
X420010Y699338D01*
X420010Y687510D02*
X420010Y679490D01*
X405990Y679490D01*
X405990Y687510D01*
X420010Y687510D01*
X420010Y681277D02*
X405990Y681277D01*
X405990Y683064D02*
X420010Y683064D01*
X420010Y684851D02*
X405990Y684851D01*
X405990Y686638D02*
X420010Y686638D01*
X420010Y674810D02*
X420010Y666790D01*
X405990Y666790D01*
X405990Y674810D01*
X420010Y674810D01*
X420010Y668577D02*
X405990Y668577D01*
X405990Y670364D02*
X420010Y670364D01*
X420010Y672151D02*
X405990Y672151D01*
X405990Y673938D02*
X420010Y673938D01*
X420010Y662110D02*
X420010Y654090D01*
X405990Y654090D01*
X405990Y662110D01*
X420010Y662110D01*
X420010Y655877D02*
X405990Y655877D01*
X405990Y657664D02*
X420010Y657664D01*
X420010Y659451D02*
X405990Y659451D01*
X405990Y661238D02*
X420010Y661238D01*
X420010Y649410D02*
X420010Y641390D01*
X405990Y641390D01*
X405990Y649410D01*
X420010Y649410D01*
X420010Y643177D02*
X405990Y643177D01*
X405990Y644964D02*
X420010Y644964D01*
X420010Y646751D02*
X405990Y646751D01*
X405990Y648538D02*
X420010Y648538D01*
X420010Y636710D02*
X420010Y628690D01*
X405990Y628690D01*
X405990Y636710D01*
X420010Y636710D01*
X420010Y630477D02*
X405990Y630477D01*
X405990Y632264D02*
X420010Y632264D01*
X420010Y634051D02*
X405990Y634051D01*
X405990Y635838D02*
X420010Y635838D01*
X420010Y624010D02*
X420010Y615990D01*
X405990Y615990D01*
X405990Y624010D01*
X420010Y624010D01*
X420010Y617777D02*
X405990Y617777D01*
X405990Y619564D02*
X420010Y619564D01*
X420010Y621351D02*
X405990Y621351D01*
X405990Y623138D02*
X420010Y623138D01*
X420010Y611310D02*
X420010Y603290D01*
X405990Y603290D01*
X405990Y611310D01*
X420010Y611310D01*
X420010Y605077D02*
X405990Y605077D01*
X405990Y606864D02*
X420010Y606864D01*
X420010Y608651D02*
X405990Y608651D01*
X405990Y610438D02*
X420010Y610438D01*
X420010Y598610D02*
X420010Y590590D01*
X405990Y590590D01*
X405990Y598610D01*
X420010Y598610D01*
X420010Y592377D02*
X405990Y592377D01*
X405990Y594164D02*
X420010Y594164D01*
X420010Y595951D02*
X405990Y595951D01*
X405990Y597738D02*
X420010Y597738D01*
X420010Y585910D02*
X420010Y577890D01*
X405990Y577890D01*
X405990Y585910D01*
X420010Y585910D01*
X420010Y579677D02*
X405990Y579677D01*
X405990Y581464D02*
X420010Y581464D01*
X420010Y583251D02*
X405990Y583251D01*
X405990Y585038D02*
X420010Y585038D01*
X441840Y574010D02*
X449860Y574010D01*
X449860Y559990D01*
X441840Y559990D01*
X441840Y574010D01*
X441840Y561777D02*
X449860Y561777D01*
X449860Y563564D02*
X441840Y563564D01*
X441840Y565351D02*
X449860Y565351D01*
X449860Y567138D02*
X441840Y567138D01*
X441840Y568925D02*
X449860Y568925D01*
X449860Y570712D02*
X441840Y570712D01*
X441840Y572499D02*
X449860Y572499D01*
X454540Y574010D02*
X462560Y574010D01*
X462560Y559990D01*
X454540Y559990D01*
X454540Y574010D01*
X454540Y561777D02*
X462560Y561777D01*
X462560Y563564D02*
X454540Y563564D01*
X454540Y565351D02*
X462560Y565351D01*
X462560Y567138D02*
X454540Y567138D01*
X454540Y568925D02*
X462560Y568925D01*
X462560Y570712D02*
X454540Y570712D01*
X454540Y572499D02*
X462560Y572499D01*
X467240Y574010D02*
X475260Y574010D01*
X475260Y559990D01*
X467240Y559990D01*
X467240Y574010D01*
X467240Y561777D02*
X475260Y561777D01*
X475260Y563564D02*
X467240Y563564D01*
X467240Y565351D02*
X475260Y565351D01*
X475260Y567138D02*
X467240Y567138D01*
X467240Y568925D02*
X475260Y568925D01*
X475260Y570712D02*
X467240Y570712D01*
X467240Y572499D02*
X475260Y572499D01*
X479940Y574010D02*
X487960Y574010D01*
X487960Y559990D01*
X479940Y559990D01*
X479940Y574010D01*
X479940Y561777D02*
X487960Y561777D01*
X487960Y563564D02*
X479940Y563564D01*
X479940Y565351D02*
X487960Y565351D01*
X487960Y567138D02*
X479940Y567138D01*
X479940Y568925D02*
X487960Y568925D01*
X487960Y570712D02*
X479940Y570712D01*
X479940Y572499D02*
X487960Y572499D01*
X492640Y574010D02*
X500660Y574010D01*
X500660Y559990D01*
X492640Y559990D01*
X492640Y574010D01*
X492640Y561777D02*
X500660Y561777D01*
X500660Y563564D02*
X492640Y563564D01*
X492640Y565351D02*
X500660Y565351D01*
X500660Y567138D02*
X492640Y567138D01*
X492640Y568925D02*
X500660Y568925D01*
X500660Y570712D02*
X492640Y570712D01*
X492640Y572499D02*
X500660Y572499D01*
X505340Y574010D02*
X513360Y574010D01*
X513360Y559990D01*
X505340Y559990D01*
X505340Y574010D01*
X505340Y561777D02*
X513360Y561777D01*
X513360Y563564D02*
X505340Y563564D01*
X505340Y565351D02*
X513360Y565351D01*
X513360Y567138D02*
X505340Y567138D01*
X505340Y568925D02*
X513360Y568925D01*
X513360Y570712D02*
X505340Y570712D01*
X505340Y572499D02*
X513360Y572499D01*
X518040Y574010D02*
X526060Y574010D01*
X526060Y559990D01*
X518040Y559990D01*
X518040Y574010D01*
X518040Y561777D02*
X526060Y561777D01*
X526060Y563564D02*
X518040Y563564D01*
X518040Y565351D02*
X526060Y565351D01*
X526060Y567138D02*
X518040Y567138D01*
X518040Y568925D02*
X526060Y568925D01*
X526060Y570712D02*
X518040Y570712D01*
X518040Y572499D02*
X526060Y572499D01*
X530740Y574010D02*
X538760Y574010D01*
X538760Y559990D01*
X530740Y559990D01*
X530740Y574010D01*
X530740Y561777D02*
X538760Y561777D01*
X538760Y563564D02*
X530740Y563564D01*
X530740Y565351D02*
X538760Y565351D01*
X538760Y567138D02*
X530740Y567138D01*
X530740Y568925D02*
X538760Y568925D01*
X538760Y570712D02*
X530740Y570712D01*
X530740Y572499D02*
X538760Y572499D01*
X543440Y574010D02*
X551460Y574010D01*
X551460Y559990D01*
X543440Y559990D01*
X543440Y574010D01*
X543440Y561777D02*
X551460Y561777D01*
X551460Y563564D02*
X543440Y563564D01*
X543440Y565351D02*
X551460Y565351D01*
X551460Y567138D02*
X543440Y567138D01*
X543440Y568925D02*
X551460Y568925D01*
X551460Y570712D02*
X543440Y570712D01*
X543440Y572499D02*
X551460Y572499D01*
X556140Y574010D02*
X564160Y574010D01*
X564160Y559990D01*
X556140Y559990D01*
X556140Y574010D01*
X556140Y561777D02*
X564160Y561777D01*
X564160Y563564D02*
X556140Y563564D01*
X556140Y565351D02*
X564160Y565351D01*
X564160Y567138D02*
X556140Y567138D01*
X556140Y568925D02*
X564160Y568925D01*
X564160Y570712D02*
X556140Y570712D01*
X556140Y572499D02*
X564160Y572499D01*
X600010Y577890D02*
X600010Y585910D01*
X600010Y577890D02*
X585990Y577890D01*
X585990Y585910D01*
X600010Y585910D01*
X600010Y579677D02*
X585990Y579677D01*
X585990Y581464D02*
X600010Y581464D01*
X600010Y583251D02*
X585990Y583251D01*
X585990Y585038D02*
X600010Y585038D01*
X600010Y590590D02*
X600010Y598610D01*
X600010Y590590D02*
X585990Y590590D01*
X585990Y598610D01*
X600010Y598610D01*
X600010Y592377D02*
X585990Y592377D01*
X585990Y594164D02*
X600010Y594164D01*
X600010Y595951D02*
X585990Y595951D01*
X585990Y597738D02*
X600010Y597738D01*
X600010Y603290D02*
X600010Y611310D01*
X600010Y603290D02*
X585990Y603290D01*
X585990Y611310D01*
X600010Y611310D01*
X600010Y605077D02*
X585990Y605077D01*
X585990Y606864D02*
X600010Y606864D01*
X600010Y608651D02*
X585990Y608651D01*
X585990Y610438D02*
X600010Y610438D01*
X600010Y615990D02*
X600010Y624010D01*
X600010Y615990D02*
X585990Y615990D01*
X585990Y624010D01*
X600010Y624010D01*
X600010Y617777D02*
X585990Y617777D01*
X585990Y619564D02*
X600010Y619564D01*
X600010Y621351D02*
X585990Y621351D01*
X585990Y623138D02*
X600010Y623138D01*
X600010Y628690D02*
X600010Y636710D01*
X600010Y628690D02*
X585990Y628690D01*
X585990Y636710D01*
X600010Y636710D01*
X600010Y630477D02*
X585990Y630477D01*
X585990Y632264D02*
X600010Y632264D01*
X600010Y634051D02*
X585990Y634051D01*
X585990Y635838D02*
X600010Y635838D01*
X600010Y641390D02*
X600010Y649410D01*
X600010Y641390D02*
X585990Y641390D01*
X585990Y649410D01*
X600010Y649410D01*
X600010Y643177D02*
X585990Y643177D01*
X585990Y644964D02*
X600010Y644964D01*
X600010Y646751D02*
X585990Y646751D01*
X585990Y648538D02*
X600010Y648538D01*
X600010Y654090D02*
X600010Y662110D01*
X600010Y654090D02*
X585990Y654090D01*
X585990Y662110D01*
X600010Y662110D01*
X600010Y655877D02*
X585990Y655877D01*
X585990Y657664D02*
X600010Y657664D01*
X600010Y659451D02*
X585990Y659451D01*
X585990Y661238D02*
X600010Y661238D01*
X600010Y666790D02*
X600010Y674810D01*
X600010Y666790D02*
X585990Y666790D01*
X585990Y674810D01*
X600010Y674810D01*
X600010Y668577D02*
X585990Y668577D01*
X585990Y670364D02*
X600010Y670364D01*
X600010Y672151D02*
X585990Y672151D01*
X585990Y673938D02*
X600010Y673938D01*
X600010Y679490D02*
X600010Y687510D01*
X600010Y679490D02*
X585990Y679490D01*
X585990Y687510D01*
X600010Y687510D01*
X600010Y681277D02*
X585990Y681277D01*
X585990Y683064D02*
X600010Y683064D01*
X600010Y684851D02*
X585990Y684851D01*
X585990Y686638D02*
X600010Y686638D01*
X600010Y692190D02*
X600010Y700210D01*
X600010Y692190D02*
X585990Y692190D01*
X585990Y700210D01*
X600010Y700210D01*
X600010Y693977D02*
X585990Y693977D01*
X585990Y695764D02*
X600010Y695764D01*
X600010Y697551D02*
X585990Y697551D01*
X585990Y699338D02*
X600010Y699338D01*
X600010Y704890D02*
X600010Y712910D01*
X600010Y704890D02*
X585990Y704890D01*
X585990Y712910D01*
X600010Y712910D01*
X600010Y706677D02*
X585990Y706677D01*
X585990Y708464D02*
X600010Y708464D01*
X600010Y710251D02*
X585990Y710251D01*
X585990Y712038D02*
X600010Y712038D01*
X600010Y717590D02*
X600010Y725610D01*
X600010Y717590D02*
X585990Y717590D01*
X585990Y725610D01*
X600010Y725610D01*
X600010Y719377D02*
X585990Y719377D01*
X585990Y721164D02*
X600010Y721164D01*
X600010Y722951D02*
X585990Y722951D01*
X585990Y724738D02*
X600010Y724738D01*
X600010Y730290D02*
X600010Y738310D01*
X600010Y730290D02*
X585990Y730290D01*
X585990Y738310D01*
X600010Y738310D01*
X600010Y732077D02*
X585990Y732077D01*
X585990Y733864D02*
X600010Y733864D01*
X600010Y735651D02*
X585990Y735651D01*
X585990Y737438D02*
X600010Y737438D01*
X600010Y742990D02*
X600010Y751010D01*
X600010Y742990D02*
X585990Y742990D01*
X585990Y751010D01*
X600010Y751010D01*
X600010Y744777D02*
X585990Y744777D01*
X585990Y746564D02*
X600010Y746564D01*
X600010Y748351D02*
X585990Y748351D01*
X585990Y750138D02*
X600010Y750138D01*
D33*
X530457Y697457D02*
X530457Y642543D01*
X475543Y642543D01*
X475543Y697457D01*
X530457Y697457D01*
X530457Y648340D02*
X475543Y648340D01*
X475543Y654137D02*
X530457Y654137D01*
X530457Y659934D02*
X475543Y659934D01*
X475543Y665731D02*
X530457Y665731D01*
X530457Y671528D02*
X475543Y671528D01*
X475543Y677325D02*
X530457Y677325D01*
X530457Y683122D02*
X475543Y683122D01*
X475543Y688919D02*
X530457Y688919D01*
X530457Y694716D02*
X475543Y694716D01*
D26*
X700000Y100000D03*
D34*
X240000Y450000D03*
X242000Y217500D03*
X248000Y123000D03*
X302500Y124500D03*
X297500Y52000D03*
D26*
X800000Y550000D03*
D34*
X142000Y237500D03*
X182500Y421500D03*
X291000Y458500D03*
X471500Y315500D03*
X520000Y500000D03*
X120000Y380000D03*
X151500Y279500D03*
X370000Y358500D03*
X318500Y293000D03*
D26*
X660000Y50000D03*
M02*
