M48
;GenerationSoftware,Autodesk,EAGLE,9.3.1*%
;CreationDate,2019-02-26T04:11:13Z*%
FMAT,2
ICI,OFF
METRIC,TZ,000.0000
T6C0.8000
T5C0.8128
T4C1.0000
T3C1.0160
T2C1.1000
T1C1.3000
%
G90
M71
T1
X1002000Y389100
X1002000Y459100
T2
X80700Y659261
X806700Y208161
X601200Y456361
X80700Y724539
X601200Y521639
X806700Y273439
T3
X281200Y611500
X281200Y586100
X47400Y354200
X281200Y560700
X281200Y535300
X148200Y707600
X148200Y682200
X47400Y405000
X148200Y656800
X148200Y631400
X910100Y79800
X910100Y105200
X47400Y455800
X47400Y379600
X380700Y59900
X406100Y59900
X431500Y59900
X47400Y430400
X507700Y59900
X456900Y59900
X737400Y383900
X737400Y409300
X737400Y434700
X737400Y460100
X737400Y485500
X737400Y510900
X737400Y536300
X737400Y561700
X737400Y587100
X737400Y612500
X737400Y637900
X737400Y663300
X737400Y688700
X482300Y59900
X47400Y328800
X810700Y140500
X810700Y46500
X281200Y662300
X281200Y636900
X737400Y714100
X938200Y667900
X938200Y693300
X963600Y693300
X963600Y667900
X963600Y642500
X938200Y642500
T4
X660000Y50000
X971250Y448600
X971250Y399100
X700000Y100000
X800000Y550000
X810700Y93500
T5
X918000Y323200
X892600Y323200
X138700Y147300
X138700Y172700
X187700Y147100
X187700Y172500
X892400Y369800
X917800Y369800
X842400Y370200
X842000Y322300
X867400Y322300
X867700Y247700
X842300Y247700
X547800Y440400
X547800Y415000
X867800Y370200
T6
X240000Y450000
X471500Y315500
X318500Y293000
X370000Y358500
X151500Y279500
X120000Y380000
X520000Y500000
X291000Y458500
X182500Y421500
X472000Y357500
X142000Y237500
X297500Y52000
X302500Y124500
X248000Y123000
X242000Y217500
M30