G04 EAGLE Gerber RS-274X export*
G75*
%MOMM*%
%FSLAX34Y34*%
%LPD*%
%INSolderpaste Top*%
%IPPOS*%
%AMOC8*
5,1,8,0,0,1.08239X$1,22.5*%
G01*
%ADD10R,1.170000X1.370000*%
%ADD11R,1.370000X1.170000*%
%ADD12R,1.343000X1.143000*%
%ADD13R,0.898400X0.698400*%
%ADD14R,0.898400X0.298400*%
%ADD15R,5.390000X1.890000*%
%ADD16R,0.491900X1.507200*%
%ADD17R,1.935000X1.935000*%
%ADD18R,0.548400X1.423400*%
%ADD19R,1.373400X0.198400*%
%ADD20R,0.198400X1.373400*%
%ADD21R,0.498400X1.298400*%
%ADD22R,0.848400X1.248400*%
%ADD23R,1.074419X3.589019*%
%ADD24R,1.098400X0.698400*%
%ADD25R,0.698400X1.098400*%
%ADD26R,1.703000X1.053000*%
%ADD27R,1.448400X0.498400*%
%ADD28C,0.003481*%
%ADD29R,1.990000X0.990000*%
%ADD30R,1.398400X0.798400*%
%ADD31R,0.798400X1.398400*%
%ADD32R,5.492000X5.492000*%


D10*
X362500Y733700D03*
X345500Y733700D03*
X302000Y265100D03*
X319000Y265100D03*
D11*
X243600Y257300D03*
X243600Y240300D03*
X348900Y359400D03*
X348900Y376400D03*
X954400Y301100D03*
X954400Y318100D03*
X209900Y433300D03*
X209900Y450300D03*
X264400Y436000D03*
X264400Y453000D03*
X159100Y325800D03*
X159100Y308800D03*
X142600Y366600D03*
X142600Y383600D03*
X414600Y355800D03*
X414600Y372800D03*
X392100Y354500D03*
X392100Y371500D03*
X772700Y427700D03*
X772700Y444700D03*
X383400Y312800D03*
X383400Y295800D03*
X360400Y313100D03*
X360400Y296100D03*
X976100Y315100D03*
X976100Y332100D03*
D10*
X962200Y189600D03*
X945200Y189600D03*
X962500Y161100D03*
X945500Y161100D03*
D11*
X873900Y107300D03*
X873900Y90300D03*
D10*
X606100Y154100D03*
X589100Y154100D03*
X587100Y200400D03*
X604100Y200400D03*
X586800Y288400D03*
X603800Y288400D03*
X603500Y243100D03*
X586500Y243100D03*
D11*
X333600Y123400D03*
X333600Y106400D03*
X609400Y64800D03*
X609400Y47800D03*
X632700Y64400D03*
X632700Y47400D03*
X781800Y478300D03*
X781800Y495300D03*
D10*
X837500Y594700D03*
X854500Y594700D03*
X763200Y45900D03*
X746200Y45900D03*
D11*
X701100Y76000D03*
X701100Y59000D03*
D10*
X385800Y191900D03*
X368800Y191900D03*
X449100Y192400D03*
X432100Y192400D03*
X190400Y239400D03*
X173400Y239400D03*
X187700Y264400D03*
X170700Y264400D03*
D12*
X958000Y553700D03*
X958000Y596700D03*
D13*
X412700Y291700D03*
D14*
X417700Y302700D03*
D13*
X412700Y313700D03*
D14*
X407700Y302700D03*
D13*
X441900Y374900D03*
D14*
X436900Y363900D03*
D13*
X441900Y352900D03*
D14*
X446900Y363900D03*
D15*
X457100Y229500D03*
X362100Y229500D03*
D16*
X941150Y273733D03*
X928450Y273733D03*
X915750Y273733D03*
X903050Y273733D03*
X903050Y220667D03*
X915750Y220667D03*
X928450Y220667D03*
X941150Y220667D03*
D17*
X922100Y247200D03*
D18*
X588150Y119720D03*
X575450Y119720D03*
X562750Y119720D03*
X550050Y119720D03*
X550050Y65480D03*
X562750Y65480D03*
X575450Y65480D03*
X588150Y65480D03*
X726850Y77080D03*
X739550Y77080D03*
X752250Y77080D03*
X764950Y77080D03*
X764950Y131320D03*
X752250Y131320D03*
X739550Y131320D03*
X726850Y131320D03*
D19*
X300580Y305000D03*
X300580Y310000D03*
X300580Y315000D03*
X300580Y320000D03*
X300580Y325000D03*
X300580Y330000D03*
X300580Y335000D03*
X300580Y340000D03*
X300580Y345000D03*
X300580Y350000D03*
X300580Y355000D03*
X300580Y360000D03*
X300580Y365000D03*
X300580Y370000D03*
X300580Y375000D03*
X300580Y380000D03*
D20*
X280700Y399880D03*
X275700Y399880D03*
X270700Y399880D03*
X265700Y399880D03*
X260700Y399880D03*
X255700Y399880D03*
X250700Y399880D03*
X245700Y399880D03*
X240700Y399880D03*
X235700Y399880D03*
X230700Y399880D03*
X225700Y399880D03*
X220700Y399880D03*
X215700Y399880D03*
X210700Y399880D03*
X205700Y399880D03*
D19*
X185820Y380000D03*
X185820Y375000D03*
X185820Y370000D03*
X185820Y365000D03*
X185820Y360000D03*
X185820Y355000D03*
X185820Y350000D03*
X185820Y345000D03*
X185820Y340000D03*
X185820Y335000D03*
X185820Y330000D03*
X185820Y325000D03*
X185820Y320000D03*
X185820Y315000D03*
X185820Y310000D03*
X185820Y305000D03*
D20*
X205700Y285120D03*
X210700Y285120D03*
X215700Y285120D03*
X220700Y285120D03*
X225700Y285120D03*
X230700Y285120D03*
X235700Y285120D03*
X240700Y285120D03*
X245700Y285120D03*
X250700Y285120D03*
X255700Y285120D03*
X260700Y285120D03*
X265700Y285120D03*
X270700Y285120D03*
X275700Y285120D03*
X280700Y285120D03*
D21*
X289500Y140600D03*
X299000Y140600D03*
X308500Y140600D03*
X308500Y165600D03*
X299000Y165600D03*
X289500Y165600D03*
D22*
X559600Y201400D03*
X527600Y201400D03*
X527600Y153400D03*
X559600Y153400D03*
X558100Y289100D03*
X526100Y289100D03*
X526100Y241100D03*
X558100Y241100D03*
X631400Y241200D03*
X663400Y241200D03*
X663400Y289200D03*
X631400Y289200D03*
X631000Y154400D03*
X663000Y154400D03*
X663000Y202400D03*
X631000Y202400D03*
D23*
X875330Y154300D03*
X903270Y154300D03*
D24*
X632000Y464300D03*
X632000Y446300D03*
X298300Y111900D03*
X298300Y93900D03*
X139300Y126000D03*
X139300Y108000D03*
X187300Y126100D03*
X187300Y108100D03*
X703800Y650200D03*
X703800Y632200D03*
X692800Y617300D03*
X692800Y599300D03*
X798800Y443900D03*
X798800Y425900D03*
D25*
X610000Y102800D03*
X628000Y102800D03*
X855600Y205200D03*
X837600Y205200D03*
D24*
X808800Y495700D03*
X808800Y477700D03*
D25*
X531200Y525800D03*
X549200Y525800D03*
X957600Y352000D03*
X975600Y352000D03*
D24*
X547200Y467600D03*
X547200Y485600D03*
X249700Y145000D03*
X249700Y163000D03*
X161800Y404100D03*
X161800Y386100D03*
X244200Y176300D03*
X244200Y194300D03*
D25*
X887000Y220500D03*
X869000Y220500D03*
D24*
X31500Y704900D03*
X31500Y722900D03*
X326500Y387700D03*
X326500Y369700D03*
X441000Y314800D03*
X441000Y296800D03*
D25*
X326600Y155500D03*
X344600Y155500D03*
X290000Y185000D03*
X308000Y185000D03*
X277100Y100000D03*
X259100Y100000D03*
D26*
X951400Y129900D03*
X951400Y99500D03*
D27*
X863300Y624400D03*
X863300Y637100D03*
X863300Y649800D03*
X863300Y662500D03*
X809300Y624400D03*
X809300Y637100D03*
X809300Y649800D03*
X809300Y662500D03*
D28*
X981675Y419125D02*
X981675Y415675D01*
X961725Y415675D01*
X961725Y419125D01*
X981675Y419125D01*
X981675Y415708D02*
X961725Y415708D01*
X961725Y415741D02*
X981675Y415741D01*
X981675Y415774D02*
X961725Y415774D01*
X961725Y415807D02*
X981675Y415807D01*
X981675Y415840D02*
X961725Y415840D01*
X961725Y415873D02*
X981675Y415873D01*
X981675Y415906D02*
X961725Y415906D01*
X961725Y415939D02*
X981675Y415939D01*
X981675Y415972D02*
X961725Y415972D01*
X961725Y416005D02*
X981675Y416005D01*
X981675Y416038D02*
X961725Y416038D01*
X961725Y416071D02*
X981675Y416071D01*
X981675Y416104D02*
X961725Y416104D01*
X961725Y416137D02*
X981675Y416137D01*
X981675Y416170D02*
X961725Y416170D01*
X961725Y416203D02*
X981675Y416203D01*
X981675Y416236D02*
X961725Y416236D01*
X961725Y416269D02*
X981675Y416269D01*
X981675Y416302D02*
X961725Y416302D01*
X961725Y416335D02*
X981675Y416335D01*
X981675Y416368D02*
X961725Y416368D01*
X961725Y416401D02*
X981675Y416401D01*
X981675Y416434D02*
X961725Y416434D01*
X961725Y416467D02*
X981675Y416467D01*
X981675Y416500D02*
X961725Y416500D01*
X961725Y416533D02*
X981675Y416533D01*
X981675Y416566D02*
X961725Y416566D01*
X961725Y416599D02*
X981675Y416599D01*
X981675Y416632D02*
X961725Y416632D01*
X961725Y416665D02*
X981675Y416665D01*
X981675Y416698D02*
X961725Y416698D01*
X961725Y416731D02*
X981675Y416731D01*
X981675Y416764D02*
X961725Y416764D01*
X961725Y416797D02*
X981675Y416797D01*
X981675Y416830D02*
X961725Y416830D01*
X961725Y416863D02*
X981675Y416863D01*
X981675Y416896D02*
X961725Y416896D01*
X961725Y416929D02*
X981675Y416929D01*
X981675Y416962D02*
X961725Y416962D01*
X961725Y416995D02*
X981675Y416995D01*
X981675Y417028D02*
X961725Y417028D01*
X961725Y417061D02*
X981675Y417061D01*
X981675Y417094D02*
X961725Y417094D01*
X961725Y417127D02*
X981675Y417127D01*
X981675Y417160D02*
X961725Y417160D01*
X961725Y417193D02*
X981675Y417193D01*
X981675Y417226D02*
X961725Y417226D01*
X961725Y417259D02*
X981675Y417259D01*
X981675Y417292D02*
X961725Y417292D01*
X961725Y417325D02*
X981675Y417325D01*
X981675Y417358D02*
X961725Y417358D01*
X961725Y417391D02*
X981675Y417391D01*
X981675Y417424D02*
X961725Y417424D01*
X961725Y417457D02*
X981675Y417457D01*
X981675Y417490D02*
X961725Y417490D01*
X961725Y417523D02*
X981675Y417523D01*
X981675Y417556D02*
X961725Y417556D01*
X961725Y417589D02*
X981675Y417589D01*
X981675Y417622D02*
X961725Y417622D01*
X961725Y417655D02*
X981675Y417655D01*
X981675Y417688D02*
X961725Y417688D01*
X961725Y417721D02*
X981675Y417721D01*
X981675Y417754D02*
X961725Y417754D01*
X961725Y417787D02*
X981675Y417787D01*
X981675Y417820D02*
X961725Y417820D01*
X961725Y417853D02*
X981675Y417853D01*
X981675Y417886D02*
X961725Y417886D01*
X961725Y417919D02*
X981675Y417919D01*
X981675Y417952D02*
X961725Y417952D01*
X961725Y417985D02*
X981675Y417985D01*
X981675Y418018D02*
X961725Y418018D01*
X961725Y418051D02*
X981675Y418051D01*
X981675Y418084D02*
X961725Y418084D01*
X961725Y418117D02*
X981675Y418117D01*
X981675Y418150D02*
X961725Y418150D01*
X961725Y418183D02*
X981675Y418183D01*
X981675Y418216D02*
X961725Y418216D01*
X961725Y418249D02*
X981675Y418249D01*
X981675Y418282D02*
X961725Y418282D01*
X961725Y418315D02*
X981675Y418315D01*
X981675Y418348D02*
X961725Y418348D01*
X961725Y418381D02*
X981675Y418381D01*
X981675Y418414D02*
X961725Y418414D01*
X961725Y418447D02*
X981675Y418447D01*
X981675Y418480D02*
X961725Y418480D01*
X961725Y418513D02*
X981675Y418513D01*
X981675Y418546D02*
X961725Y418546D01*
X961725Y418579D02*
X981675Y418579D01*
X981675Y418612D02*
X961725Y418612D01*
X961725Y418645D02*
X981675Y418645D01*
X981675Y418678D02*
X961725Y418678D01*
X961725Y418711D02*
X981675Y418711D01*
X981675Y418744D02*
X961725Y418744D01*
X961725Y418777D02*
X981675Y418777D01*
X981675Y418810D02*
X961725Y418810D01*
X961725Y418843D02*
X981675Y418843D01*
X981675Y418876D02*
X961725Y418876D01*
X961725Y418909D02*
X981675Y418909D01*
X981675Y418942D02*
X961725Y418942D01*
X961725Y418975D02*
X981675Y418975D01*
X981675Y419008D02*
X961725Y419008D01*
X961725Y419041D02*
X981675Y419041D01*
X981675Y419074D02*
X961725Y419074D01*
X961725Y419107D02*
X981675Y419107D01*
X981675Y412625D02*
X981675Y409175D01*
X961725Y409175D01*
X961725Y412625D01*
X981675Y412625D01*
X981675Y409208D02*
X961725Y409208D01*
X961725Y409241D02*
X981675Y409241D01*
X981675Y409274D02*
X961725Y409274D01*
X961725Y409307D02*
X981675Y409307D01*
X981675Y409340D02*
X961725Y409340D01*
X961725Y409373D02*
X981675Y409373D01*
X981675Y409406D02*
X961725Y409406D01*
X961725Y409439D02*
X981675Y409439D01*
X981675Y409472D02*
X961725Y409472D01*
X961725Y409505D02*
X981675Y409505D01*
X981675Y409538D02*
X961725Y409538D01*
X961725Y409571D02*
X981675Y409571D01*
X981675Y409604D02*
X961725Y409604D01*
X961725Y409637D02*
X981675Y409637D01*
X981675Y409670D02*
X961725Y409670D01*
X961725Y409703D02*
X981675Y409703D01*
X981675Y409736D02*
X961725Y409736D01*
X961725Y409769D02*
X981675Y409769D01*
X981675Y409802D02*
X961725Y409802D01*
X961725Y409835D02*
X981675Y409835D01*
X981675Y409868D02*
X961725Y409868D01*
X961725Y409901D02*
X981675Y409901D01*
X981675Y409934D02*
X961725Y409934D01*
X961725Y409967D02*
X981675Y409967D01*
X981675Y410000D02*
X961725Y410000D01*
X961725Y410033D02*
X981675Y410033D01*
X981675Y410066D02*
X961725Y410066D01*
X961725Y410099D02*
X981675Y410099D01*
X981675Y410132D02*
X961725Y410132D01*
X961725Y410165D02*
X981675Y410165D01*
X981675Y410198D02*
X961725Y410198D01*
X961725Y410231D02*
X981675Y410231D01*
X981675Y410264D02*
X961725Y410264D01*
X961725Y410297D02*
X981675Y410297D01*
X981675Y410330D02*
X961725Y410330D01*
X961725Y410363D02*
X981675Y410363D01*
X981675Y410396D02*
X961725Y410396D01*
X961725Y410429D02*
X981675Y410429D01*
X981675Y410462D02*
X961725Y410462D01*
X961725Y410495D02*
X981675Y410495D01*
X981675Y410528D02*
X961725Y410528D01*
X961725Y410561D02*
X981675Y410561D01*
X981675Y410594D02*
X961725Y410594D01*
X961725Y410627D02*
X981675Y410627D01*
X981675Y410660D02*
X961725Y410660D01*
X961725Y410693D02*
X981675Y410693D01*
X981675Y410726D02*
X961725Y410726D01*
X961725Y410759D02*
X981675Y410759D01*
X981675Y410792D02*
X961725Y410792D01*
X961725Y410825D02*
X981675Y410825D01*
X981675Y410858D02*
X961725Y410858D01*
X961725Y410891D02*
X981675Y410891D01*
X981675Y410924D02*
X961725Y410924D01*
X961725Y410957D02*
X981675Y410957D01*
X981675Y410990D02*
X961725Y410990D01*
X961725Y411023D02*
X981675Y411023D01*
X981675Y411056D02*
X961725Y411056D01*
X961725Y411089D02*
X981675Y411089D01*
X981675Y411122D02*
X961725Y411122D01*
X961725Y411155D02*
X981675Y411155D01*
X981675Y411188D02*
X961725Y411188D01*
X961725Y411221D02*
X981675Y411221D01*
X981675Y411254D02*
X961725Y411254D01*
X961725Y411287D02*
X981675Y411287D01*
X981675Y411320D02*
X961725Y411320D01*
X961725Y411353D02*
X981675Y411353D01*
X981675Y411386D02*
X961725Y411386D01*
X961725Y411419D02*
X981675Y411419D01*
X981675Y411452D02*
X961725Y411452D01*
X961725Y411485D02*
X981675Y411485D01*
X981675Y411518D02*
X961725Y411518D01*
X961725Y411551D02*
X981675Y411551D01*
X981675Y411584D02*
X961725Y411584D01*
X961725Y411617D02*
X981675Y411617D01*
X981675Y411650D02*
X961725Y411650D01*
X961725Y411683D02*
X981675Y411683D01*
X981675Y411716D02*
X961725Y411716D01*
X961725Y411749D02*
X981675Y411749D01*
X981675Y411782D02*
X961725Y411782D01*
X961725Y411815D02*
X981675Y411815D01*
X981675Y411848D02*
X961725Y411848D01*
X961725Y411881D02*
X981675Y411881D01*
X981675Y411914D02*
X961725Y411914D01*
X961725Y411947D02*
X981675Y411947D01*
X981675Y411980D02*
X961725Y411980D01*
X961725Y412013D02*
X981675Y412013D01*
X981675Y412046D02*
X961725Y412046D01*
X961725Y412079D02*
X981675Y412079D01*
X981675Y412112D02*
X961725Y412112D01*
X961725Y412145D02*
X981675Y412145D01*
X981675Y412178D02*
X961725Y412178D01*
X961725Y412211D02*
X981675Y412211D01*
X981675Y412244D02*
X961725Y412244D01*
X961725Y412277D02*
X981675Y412277D01*
X981675Y412310D02*
X961725Y412310D01*
X961725Y412343D02*
X981675Y412343D01*
X981675Y412376D02*
X961725Y412376D01*
X961725Y412409D02*
X981675Y412409D01*
X981675Y412442D02*
X961725Y412442D01*
X961725Y412475D02*
X981675Y412475D01*
X981675Y412508D02*
X961725Y412508D01*
X961725Y412541D02*
X981675Y412541D01*
X981675Y412574D02*
X961725Y412574D01*
X961725Y412607D02*
X981675Y412607D01*
X981675Y422175D02*
X981675Y425625D01*
X981675Y422175D02*
X961725Y422175D01*
X961725Y425625D01*
X981675Y425625D01*
X981675Y422208D02*
X961725Y422208D01*
X961725Y422241D02*
X981675Y422241D01*
X981675Y422274D02*
X961725Y422274D01*
X961725Y422307D02*
X981675Y422307D01*
X981675Y422340D02*
X961725Y422340D01*
X961725Y422373D02*
X981675Y422373D01*
X981675Y422406D02*
X961725Y422406D01*
X961725Y422439D02*
X981675Y422439D01*
X981675Y422472D02*
X961725Y422472D01*
X961725Y422505D02*
X981675Y422505D01*
X981675Y422538D02*
X961725Y422538D01*
X961725Y422571D02*
X981675Y422571D01*
X981675Y422604D02*
X961725Y422604D01*
X961725Y422637D02*
X981675Y422637D01*
X981675Y422670D02*
X961725Y422670D01*
X961725Y422703D02*
X981675Y422703D01*
X981675Y422736D02*
X961725Y422736D01*
X961725Y422769D02*
X981675Y422769D01*
X981675Y422802D02*
X961725Y422802D01*
X961725Y422835D02*
X981675Y422835D01*
X981675Y422868D02*
X961725Y422868D01*
X961725Y422901D02*
X981675Y422901D01*
X981675Y422934D02*
X961725Y422934D01*
X961725Y422967D02*
X981675Y422967D01*
X981675Y423000D02*
X961725Y423000D01*
X961725Y423033D02*
X981675Y423033D01*
X981675Y423066D02*
X961725Y423066D01*
X961725Y423099D02*
X981675Y423099D01*
X981675Y423132D02*
X961725Y423132D01*
X961725Y423165D02*
X981675Y423165D01*
X981675Y423198D02*
X961725Y423198D01*
X961725Y423231D02*
X981675Y423231D01*
X981675Y423264D02*
X961725Y423264D01*
X961725Y423297D02*
X981675Y423297D01*
X981675Y423330D02*
X961725Y423330D01*
X961725Y423363D02*
X981675Y423363D01*
X981675Y423396D02*
X961725Y423396D01*
X961725Y423429D02*
X981675Y423429D01*
X981675Y423462D02*
X961725Y423462D01*
X961725Y423495D02*
X981675Y423495D01*
X981675Y423528D02*
X961725Y423528D01*
X961725Y423561D02*
X981675Y423561D01*
X981675Y423594D02*
X961725Y423594D01*
X961725Y423627D02*
X981675Y423627D01*
X981675Y423660D02*
X961725Y423660D01*
X961725Y423693D02*
X981675Y423693D01*
X981675Y423726D02*
X961725Y423726D01*
X961725Y423759D02*
X981675Y423759D01*
X981675Y423792D02*
X961725Y423792D01*
X961725Y423825D02*
X981675Y423825D01*
X981675Y423858D02*
X961725Y423858D01*
X961725Y423891D02*
X981675Y423891D01*
X981675Y423924D02*
X961725Y423924D01*
X961725Y423957D02*
X981675Y423957D01*
X981675Y423990D02*
X961725Y423990D01*
X961725Y424023D02*
X981675Y424023D01*
X981675Y424056D02*
X961725Y424056D01*
X961725Y424089D02*
X981675Y424089D01*
X981675Y424122D02*
X961725Y424122D01*
X961725Y424155D02*
X981675Y424155D01*
X981675Y424188D02*
X961725Y424188D01*
X961725Y424221D02*
X981675Y424221D01*
X981675Y424254D02*
X961725Y424254D01*
X961725Y424287D02*
X981675Y424287D01*
X981675Y424320D02*
X961725Y424320D01*
X961725Y424353D02*
X981675Y424353D01*
X981675Y424386D02*
X961725Y424386D01*
X961725Y424419D02*
X981675Y424419D01*
X981675Y424452D02*
X961725Y424452D01*
X961725Y424485D02*
X981675Y424485D01*
X981675Y424518D02*
X961725Y424518D01*
X961725Y424551D02*
X981675Y424551D01*
X981675Y424584D02*
X961725Y424584D01*
X961725Y424617D02*
X981675Y424617D01*
X981675Y424650D02*
X961725Y424650D01*
X961725Y424683D02*
X981675Y424683D01*
X981675Y424716D02*
X961725Y424716D01*
X961725Y424749D02*
X981675Y424749D01*
X981675Y424782D02*
X961725Y424782D01*
X961725Y424815D02*
X981675Y424815D01*
X981675Y424848D02*
X961725Y424848D01*
X961725Y424881D02*
X981675Y424881D01*
X981675Y424914D02*
X961725Y424914D01*
X961725Y424947D02*
X981675Y424947D01*
X981675Y424980D02*
X961725Y424980D01*
X961725Y425013D02*
X981675Y425013D01*
X981675Y425046D02*
X961725Y425046D01*
X961725Y425079D02*
X981675Y425079D01*
X981675Y425112D02*
X961725Y425112D01*
X961725Y425145D02*
X981675Y425145D01*
X981675Y425178D02*
X961725Y425178D01*
X961725Y425211D02*
X981675Y425211D01*
X981675Y425244D02*
X961725Y425244D01*
X961725Y425277D02*
X981675Y425277D01*
X981675Y425310D02*
X961725Y425310D01*
X961725Y425343D02*
X981675Y425343D01*
X981675Y425376D02*
X961725Y425376D01*
X961725Y425409D02*
X981675Y425409D01*
X981675Y425442D02*
X961725Y425442D01*
X961725Y425475D02*
X981675Y425475D01*
X981675Y425508D02*
X961725Y425508D01*
X961725Y425541D02*
X981675Y425541D01*
X981675Y425574D02*
X961725Y425574D01*
X961725Y425607D02*
X981675Y425607D01*
X981675Y435175D02*
X981675Y438625D01*
X981675Y435175D02*
X961725Y435175D01*
X961725Y438625D01*
X981675Y438625D01*
X981675Y435208D02*
X961725Y435208D01*
X961725Y435241D02*
X981675Y435241D01*
X981675Y435274D02*
X961725Y435274D01*
X961725Y435307D02*
X981675Y435307D01*
X981675Y435340D02*
X961725Y435340D01*
X961725Y435373D02*
X981675Y435373D01*
X981675Y435406D02*
X961725Y435406D01*
X961725Y435439D02*
X981675Y435439D01*
X981675Y435472D02*
X961725Y435472D01*
X961725Y435505D02*
X981675Y435505D01*
X981675Y435538D02*
X961725Y435538D01*
X961725Y435571D02*
X981675Y435571D01*
X981675Y435604D02*
X961725Y435604D01*
X961725Y435637D02*
X981675Y435637D01*
X981675Y435670D02*
X961725Y435670D01*
X961725Y435703D02*
X981675Y435703D01*
X981675Y435736D02*
X961725Y435736D01*
X961725Y435769D02*
X981675Y435769D01*
X981675Y435802D02*
X961725Y435802D01*
X961725Y435835D02*
X981675Y435835D01*
X981675Y435868D02*
X961725Y435868D01*
X961725Y435901D02*
X981675Y435901D01*
X981675Y435934D02*
X961725Y435934D01*
X961725Y435967D02*
X981675Y435967D01*
X981675Y436000D02*
X961725Y436000D01*
X961725Y436033D02*
X981675Y436033D01*
X981675Y436066D02*
X961725Y436066D01*
X961725Y436099D02*
X981675Y436099D01*
X981675Y436132D02*
X961725Y436132D01*
X961725Y436165D02*
X981675Y436165D01*
X981675Y436198D02*
X961725Y436198D01*
X961725Y436231D02*
X981675Y436231D01*
X981675Y436264D02*
X961725Y436264D01*
X961725Y436297D02*
X981675Y436297D01*
X981675Y436330D02*
X961725Y436330D01*
X961725Y436363D02*
X981675Y436363D01*
X981675Y436396D02*
X961725Y436396D01*
X961725Y436429D02*
X981675Y436429D01*
X981675Y436462D02*
X961725Y436462D01*
X961725Y436495D02*
X981675Y436495D01*
X981675Y436528D02*
X961725Y436528D01*
X961725Y436561D02*
X981675Y436561D01*
X981675Y436594D02*
X961725Y436594D01*
X961725Y436627D02*
X981675Y436627D01*
X981675Y436660D02*
X961725Y436660D01*
X961725Y436693D02*
X981675Y436693D01*
X981675Y436726D02*
X961725Y436726D01*
X961725Y436759D02*
X981675Y436759D01*
X981675Y436792D02*
X961725Y436792D01*
X961725Y436825D02*
X981675Y436825D01*
X981675Y436858D02*
X961725Y436858D01*
X961725Y436891D02*
X981675Y436891D01*
X981675Y436924D02*
X961725Y436924D01*
X961725Y436957D02*
X981675Y436957D01*
X981675Y436990D02*
X961725Y436990D01*
X961725Y437023D02*
X981675Y437023D01*
X981675Y437056D02*
X961725Y437056D01*
X961725Y437089D02*
X981675Y437089D01*
X981675Y437122D02*
X961725Y437122D01*
X961725Y437155D02*
X981675Y437155D01*
X981675Y437188D02*
X961725Y437188D01*
X961725Y437221D02*
X981675Y437221D01*
X981675Y437254D02*
X961725Y437254D01*
X961725Y437287D02*
X981675Y437287D01*
X981675Y437320D02*
X961725Y437320D01*
X961725Y437353D02*
X981675Y437353D01*
X981675Y437386D02*
X961725Y437386D01*
X961725Y437419D02*
X981675Y437419D01*
X981675Y437452D02*
X961725Y437452D01*
X961725Y437485D02*
X981675Y437485D01*
X981675Y437518D02*
X961725Y437518D01*
X961725Y437551D02*
X981675Y437551D01*
X981675Y437584D02*
X961725Y437584D01*
X961725Y437617D02*
X981675Y437617D01*
X981675Y437650D02*
X961725Y437650D01*
X961725Y437683D02*
X981675Y437683D01*
X981675Y437716D02*
X961725Y437716D01*
X961725Y437749D02*
X981675Y437749D01*
X981675Y437782D02*
X961725Y437782D01*
X961725Y437815D02*
X981675Y437815D01*
X981675Y437848D02*
X961725Y437848D01*
X961725Y437881D02*
X981675Y437881D01*
X981675Y437914D02*
X961725Y437914D01*
X961725Y437947D02*
X981675Y437947D01*
X981675Y437980D02*
X961725Y437980D01*
X961725Y438013D02*
X981675Y438013D01*
X981675Y438046D02*
X961725Y438046D01*
X961725Y438079D02*
X981675Y438079D01*
X981675Y438112D02*
X961725Y438112D01*
X961725Y438145D02*
X981675Y438145D01*
X981675Y438178D02*
X961725Y438178D01*
X961725Y438211D02*
X981675Y438211D01*
X981675Y438244D02*
X961725Y438244D01*
X961725Y438277D02*
X981675Y438277D01*
X981675Y438310D02*
X961725Y438310D01*
X961725Y438343D02*
X981675Y438343D01*
X981675Y438376D02*
X961725Y438376D01*
X961725Y438409D02*
X981675Y438409D01*
X981675Y438442D02*
X961725Y438442D01*
X961725Y438475D02*
X981675Y438475D01*
X981675Y438508D02*
X961725Y438508D01*
X961725Y438541D02*
X981675Y438541D01*
X981675Y438574D02*
X961725Y438574D01*
X961725Y438607D02*
X981675Y438607D01*
X981675Y432125D02*
X981675Y428675D01*
X961725Y428675D01*
X961725Y432125D01*
X981675Y432125D01*
X981675Y428708D02*
X961725Y428708D01*
X961725Y428741D02*
X981675Y428741D01*
X981675Y428774D02*
X961725Y428774D01*
X961725Y428807D02*
X981675Y428807D01*
X981675Y428840D02*
X961725Y428840D01*
X961725Y428873D02*
X981675Y428873D01*
X981675Y428906D02*
X961725Y428906D01*
X961725Y428939D02*
X981675Y428939D01*
X981675Y428972D02*
X961725Y428972D01*
X961725Y429005D02*
X981675Y429005D01*
X981675Y429038D02*
X961725Y429038D01*
X961725Y429071D02*
X981675Y429071D01*
X981675Y429104D02*
X961725Y429104D01*
X961725Y429137D02*
X981675Y429137D01*
X981675Y429170D02*
X961725Y429170D01*
X961725Y429203D02*
X981675Y429203D01*
X981675Y429236D02*
X961725Y429236D01*
X961725Y429269D02*
X981675Y429269D01*
X981675Y429302D02*
X961725Y429302D01*
X961725Y429335D02*
X981675Y429335D01*
X981675Y429368D02*
X961725Y429368D01*
X961725Y429401D02*
X981675Y429401D01*
X981675Y429434D02*
X961725Y429434D01*
X961725Y429467D02*
X981675Y429467D01*
X981675Y429500D02*
X961725Y429500D01*
X961725Y429533D02*
X981675Y429533D01*
X981675Y429566D02*
X961725Y429566D01*
X961725Y429599D02*
X981675Y429599D01*
X981675Y429632D02*
X961725Y429632D01*
X961725Y429665D02*
X981675Y429665D01*
X981675Y429698D02*
X961725Y429698D01*
X961725Y429731D02*
X981675Y429731D01*
X981675Y429764D02*
X961725Y429764D01*
X961725Y429797D02*
X981675Y429797D01*
X981675Y429830D02*
X961725Y429830D01*
X961725Y429863D02*
X981675Y429863D01*
X981675Y429896D02*
X961725Y429896D01*
X961725Y429929D02*
X981675Y429929D01*
X981675Y429962D02*
X961725Y429962D01*
X961725Y429995D02*
X981675Y429995D01*
X981675Y430028D02*
X961725Y430028D01*
X961725Y430061D02*
X981675Y430061D01*
X981675Y430094D02*
X961725Y430094D01*
X961725Y430127D02*
X981675Y430127D01*
X981675Y430160D02*
X961725Y430160D01*
X961725Y430193D02*
X981675Y430193D01*
X981675Y430226D02*
X961725Y430226D01*
X961725Y430259D02*
X981675Y430259D01*
X981675Y430292D02*
X961725Y430292D01*
X961725Y430325D02*
X981675Y430325D01*
X981675Y430358D02*
X961725Y430358D01*
X961725Y430391D02*
X981675Y430391D01*
X981675Y430424D02*
X961725Y430424D01*
X961725Y430457D02*
X981675Y430457D01*
X981675Y430490D02*
X961725Y430490D01*
X961725Y430523D02*
X981675Y430523D01*
X981675Y430556D02*
X961725Y430556D01*
X961725Y430589D02*
X981675Y430589D01*
X981675Y430622D02*
X961725Y430622D01*
X961725Y430655D02*
X981675Y430655D01*
X981675Y430688D02*
X961725Y430688D01*
X961725Y430721D02*
X981675Y430721D01*
X981675Y430754D02*
X961725Y430754D01*
X961725Y430787D02*
X981675Y430787D01*
X981675Y430820D02*
X961725Y430820D01*
X961725Y430853D02*
X981675Y430853D01*
X981675Y430886D02*
X961725Y430886D01*
X961725Y430919D02*
X981675Y430919D01*
X981675Y430952D02*
X961725Y430952D01*
X961725Y430985D02*
X981675Y430985D01*
X981675Y431018D02*
X961725Y431018D01*
X961725Y431051D02*
X981675Y431051D01*
X981675Y431084D02*
X961725Y431084D01*
X961725Y431117D02*
X981675Y431117D01*
X981675Y431150D02*
X961725Y431150D01*
X961725Y431183D02*
X981675Y431183D01*
X981675Y431216D02*
X961725Y431216D01*
X961725Y431249D02*
X981675Y431249D01*
X981675Y431282D02*
X961725Y431282D01*
X961725Y431315D02*
X981675Y431315D01*
X981675Y431348D02*
X961725Y431348D01*
X961725Y431381D02*
X981675Y431381D01*
X981675Y431414D02*
X961725Y431414D01*
X961725Y431447D02*
X981675Y431447D01*
X981675Y431480D02*
X961725Y431480D01*
X961725Y431513D02*
X981675Y431513D01*
X981675Y431546D02*
X961725Y431546D01*
X961725Y431579D02*
X981675Y431579D01*
X981675Y431612D02*
X961725Y431612D01*
X961725Y431645D02*
X981675Y431645D01*
X981675Y431678D02*
X961725Y431678D01*
X961725Y431711D02*
X981675Y431711D01*
X981675Y431744D02*
X961725Y431744D01*
X961725Y431777D02*
X981675Y431777D01*
X981675Y431810D02*
X961725Y431810D01*
X961725Y431843D02*
X981675Y431843D01*
X981675Y431876D02*
X961725Y431876D01*
X961725Y431909D02*
X981675Y431909D01*
X981675Y431942D02*
X961725Y431942D01*
X961725Y431975D02*
X981675Y431975D01*
X981675Y432008D02*
X961725Y432008D01*
X961725Y432041D02*
X981675Y432041D01*
X981675Y432074D02*
X961725Y432074D01*
X961725Y432107D02*
X981675Y432107D01*
D29*
X998000Y440600D03*
X998000Y407600D03*
D30*
X413000Y747000D03*
X413000Y734300D03*
X413000Y721600D03*
X413000Y708900D03*
X413000Y696200D03*
X413000Y683500D03*
X413000Y670800D03*
X413000Y658100D03*
X413000Y645400D03*
X413000Y632700D03*
X413000Y620000D03*
X413000Y607300D03*
X413000Y594600D03*
X413000Y581900D03*
D31*
X445850Y567000D03*
X458550Y567000D03*
X471250Y567000D03*
X483950Y567000D03*
X496650Y567000D03*
X509350Y567000D03*
X522050Y567000D03*
X534750Y567000D03*
X547450Y567000D03*
X560150Y567000D03*
D30*
X593000Y581900D03*
X593000Y594600D03*
X593000Y607300D03*
X593000Y620000D03*
X593000Y632700D03*
X593000Y645400D03*
X593000Y658100D03*
X593000Y670800D03*
X593000Y683500D03*
X593000Y696200D03*
X593000Y708900D03*
X593000Y721600D03*
X593000Y734300D03*
X593000Y747000D03*
D32*
X503000Y670000D03*
M02*
