G04 EAGLE Gerber RS-274X export*
G75*
%MOMM*%
%FSLAX34Y34*%
%LPD*%
%INSoldermask Bottom*%
%IPNEG*%
%AMOC8*
5,1,8,0,0,1.08239X$1,22.5*%
G01*
%ADD10C,1.981200*%
%ADD11C,2.286000*%
%ADD12R,1.981200X1.981200*%
%ADD13C,1.625600*%
%ADD14C,1.609600*%
%ADD15C,2.051600*%
%ADD16P,2.144431X8X112.500000*%
%ADD17C,1.409600*%


D10*
X380700Y59900D03*
X406100Y59900D03*
X431500Y59900D03*
X456900Y59900D03*
X482300Y59900D03*
X507700Y59900D03*
D11*
X601200Y521639D03*
X601200Y456361D03*
X80700Y724539D03*
X80700Y659261D03*
D10*
X737400Y383900D03*
X737400Y409300D03*
X737400Y434700D03*
X737400Y460100D03*
X737400Y485500D03*
X737400Y510900D03*
X737400Y536300D03*
X737400Y561700D03*
X737400Y587100D03*
X737400Y612500D03*
X737400Y637900D03*
X737400Y663300D03*
X737400Y688700D03*
X737400Y714100D03*
X47400Y328800D03*
X47400Y354200D03*
X47400Y379600D03*
X47400Y405000D03*
X47400Y430400D03*
X47400Y455800D03*
X910100Y105200D03*
X910100Y79800D03*
D12*
X148200Y631400D03*
D10*
X148200Y656800D03*
X148200Y682200D03*
X148200Y707600D03*
X281200Y535300D03*
X281200Y560700D03*
X281200Y586100D03*
X281200Y611500D03*
X281200Y636900D03*
X281200Y662300D03*
X918000Y323200D03*
X892600Y323200D03*
X138700Y147300D03*
X138700Y172700D03*
X187700Y147100D03*
X187700Y172500D03*
X892400Y369800D03*
X917800Y369800D03*
X867800Y370200D03*
X842400Y370200D03*
X842000Y322300D03*
X867400Y322300D03*
X867700Y247700D03*
X842300Y247700D03*
X547800Y440400D03*
X547800Y415000D03*
D13*
X810700Y140500D03*
D14*
X810700Y93500D03*
D13*
X810700Y46500D03*
D14*
X971250Y448600D03*
X971250Y399100D03*
D15*
X1002000Y389100D03*
X1002000Y459100D03*
D12*
X938200Y642500D03*
D16*
X938200Y667900D03*
X938200Y693300D03*
X963600Y693300D03*
X963600Y667900D03*
X963600Y642500D03*
D11*
X806700Y273439D03*
X806700Y208161D03*
D14*
X700000Y100000D03*
D17*
X240000Y450000D03*
X242000Y217500D03*
X248000Y123000D03*
X302500Y124500D03*
X297500Y52000D03*
D14*
X800000Y550000D03*
D17*
X142000Y237500D03*
X472000Y357500D03*
X182500Y421500D03*
X291000Y458500D03*
X471500Y315500D03*
X520000Y500000D03*
X120000Y380000D03*
X151500Y279500D03*
X370000Y358500D03*
X318500Y293000D03*
D14*
X660000Y50000D03*
M02*
