G04 EAGLE Gerber RS-274X export*
G75*
%MOMM*%
%FSLAX34Y34*%
%LPD*%
%INBottom Copper*%
%IPPOS*%
%AMOC8*
5,1,8,0,0,1.08239X$1,22.5*%
G01*
%ADD10C,1.879600*%
%ADD11C,2.184400*%
%ADD12P,2.034460X8X112.500000*%
%ADD13C,1.508000*%
%ADD14C,1.950000*%
%ADD15P,2.034460X8X292.500000*%
%ADD16C,0.152400*%

G36*
X820090Y249254D02*
X820090Y249254D01*
X820181Y249261D01*
X820211Y249273D01*
X820243Y249279D01*
X820323Y249321D01*
X820407Y249357D01*
X820439Y249383D01*
X820460Y249394D01*
X820482Y249417D01*
X820538Y249462D01*
X825538Y254462D01*
X825591Y254536D01*
X825651Y254605D01*
X825663Y254635D01*
X825682Y254661D01*
X825709Y254748D01*
X825743Y254833D01*
X825747Y254874D01*
X825754Y254897D01*
X825753Y254929D01*
X825761Y255000D01*
X825761Y1000000D01*
X825758Y1000020D01*
X825760Y1000039D01*
X825738Y1000141D01*
X825722Y1000243D01*
X825712Y1000260D01*
X825708Y1000280D01*
X825655Y1000369D01*
X825606Y1000460D01*
X825592Y1000474D01*
X825582Y1000491D01*
X825503Y1000558D01*
X825428Y1000630D01*
X825410Y1000638D01*
X825395Y1000651D01*
X825299Y1000690D01*
X825205Y1000733D01*
X825185Y1000735D01*
X825167Y1000743D01*
X825000Y1000761D01*
X512342Y1000761D01*
X512227Y1000742D01*
X512111Y1000725D01*
X512106Y1000723D01*
X512100Y1000722D01*
X511997Y1000667D01*
X511892Y1000614D01*
X511888Y1000609D01*
X511882Y1000606D01*
X511802Y1000522D01*
X511720Y1000438D01*
X511716Y1000432D01*
X511713Y1000428D01*
X511705Y1000411D01*
X511639Y1000291D01*
X510352Y997185D01*
X507315Y994148D01*
X503347Y992504D01*
X270453Y992504D01*
X266485Y994148D01*
X263448Y997185D01*
X262161Y1000291D01*
X262099Y1000391D01*
X262040Y1000491D01*
X262035Y1000495D01*
X262031Y1000500D01*
X261941Y1000575D01*
X261853Y1000651D01*
X261847Y1000653D01*
X261842Y1000657D01*
X261734Y1000699D01*
X261624Y1000743D01*
X261617Y1000744D01*
X261612Y1000745D01*
X261594Y1000746D01*
X261458Y1000761D01*
X0Y1000761D01*
X-20Y1000758D01*
X-39Y1000760D01*
X-141Y1000738D01*
X-243Y1000722D01*
X-260Y1000712D01*
X-280Y1000708D01*
X-369Y1000655D01*
X-460Y1000606D01*
X-474Y1000592D01*
X-491Y1000582D01*
X-558Y1000503D01*
X-630Y1000428D01*
X-638Y1000410D01*
X-651Y1000395D01*
X-690Y1000299D01*
X-733Y1000205D01*
X-735Y1000185D01*
X-743Y1000167D01*
X-761Y1000000D01*
X-761Y255000D01*
X-747Y254910D01*
X-739Y254819D01*
X-727Y254789D01*
X-722Y254757D01*
X-679Y254677D01*
X-643Y254593D01*
X-617Y254561D01*
X-606Y254540D01*
X-583Y254518D01*
X-538Y254462D01*
X4462Y249462D01*
X4536Y249409D01*
X4605Y249349D01*
X4635Y249337D01*
X4661Y249318D01*
X4748Y249291D01*
X4833Y249257D01*
X4874Y249253D01*
X4897Y249246D01*
X4929Y249247D01*
X5000Y249239D01*
X820000Y249239D01*
X820090Y249254D01*
G37*
%LPC*%
G36*
X412708Y419640D02*
X412708Y419640D01*
X406202Y422335D01*
X404216Y424321D01*
X404122Y424389D01*
X404028Y424459D01*
X404022Y424461D01*
X404017Y424465D01*
X403905Y424499D01*
X403794Y424535D01*
X403787Y424535D01*
X403781Y424537D01*
X403665Y424534D01*
X403548Y424533D01*
X403541Y424531D01*
X403536Y424531D01*
X403518Y424524D01*
X403387Y424486D01*
X399918Y423049D01*
X392876Y423049D01*
X386370Y425744D01*
X381391Y430723D01*
X378696Y437229D01*
X378696Y444271D01*
X381391Y450777D01*
X386370Y455756D01*
X387361Y456166D01*
X387411Y456197D01*
X387466Y456220D01*
X387515Y456262D01*
X387570Y456296D01*
X387608Y456341D01*
X387652Y456380D01*
X387685Y456435D01*
X387727Y456485D01*
X387748Y456541D01*
X387778Y456591D01*
X387803Y456685D01*
X387815Y456715D01*
X387816Y456730D01*
X387822Y456753D01*
X408437Y589900D01*
X408436Y589986D01*
X408444Y590073D01*
X408435Y590109D01*
X408435Y590146D01*
X408406Y590227D01*
X408386Y590312D01*
X408366Y590343D01*
X408354Y590378D01*
X408301Y590447D01*
X408255Y590520D01*
X408226Y590543D01*
X408204Y590573D01*
X408132Y590621D01*
X408065Y590676D01*
X408030Y590689D01*
X407999Y590709D01*
X407916Y590732D01*
X407835Y590762D01*
X407787Y590767D01*
X407762Y590773D01*
X407731Y590772D01*
X407667Y590777D01*
X229973Y586798D01*
X229891Y586782D01*
X229809Y586776D01*
X229771Y586760D01*
X229731Y586752D01*
X229658Y586712D01*
X229582Y586680D01*
X229541Y586646D01*
X229516Y586633D01*
X229496Y586611D01*
X229451Y586575D01*
X229315Y586438D01*
X229284Y586395D01*
X229245Y586358D01*
X229212Y586296D01*
X229172Y586239D01*
X229156Y586188D01*
X229131Y586140D01*
X229120Y586071D01*
X229099Y586004D01*
X229101Y585950D01*
X229092Y585897D01*
X229105Y585787D01*
X229106Y585758D01*
X229109Y585747D01*
X229111Y585730D01*
X247096Y507149D01*
X247108Y507120D01*
X247113Y507088D01*
X247154Y507007D01*
X247189Y506922D01*
X247210Y506897D01*
X247224Y506869D01*
X247290Y506805D01*
X247349Y506735D01*
X247377Y506719D01*
X247400Y506697D01*
X247547Y506616D01*
X249676Y505734D01*
X254655Y500755D01*
X257350Y494249D01*
X257350Y487207D01*
X254655Y480701D01*
X249676Y475722D01*
X243170Y473027D01*
X236128Y473027D01*
X229622Y475722D01*
X225300Y480044D01*
X225284Y480056D01*
X225272Y480071D01*
X225184Y480127D01*
X225101Y480188D01*
X225082Y480193D01*
X225065Y480204D01*
X224964Y480230D01*
X224865Y480260D01*
X224846Y480259D01*
X224826Y480264D01*
X224723Y480256D01*
X224620Y480254D01*
X224601Y480247D01*
X224581Y480245D01*
X224486Y480205D01*
X224389Y480169D01*
X224373Y480157D01*
X224355Y480149D01*
X224224Y480044D01*
X219696Y475516D01*
X213190Y472821D01*
X206148Y472821D01*
X199642Y475516D01*
X194663Y480495D01*
X191968Y487001D01*
X191968Y494043D01*
X193803Y498472D01*
X193827Y498573D01*
X193856Y498673D01*
X193855Y498693D01*
X193859Y498712D01*
X193849Y498815D01*
X193845Y498919D01*
X193837Y498942D01*
X193836Y498957D01*
X193823Y498986D01*
X193793Y499078D01*
X153164Y588631D01*
X153106Y588717D01*
X153052Y588807D01*
X153038Y588819D01*
X153027Y588835D01*
X152945Y588899D01*
X152866Y588967D01*
X152848Y588974D01*
X152833Y588986D01*
X152734Y589020D01*
X152637Y589059D01*
X152614Y589061D01*
X152600Y589066D01*
X152568Y589066D01*
X152471Y589077D01*
X136472Y589077D01*
X136452Y589074D01*
X136433Y589076D01*
X136331Y589054D01*
X136229Y589038D01*
X136212Y589028D01*
X136192Y589024D01*
X136103Y588971D01*
X136012Y588922D01*
X135998Y588908D01*
X135981Y588898D01*
X135914Y588819D01*
X135842Y588744D01*
X135834Y588726D01*
X135821Y588711D01*
X135782Y588615D01*
X135739Y588521D01*
X135737Y588501D01*
X135729Y588483D01*
X135711Y588316D01*
X135711Y573724D01*
X131650Y569663D01*
X131639Y569647D01*
X131623Y569635D01*
X131567Y569547D01*
X131507Y569464D01*
X131501Y569445D01*
X131490Y569428D01*
X131465Y569327D01*
X131435Y569228D01*
X131435Y569209D01*
X131430Y569189D01*
X131438Y569086D01*
X131441Y568983D01*
X131448Y568964D01*
X131449Y568944D01*
X131490Y568849D01*
X131525Y568752D01*
X131538Y568736D01*
X131546Y568718D01*
X131650Y568587D01*
X135711Y564526D01*
X135711Y548324D01*
X131650Y544263D01*
X131639Y544247D01*
X131623Y544235D01*
X131567Y544147D01*
X131507Y544064D01*
X131501Y544045D01*
X131490Y544028D01*
X131465Y543927D01*
X131435Y543828D01*
X131435Y543809D01*
X131430Y543789D01*
X131438Y543686D01*
X131441Y543583D01*
X131448Y543564D01*
X131449Y543544D01*
X131490Y543449D01*
X131525Y543352D01*
X131538Y543336D01*
X131546Y543318D01*
X131650Y543187D01*
X135711Y539126D01*
X135711Y522924D01*
X131650Y518863D01*
X131639Y518847D01*
X131623Y518835D01*
X131567Y518747D01*
X131507Y518664D01*
X131501Y518645D01*
X131490Y518628D01*
X131465Y518527D01*
X131435Y518428D01*
X131435Y518409D01*
X131430Y518389D01*
X131438Y518286D01*
X131441Y518183D01*
X131448Y518164D01*
X131449Y518144D01*
X131490Y518049D01*
X131525Y517952D01*
X131538Y517936D01*
X131546Y517918D01*
X131650Y517787D01*
X135711Y513726D01*
X135711Y497524D01*
X124253Y486066D01*
X108051Y486066D01*
X103990Y490127D01*
X103974Y490138D01*
X103962Y490154D01*
X103874Y490210D01*
X103791Y490270D01*
X103772Y490276D01*
X103755Y490287D01*
X103654Y490312D01*
X103555Y490342D01*
X103536Y490342D01*
X103516Y490347D01*
X103413Y490339D01*
X103310Y490336D01*
X103291Y490329D01*
X103271Y490328D01*
X103176Y490287D01*
X103079Y490252D01*
X103063Y490239D01*
X103045Y490231D01*
X102914Y490127D01*
X98853Y486066D01*
X82651Y486066D01*
X71193Y497524D01*
X71193Y513726D01*
X75254Y517787D01*
X75265Y517803D01*
X75281Y517815D01*
X75337Y517903D01*
X75397Y517986D01*
X75403Y518005D01*
X75414Y518022D01*
X75439Y518123D01*
X75469Y518222D01*
X75469Y518241D01*
X75474Y518261D01*
X75466Y518364D01*
X75463Y518467D01*
X75456Y518486D01*
X75455Y518506D01*
X75414Y518601D01*
X75379Y518698D01*
X75366Y518714D01*
X75358Y518732D01*
X75254Y518863D01*
X71193Y522924D01*
X71193Y539126D01*
X75254Y543187D01*
X75265Y543203D01*
X75281Y543215D01*
X75337Y543303D01*
X75397Y543386D01*
X75403Y543405D01*
X75414Y543422D01*
X75439Y543523D01*
X75469Y543622D01*
X75469Y543641D01*
X75474Y543661D01*
X75466Y543764D01*
X75463Y543867D01*
X75456Y543886D01*
X75455Y543906D01*
X75414Y544001D01*
X75379Y544098D01*
X75366Y544114D01*
X75358Y544132D01*
X75254Y544263D01*
X71193Y548324D01*
X71193Y564526D01*
X75254Y568587D01*
X75265Y568603D01*
X75281Y568615D01*
X75337Y568703D01*
X75397Y568786D01*
X75403Y568805D01*
X75414Y568822D01*
X75439Y568923D01*
X75469Y569022D01*
X75469Y569041D01*
X75474Y569061D01*
X75466Y569164D01*
X75463Y569267D01*
X75456Y569286D01*
X75455Y569306D01*
X75414Y569401D01*
X75379Y569498D01*
X75366Y569514D01*
X75358Y569532D01*
X75254Y569663D01*
X71193Y573724D01*
X71193Y589926D01*
X78944Y597677D01*
X78986Y597736D01*
X79036Y597789D01*
X79058Y597836D01*
X79088Y597877D01*
X79109Y597946D01*
X79139Y598012D01*
X79145Y598063D01*
X79160Y598112D01*
X79158Y598185D01*
X79166Y598257D01*
X79155Y598307D01*
X79154Y598358D01*
X79129Y598426D01*
X79113Y598497D01*
X79087Y598541D01*
X79069Y598589D01*
X79024Y598646D01*
X78986Y598708D01*
X78947Y598741D01*
X78915Y598781D01*
X78854Y598820D01*
X78799Y598867D01*
X78735Y598897D01*
X78708Y598914D01*
X78685Y598920D01*
X78646Y598938D01*
X78029Y599144D01*
X78012Y599146D01*
X77996Y599154D01*
X77830Y599181D01*
X77222Y599215D01*
X75932Y599836D01*
X75902Y599845D01*
X75843Y599872D01*
X74485Y600325D01*
X74024Y600724D01*
X74009Y600733D01*
X73998Y600746D01*
X73855Y600835D01*
X73306Y601099D01*
X72352Y602166D01*
X72328Y602186D01*
X72284Y602234D01*
X71202Y603172D01*
X70929Y603717D01*
X70919Y603731D01*
X70913Y603748D01*
X70816Y603884D01*
X70410Y604339D01*
X69937Y605689D01*
X69922Y605717D01*
X69899Y605778D01*
X69259Y607058D01*
X69216Y607667D01*
X69212Y607683D01*
X69212Y607701D01*
X69175Y607864D01*
X32756Y711832D01*
X32749Y711845D01*
X32746Y711860D01*
X32690Y711953D01*
X32638Y712048D01*
X32627Y712058D01*
X32620Y712071D01*
X32537Y712141D01*
X32458Y712215D01*
X32444Y712221D01*
X32433Y712231D01*
X32332Y712271D01*
X32234Y712316D01*
X32219Y712317D01*
X32204Y712323D01*
X32038Y712341D01*
X29199Y712341D01*
X17741Y723799D01*
X17741Y740001D01*
X21802Y744062D01*
X21813Y744078D01*
X21829Y744090D01*
X21885Y744178D01*
X21945Y744261D01*
X21951Y744280D01*
X21962Y744297D01*
X21987Y744398D01*
X22017Y744497D01*
X22017Y744516D01*
X22022Y744536D01*
X22014Y744639D01*
X22011Y744742D01*
X22004Y744761D01*
X22003Y744781D01*
X21962Y744876D01*
X21927Y744973D01*
X21914Y744989D01*
X21906Y745007D01*
X21802Y745138D01*
X17741Y749199D01*
X17741Y765401D01*
X21802Y769462D01*
X21813Y769478D01*
X21829Y769490D01*
X21885Y769578D01*
X21945Y769661D01*
X21951Y769680D01*
X21962Y769697D01*
X21987Y769798D01*
X22017Y769897D01*
X22017Y769916D01*
X22022Y769936D01*
X22014Y770039D01*
X22011Y770142D01*
X22004Y770161D01*
X22003Y770181D01*
X21962Y770276D01*
X21927Y770373D01*
X21914Y770389D01*
X21906Y770407D01*
X21802Y770538D01*
X17741Y774599D01*
X17741Y790801D01*
X21802Y794862D01*
X21813Y794878D01*
X21829Y794890D01*
X21885Y794978D01*
X21945Y795061D01*
X21951Y795080D01*
X21962Y795097D01*
X21987Y795198D01*
X22017Y795297D01*
X22017Y795316D01*
X22022Y795336D01*
X22014Y795439D01*
X22011Y795542D01*
X22004Y795561D01*
X22003Y795581D01*
X21962Y795676D01*
X21927Y795773D01*
X21914Y795789D01*
X21906Y795807D01*
X21802Y795938D01*
X17741Y799999D01*
X17741Y816201D01*
X29199Y827659D01*
X45401Y827659D01*
X49462Y823598D01*
X49478Y823587D01*
X49490Y823571D01*
X49578Y823515D01*
X49661Y823455D01*
X49680Y823449D01*
X49697Y823438D01*
X49798Y823413D01*
X49897Y823383D01*
X49916Y823383D01*
X49936Y823378D01*
X50039Y823386D01*
X50142Y823389D01*
X50161Y823396D01*
X50181Y823397D01*
X50276Y823438D01*
X50373Y823473D01*
X50389Y823486D01*
X50407Y823494D01*
X50538Y823598D01*
X54599Y827659D01*
X70801Y827659D01*
X82259Y816201D01*
X82259Y799999D01*
X78198Y795938D01*
X78187Y795922D01*
X78171Y795910D01*
X78115Y795822D01*
X78055Y795739D01*
X78049Y795720D01*
X78038Y795703D01*
X78013Y795602D01*
X77983Y795503D01*
X77983Y795484D01*
X77978Y795464D01*
X77986Y795361D01*
X77989Y795258D01*
X77996Y795239D01*
X77997Y795219D01*
X78038Y795124D01*
X78073Y795027D01*
X78086Y795011D01*
X78094Y794993D01*
X78198Y794862D01*
X82259Y790801D01*
X82259Y774599D01*
X78198Y770538D01*
X78187Y770522D01*
X78171Y770510D01*
X78115Y770422D01*
X78055Y770339D01*
X78049Y770320D01*
X78038Y770303D01*
X78013Y770202D01*
X77983Y770103D01*
X77983Y770084D01*
X77978Y770064D01*
X77986Y769961D01*
X77989Y769858D01*
X77996Y769839D01*
X77997Y769819D01*
X78038Y769724D01*
X78073Y769627D01*
X78086Y769611D01*
X78094Y769593D01*
X78198Y769462D01*
X82259Y765401D01*
X82259Y749199D01*
X78198Y745138D01*
X78187Y745122D01*
X78171Y745110D01*
X78115Y745022D01*
X78055Y744939D01*
X78049Y744920D01*
X78038Y744903D01*
X78013Y744802D01*
X77983Y744703D01*
X77983Y744684D01*
X77978Y744664D01*
X77986Y744561D01*
X77989Y744458D01*
X77996Y744439D01*
X77997Y744419D01*
X78038Y744324D01*
X78073Y744227D01*
X78086Y744211D01*
X78094Y744193D01*
X78198Y744062D01*
X82259Y740001D01*
X82259Y723799D01*
X70801Y712341D01*
X56798Y712341D01*
X56774Y712337D01*
X56749Y712340D01*
X56653Y712317D01*
X56555Y712302D01*
X56533Y712290D01*
X56509Y712284D01*
X56425Y712233D01*
X56338Y712186D01*
X56321Y712169D01*
X56300Y712156D01*
X56236Y712080D01*
X56168Y712008D01*
X56158Y711986D01*
X56142Y711967D01*
X56106Y711875D01*
X56065Y711785D01*
X56062Y711761D01*
X56053Y711738D01*
X56049Y711639D01*
X56038Y711541D01*
X56043Y711516D01*
X56042Y711492D01*
X56079Y711328D01*
X88414Y619020D01*
X88422Y619006D01*
X88425Y618990D01*
X88480Y618898D01*
X88532Y618804D01*
X88543Y618793D01*
X88552Y618779D01*
X88633Y618710D01*
X88712Y618637D01*
X88727Y618630D01*
X88739Y618620D01*
X88892Y618550D01*
X89439Y618367D01*
X89458Y618364D01*
X89475Y618356D01*
X89579Y618345D01*
X89682Y618328D01*
X89701Y618331D01*
X89719Y618329D01*
X89821Y618351D01*
X89925Y618368D01*
X89941Y618377D01*
X89960Y618381D01*
X90050Y618435D01*
X90142Y618484D01*
X90155Y618498D01*
X90171Y618508D01*
X90239Y618587D01*
X90311Y618663D01*
X90319Y618680D01*
X90331Y618694D01*
X90370Y618792D01*
X90414Y618886D01*
X90416Y618905D01*
X90423Y618923D01*
X90441Y619089D01*
X90441Y623890D01*
X93419Y631079D01*
X94501Y632162D01*
X94513Y632178D01*
X94529Y632190D01*
X94585Y632278D01*
X94645Y632361D01*
X94651Y632380D01*
X94662Y632397D01*
X94687Y632498D01*
X94717Y632597D01*
X94717Y632616D01*
X94722Y632636D01*
X94714Y632739D01*
X94711Y632842D01*
X94704Y632861D01*
X94703Y632881D01*
X94662Y632976D01*
X94627Y633073D01*
X94614Y633089D01*
X94606Y633107D01*
X94501Y633238D01*
X93419Y634321D01*
X90441Y641510D01*
X90441Y649290D01*
X93419Y656479D01*
X98921Y661981D01*
X101092Y662880D01*
X101185Y662938D01*
X101280Y662992D01*
X101289Y663003D01*
X101301Y663010D01*
X101371Y663094D01*
X101443Y663175D01*
X101449Y663189D01*
X101458Y663200D01*
X101497Y663301D01*
X101540Y663402D01*
X101541Y663416D01*
X101546Y663429D01*
X101551Y663538D01*
X101559Y663647D01*
X101556Y663661D01*
X101557Y663675D01*
X101526Y663780D01*
X101500Y663885D01*
X101491Y663901D01*
X101488Y663911D01*
X101471Y663935D01*
X101417Y664031D01*
X100658Y665075D01*
X99878Y666607D01*
X99346Y668242D01*
X99182Y669277D01*
X108477Y669277D01*
X108477Y665720D01*
X108480Y665700D01*
X108478Y665681D01*
X108500Y665579D01*
X108517Y665477D01*
X108526Y665460D01*
X108530Y665440D01*
X108583Y665351D01*
X108632Y665260D01*
X108646Y665246D01*
X108656Y665229D01*
X108735Y665162D01*
X108810Y665090D01*
X108828Y665082D01*
X108843Y665069D01*
X108939Y665030D01*
X109033Y664987D01*
X109053Y664985D01*
X109071Y664977D01*
X109238Y664959D01*
X110762Y664959D01*
X110782Y664962D01*
X110801Y664960D01*
X110903Y664982D01*
X111005Y664998D01*
X111022Y665008D01*
X111042Y665012D01*
X111131Y665065D01*
X111222Y665114D01*
X111236Y665128D01*
X111253Y665138D01*
X111320Y665217D01*
X111391Y665292D01*
X111400Y665310D01*
X111413Y665325D01*
X111452Y665421D01*
X111495Y665515D01*
X111497Y665535D01*
X111505Y665553D01*
X111523Y665720D01*
X111523Y669277D01*
X120818Y669277D01*
X120654Y668242D01*
X120122Y666607D01*
X119342Y665075D01*
X118583Y664031D01*
X118534Y663934D01*
X118482Y663838D01*
X118479Y663824D01*
X118473Y663811D01*
X118457Y663703D01*
X118438Y663596D01*
X118440Y663582D01*
X118438Y663568D01*
X118458Y663461D01*
X118474Y663353D01*
X118480Y663340D01*
X118483Y663326D01*
X118536Y663231D01*
X118585Y663134D01*
X118596Y663124D01*
X118602Y663111D01*
X118683Y663038D01*
X118761Y662961D01*
X118776Y662953D01*
X118784Y662946D01*
X118811Y662934D01*
X118908Y662880D01*
X121079Y661981D01*
X126581Y656479D01*
X129559Y649290D01*
X129559Y641510D01*
X126581Y634321D01*
X125499Y633238D01*
X125487Y633222D01*
X125471Y633210D01*
X125415Y633122D01*
X125355Y633039D01*
X125349Y633020D01*
X125338Y633003D01*
X125313Y632902D01*
X125283Y632803D01*
X125283Y632784D01*
X125278Y632764D01*
X125286Y632661D01*
X125289Y632558D01*
X125296Y632539D01*
X125297Y632519D01*
X125338Y632424D01*
X125373Y632327D01*
X125386Y632311D01*
X125394Y632293D01*
X125499Y632162D01*
X126581Y631079D01*
X129559Y623890D01*
X129559Y616110D01*
X127846Y611975D01*
X127836Y611931D01*
X127816Y611889D01*
X127808Y611812D01*
X127790Y611736D01*
X127794Y611690D01*
X127789Y611645D01*
X127806Y611568D01*
X127813Y611491D01*
X127832Y611449D01*
X127842Y611404D01*
X127882Y611337D01*
X127913Y611266D01*
X127944Y611232D01*
X127968Y611193D01*
X128027Y611142D01*
X128080Y611085D01*
X128120Y611063D01*
X128155Y611033D01*
X128227Y611004D01*
X128295Y610967D01*
X128340Y610958D01*
X128383Y610941D01*
X128519Y610926D01*
X128537Y610923D01*
X128542Y610924D01*
X128550Y610923D01*
X156649Y610923D01*
X156654Y610924D01*
X156659Y610923D01*
X156776Y610943D01*
X156892Y610962D01*
X156896Y610965D01*
X156901Y610966D01*
X157053Y611038D01*
X221941Y651594D01*
X221982Y651630D01*
X222029Y651658D01*
X222074Y651711D01*
X222126Y651756D01*
X222154Y651803D01*
X222189Y651845D01*
X222215Y651909D01*
X222250Y651969D01*
X222260Y652022D01*
X222281Y652073D01*
X222293Y652181D01*
X222299Y652210D01*
X222297Y652222D01*
X222299Y652240D01*
X222299Y653521D01*
X224994Y660027D01*
X229973Y665006D01*
X236479Y667701D01*
X243521Y667701D01*
X250027Y665006D01*
X255006Y660027D01*
X255756Y658215D01*
X255777Y658182D01*
X255790Y658144D01*
X255841Y658078D01*
X255886Y658006D01*
X255916Y657981D01*
X255940Y657950D01*
X256010Y657903D01*
X256075Y657849D01*
X256112Y657835D01*
X256145Y657813D01*
X256304Y657761D01*
X388545Y630218D01*
X388591Y630216D01*
X388636Y630205D01*
X388713Y630211D01*
X388790Y630207D01*
X388835Y630220D01*
X388881Y630224D01*
X388952Y630254D01*
X389027Y630276D01*
X389065Y630302D01*
X389107Y630320D01*
X389213Y630405D01*
X389229Y630416D01*
X389232Y630420D01*
X389238Y630425D01*
X390404Y631591D01*
X396910Y634286D01*
X403952Y634286D01*
X410458Y631591D01*
X415437Y626612D01*
X416773Y623386D01*
X416835Y623286D01*
X416895Y623186D01*
X416900Y623182D01*
X416903Y623177D01*
X416993Y623102D01*
X417082Y623026D01*
X417087Y623024D01*
X417092Y623020D01*
X417201Y622978D01*
X417310Y622934D01*
X417317Y622933D01*
X417322Y622932D01*
X417340Y622931D01*
X417477Y622916D01*
X434644Y622916D01*
X438658Y621253D01*
X447487Y612424D01*
X449150Y608410D01*
X449150Y469022D01*
X447487Y465007D01*
X431079Y448600D01*
X431068Y448584D01*
X431052Y448571D01*
X430996Y448484D01*
X430936Y448400D01*
X430930Y448381D01*
X430919Y448364D01*
X430894Y448264D01*
X430863Y448165D01*
X430864Y448145D01*
X430859Y448126D01*
X430867Y448023D01*
X430870Y447919D01*
X430877Y447900D01*
X430878Y447881D01*
X430919Y447786D01*
X430954Y447688D01*
X430967Y447672D01*
X430975Y447654D01*
X431079Y447523D01*
X431235Y447368D01*
X433930Y440862D01*
X433930Y433820D01*
X431235Y427314D01*
X426256Y422335D01*
X419750Y419640D01*
X412708Y419640D01*
G37*
%LPD*%
%LPC*%
G36*
X576110Y630441D02*
X576110Y630441D01*
X568921Y633419D01*
X563419Y638921D01*
X560441Y646110D01*
X560441Y653890D01*
X563419Y661079D01*
X564501Y662162D01*
X564513Y662178D01*
X564529Y662190D01*
X564585Y662278D01*
X564645Y662361D01*
X564651Y662380D01*
X564662Y662397D01*
X564687Y662498D01*
X564717Y662597D01*
X564717Y662616D01*
X564722Y662636D01*
X564714Y662739D01*
X564711Y662842D01*
X564704Y662861D01*
X564703Y662881D01*
X564662Y662976D01*
X564627Y663073D01*
X564614Y663089D01*
X564606Y663107D01*
X564501Y663238D01*
X563419Y664321D01*
X560441Y671510D01*
X560441Y679290D01*
X563419Y686479D01*
X564501Y687562D01*
X564513Y687578D01*
X564529Y687590D01*
X564585Y687678D01*
X564645Y687761D01*
X564651Y687780D01*
X564662Y687797D01*
X564687Y687898D01*
X564717Y687997D01*
X564717Y688016D01*
X564722Y688036D01*
X564714Y688139D01*
X564711Y688242D01*
X564704Y688261D01*
X564703Y688281D01*
X564662Y688376D01*
X564627Y688473D01*
X564614Y688489D01*
X564606Y688507D01*
X564501Y688638D01*
X563419Y689721D01*
X560441Y696910D01*
X560441Y704690D01*
X563419Y711879D01*
X564501Y712962D01*
X564513Y712978D01*
X564529Y712990D01*
X564585Y713078D01*
X564645Y713161D01*
X564651Y713180D01*
X564662Y713197D01*
X564687Y713298D01*
X564717Y713397D01*
X564717Y713416D01*
X564722Y713436D01*
X564714Y713539D01*
X564711Y713642D01*
X564704Y713661D01*
X564703Y713681D01*
X564662Y713776D01*
X564627Y713873D01*
X564614Y713889D01*
X564606Y713907D01*
X564501Y714038D01*
X563419Y715121D01*
X560441Y722310D01*
X560441Y730090D01*
X563419Y737279D01*
X564501Y738362D01*
X564513Y738378D01*
X564529Y738390D01*
X564585Y738478D01*
X564645Y738561D01*
X564651Y738580D01*
X564662Y738597D01*
X564687Y738698D01*
X564717Y738797D01*
X564717Y738816D01*
X564722Y738836D01*
X564714Y738939D01*
X564711Y739042D01*
X564704Y739061D01*
X564703Y739081D01*
X564662Y739176D01*
X564627Y739273D01*
X564614Y739289D01*
X564606Y739307D01*
X564501Y739438D01*
X563419Y740521D01*
X560441Y747710D01*
X560441Y755490D01*
X563419Y762679D01*
X564501Y763762D01*
X564513Y763778D01*
X564529Y763790D01*
X564585Y763878D01*
X564645Y763961D01*
X564651Y763980D01*
X564662Y763997D01*
X564687Y764098D01*
X564717Y764197D01*
X564717Y764216D01*
X564722Y764236D01*
X564714Y764339D01*
X564711Y764442D01*
X564704Y764461D01*
X564703Y764481D01*
X564662Y764576D01*
X564627Y764673D01*
X564614Y764689D01*
X564606Y764707D01*
X564501Y764838D01*
X563419Y765921D01*
X560441Y773110D01*
X560441Y780890D01*
X563419Y788079D01*
X564501Y789162D01*
X564513Y789178D01*
X564529Y789190D01*
X564585Y789278D01*
X564645Y789361D01*
X564651Y789380D01*
X564662Y789397D01*
X564687Y789498D01*
X564717Y789597D01*
X564717Y789616D01*
X564722Y789636D01*
X564714Y789739D01*
X564711Y789842D01*
X564704Y789861D01*
X564703Y789881D01*
X564662Y789976D01*
X564627Y790073D01*
X564614Y790089D01*
X564606Y790107D01*
X564520Y790215D01*
X564519Y790217D01*
X564518Y790218D01*
X564501Y790238D01*
X563419Y791321D01*
X560441Y798510D01*
X560441Y806290D01*
X563419Y813479D01*
X564501Y814562D01*
X564513Y814578D01*
X564529Y814590D01*
X564585Y814678D01*
X564645Y814761D01*
X564651Y814780D01*
X564662Y814797D01*
X564687Y814898D01*
X564717Y814997D01*
X564717Y815016D01*
X564722Y815036D01*
X564714Y815139D01*
X564711Y815242D01*
X564704Y815261D01*
X564703Y815281D01*
X564662Y815376D01*
X564627Y815473D01*
X564614Y815489D01*
X564606Y815507D01*
X564501Y815638D01*
X563419Y816721D01*
X560441Y823910D01*
X560441Y831690D01*
X563419Y838879D01*
X564501Y839962D01*
X564513Y839978D01*
X564529Y839990D01*
X564585Y840078D01*
X564645Y840161D01*
X564651Y840180D01*
X564662Y840197D01*
X564687Y840298D01*
X564717Y840397D01*
X564717Y840416D01*
X564722Y840436D01*
X564714Y840539D01*
X564711Y840642D01*
X564704Y840661D01*
X564703Y840681D01*
X564662Y840776D01*
X564627Y840873D01*
X564614Y840889D01*
X564606Y840907D01*
X564501Y841038D01*
X563419Y842121D01*
X560441Y849310D01*
X560441Y857090D01*
X563419Y864279D01*
X564501Y865362D01*
X564513Y865378D01*
X564529Y865390D01*
X564585Y865478D01*
X564645Y865561D01*
X564651Y865580D01*
X564662Y865597D01*
X564687Y865698D01*
X564717Y865797D01*
X564717Y865816D01*
X564722Y865836D01*
X564714Y865939D01*
X564711Y866042D01*
X564704Y866061D01*
X564703Y866081D01*
X564662Y866176D01*
X564627Y866273D01*
X564614Y866289D01*
X564606Y866307D01*
X564501Y866438D01*
X563419Y867521D01*
X560441Y874710D01*
X560441Y882490D01*
X563419Y889679D01*
X564501Y890762D01*
X564513Y890778D01*
X564529Y890790D01*
X564585Y890878D01*
X564645Y890961D01*
X564651Y890980D01*
X564662Y890997D01*
X564687Y891098D01*
X564717Y891197D01*
X564717Y891216D01*
X564722Y891236D01*
X564714Y891339D01*
X564711Y891442D01*
X564704Y891461D01*
X564703Y891481D01*
X564662Y891576D01*
X564627Y891673D01*
X564614Y891689D01*
X564606Y891707D01*
X564501Y891838D01*
X563419Y892921D01*
X560441Y900110D01*
X560441Y907890D01*
X563419Y915079D01*
X564501Y916162D01*
X564513Y916178D01*
X564529Y916190D01*
X564585Y916278D01*
X564645Y916361D01*
X564651Y916380D01*
X564662Y916397D01*
X564687Y916498D01*
X564717Y916597D01*
X564717Y916616D01*
X564722Y916636D01*
X564714Y916739D01*
X564711Y916842D01*
X564704Y916861D01*
X564703Y916881D01*
X564662Y916976D01*
X564627Y917073D01*
X564614Y917089D01*
X564606Y917107D01*
X564501Y917238D01*
X563419Y918321D01*
X560441Y925510D01*
X560441Y933290D01*
X563419Y940479D01*
X564501Y941562D01*
X564513Y941578D01*
X564529Y941590D01*
X564585Y941678D01*
X564645Y941761D01*
X564651Y941780D01*
X564662Y941797D01*
X564687Y941898D01*
X564717Y941997D01*
X564717Y942016D01*
X564722Y942036D01*
X564714Y942139D01*
X564711Y942242D01*
X564704Y942261D01*
X564703Y942281D01*
X564662Y942376D01*
X564627Y942473D01*
X564614Y942489D01*
X564606Y942507D01*
X564501Y942638D01*
X563419Y943721D01*
X560441Y950910D01*
X560441Y958690D01*
X563419Y965879D01*
X568921Y971381D01*
X571092Y972280D01*
X571185Y972338D01*
X571280Y972392D01*
X571289Y972403D01*
X571301Y972410D01*
X571371Y972494D01*
X571443Y972575D01*
X571449Y972589D01*
X571458Y972600D01*
X571497Y972701D01*
X571540Y972802D01*
X571541Y972816D01*
X571546Y972829D01*
X571551Y972938D01*
X571559Y973047D01*
X571556Y973061D01*
X571557Y973075D01*
X571526Y973180D01*
X571500Y973285D01*
X571491Y973301D01*
X571488Y973311D01*
X571471Y973335D01*
X571417Y973431D01*
X570658Y974475D01*
X569878Y976007D01*
X569346Y977642D01*
X569182Y978677D01*
X579238Y978677D01*
X579258Y978680D01*
X579277Y978678D01*
X579379Y978700D01*
X579481Y978717D01*
X579498Y978726D01*
X579518Y978730D01*
X579607Y978783D01*
X579698Y978832D01*
X579712Y978846D01*
X579729Y978856D01*
X579796Y978935D01*
X579867Y979010D01*
X579876Y979028D01*
X579889Y979043D01*
X579927Y979139D01*
X579971Y979233D01*
X579973Y979253D01*
X579981Y979271D01*
X579999Y979438D01*
X579999Y980201D01*
X580001Y980201D01*
X580001Y979438D01*
X580004Y979418D01*
X580002Y979399D01*
X580024Y979297D01*
X580041Y979195D01*
X580050Y979178D01*
X580054Y979158D01*
X580107Y979069D01*
X580156Y978978D01*
X580170Y978964D01*
X580180Y978947D01*
X580259Y978880D01*
X580334Y978809D01*
X580352Y978800D01*
X580367Y978787D01*
X580463Y978748D01*
X580557Y978705D01*
X580577Y978703D01*
X580595Y978695D01*
X580762Y978677D01*
X590818Y978677D01*
X590654Y977642D01*
X590122Y976007D01*
X589342Y974475D01*
X588583Y973431D01*
X588534Y973334D01*
X588482Y973238D01*
X588479Y973224D01*
X588473Y973211D01*
X588457Y973103D01*
X588438Y972996D01*
X588440Y972982D01*
X588438Y972968D01*
X588458Y972861D01*
X588474Y972753D01*
X588480Y972740D01*
X588483Y972726D01*
X588536Y972631D01*
X588585Y972534D01*
X588596Y972524D01*
X588602Y972511D01*
X588683Y972438D01*
X588761Y972361D01*
X588776Y972353D01*
X588784Y972346D01*
X588811Y972334D01*
X588908Y972280D01*
X591079Y971381D01*
X596581Y965879D01*
X599559Y958690D01*
X599559Y950910D01*
X596581Y943721D01*
X595499Y942638D01*
X595487Y942622D01*
X595471Y942610D01*
X595415Y942522D01*
X595355Y942439D01*
X595349Y942420D01*
X595338Y942403D01*
X595313Y942302D01*
X595283Y942203D01*
X595283Y942184D01*
X595278Y942164D01*
X595286Y942061D01*
X595289Y941958D01*
X595296Y941939D01*
X595297Y941919D01*
X595338Y941824D01*
X595373Y941727D01*
X595386Y941711D01*
X595394Y941693D01*
X595499Y941562D01*
X596581Y940479D01*
X599559Y933290D01*
X599559Y925510D01*
X596581Y918321D01*
X595499Y917238D01*
X595487Y917222D01*
X595471Y917210D01*
X595415Y917122D01*
X595355Y917039D01*
X595349Y917020D01*
X595338Y917003D01*
X595313Y916902D01*
X595283Y916803D01*
X595283Y916784D01*
X595278Y916764D01*
X595286Y916661D01*
X595289Y916558D01*
X595296Y916539D01*
X595297Y916519D01*
X595338Y916424D01*
X595373Y916327D01*
X595386Y916311D01*
X595394Y916293D01*
X595499Y916162D01*
X596581Y915079D01*
X599559Y907890D01*
X599559Y900110D01*
X596581Y892921D01*
X595499Y891838D01*
X595487Y891822D01*
X595471Y891810D01*
X595415Y891722D01*
X595355Y891639D01*
X595349Y891620D01*
X595338Y891603D01*
X595313Y891502D01*
X595283Y891403D01*
X595283Y891384D01*
X595278Y891364D01*
X595286Y891261D01*
X595289Y891158D01*
X595296Y891139D01*
X595297Y891119D01*
X595338Y891024D01*
X595373Y890927D01*
X595386Y890911D01*
X595394Y890893D01*
X595499Y890762D01*
X596581Y889679D01*
X599559Y882490D01*
X599559Y874710D01*
X596581Y867521D01*
X595499Y866438D01*
X595487Y866422D01*
X595471Y866410D01*
X595415Y866322D01*
X595355Y866239D01*
X595349Y866220D01*
X595338Y866203D01*
X595313Y866102D01*
X595283Y866003D01*
X595283Y865984D01*
X595278Y865964D01*
X595286Y865861D01*
X595289Y865758D01*
X595296Y865739D01*
X595297Y865719D01*
X595338Y865624D01*
X595373Y865527D01*
X595386Y865511D01*
X595394Y865493D01*
X595499Y865362D01*
X596581Y864279D01*
X599559Y857090D01*
X599559Y849310D01*
X596581Y842121D01*
X595499Y841038D01*
X595487Y841022D01*
X595471Y841010D01*
X595415Y840922D01*
X595355Y840839D01*
X595349Y840820D01*
X595338Y840803D01*
X595313Y840702D01*
X595283Y840603D01*
X595283Y840584D01*
X595278Y840564D01*
X595286Y840461D01*
X595289Y840358D01*
X595296Y840339D01*
X595297Y840319D01*
X595338Y840224D01*
X595373Y840127D01*
X595386Y840111D01*
X595394Y840093D01*
X595499Y839962D01*
X596581Y838879D01*
X599559Y831690D01*
X599559Y823910D01*
X596581Y816721D01*
X595499Y815638D01*
X595487Y815622D01*
X595471Y815610D01*
X595415Y815522D01*
X595355Y815439D01*
X595349Y815420D01*
X595338Y815403D01*
X595313Y815302D01*
X595283Y815203D01*
X595283Y815184D01*
X595278Y815164D01*
X595286Y815061D01*
X595289Y814958D01*
X595296Y814939D01*
X595297Y814919D01*
X595338Y814824D01*
X595373Y814727D01*
X595386Y814711D01*
X595394Y814693D01*
X595499Y814562D01*
X596581Y813479D01*
X599559Y806290D01*
X599559Y798510D01*
X596581Y791321D01*
X595499Y790238D01*
X595487Y790222D01*
X595471Y790210D01*
X595440Y790161D01*
X595434Y790154D01*
X595428Y790142D01*
X595415Y790122D01*
X595355Y790039D01*
X595349Y790020D01*
X595338Y790003D01*
X595313Y789902D01*
X595283Y789803D01*
X595283Y789784D01*
X595278Y789764D01*
X595286Y789661D01*
X595289Y789558D01*
X595296Y789539D01*
X595297Y789519D01*
X595338Y789424D01*
X595373Y789327D01*
X595386Y789311D01*
X595394Y789293D01*
X595499Y789162D01*
X596581Y788079D01*
X599559Y780890D01*
X599559Y773110D01*
X596581Y765921D01*
X595499Y764838D01*
X595487Y764822D01*
X595471Y764810D01*
X595415Y764722D01*
X595355Y764639D01*
X595349Y764620D01*
X595338Y764603D01*
X595313Y764502D01*
X595283Y764403D01*
X595283Y764384D01*
X595278Y764364D01*
X595286Y764261D01*
X595289Y764158D01*
X595296Y764139D01*
X595297Y764119D01*
X595338Y764024D01*
X595373Y763927D01*
X595386Y763911D01*
X595394Y763893D01*
X595499Y763762D01*
X596581Y762679D01*
X599559Y755490D01*
X599559Y747710D01*
X596581Y740521D01*
X595499Y739438D01*
X595487Y739422D01*
X595471Y739410D01*
X595415Y739322D01*
X595355Y739239D01*
X595349Y739220D01*
X595338Y739203D01*
X595313Y739102D01*
X595283Y739003D01*
X595283Y738984D01*
X595278Y738964D01*
X595286Y738861D01*
X595289Y738758D01*
X595296Y738739D01*
X595297Y738719D01*
X595338Y738624D01*
X595373Y738527D01*
X595386Y738511D01*
X595394Y738493D01*
X595499Y738362D01*
X596581Y737279D01*
X599559Y730090D01*
X599559Y722310D01*
X596581Y715121D01*
X595499Y714038D01*
X595487Y714022D01*
X595471Y714010D01*
X595415Y713922D01*
X595355Y713839D01*
X595349Y713820D01*
X595338Y713803D01*
X595313Y713702D01*
X595283Y713603D01*
X595283Y713584D01*
X595278Y713564D01*
X595286Y713461D01*
X595289Y713358D01*
X595296Y713339D01*
X595297Y713319D01*
X595338Y713224D01*
X595373Y713127D01*
X595386Y713111D01*
X595394Y713093D01*
X595499Y712962D01*
X596581Y711879D01*
X599559Y704690D01*
X599559Y696910D01*
X596581Y689721D01*
X595499Y688638D01*
X595487Y688622D01*
X595471Y688610D01*
X595415Y688522D01*
X595355Y688439D01*
X595349Y688420D01*
X595338Y688403D01*
X595313Y688302D01*
X595283Y688203D01*
X595283Y688184D01*
X595278Y688164D01*
X595286Y688061D01*
X595289Y687958D01*
X595296Y687939D01*
X595297Y687919D01*
X595338Y687824D01*
X595373Y687727D01*
X595386Y687711D01*
X595394Y687693D01*
X595499Y687562D01*
X596581Y686479D01*
X599559Y679290D01*
X599559Y671510D01*
X596581Y664321D01*
X595499Y663238D01*
X595487Y663222D01*
X595471Y663210D01*
X595415Y663122D01*
X595355Y663039D01*
X595349Y663020D01*
X595338Y663003D01*
X595313Y662902D01*
X595283Y662803D01*
X595283Y662784D01*
X595278Y662764D01*
X595286Y662661D01*
X595289Y662558D01*
X595296Y662539D01*
X595297Y662519D01*
X595338Y662424D01*
X595373Y662327D01*
X595386Y662311D01*
X595394Y662293D01*
X595499Y662162D01*
X596581Y661079D01*
X599559Y653890D01*
X599559Y646110D01*
X596581Y638921D01*
X591079Y633419D01*
X583890Y630441D01*
X576110Y630441D01*
G37*
%LPD*%
%LPC*%
G36*
X714010Y793541D02*
X714010Y793541D01*
X706821Y796519D01*
X701319Y802021D01*
X698341Y809210D01*
X698341Y816990D01*
X701319Y824179D01*
X702401Y825262D01*
X702413Y825278D01*
X702429Y825290D01*
X702485Y825378D01*
X702545Y825461D01*
X702551Y825480D01*
X702562Y825497D01*
X702587Y825598D01*
X702617Y825697D01*
X702617Y825716D01*
X702622Y825736D01*
X702614Y825839D01*
X702611Y825942D01*
X702604Y825961D01*
X702603Y825981D01*
X702562Y826076D01*
X702527Y826173D01*
X702514Y826189D01*
X702506Y826207D01*
X702401Y826338D01*
X701319Y827421D01*
X698341Y834610D01*
X698341Y842390D01*
X701319Y849579D01*
X706821Y855081D01*
X714010Y858059D01*
X721790Y858059D01*
X728979Y855081D01*
X730062Y853999D01*
X730078Y853987D01*
X730090Y853971D01*
X730178Y853915D01*
X730261Y853855D01*
X730280Y853849D01*
X730297Y853838D01*
X730398Y853813D01*
X730497Y853783D01*
X730516Y853783D01*
X730536Y853778D01*
X730639Y853786D01*
X730742Y853789D01*
X730761Y853796D01*
X730781Y853797D01*
X730876Y853838D01*
X730973Y853873D01*
X730989Y853886D01*
X731007Y853894D01*
X731138Y853999D01*
X732221Y855081D01*
X739410Y858059D01*
X747096Y858059D01*
X747186Y858073D01*
X747277Y858081D01*
X747307Y858093D01*
X747339Y858098D01*
X747420Y858141D01*
X747504Y858177D01*
X747536Y858203D01*
X747556Y858214D01*
X747579Y858237D01*
X747635Y858282D01*
X748854Y859501D01*
X748907Y859575D01*
X748967Y859645D01*
X748979Y859675D01*
X748998Y859701D01*
X749025Y859788D01*
X749059Y859873D01*
X749063Y859914D01*
X749070Y859936D01*
X749069Y859968D01*
X749077Y860040D01*
X749077Y873578D01*
X749070Y873623D01*
X749072Y873669D01*
X749050Y873744D01*
X749038Y873820D01*
X749016Y873861D01*
X749003Y873905D01*
X748959Y873969D01*
X748922Y874038D01*
X748889Y874069D01*
X748863Y874107D01*
X748801Y874154D01*
X748744Y874207D01*
X748702Y874226D01*
X748666Y874254D01*
X748592Y874278D01*
X748521Y874311D01*
X748475Y874316D01*
X748432Y874330D01*
X748354Y874329D01*
X748277Y874338D01*
X748232Y874328D01*
X748186Y874328D01*
X748054Y874290D01*
X748036Y874286D01*
X748032Y874283D01*
X748025Y874281D01*
X744790Y872941D01*
X737010Y872941D01*
X729821Y875919D01*
X724319Y881421D01*
X721341Y888610D01*
X721341Y896390D01*
X724319Y903579D01*
X725401Y904662D01*
X725413Y904678D01*
X725429Y904690D01*
X725485Y904778D01*
X725545Y904861D01*
X725551Y904880D01*
X725562Y904897D01*
X725587Y904998D01*
X725617Y905097D01*
X725617Y905116D01*
X725622Y905136D01*
X725614Y905239D01*
X725611Y905342D01*
X725604Y905361D01*
X725603Y905381D01*
X725562Y905476D01*
X725527Y905573D01*
X725514Y905589D01*
X725506Y905607D01*
X725401Y905738D01*
X724319Y906821D01*
X721341Y914010D01*
X721341Y921790D01*
X724319Y928979D01*
X729821Y934481D01*
X731992Y935380D01*
X732085Y935438D01*
X732180Y935492D01*
X732189Y935503D01*
X732201Y935510D01*
X732271Y935595D01*
X732343Y935675D01*
X732349Y935688D01*
X732358Y935700D01*
X732397Y935802D01*
X732440Y935902D01*
X732441Y935916D01*
X732446Y935929D01*
X732451Y936038D01*
X732459Y936147D01*
X732456Y936161D01*
X732457Y936175D01*
X732426Y936280D01*
X732400Y936385D01*
X732391Y936401D01*
X732388Y936411D01*
X732371Y936435D01*
X732317Y936531D01*
X731558Y937575D01*
X730778Y939107D01*
X730246Y940742D01*
X730082Y941777D01*
X740138Y941777D01*
X740158Y941780D01*
X740177Y941778D01*
X740279Y941800D01*
X740381Y941817D01*
X740398Y941826D01*
X740418Y941830D01*
X740507Y941883D01*
X740598Y941932D01*
X740612Y941946D01*
X740629Y941956D01*
X740696Y942035D01*
X740767Y942110D01*
X740776Y942128D01*
X740789Y942143D01*
X740827Y942239D01*
X740871Y942333D01*
X740873Y942353D01*
X740881Y942371D01*
X740899Y942538D01*
X740899Y943301D01*
X740901Y943301D01*
X740901Y942538D01*
X740904Y942518D01*
X740902Y942499D01*
X740924Y942397D01*
X740941Y942295D01*
X740950Y942278D01*
X740954Y942258D01*
X741007Y942169D01*
X741056Y942078D01*
X741070Y942064D01*
X741080Y942047D01*
X741159Y941980D01*
X741234Y941909D01*
X741252Y941900D01*
X741267Y941887D01*
X741363Y941848D01*
X741457Y941805D01*
X741477Y941803D01*
X741495Y941795D01*
X741662Y941777D01*
X751718Y941777D01*
X751554Y940742D01*
X751022Y939107D01*
X750242Y937575D01*
X749483Y936531D01*
X749434Y936434D01*
X749382Y936338D01*
X749379Y936324D01*
X749373Y936311D01*
X749358Y936204D01*
X749338Y936096D01*
X749340Y936082D01*
X749338Y936068D01*
X749358Y935961D01*
X749374Y935853D01*
X749380Y935840D01*
X749383Y935826D01*
X749436Y935731D01*
X749485Y935634D01*
X749496Y935624D01*
X749502Y935611D01*
X749583Y935538D01*
X749661Y935461D01*
X749676Y935453D01*
X749684Y935446D01*
X749711Y935434D01*
X749808Y935380D01*
X751979Y934481D01*
X757481Y928979D01*
X760459Y921790D01*
X760459Y914104D01*
X760473Y914014D01*
X760481Y913923D01*
X760493Y913893D01*
X760498Y913861D01*
X760541Y913780D01*
X760577Y913696D01*
X760603Y913664D01*
X760614Y913644D01*
X760637Y913621D01*
X760682Y913565D01*
X769260Y904987D01*
X770923Y900973D01*
X770923Y853027D01*
X769260Y849013D01*
X763082Y842835D01*
X763029Y842761D01*
X762969Y842691D01*
X762957Y842661D01*
X762938Y842635D01*
X762911Y842548D01*
X762877Y842463D01*
X762873Y842422D01*
X762866Y842400D01*
X762867Y842368D01*
X762859Y842296D01*
X762859Y834610D01*
X759881Y827421D01*
X754379Y821919D01*
X752208Y821020D01*
X752115Y820962D01*
X752020Y820908D01*
X752011Y820897D01*
X751999Y820890D01*
X751929Y820806D01*
X751857Y820725D01*
X751851Y820711D01*
X751842Y820700D01*
X751803Y820599D01*
X751760Y820498D01*
X751759Y820484D01*
X751754Y820471D01*
X751749Y820362D01*
X751741Y820253D01*
X751744Y820239D01*
X751743Y820225D01*
X751774Y820120D01*
X751800Y820015D01*
X751809Y819999D01*
X751812Y819989D01*
X751829Y819965D01*
X751883Y819869D01*
X752642Y818825D01*
X753422Y817293D01*
X753954Y815658D01*
X754118Y814623D01*
X744062Y814623D01*
X744042Y814620D01*
X744023Y814622D01*
X743921Y814600D01*
X743819Y814583D01*
X743802Y814574D01*
X743782Y814570D01*
X743693Y814517D01*
X743602Y814468D01*
X743588Y814454D01*
X743571Y814444D01*
X743504Y814365D01*
X743433Y814290D01*
X743424Y814272D01*
X743411Y814257D01*
X743373Y814161D01*
X743329Y814067D01*
X743327Y814047D01*
X743319Y814029D01*
X743301Y813862D01*
X743301Y813099D01*
X742538Y813099D01*
X742518Y813096D01*
X742499Y813098D01*
X742397Y813076D01*
X742295Y813059D01*
X742278Y813050D01*
X742258Y813046D01*
X742169Y812993D01*
X742078Y812944D01*
X742064Y812930D01*
X742047Y812920D01*
X741980Y812841D01*
X741909Y812766D01*
X741900Y812748D01*
X741887Y812733D01*
X741848Y812637D01*
X741805Y812543D01*
X741803Y812523D01*
X741795Y812505D01*
X741777Y812338D01*
X741777Y802282D01*
X740742Y802446D01*
X739107Y802978D01*
X737575Y803758D01*
X736531Y804517D01*
X736434Y804566D01*
X736338Y804618D01*
X736324Y804621D01*
X736311Y804627D01*
X736203Y804643D01*
X736096Y804662D01*
X736082Y804660D01*
X736068Y804662D01*
X735961Y804642D01*
X735853Y804626D01*
X735840Y804620D01*
X735826Y804617D01*
X735731Y804564D01*
X735634Y804515D01*
X735624Y804504D01*
X735611Y804498D01*
X735538Y804417D01*
X735461Y804339D01*
X735453Y804324D01*
X735446Y804316D01*
X735434Y804289D01*
X735380Y804192D01*
X734481Y802021D01*
X728979Y796519D01*
X721790Y793541D01*
X714010Y793541D01*
G37*
%LPD*%
%LPC*%
G36*
X109999Y670799D02*
X109999Y670799D01*
X109999Y671562D01*
X109996Y671582D01*
X109998Y671601D01*
X109976Y671703D01*
X109959Y671805D01*
X109950Y671822D01*
X109946Y671842D01*
X109893Y671931D01*
X109844Y672022D01*
X109830Y672036D01*
X109820Y672053D01*
X109741Y672120D01*
X109666Y672191D01*
X109648Y672200D01*
X109633Y672213D01*
X109537Y672252D01*
X109443Y672295D01*
X109423Y672297D01*
X109405Y672305D01*
X109238Y672323D01*
X99182Y672323D01*
X99346Y673358D01*
X99878Y674993D01*
X100658Y676525D01*
X101417Y677569D01*
X101466Y677666D01*
X101518Y677762D01*
X101521Y677776D01*
X101527Y677789D01*
X101543Y677897D01*
X101562Y678004D01*
X101560Y678018D01*
X101562Y678032D01*
X101542Y678139D01*
X101526Y678247D01*
X101520Y678260D01*
X101517Y678274D01*
X101464Y678369D01*
X101415Y678466D01*
X101404Y678476D01*
X101398Y678489D01*
X101317Y678562D01*
X101239Y678639D01*
X101224Y678647D01*
X101216Y678654D01*
X101189Y678666D01*
X101092Y678720D01*
X98921Y679619D01*
X93419Y685121D01*
X90441Y692310D01*
X90441Y700090D01*
X93419Y707279D01*
X94501Y708362D01*
X94513Y708378D01*
X94529Y708390D01*
X94585Y708478D01*
X94645Y708561D01*
X94651Y708580D01*
X94662Y708597D01*
X94687Y708698D01*
X94717Y708797D01*
X94717Y708816D01*
X94722Y708836D01*
X94714Y708939D01*
X94711Y709042D01*
X94704Y709061D01*
X94703Y709081D01*
X94662Y709176D01*
X94627Y709273D01*
X94614Y709289D01*
X94606Y709307D01*
X94501Y709438D01*
X93419Y710521D01*
X90441Y717710D01*
X90441Y725490D01*
X93419Y732679D01*
X94501Y733762D01*
X94513Y733778D01*
X94529Y733790D01*
X94585Y733878D01*
X94645Y733961D01*
X94651Y733980D01*
X94662Y733997D01*
X94687Y734098D01*
X94717Y734197D01*
X94717Y734216D01*
X94722Y734236D01*
X94714Y734339D01*
X94711Y734442D01*
X94704Y734461D01*
X94703Y734481D01*
X94662Y734576D01*
X94627Y734673D01*
X94614Y734689D01*
X94606Y734707D01*
X94501Y734838D01*
X93419Y735921D01*
X90441Y743110D01*
X90441Y750890D01*
X93419Y758079D01*
X98921Y763581D01*
X106110Y766559D01*
X113890Y766559D01*
X121079Y763581D01*
X126581Y758079D01*
X129559Y750890D01*
X129559Y743110D01*
X126581Y735921D01*
X125499Y734838D01*
X125487Y734822D01*
X125471Y734810D01*
X125415Y734722D01*
X125355Y734639D01*
X125349Y734620D01*
X125338Y734603D01*
X125313Y734502D01*
X125283Y734403D01*
X125283Y734384D01*
X125278Y734364D01*
X125286Y734261D01*
X125289Y734158D01*
X125296Y734139D01*
X125297Y734119D01*
X125338Y734024D01*
X125373Y733927D01*
X125386Y733911D01*
X125394Y733893D01*
X125499Y733762D01*
X126581Y732679D01*
X129559Y725490D01*
X129559Y717710D01*
X126581Y710521D01*
X125499Y709438D01*
X125487Y709422D01*
X125471Y709410D01*
X125415Y709322D01*
X125355Y709239D01*
X125349Y709220D01*
X125338Y709203D01*
X125313Y709102D01*
X125283Y709003D01*
X125283Y708984D01*
X125278Y708964D01*
X125286Y708861D01*
X125289Y708758D01*
X125296Y708739D01*
X125297Y708719D01*
X125338Y708624D01*
X125373Y708527D01*
X125386Y708511D01*
X125394Y708493D01*
X125499Y708362D01*
X126581Y707279D01*
X129559Y700090D01*
X129559Y692310D01*
X126581Y685121D01*
X121079Y679619D01*
X118908Y678720D01*
X118815Y678662D01*
X118720Y678608D01*
X118711Y678597D01*
X118699Y678590D01*
X118629Y678506D01*
X118557Y678425D01*
X118551Y678411D01*
X118542Y678400D01*
X118503Y678299D01*
X118460Y678198D01*
X118459Y678184D01*
X118454Y678171D01*
X118449Y678062D01*
X118441Y677953D01*
X118444Y677939D01*
X118443Y677925D01*
X118474Y677820D01*
X118500Y677715D01*
X118509Y677699D01*
X118512Y677689D01*
X118529Y677665D01*
X118583Y677569D01*
X119342Y676525D01*
X120122Y674993D01*
X120654Y673358D01*
X120818Y672323D01*
X110762Y672323D01*
X110742Y672320D01*
X110723Y672322D01*
X110621Y672300D01*
X110519Y672283D01*
X110502Y672274D01*
X110482Y672270D01*
X110393Y672217D01*
X110302Y672168D01*
X110288Y672154D01*
X110271Y672144D01*
X110204Y672065D01*
X110133Y671990D01*
X110124Y671972D01*
X110111Y671957D01*
X110073Y671861D01*
X110029Y671767D01*
X110027Y671747D01*
X110019Y671729D01*
X110001Y671562D01*
X110001Y670799D01*
X109999Y670799D01*
G37*
%LPD*%
%LPC*%
G36*
X259319Y341600D02*
X259319Y341600D01*
X252130Y344578D01*
X246628Y350080D01*
X243650Y357269D01*
X243650Y365049D01*
X246628Y372238D01*
X247710Y373321D01*
X247722Y373337D01*
X247738Y373349D01*
X247794Y373437D01*
X247854Y373520D01*
X247860Y373539D01*
X247871Y373556D01*
X247896Y373657D01*
X247926Y373756D01*
X247926Y373775D01*
X247931Y373795D01*
X247923Y373898D01*
X247920Y374001D01*
X247913Y374020D01*
X247912Y374040D01*
X247871Y374135D01*
X247836Y374232D01*
X247823Y374248D01*
X247815Y374266D01*
X247710Y374397D01*
X246628Y375480D01*
X243650Y382669D01*
X243650Y390449D01*
X246628Y397638D01*
X252130Y403140D01*
X259319Y406118D01*
X267099Y406118D01*
X274288Y403140D01*
X279790Y397638D01*
X282768Y390449D01*
X282768Y382669D01*
X279790Y375480D01*
X278708Y374397D01*
X278696Y374381D01*
X278680Y374369D01*
X278624Y374281D01*
X278564Y374198D01*
X278558Y374179D01*
X278547Y374162D01*
X278522Y374061D01*
X278492Y373962D01*
X278492Y373943D01*
X278487Y373923D01*
X278495Y373820D01*
X278498Y373717D01*
X278505Y373698D01*
X278506Y373678D01*
X278547Y373583D01*
X278582Y373486D01*
X278595Y373470D01*
X278603Y373452D01*
X278708Y373321D01*
X279790Y372238D01*
X282768Y365049D01*
X282768Y357269D01*
X279790Y350080D01*
X274288Y344578D01*
X267099Y341600D01*
X259319Y341600D01*
G37*
%LPD*%
%LPC*%
G36*
X211830Y340237D02*
X211830Y340237D01*
X204641Y343215D01*
X199139Y348717D01*
X196161Y355906D01*
X196161Y363686D01*
X199139Y370875D01*
X200221Y371958D01*
X200233Y371974D01*
X200249Y371986D01*
X200305Y372074D01*
X200365Y372157D01*
X200371Y372176D01*
X200382Y372193D01*
X200407Y372294D01*
X200437Y372393D01*
X200437Y372412D01*
X200442Y372432D01*
X200434Y372535D01*
X200431Y372638D01*
X200424Y372657D01*
X200423Y372677D01*
X200382Y372772D01*
X200347Y372869D01*
X200334Y372885D01*
X200326Y372903D01*
X200221Y373034D01*
X199139Y374117D01*
X196161Y381306D01*
X196161Y389086D01*
X199139Y396275D01*
X204641Y401777D01*
X211830Y404755D01*
X219610Y404755D01*
X226799Y401777D01*
X232301Y396275D01*
X235279Y389086D01*
X235279Y381306D01*
X232301Y374117D01*
X231219Y373034D01*
X231207Y373018D01*
X231191Y373006D01*
X231135Y372918D01*
X231075Y372835D01*
X231069Y372816D01*
X231058Y372799D01*
X231033Y372698D01*
X231003Y372599D01*
X231003Y372580D01*
X230998Y372560D01*
X231006Y372457D01*
X231009Y372354D01*
X231016Y372335D01*
X231017Y372315D01*
X231058Y372220D01*
X231093Y372123D01*
X231106Y372107D01*
X231114Y372089D01*
X231219Y371958D01*
X232301Y370875D01*
X235279Y363686D01*
X235279Y355906D01*
X232301Y348717D01*
X226799Y343215D01*
X219610Y340237D01*
X211830Y340237D01*
G37*
%LPD*%
%LPC*%
G36*
X147834Y324562D02*
X147834Y324562D01*
X140086Y327772D01*
X134155Y333703D01*
X130945Y341451D01*
X130945Y349839D01*
X134155Y357587D01*
X140086Y363518D01*
X147834Y366728D01*
X156222Y366728D01*
X163970Y363518D01*
X169901Y357587D01*
X173111Y349839D01*
X173111Y341451D01*
X169901Y333703D01*
X163970Y327772D01*
X156222Y324562D01*
X147834Y324562D01*
G37*
%LPD*%
%LPC*%
G36*
X226537Y897049D02*
X226537Y897049D01*
X218789Y900259D01*
X212858Y906190D01*
X209648Y913938D01*
X209648Y922326D01*
X212858Y930074D01*
X218789Y936005D01*
X226537Y939215D01*
X234925Y939215D01*
X242673Y936005D01*
X248604Y930074D01*
X251814Y922326D01*
X251814Y913938D01*
X248604Y906190D01*
X242673Y900259D01*
X234925Y897049D01*
X226537Y897049D01*
G37*
%LPD*%
%LPC*%
G36*
X506706Y764656D02*
X506706Y764656D01*
X498958Y767866D01*
X493027Y773797D01*
X489817Y781545D01*
X489817Y789933D01*
X493027Y797681D01*
X498958Y803612D01*
X506706Y806822D01*
X515094Y806822D01*
X522842Y803612D01*
X528773Y797681D01*
X531983Y789933D01*
X531983Y781545D01*
X528773Y773797D01*
X522842Y767866D01*
X515094Y764656D01*
X506706Y764656D01*
G37*
%LPD*%
%LPC*%
G36*
X147834Y389840D02*
X147834Y389840D01*
X140086Y393050D01*
X134155Y398981D01*
X130945Y406729D01*
X130945Y415117D01*
X134155Y422865D01*
X140086Y428796D01*
X147834Y432006D01*
X156222Y432006D01*
X163970Y428796D01*
X169901Y422865D01*
X173111Y415117D01*
X173111Y406729D01*
X169901Y398981D01*
X163970Y393050D01*
X156222Y389840D01*
X147834Y389840D01*
G37*
%LPD*%
%LPC*%
G36*
X26110Y935041D02*
X26110Y935041D01*
X18921Y938019D01*
X13419Y943521D01*
X10441Y950710D01*
X10441Y958490D01*
X13419Y965679D01*
X18921Y971181D01*
X21092Y972080D01*
X21185Y972138D01*
X21280Y972192D01*
X21289Y972203D01*
X21301Y972210D01*
X21371Y972294D01*
X21443Y972375D01*
X21449Y972389D01*
X21458Y972400D01*
X21497Y972501D01*
X21540Y972602D01*
X21541Y972616D01*
X21546Y972629D01*
X21551Y972738D01*
X21559Y972847D01*
X21556Y972861D01*
X21557Y972875D01*
X21526Y972980D01*
X21500Y973085D01*
X21491Y973101D01*
X21488Y973111D01*
X21471Y973135D01*
X21417Y973231D01*
X20658Y974275D01*
X19878Y975807D01*
X19346Y977442D01*
X19182Y978477D01*
X29238Y978477D01*
X29258Y978480D01*
X29277Y978478D01*
X29379Y978500D01*
X29481Y978517D01*
X29498Y978526D01*
X29518Y978530D01*
X29607Y978583D01*
X29698Y978632D01*
X29712Y978646D01*
X29729Y978656D01*
X29796Y978735D01*
X29867Y978810D01*
X29876Y978828D01*
X29889Y978843D01*
X29927Y978939D01*
X29971Y979033D01*
X29973Y979053D01*
X29981Y979071D01*
X29999Y979238D01*
X29999Y980001D01*
X30001Y980001D01*
X30001Y979238D01*
X30004Y979218D01*
X30002Y979199D01*
X30024Y979097D01*
X30041Y978995D01*
X30050Y978978D01*
X30054Y978958D01*
X30107Y978869D01*
X30156Y978778D01*
X30170Y978764D01*
X30180Y978747D01*
X30259Y978680D01*
X30334Y978609D01*
X30352Y978600D01*
X30367Y978587D01*
X30463Y978548D01*
X30557Y978505D01*
X30577Y978503D01*
X30595Y978495D01*
X30762Y978477D01*
X40818Y978477D01*
X40654Y977442D01*
X40122Y975807D01*
X39342Y974275D01*
X38583Y973231D01*
X38534Y973134D01*
X38482Y973038D01*
X38479Y973024D01*
X38473Y973011D01*
X38457Y972903D01*
X38438Y972796D01*
X38440Y972782D01*
X38438Y972768D01*
X38458Y972661D01*
X38474Y972553D01*
X38480Y972540D01*
X38483Y972526D01*
X38536Y972431D01*
X38585Y972334D01*
X38596Y972324D01*
X38602Y972311D01*
X38683Y972238D01*
X38761Y972161D01*
X38776Y972153D01*
X38784Y972146D01*
X38811Y972134D01*
X38908Y972080D01*
X41079Y971181D01*
X46581Y965679D01*
X49559Y958490D01*
X49559Y950710D01*
X46581Y943521D01*
X41079Y938019D01*
X33890Y935041D01*
X26110Y935041D01*
G37*
%LPD*%
%LPC*%
G36*
X90903Y923672D02*
X90903Y923672D01*
X83714Y926650D01*
X78212Y932152D01*
X75234Y939341D01*
X75234Y947121D01*
X78212Y954310D01*
X83714Y959812D01*
X85885Y960711D01*
X85978Y960769D01*
X86073Y960823D01*
X86082Y960834D01*
X86094Y960841D01*
X86164Y960926D01*
X86236Y961006D01*
X86242Y961019D01*
X86251Y961031D01*
X86290Y961133D01*
X86333Y961233D01*
X86334Y961247D01*
X86339Y961260D01*
X86344Y961369D01*
X86352Y961478D01*
X86349Y961492D01*
X86350Y961506D01*
X86319Y961611D01*
X86293Y961716D01*
X86284Y961732D01*
X86281Y961742D01*
X86264Y961766D01*
X86210Y961862D01*
X85451Y962906D01*
X84671Y964438D01*
X84139Y966073D01*
X83975Y967108D01*
X94031Y967108D01*
X94051Y967111D01*
X94070Y967109D01*
X94172Y967131D01*
X94274Y967148D01*
X94291Y967157D01*
X94311Y967161D01*
X94400Y967214D01*
X94491Y967263D01*
X94505Y967277D01*
X94522Y967287D01*
X94589Y967366D01*
X94660Y967441D01*
X94669Y967459D01*
X94682Y967474D01*
X94720Y967570D01*
X94764Y967664D01*
X94766Y967684D01*
X94774Y967702D01*
X94792Y967869D01*
X94792Y968632D01*
X94794Y968632D01*
X94794Y967869D01*
X94797Y967849D01*
X94795Y967830D01*
X94817Y967728D01*
X94834Y967626D01*
X94843Y967609D01*
X94847Y967589D01*
X94900Y967500D01*
X94949Y967409D01*
X94963Y967395D01*
X94973Y967378D01*
X95052Y967311D01*
X95127Y967240D01*
X95145Y967231D01*
X95160Y967218D01*
X95256Y967179D01*
X95350Y967136D01*
X95370Y967134D01*
X95388Y967126D01*
X95555Y967108D01*
X105611Y967108D01*
X105447Y966073D01*
X104915Y964438D01*
X104135Y962906D01*
X103376Y961862D01*
X103327Y961765D01*
X103275Y961669D01*
X103272Y961655D01*
X103266Y961642D01*
X103251Y961535D01*
X103231Y961427D01*
X103233Y961413D01*
X103231Y961399D01*
X103251Y961292D01*
X103267Y961184D01*
X103273Y961171D01*
X103276Y961157D01*
X103329Y961062D01*
X103378Y960965D01*
X103389Y960955D01*
X103395Y960942D01*
X103476Y960869D01*
X103554Y960792D01*
X103569Y960784D01*
X103577Y960777D01*
X103604Y960765D01*
X103701Y960711D01*
X105872Y959812D01*
X111374Y954310D01*
X114352Y947121D01*
X114352Y939341D01*
X111374Y932152D01*
X105872Y926650D01*
X98683Y923672D01*
X90903Y923672D01*
G37*
%LPD*%
%LPC*%
G36*
X232254Y984933D02*
X232254Y984933D01*
X232254Y995771D01*
X233646Y995550D01*
X235509Y994945D01*
X237254Y994055D01*
X238840Y992904D01*
X240225Y991519D01*
X241376Y989933D01*
X242266Y988188D01*
X242871Y986325D01*
X243092Y984933D01*
X232254Y984933D01*
G37*
%LPD*%
%LPC*%
G36*
X512423Y721984D02*
X512423Y721984D01*
X512423Y732822D01*
X513815Y732601D01*
X515678Y731996D01*
X517423Y731106D01*
X519009Y729955D01*
X520394Y728570D01*
X521545Y726984D01*
X522435Y725239D01*
X523040Y723376D01*
X523261Y721984D01*
X512423Y721984D01*
G37*
%LPD*%
%LPC*%
G36*
X218370Y984933D02*
X218370Y984933D01*
X218591Y986325D01*
X219196Y988188D01*
X220086Y989933D01*
X221237Y991519D01*
X222622Y992904D01*
X224208Y994055D01*
X225953Y994945D01*
X227816Y995550D01*
X229208Y995771D01*
X229208Y984933D01*
X218370Y984933D01*
G37*
%LPD*%
%LPC*%
G36*
X498539Y721984D02*
X498539Y721984D01*
X498760Y723376D01*
X499365Y725239D01*
X500255Y726984D01*
X501406Y728570D01*
X502791Y729955D01*
X504377Y731106D01*
X506122Y731996D01*
X507985Y732601D01*
X509377Y732822D01*
X509377Y721984D01*
X498539Y721984D01*
G37*
%LPD*%
%LPC*%
G36*
X232254Y981887D02*
X232254Y981887D01*
X243092Y981887D01*
X242871Y980495D01*
X242266Y978632D01*
X241376Y976887D01*
X240225Y975301D01*
X238840Y973916D01*
X237254Y972765D01*
X235509Y971875D01*
X233646Y971270D01*
X232254Y971049D01*
X232254Y981887D01*
G37*
%LPD*%
%LPC*%
G36*
X512423Y718938D02*
X512423Y718938D01*
X523261Y718938D01*
X523040Y717546D01*
X522435Y715683D01*
X521545Y713938D01*
X520394Y712352D01*
X519009Y710967D01*
X517423Y709816D01*
X515678Y708926D01*
X513815Y708321D01*
X512423Y708100D01*
X512423Y718938D01*
G37*
%LPD*%
%LPC*%
G36*
X227816Y971270D02*
X227816Y971270D01*
X225953Y971875D01*
X224208Y972765D01*
X222622Y973916D01*
X221237Y975301D01*
X220086Y976887D01*
X219196Y978632D01*
X218591Y980495D01*
X218370Y981887D01*
X229208Y981887D01*
X229208Y971049D01*
X227816Y971270D01*
G37*
%LPD*%
%LPC*%
G36*
X507985Y708321D02*
X507985Y708321D01*
X506122Y708926D01*
X504377Y709816D01*
X502791Y710967D01*
X501406Y712352D01*
X500255Y713938D01*
X499365Y715683D01*
X498760Y717546D01*
X498539Y718938D01*
X509377Y718938D01*
X509377Y708100D01*
X507985Y708321D01*
G37*
%LPD*%
%LPC*%
G36*
X765223Y548623D02*
X765223Y548623D01*
X765223Y558274D01*
X766340Y558097D01*
X768028Y557549D01*
X769609Y556743D01*
X771045Y555700D01*
X772300Y554445D01*
X773343Y553009D01*
X774149Y551428D01*
X774697Y549740D01*
X774874Y548623D01*
X765223Y548623D01*
G37*
%LPD*%
%LPC*%
G36*
X765223Y478623D02*
X765223Y478623D01*
X765223Y488274D01*
X766340Y488097D01*
X768028Y487549D01*
X769609Y486743D01*
X771045Y485700D01*
X772300Y484445D01*
X773343Y483009D01*
X774149Y481428D01*
X774697Y479740D01*
X774874Y478623D01*
X765223Y478623D01*
G37*
%LPD*%
%LPC*%
G36*
X752526Y478623D02*
X752526Y478623D01*
X752703Y479740D01*
X753251Y481428D01*
X754057Y483009D01*
X755100Y484445D01*
X756355Y485700D01*
X757791Y486743D01*
X759372Y487549D01*
X761060Y488097D01*
X762177Y488274D01*
X762177Y478623D01*
X752526Y478623D01*
G37*
%LPD*%
%LPC*%
G36*
X765223Y545577D02*
X765223Y545577D01*
X774874Y545577D01*
X774697Y544460D01*
X774149Y542772D01*
X773343Y541191D01*
X772300Y539755D01*
X771045Y538500D01*
X769609Y537457D01*
X768028Y536651D01*
X766340Y536103D01*
X765223Y535926D01*
X765223Y545577D01*
G37*
%LPD*%
%LPC*%
G36*
X752526Y548623D02*
X752526Y548623D01*
X752703Y549740D01*
X753251Y551428D01*
X754057Y553009D01*
X755100Y554445D01*
X756355Y555700D01*
X757791Y556743D01*
X759372Y557549D01*
X761060Y558097D01*
X762177Y558274D01*
X762177Y548623D01*
X752526Y548623D01*
G37*
%LPD*%
%LPC*%
G36*
X765223Y475577D02*
X765223Y475577D01*
X774874Y475577D01*
X774697Y474460D01*
X774149Y472772D01*
X773343Y471191D01*
X772300Y469755D01*
X771045Y468500D01*
X769609Y467457D01*
X768028Y466651D01*
X766340Y466103D01*
X765223Y465926D01*
X765223Y475577D01*
G37*
%LPD*%
%LPC*%
G36*
X761060Y536103D02*
X761060Y536103D01*
X759372Y536651D01*
X757791Y537457D01*
X756355Y538500D01*
X755100Y539755D01*
X754057Y541191D01*
X753251Y542772D01*
X752703Y544460D01*
X752526Y545577D01*
X762177Y545577D01*
X762177Y535926D01*
X761060Y536103D01*
G37*
%LPD*%
%LPC*%
G36*
X761060Y466103D02*
X761060Y466103D01*
X759372Y466651D01*
X757791Y467457D01*
X756355Y468500D01*
X755100Y469755D01*
X754057Y471191D01*
X753251Y472772D01*
X752703Y474460D01*
X752526Y475577D01*
X762177Y475577D01*
X762177Y465926D01*
X761060Y466103D01*
G37*
%LPD*%
%LPC*%
G36*
X742423Y944823D02*
X742423Y944823D01*
X742423Y954118D01*
X743458Y953954D01*
X745093Y953422D01*
X746625Y952642D01*
X748016Y951631D01*
X749231Y950416D01*
X750242Y949025D01*
X751022Y947493D01*
X751554Y945858D01*
X751718Y944823D01*
X742423Y944823D01*
G37*
%LPD*%
%LPC*%
G36*
X31523Y981523D02*
X31523Y981523D01*
X31523Y990818D01*
X32558Y990654D01*
X34193Y990122D01*
X35725Y989342D01*
X37116Y988331D01*
X38331Y987116D01*
X39342Y985725D01*
X40122Y984193D01*
X40654Y982558D01*
X40818Y981523D01*
X31523Y981523D01*
G37*
%LPD*%
%LPC*%
G36*
X581523Y981723D02*
X581523Y981723D01*
X581523Y991018D01*
X582558Y990854D01*
X584193Y990322D01*
X585725Y989542D01*
X587116Y988531D01*
X588331Y987316D01*
X589342Y985925D01*
X590122Y984393D01*
X590654Y982758D01*
X590818Y981723D01*
X581523Y981723D01*
G37*
%LPD*%
%LPC*%
G36*
X96316Y970154D02*
X96316Y970154D01*
X96316Y979449D01*
X97351Y979285D01*
X98986Y978753D01*
X100518Y977973D01*
X101909Y976962D01*
X103124Y975747D01*
X104135Y974356D01*
X104915Y972824D01*
X105447Y971189D01*
X105611Y970154D01*
X96316Y970154D01*
G37*
%LPD*%
%LPC*%
G36*
X19182Y981523D02*
X19182Y981523D01*
X19346Y982558D01*
X19878Y984193D01*
X20658Y985725D01*
X21669Y987116D01*
X22884Y988331D01*
X24275Y989342D01*
X25807Y990122D01*
X27442Y990654D01*
X28477Y990818D01*
X28477Y981523D01*
X19182Y981523D01*
G37*
%LPD*%
%LPC*%
G36*
X569182Y981723D02*
X569182Y981723D01*
X569346Y982758D01*
X569878Y984393D01*
X570658Y985925D01*
X571669Y987316D01*
X572884Y988531D01*
X574275Y989542D01*
X575807Y990322D01*
X577442Y990854D01*
X578477Y991018D01*
X578477Y981723D01*
X569182Y981723D01*
G37*
%LPD*%
%LPC*%
G36*
X730082Y944823D02*
X730082Y944823D01*
X730246Y945858D01*
X730778Y947493D01*
X731558Y949025D01*
X732569Y950416D01*
X733784Y951631D01*
X735175Y952642D01*
X736707Y953422D01*
X738342Y953954D01*
X739377Y954118D01*
X739377Y944823D01*
X730082Y944823D01*
G37*
%LPD*%
%LPC*%
G36*
X83975Y970154D02*
X83975Y970154D01*
X84139Y971189D01*
X84671Y972824D01*
X85451Y974356D01*
X86462Y975747D01*
X87677Y976962D01*
X89068Y977973D01*
X90600Y978753D01*
X92235Y979285D01*
X93270Y979449D01*
X93270Y970154D01*
X83975Y970154D01*
G37*
%LPD*%
%LPC*%
G36*
X744823Y811577D02*
X744823Y811577D01*
X754118Y811577D01*
X753954Y810542D01*
X753422Y808907D01*
X752642Y807375D01*
X751631Y805984D01*
X750416Y804769D01*
X749025Y803758D01*
X747493Y802978D01*
X745858Y802446D01*
X744823Y802282D01*
X744823Y811577D01*
G37*
%LPD*%
%LPC*%
G36*
X734473Y538123D02*
X734473Y538123D01*
X734473Y545539D01*
X735594Y545316D01*
X737244Y544633D01*
X738729Y543641D01*
X739991Y542379D01*
X740983Y540894D01*
X741666Y539244D01*
X741889Y538123D01*
X734473Y538123D01*
G37*
%LPD*%
%LPC*%
G36*
X734473Y488623D02*
X734473Y488623D01*
X734473Y496039D01*
X735594Y495816D01*
X737244Y495133D01*
X738729Y494141D01*
X739991Y492879D01*
X740983Y491394D01*
X741666Y489744D01*
X741889Y488623D01*
X734473Y488623D01*
G37*
%LPD*%
%LPC*%
G36*
X724011Y538123D02*
X724011Y538123D01*
X724234Y539244D01*
X724917Y540894D01*
X725909Y542379D01*
X727171Y543641D01*
X728656Y544633D01*
X730306Y545316D01*
X731427Y545539D01*
X731427Y538123D01*
X724011Y538123D01*
G37*
%LPD*%
%LPC*%
G36*
X734473Y535077D02*
X734473Y535077D01*
X741889Y535077D01*
X741666Y533956D01*
X740983Y532306D01*
X739991Y530821D01*
X738729Y529559D01*
X737244Y528567D01*
X735594Y527884D01*
X734473Y527661D01*
X734473Y535077D01*
G37*
%LPD*%
%LPC*%
G36*
X734473Y485577D02*
X734473Y485577D01*
X741889Y485577D01*
X741666Y484456D01*
X740983Y482806D01*
X739991Y481321D01*
X738729Y480059D01*
X737244Y479067D01*
X735594Y478384D01*
X734473Y478161D01*
X734473Y485577D01*
G37*
%LPD*%
%LPC*%
G36*
X724011Y488623D02*
X724011Y488623D01*
X724234Y489744D01*
X724917Y491394D01*
X725909Y492879D01*
X727171Y494141D01*
X728656Y495133D01*
X730306Y495816D01*
X731427Y496039D01*
X731427Y488623D01*
X724011Y488623D01*
G37*
%LPD*%
%LPC*%
G36*
X730306Y527884D02*
X730306Y527884D01*
X728656Y528567D01*
X727171Y529559D01*
X725909Y530821D01*
X724917Y532306D01*
X724234Y533956D01*
X724011Y535077D01*
X731427Y535077D01*
X731427Y527661D01*
X730306Y527884D01*
G37*
%LPD*%
%LPC*%
G36*
X730306Y478384D02*
X730306Y478384D01*
X728656Y479067D01*
X727171Y480059D01*
X725909Y481321D01*
X724917Y482806D01*
X724234Y484456D01*
X724011Y485577D01*
X731427Y485577D01*
X731427Y478161D01*
X730306Y478384D01*
G37*
%LPD*%
%LPC*%
G36*
X732949Y536599D02*
X732949Y536599D01*
X732949Y536601D01*
X732951Y536601D01*
X732951Y536599D01*
X732949Y536599D01*
G37*
%LPD*%
%LPC*%
G36*
X510899Y720460D02*
X510899Y720460D01*
X510899Y720462D01*
X510901Y720462D01*
X510901Y720460D01*
X510899Y720460D01*
G37*
%LPD*%
%LPC*%
G36*
X732949Y487099D02*
X732949Y487099D01*
X732949Y487101D01*
X732951Y487101D01*
X732951Y487099D01*
X732949Y487099D01*
G37*
%LPD*%
%LPC*%
G36*
X763699Y547099D02*
X763699Y547099D01*
X763699Y547101D01*
X763701Y547101D01*
X763701Y547099D01*
X763699Y547099D01*
G37*
%LPD*%
%LPC*%
G36*
X230730Y983409D02*
X230730Y983409D01*
X230730Y983411D01*
X230732Y983411D01*
X230732Y983409D01*
X230730Y983409D01*
G37*
%LPD*%
%LPC*%
G36*
X763699Y477099D02*
X763699Y477099D01*
X763699Y477101D01*
X763701Y477101D01*
X763701Y477099D01*
X763699Y477099D01*
G37*
%LPD*%
D10*
X740900Y892500D03*
X740900Y917900D03*
X740900Y943300D03*
D11*
X510900Y785739D03*
X510900Y720461D03*
X230731Y983410D03*
X230731Y918132D03*
D12*
X116152Y505625D03*
X90752Y505625D03*
X116152Y531025D03*
X90752Y531025D03*
X116152Y556425D03*
X90752Y556425D03*
X116152Y581825D03*
X90752Y581825D03*
D10*
X215720Y359796D03*
X215720Y385196D03*
X263209Y361159D03*
X263209Y386559D03*
X717900Y813100D03*
X717900Y838500D03*
X743300Y813100D03*
X743300Y838500D03*
D13*
X732950Y536600D03*
X732950Y487100D03*
D14*
X763700Y477100D03*
X763700Y547100D03*
D11*
X152028Y345645D03*
X152028Y410923D03*
D15*
X37300Y808100D03*
X62700Y808100D03*
X37300Y782700D03*
X62700Y782700D03*
X37300Y757300D03*
X62700Y757300D03*
X37300Y731900D03*
X62700Y731900D03*
D10*
X94793Y968631D03*
X94793Y943231D03*
X30000Y980000D03*
X30000Y954600D03*
X110000Y620000D03*
X110000Y645400D03*
X110000Y670800D03*
X110000Y696200D03*
X110000Y721600D03*
X110000Y747000D03*
X580000Y650000D03*
X580000Y675400D03*
X580000Y700800D03*
X580000Y726200D03*
X580000Y751600D03*
X580000Y777000D03*
X580000Y802400D03*
X580000Y827800D03*
X580000Y853200D03*
X580000Y878600D03*
X580000Y904000D03*
X580000Y929400D03*
X580000Y954800D03*
X580000Y980200D03*
D13*
X240000Y650000D03*
D16*
X80000Y610000D02*
X37300Y731900D01*
X110000Y600000D02*
X160000Y600000D01*
X240000Y650000D01*
D13*
X400431Y616585D03*
D16*
X240000Y650000D01*
D13*
X209669Y490522D03*
D16*
X432471Y611993D02*
X438227Y606237D01*
X405023Y611993D02*
X400431Y616585D01*
X405023Y611993D02*
X432471Y611993D01*
X438227Y606237D02*
X438227Y471195D01*
X416229Y449197D01*
X416229Y437341D01*
D13*
X416229Y437341D03*
D16*
X209669Y490522D02*
X160000Y600000D01*
X110000Y600000D02*
X80000Y610000D01*
X110000Y670000D02*
X110000Y670800D01*
X740900Y943300D02*
X770000Y914200D01*
X770000Y839800D02*
X743300Y813100D01*
X770000Y839800D02*
X770000Y914200D01*
X743300Y813100D02*
X743300Y796700D01*
X770000Y770000D02*
X770000Y590000D01*
X760000Y580000D01*
X600000Y580000D01*
X510000Y670000D02*
X510000Y719561D01*
X510220Y719781D01*
X510900Y720461D01*
X743300Y796700D02*
X770000Y770000D01*
X600000Y580000D02*
X510000Y670000D01*
X110000Y950000D02*
X94793Y968631D01*
X110000Y950000D02*
X110000Y770000D01*
X90000Y750000D01*
X90000Y690000D01*
X110000Y670000D01*
X763700Y547100D02*
X763700Y480000D01*
X763700Y477100D01*
X763700Y547100D02*
X760000Y580000D01*
D13*
X326009Y770890D03*
D16*
X510220Y719781D01*
D13*
X150000Y460000D03*
X280000Y290000D03*
X320000Y290000D03*
D16*
X227404Y364636D02*
X220560Y371480D01*
X204036Y405964D02*
X150000Y460000D01*
X204036Y405964D02*
X204036Y380356D01*
X227404Y364636D02*
X227404Y342596D01*
X280000Y290000D01*
X212912Y371480D02*
X204036Y380356D01*
X212912Y371480D02*
X220560Y371480D01*
X280000Y290000D02*
X320000Y290000D01*
X700000Y290000D01*
X760000Y370000D01*
X763700Y480000D01*
D13*
X220000Y430000D03*
D16*
X150000Y460000D01*
X740900Y917900D02*
X760000Y898800D01*
X760000Y855200D02*
X743300Y838500D01*
X760000Y855200D02*
X760000Y898800D01*
D13*
X239649Y490728D03*
X215237Y597393D03*
D16*
X239649Y490728D01*
D13*
X428401Y602167D03*
X396397Y440750D03*
D16*
X428401Y602167D02*
X215237Y597393D01*
X420104Y593870D02*
X428401Y602167D01*
X420104Y593870D02*
X396397Y440750D01*
M02*
