M48
;GenerationSoftware,Autodesk,EAGLE,9.3.0*%
;CreationDate,2019-02-04T02:14:19Z*%
FMAT,2
ICI,OFF
METRIC,TZ,000.0000
T5C0.8128
T4C1.0000
T3C1.0160
T2C1.1000
T1C1.3000
%
G90
M71
T1
X763700Y477100
X763700Y547100
T2
X230731Y983410
X510900Y720461
X152028Y410923
X230731Y918132
X510900Y785739
X152028Y345645
T3
X116152Y556425
X90752Y556425
X116152Y581825
X90752Y581825
X37300Y757300
X580000Y751600
X717900Y813100
X717900Y838500
X743300Y813100
X740900Y892500
X740900Y917900
X740900Y943300
X743300Y838500
X116152Y505625
X90752Y505625
X116152Y531025
X90752Y531025
X37300Y808100
X62700Y808100
X37300Y782700
X62700Y782700
X62700Y757300
X37300Y731900
X62700Y731900
X94793Y968631
X94793Y943231
X30000Y980000
X30000Y954600
X110000Y620000
X110000Y645400
X110000Y670800
X110000Y696200
X110000Y721600
X110000Y747000
X580000Y650000
X580000Y675400
X580000Y700800
X580000Y726200
X580000Y777000
X580000Y802400
X580000Y827800
X580000Y853200
X580000Y878600
X580000Y904000
X580000Y929400
X580000Y954800
X580000Y980200
T4
X326009Y770890
X150000Y460000
X280000Y290000
X320000Y290000
X220000Y430000
X732950Y487100
X215237Y597393
X428401Y602167
X396397Y440750
X239649Y490728
X732950Y536600
X240000Y650000
X400431Y616585
X209669Y490522
X416229Y437341
T5
X215720Y359796
X215720Y385196
X263209Y386559
X263209Y361159
M30