G04 EAGLE Gerber RS-274X export*
G75*
%MOMM*%
%FSLAX34Y34*%
%LPD*%
%INSolderpaste Top*%
%IPPOS*%
%AMOC8*
5,1,8,0,0,1.08239X$1,22.5*%
G01*
%ADD10R,1.370000X1.170000*%
%ADD11R,1.170000X1.370000*%
%ADD12R,1.143000X1.343000*%
%ADD13R,0.698400X0.898400*%
%ADD14R,0.298400X0.898400*%
%ADD15R,1.890000X5.390000*%
%ADD16R,0.548400X1.423400*%
%ADD17R,1.373400X0.198400*%
%ADD18R,0.198400X1.373400*%
%ADD19R,1.298400X0.498400*%
%ADD20R,1.423400X0.548400*%
%ADD21R,1.098400X0.698400*%
%ADD22R,0.698400X1.098400*%
%ADD23R,1.053000X1.703000*%
%ADD24R,0.498400X1.448400*%
%ADD25C,0.003481*%
%ADD26R,1.990000X0.990000*%
%ADD27R,1.398400X0.798400*%
%ADD28R,0.798400X1.398400*%
%ADD29R,5.492000X5.492000*%


D10*
X259335Y961155D03*
X259335Y978155D03*
X373748Y462685D03*
X373748Y445685D03*
X311020Y443198D03*
X311020Y426198D03*
D11*
X410823Y564352D03*
X427823Y564352D03*
D10*
X286895Y630561D03*
X286895Y647561D03*
X325442Y640975D03*
X325442Y657975D03*
D11*
X235578Y526064D03*
X218578Y526064D03*
X225914Y569257D03*
X208914Y569257D03*
X480811Y614977D03*
X463811Y614977D03*
X470548Y581599D03*
X487548Y581599D03*
D10*
X445079Y506036D03*
X445079Y489036D03*
X420832Y506234D03*
X420832Y489234D03*
X136600Y949100D03*
X136600Y966100D03*
X190123Y947665D03*
X190123Y964665D03*
D11*
X498770Y342247D03*
X515770Y342247D03*
X498787Y437859D03*
X515787Y437859D03*
D10*
X277902Y459680D03*
X277902Y442680D03*
D11*
X253884Y466158D03*
X236884Y466158D03*
D12*
X671900Y772300D03*
X714900Y772300D03*
D13*
X497740Y496539D03*
D14*
X486740Y501539D03*
D13*
X475740Y496539D03*
D14*
X486740Y491539D03*
D13*
X480450Y649628D03*
D14*
X469450Y654628D03*
D13*
X458450Y649628D03*
D14*
X469450Y644628D03*
D15*
X462202Y436700D03*
X462202Y341700D03*
D16*
X175617Y921319D03*
X162917Y921319D03*
X150217Y921319D03*
X137517Y921319D03*
X137517Y867079D03*
X150217Y867079D03*
X162917Y867079D03*
X175617Y867079D03*
D17*
X376680Y507200D03*
X376680Y512200D03*
X376680Y517200D03*
X376680Y522200D03*
X376680Y527200D03*
X376680Y532200D03*
X376680Y537200D03*
X376680Y542200D03*
X376680Y547200D03*
X376680Y552200D03*
X376680Y557200D03*
X376680Y562200D03*
X376680Y567200D03*
X376680Y572200D03*
X376680Y577200D03*
X376680Y582200D03*
D18*
X356800Y602080D03*
X351800Y602080D03*
X346800Y602080D03*
X341800Y602080D03*
X336800Y602080D03*
X331800Y602080D03*
X326800Y602080D03*
X321800Y602080D03*
X316800Y602080D03*
X311800Y602080D03*
X306800Y602080D03*
X301800Y602080D03*
X296800Y602080D03*
X291800Y602080D03*
X286800Y602080D03*
X281800Y602080D03*
D17*
X261920Y582200D03*
X261920Y577200D03*
X261920Y572200D03*
X261920Y567200D03*
X261920Y562200D03*
X261920Y557200D03*
X261920Y552200D03*
X261920Y547200D03*
X261920Y542200D03*
X261920Y537200D03*
X261920Y532200D03*
X261920Y527200D03*
X261920Y522200D03*
X261920Y517200D03*
X261920Y512200D03*
X261920Y507200D03*
D18*
X281800Y487320D03*
X286800Y487320D03*
X291800Y487320D03*
X296800Y487320D03*
X301800Y487320D03*
X306800Y487320D03*
X311800Y487320D03*
X316800Y487320D03*
X321800Y487320D03*
X326800Y487320D03*
X331800Y487320D03*
X336800Y487320D03*
X341800Y487320D03*
X346800Y487320D03*
X351800Y487320D03*
X356800Y487320D03*
D19*
X342809Y387840D03*
X342809Y378340D03*
X342809Y368840D03*
X367809Y368840D03*
X367809Y378340D03*
X367809Y387840D03*
D20*
X89370Y389983D03*
X89370Y402683D03*
X89370Y415383D03*
X89370Y428083D03*
X35130Y428083D03*
X35130Y415383D03*
X35130Y402683D03*
X35130Y389983D03*
D21*
X483923Y775324D03*
X483923Y757324D03*
D22*
X296391Y398782D03*
X314391Y398782D03*
D21*
X215376Y338809D03*
X215376Y320809D03*
X263033Y338431D03*
X263033Y320431D03*
X116214Y387533D03*
X116214Y369533D03*
D22*
X37805Y463532D03*
X19805Y463532D03*
X121557Y342688D03*
X103557Y342688D03*
D21*
X116964Y434901D03*
X116964Y416901D03*
D22*
X214769Y898745D03*
X196769Y898745D03*
X412664Y590067D03*
X394664Y590067D03*
X409741Y527639D03*
X427741Y527639D03*
X365190Y414878D03*
X383190Y414878D03*
D21*
X358650Y333536D03*
X358650Y351536D03*
D22*
X315161Y375216D03*
X297161Y375216D03*
D23*
X42500Y889300D03*
X72900Y889300D03*
D24*
X677900Y963300D03*
X665200Y963300D03*
X652500Y963300D03*
X639800Y963300D03*
X677900Y909300D03*
X665200Y909300D03*
X652500Y909300D03*
X639800Y909300D03*
D25*
X743375Y507125D02*
X743375Y503675D01*
X723425Y503675D01*
X723425Y507125D01*
X743375Y507125D01*
X743375Y503708D02*
X723425Y503708D01*
X723425Y503741D02*
X743375Y503741D01*
X743375Y503774D02*
X723425Y503774D01*
X723425Y503807D02*
X743375Y503807D01*
X743375Y503840D02*
X723425Y503840D01*
X723425Y503873D02*
X743375Y503873D01*
X743375Y503906D02*
X723425Y503906D01*
X723425Y503939D02*
X743375Y503939D01*
X743375Y503972D02*
X723425Y503972D01*
X723425Y504005D02*
X743375Y504005D01*
X743375Y504038D02*
X723425Y504038D01*
X723425Y504071D02*
X743375Y504071D01*
X743375Y504104D02*
X723425Y504104D01*
X723425Y504137D02*
X743375Y504137D01*
X743375Y504170D02*
X723425Y504170D01*
X723425Y504203D02*
X743375Y504203D01*
X743375Y504236D02*
X723425Y504236D01*
X723425Y504269D02*
X743375Y504269D01*
X743375Y504302D02*
X723425Y504302D01*
X723425Y504335D02*
X743375Y504335D01*
X743375Y504368D02*
X723425Y504368D01*
X723425Y504401D02*
X743375Y504401D01*
X743375Y504434D02*
X723425Y504434D01*
X723425Y504467D02*
X743375Y504467D01*
X743375Y504500D02*
X723425Y504500D01*
X723425Y504533D02*
X743375Y504533D01*
X743375Y504566D02*
X723425Y504566D01*
X723425Y504599D02*
X743375Y504599D01*
X743375Y504632D02*
X723425Y504632D01*
X723425Y504665D02*
X743375Y504665D01*
X743375Y504698D02*
X723425Y504698D01*
X723425Y504731D02*
X743375Y504731D01*
X743375Y504764D02*
X723425Y504764D01*
X723425Y504797D02*
X743375Y504797D01*
X743375Y504830D02*
X723425Y504830D01*
X723425Y504863D02*
X743375Y504863D01*
X743375Y504896D02*
X723425Y504896D01*
X723425Y504929D02*
X743375Y504929D01*
X743375Y504962D02*
X723425Y504962D01*
X723425Y504995D02*
X743375Y504995D01*
X743375Y505028D02*
X723425Y505028D01*
X723425Y505061D02*
X743375Y505061D01*
X743375Y505094D02*
X723425Y505094D01*
X723425Y505127D02*
X743375Y505127D01*
X743375Y505160D02*
X723425Y505160D01*
X723425Y505193D02*
X743375Y505193D01*
X743375Y505226D02*
X723425Y505226D01*
X723425Y505259D02*
X743375Y505259D01*
X743375Y505292D02*
X723425Y505292D01*
X723425Y505325D02*
X743375Y505325D01*
X743375Y505358D02*
X723425Y505358D01*
X723425Y505391D02*
X743375Y505391D01*
X743375Y505424D02*
X723425Y505424D01*
X723425Y505457D02*
X743375Y505457D01*
X743375Y505490D02*
X723425Y505490D01*
X723425Y505523D02*
X743375Y505523D01*
X743375Y505556D02*
X723425Y505556D01*
X723425Y505589D02*
X743375Y505589D01*
X743375Y505622D02*
X723425Y505622D01*
X723425Y505655D02*
X743375Y505655D01*
X743375Y505688D02*
X723425Y505688D01*
X723425Y505721D02*
X743375Y505721D01*
X743375Y505754D02*
X723425Y505754D01*
X723425Y505787D02*
X743375Y505787D01*
X743375Y505820D02*
X723425Y505820D01*
X723425Y505853D02*
X743375Y505853D01*
X743375Y505886D02*
X723425Y505886D01*
X723425Y505919D02*
X743375Y505919D01*
X743375Y505952D02*
X723425Y505952D01*
X723425Y505985D02*
X743375Y505985D01*
X743375Y506018D02*
X723425Y506018D01*
X723425Y506051D02*
X743375Y506051D01*
X743375Y506084D02*
X723425Y506084D01*
X723425Y506117D02*
X743375Y506117D01*
X743375Y506150D02*
X723425Y506150D01*
X723425Y506183D02*
X743375Y506183D01*
X743375Y506216D02*
X723425Y506216D01*
X723425Y506249D02*
X743375Y506249D01*
X743375Y506282D02*
X723425Y506282D01*
X723425Y506315D02*
X743375Y506315D01*
X743375Y506348D02*
X723425Y506348D01*
X723425Y506381D02*
X743375Y506381D01*
X743375Y506414D02*
X723425Y506414D01*
X723425Y506447D02*
X743375Y506447D01*
X743375Y506480D02*
X723425Y506480D01*
X723425Y506513D02*
X743375Y506513D01*
X743375Y506546D02*
X723425Y506546D01*
X723425Y506579D02*
X743375Y506579D01*
X743375Y506612D02*
X723425Y506612D01*
X723425Y506645D02*
X743375Y506645D01*
X743375Y506678D02*
X723425Y506678D01*
X723425Y506711D02*
X743375Y506711D01*
X743375Y506744D02*
X723425Y506744D01*
X723425Y506777D02*
X743375Y506777D01*
X743375Y506810D02*
X723425Y506810D01*
X723425Y506843D02*
X743375Y506843D01*
X743375Y506876D02*
X723425Y506876D01*
X723425Y506909D02*
X743375Y506909D01*
X743375Y506942D02*
X723425Y506942D01*
X723425Y506975D02*
X743375Y506975D01*
X743375Y507008D02*
X723425Y507008D01*
X723425Y507041D02*
X743375Y507041D01*
X743375Y507074D02*
X723425Y507074D01*
X723425Y507107D02*
X743375Y507107D01*
X743375Y500625D02*
X743375Y497175D01*
X723425Y497175D01*
X723425Y500625D01*
X743375Y500625D01*
X743375Y497208D02*
X723425Y497208D01*
X723425Y497241D02*
X743375Y497241D01*
X743375Y497274D02*
X723425Y497274D01*
X723425Y497307D02*
X743375Y497307D01*
X743375Y497340D02*
X723425Y497340D01*
X723425Y497373D02*
X743375Y497373D01*
X743375Y497406D02*
X723425Y497406D01*
X723425Y497439D02*
X743375Y497439D01*
X743375Y497472D02*
X723425Y497472D01*
X723425Y497505D02*
X743375Y497505D01*
X743375Y497538D02*
X723425Y497538D01*
X723425Y497571D02*
X743375Y497571D01*
X743375Y497604D02*
X723425Y497604D01*
X723425Y497637D02*
X743375Y497637D01*
X743375Y497670D02*
X723425Y497670D01*
X723425Y497703D02*
X743375Y497703D01*
X743375Y497736D02*
X723425Y497736D01*
X723425Y497769D02*
X743375Y497769D01*
X743375Y497802D02*
X723425Y497802D01*
X723425Y497835D02*
X743375Y497835D01*
X743375Y497868D02*
X723425Y497868D01*
X723425Y497901D02*
X743375Y497901D01*
X743375Y497934D02*
X723425Y497934D01*
X723425Y497967D02*
X743375Y497967D01*
X743375Y498000D02*
X723425Y498000D01*
X723425Y498033D02*
X743375Y498033D01*
X743375Y498066D02*
X723425Y498066D01*
X723425Y498099D02*
X743375Y498099D01*
X743375Y498132D02*
X723425Y498132D01*
X723425Y498165D02*
X743375Y498165D01*
X743375Y498198D02*
X723425Y498198D01*
X723425Y498231D02*
X743375Y498231D01*
X743375Y498264D02*
X723425Y498264D01*
X723425Y498297D02*
X743375Y498297D01*
X743375Y498330D02*
X723425Y498330D01*
X723425Y498363D02*
X743375Y498363D01*
X743375Y498396D02*
X723425Y498396D01*
X723425Y498429D02*
X743375Y498429D01*
X743375Y498462D02*
X723425Y498462D01*
X723425Y498495D02*
X743375Y498495D01*
X743375Y498528D02*
X723425Y498528D01*
X723425Y498561D02*
X743375Y498561D01*
X743375Y498594D02*
X723425Y498594D01*
X723425Y498627D02*
X743375Y498627D01*
X743375Y498660D02*
X723425Y498660D01*
X723425Y498693D02*
X743375Y498693D01*
X743375Y498726D02*
X723425Y498726D01*
X723425Y498759D02*
X743375Y498759D01*
X743375Y498792D02*
X723425Y498792D01*
X723425Y498825D02*
X743375Y498825D01*
X743375Y498858D02*
X723425Y498858D01*
X723425Y498891D02*
X743375Y498891D01*
X743375Y498924D02*
X723425Y498924D01*
X723425Y498957D02*
X743375Y498957D01*
X743375Y498990D02*
X723425Y498990D01*
X723425Y499023D02*
X743375Y499023D01*
X743375Y499056D02*
X723425Y499056D01*
X723425Y499089D02*
X743375Y499089D01*
X743375Y499122D02*
X723425Y499122D01*
X723425Y499155D02*
X743375Y499155D01*
X743375Y499188D02*
X723425Y499188D01*
X723425Y499221D02*
X743375Y499221D01*
X743375Y499254D02*
X723425Y499254D01*
X723425Y499287D02*
X743375Y499287D01*
X743375Y499320D02*
X723425Y499320D01*
X723425Y499353D02*
X743375Y499353D01*
X743375Y499386D02*
X723425Y499386D01*
X723425Y499419D02*
X743375Y499419D01*
X743375Y499452D02*
X723425Y499452D01*
X723425Y499485D02*
X743375Y499485D01*
X743375Y499518D02*
X723425Y499518D01*
X723425Y499551D02*
X743375Y499551D01*
X743375Y499584D02*
X723425Y499584D01*
X723425Y499617D02*
X743375Y499617D01*
X743375Y499650D02*
X723425Y499650D01*
X723425Y499683D02*
X743375Y499683D01*
X743375Y499716D02*
X723425Y499716D01*
X723425Y499749D02*
X743375Y499749D01*
X743375Y499782D02*
X723425Y499782D01*
X723425Y499815D02*
X743375Y499815D01*
X743375Y499848D02*
X723425Y499848D01*
X723425Y499881D02*
X743375Y499881D01*
X743375Y499914D02*
X723425Y499914D01*
X723425Y499947D02*
X743375Y499947D01*
X743375Y499980D02*
X723425Y499980D01*
X723425Y500013D02*
X743375Y500013D01*
X743375Y500046D02*
X723425Y500046D01*
X723425Y500079D02*
X743375Y500079D01*
X743375Y500112D02*
X723425Y500112D01*
X723425Y500145D02*
X743375Y500145D01*
X743375Y500178D02*
X723425Y500178D01*
X723425Y500211D02*
X743375Y500211D01*
X743375Y500244D02*
X723425Y500244D01*
X723425Y500277D02*
X743375Y500277D01*
X743375Y500310D02*
X723425Y500310D01*
X723425Y500343D02*
X743375Y500343D01*
X743375Y500376D02*
X723425Y500376D01*
X723425Y500409D02*
X743375Y500409D01*
X743375Y500442D02*
X723425Y500442D01*
X723425Y500475D02*
X743375Y500475D01*
X743375Y500508D02*
X723425Y500508D01*
X723425Y500541D02*
X743375Y500541D01*
X743375Y500574D02*
X723425Y500574D01*
X723425Y500607D02*
X743375Y500607D01*
X743375Y510175D02*
X743375Y513625D01*
X743375Y510175D02*
X723425Y510175D01*
X723425Y513625D01*
X743375Y513625D01*
X743375Y510208D02*
X723425Y510208D01*
X723425Y510241D02*
X743375Y510241D01*
X743375Y510274D02*
X723425Y510274D01*
X723425Y510307D02*
X743375Y510307D01*
X743375Y510340D02*
X723425Y510340D01*
X723425Y510373D02*
X743375Y510373D01*
X743375Y510406D02*
X723425Y510406D01*
X723425Y510439D02*
X743375Y510439D01*
X743375Y510472D02*
X723425Y510472D01*
X723425Y510505D02*
X743375Y510505D01*
X743375Y510538D02*
X723425Y510538D01*
X723425Y510571D02*
X743375Y510571D01*
X743375Y510604D02*
X723425Y510604D01*
X723425Y510637D02*
X743375Y510637D01*
X743375Y510670D02*
X723425Y510670D01*
X723425Y510703D02*
X743375Y510703D01*
X743375Y510736D02*
X723425Y510736D01*
X723425Y510769D02*
X743375Y510769D01*
X743375Y510802D02*
X723425Y510802D01*
X723425Y510835D02*
X743375Y510835D01*
X743375Y510868D02*
X723425Y510868D01*
X723425Y510901D02*
X743375Y510901D01*
X743375Y510934D02*
X723425Y510934D01*
X723425Y510967D02*
X743375Y510967D01*
X743375Y511000D02*
X723425Y511000D01*
X723425Y511033D02*
X743375Y511033D01*
X743375Y511066D02*
X723425Y511066D01*
X723425Y511099D02*
X743375Y511099D01*
X743375Y511132D02*
X723425Y511132D01*
X723425Y511165D02*
X743375Y511165D01*
X743375Y511198D02*
X723425Y511198D01*
X723425Y511231D02*
X743375Y511231D01*
X743375Y511264D02*
X723425Y511264D01*
X723425Y511297D02*
X743375Y511297D01*
X743375Y511330D02*
X723425Y511330D01*
X723425Y511363D02*
X743375Y511363D01*
X743375Y511396D02*
X723425Y511396D01*
X723425Y511429D02*
X743375Y511429D01*
X743375Y511462D02*
X723425Y511462D01*
X723425Y511495D02*
X743375Y511495D01*
X743375Y511528D02*
X723425Y511528D01*
X723425Y511561D02*
X743375Y511561D01*
X743375Y511594D02*
X723425Y511594D01*
X723425Y511627D02*
X743375Y511627D01*
X743375Y511660D02*
X723425Y511660D01*
X723425Y511693D02*
X743375Y511693D01*
X743375Y511726D02*
X723425Y511726D01*
X723425Y511759D02*
X743375Y511759D01*
X743375Y511792D02*
X723425Y511792D01*
X723425Y511825D02*
X743375Y511825D01*
X743375Y511858D02*
X723425Y511858D01*
X723425Y511891D02*
X743375Y511891D01*
X743375Y511924D02*
X723425Y511924D01*
X723425Y511957D02*
X743375Y511957D01*
X743375Y511990D02*
X723425Y511990D01*
X723425Y512023D02*
X743375Y512023D01*
X743375Y512056D02*
X723425Y512056D01*
X723425Y512089D02*
X743375Y512089D01*
X743375Y512122D02*
X723425Y512122D01*
X723425Y512155D02*
X743375Y512155D01*
X743375Y512188D02*
X723425Y512188D01*
X723425Y512221D02*
X743375Y512221D01*
X743375Y512254D02*
X723425Y512254D01*
X723425Y512287D02*
X743375Y512287D01*
X743375Y512320D02*
X723425Y512320D01*
X723425Y512353D02*
X743375Y512353D01*
X743375Y512386D02*
X723425Y512386D01*
X723425Y512419D02*
X743375Y512419D01*
X743375Y512452D02*
X723425Y512452D01*
X723425Y512485D02*
X743375Y512485D01*
X743375Y512518D02*
X723425Y512518D01*
X723425Y512551D02*
X743375Y512551D01*
X743375Y512584D02*
X723425Y512584D01*
X723425Y512617D02*
X743375Y512617D01*
X743375Y512650D02*
X723425Y512650D01*
X723425Y512683D02*
X743375Y512683D01*
X743375Y512716D02*
X723425Y512716D01*
X723425Y512749D02*
X743375Y512749D01*
X743375Y512782D02*
X723425Y512782D01*
X723425Y512815D02*
X743375Y512815D01*
X743375Y512848D02*
X723425Y512848D01*
X723425Y512881D02*
X743375Y512881D01*
X743375Y512914D02*
X723425Y512914D01*
X723425Y512947D02*
X743375Y512947D01*
X743375Y512980D02*
X723425Y512980D01*
X723425Y513013D02*
X743375Y513013D01*
X743375Y513046D02*
X723425Y513046D01*
X723425Y513079D02*
X743375Y513079D01*
X743375Y513112D02*
X723425Y513112D01*
X723425Y513145D02*
X743375Y513145D01*
X743375Y513178D02*
X723425Y513178D01*
X723425Y513211D02*
X743375Y513211D01*
X743375Y513244D02*
X723425Y513244D01*
X723425Y513277D02*
X743375Y513277D01*
X743375Y513310D02*
X723425Y513310D01*
X723425Y513343D02*
X743375Y513343D01*
X743375Y513376D02*
X723425Y513376D01*
X723425Y513409D02*
X743375Y513409D01*
X743375Y513442D02*
X723425Y513442D01*
X723425Y513475D02*
X743375Y513475D01*
X743375Y513508D02*
X723425Y513508D01*
X723425Y513541D02*
X743375Y513541D01*
X743375Y513574D02*
X723425Y513574D01*
X723425Y513607D02*
X743375Y513607D01*
X743375Y523175D02*
X743375Y526625D01*
X743375Y523175D02*
X723425Y523175D01*
X723425Y526625D01*
X743375Y526625D01*
X743375Y523208D02*
X723425Y523208D01*
X723425Y523241D02*
X743375Y523241D01*
X743375Y523274D02*
X723425Y523274D01*
X723425Y523307D02*
X743375Y523307D01*
X743375Y523340D02*
X723425Y523340D01*
X723425Y523373D02*
X743375Y523373D01*
X743375Y523406D02*
X723425Y523406D01*
X723425Y523439D02*
X743375Y523439D01*
X743375Y523472D02*
X723425Y523472D01*
X723425Y523505D02*
X743375Y523505D01*
X743375Y523538D02*
X723425Y523538D01*
X723425Y523571D02*
X743375Y523571D01*
X743375Y523604D02*
X723425Y523604D01*
X723425Y523637D02*
X743375Y523637D01*
X743375Y523670D02*
X723425Y523670D01*
X723425Y523703D02*
X743375Y523703D01*
X743375Y523736D02*
X723425Y523736D01*
X723425Y523769D02*
X743375Y523769D01*
X743375Y523802D02*
X723425Y523802D01*
X723425Y523835D02*
X743375Y523835D01*
X743375Y523868D02*
X723425Y523868D01*
X723425Y523901D02*
X743375Y523901D01*
X743375Y523934D02*
X723425Y523934D01*
X723425Y523967D02*
X743375Y523967D01*
X743375Y524000D02*
X723425Y524000D01*
X723425Y524033D02*
X743375Y524033D01*
X743375Y524066D02*
X723425Y524066D01*
X723425Y524099D02*
X743375Y524099D01*
X743375Y524132D02*
X723425Y524132D01*
X723425Y524165D02*
X743375Y524165D01*
X743375Y524198D02*
X723425Y524198D01*
X723425Y524231D02*
X743375Y524231D01*
X743375Y524264D02*
X723425Y524264D01*
X723425Y524297D02*
X743375Y524297D01*
X743375Y524330D02*
X723425Y524330D01*
X723425Y524363D02*
X743375Y524363D01*
X743375Y524396D02*
X723425Y524396D01*
X723425Y524429D02*
X743375Y524429D01*
X743375Y524462D02*
X723425Y524462D01*
X723425Y524495D02*
X743375Y524495D01*
X743375Y524528D02*
X723425Y524528D01*
X723425Y524561D02*
X743375Y524561D01*
X743375Y524594D02*
X723425Y524594D01*
X723425Y524627D02*
X743375Y524627D01*
X743375Y524660D02*
X723425Y524660D01*
X723425Y524693D02*
X743375Y524693D01*
X743375Y524726D02*
X723425Y524726D01*
X723425Y524759D02*
X743375Y524759D01*
X743375Y524792D02*
X723425Y524792D01*
X723425Y524825D02*
X743375Y524825D01*
X743375Y524858D02*
X723425Y524858D01*
X723425Y524891D02*
X743375Y524891D01*
X743375Y524924D02*
X723425Y524924D01*
X723425Y524957D02*
X743375Y524957D01*
X743375Y524990D02*
X723425Y524990D01*
X723425Y525023D02*
X743375Y525023D01*
X743375Y525056D02*
X723425Y525056D01*
X723425Y525089D02*
X743375Y525089D01*
X743375Y525122D02*
X723425Y525122D01*
X723425Y525155D02*
X743375Y525155D01*
X743375Y525188D02*
X723425Y525188D01*
X723425Y525221D02*
X743375Y525221D01*
X743375Y525254D02*
X723425Y525254D01*
X723425Y525287D02*
X743375Y525287D01*
X743375Y525320D02*
X723425Y525320D01*
X723425Y525353D02*
X743375Y525353D01*
X743375Y525386D02*
X723425Y525386D01*
X723425Y525419D02*
X743375Y525419D01*
X743375Y525452D02*
X723425Y525452D01*
X723425Y525485D02*
X743375Y525485D01*
X743375Y525518D02*
X723425Y525518D01*
X723425Y525551D02*
X743375Y525551D01*
X743375Y525584D02*
X723425Y525584D01*
X723425Y525617D02*
X743375Y525617D01*
X743375Y525650D02*
X723425Y525650D01*
X723425Y525683D02*
X743375Y525683D01*
X743375Y525716D02*
X723425Y525716D01*
X723425Y525749D02*
X743375Y525749D01*
X743375Y525782D02*
X723425Y525782D01*
X723425Y525815D02*
X743375Y525815D01*
X743375Y525848D02*
X723425Y525848D01*
X723425Y525881D02*
X743375Y525881D01*
X743375Y525914D02*
X723425Y525914D01*
X723425Y525947D02*
X743375Y525947D01*
X743375Y525980D02*
X723425Y525980D01*
X723425Y526013D02*
X743375Y526013D01*
X743375Y526046D02*
X723425Y526046D01*
X723425Y526079D02*
X743375Y526079D01*
X743375Y526112D02*
X723425Y526112D01*
X723425Y526145D02*
X743375Y526145D01*
X743375Y526178D02*
X723425Y526178D01*
X723425Y526211D02*
X743375Y526211D01*
X743375Y526244D02*
X723425Y526244D01*
X723425Y526277D02*
X743375Y526277D01*
X743375Y526310D02*
X723425Y526310D01*
X723425Y526343D02*
X743375Y526343D01*
X743375Y526376D02*
X723425Y526376D01*
X723425Y526409D02*
X743375Y526409D01*
X743375Y526442D02*
X723425Y526442D01*
X723425Y526475D02*
X743375Y526475D01*
X743375Y526508D02*
X723425Y526508D01*
X723425Y526541D02*
X743375Y526541D01*
X743375Y526574D02*
X723425Y526574D01*
X723425Y526607D02*
X743375Y526607D01*
X743375Y520125D02*
X743375Y516675D01*
X723425Y516675D01*
X723425Y520125D01*
X743375Y520125D01*
X743375Y516708D02*
X723425Y516708D01*
X723425Y516741D02*
X743375Y516741D01*
X743375Y516774D02*
X723425Y516774D01*
X723425Y516807D02*
X743375Y516807D01*
X743375Y516840D02*
X723425Y516840D01*
X723425Y516873D02*
X743375Y516873D01*
X743375Y516906D02*
X723425Y516906D01*
X723425Y516939D02*
X743375Y516939D01*
X743375Y516972D02*
X723425Y516972D01*
X723425Y517005D02*
X743375Y517005D01*
X743375Y517038D02*
X723425Y517038D01*
X723425Y517071D02*
X743375Y517071D01*
X743375Y517104D02*
X723425Y517104D01*
X723425Y517137D02*
X743375Y517137D01*
X743375Y517170D02*
X723425Y517170D01*
X723425Y517203D02*
X743375Y517203D01*
X743375Y517236D02*
X723425Y517236D01*
X723425Y517269D02*
X743375Y517269D01*
X743375Y517302D02*
X723425Y517302D01*
X723425Y517335D02*
X743375Y517335D01*
X743375Y517368D02*
X723425Y517368D01*
X723425Y517401D02*
X743375Y517401D01*
X743375Y517434D02*
X723425Y517434D01*
X723425Y517467D02*
X743375Y517467D01*
X743375Y517500D02*
X723425Y517500D01*
X723425Y517533D02*
X743375Y517533D01*
X743375Y517566D02*
X723425Y517566D01*
X723425Y517599D02*
X743375Y517599D01*
X743375Y517632D02*
X723425Y517632D01*
X723425Y517665D02*
X743375Y517665D01*
X743375Y517698D02*
X723425Y517698D01*
X723425Y517731D02*
X743375Y517731D01*
X743375Y517764D02*
X723425Y517764D01*
X723425Y517797D02*
X743375Y517797D01*
X743375Y517830D02*
X723425Y517830D01*
X723425Y517863D02*
X743375Y517863D01*
X743375Y517896D02*
X723425Y517896D01*
X723425Y517929D02*
X743375Y517929D01*
X743375Y517962D02*
X723425Y517962D01*
X723425Y517995D02*
X743375Y517995D01*
X743375Y518028D02*
X723425Y518028D01*
X723425Y518061D02*
X743375Y518061D01*
X743375Y518094D02*
X723425Y518094D01*
X723425Y518127D02*
X743375Y518127D01*
X743375Y518160D02*
X723425Y518160D01*
X723425Y518193D02*
X743375Y518193D01*
X743375Y518226D02*
X723425Y518226D01*
X723425Y518259D02*
X743375Y518259D01*
X743375Y518292D02*
X723425Y518292D01*
X723425Y518325D02*
X743375Y518325D01*
X743375Y518358D02*
X723425Y518358D01*
X723425Y518391D02*
X743375Y518391D01*
X743375Y518424D02*
X723425Y518424D01*
X723425Y518457D02*
X743375Y518457D01*
X743375Y518490D02*
X723425Y518490D01*
X723425Y518523D02*
X743375Y518523D01*
X743375Y518556D02*
X723425Y518556D01*
X723425Y518589D02*
X743375Y518589D01*
X743375Y518622D02*
X723425Y518622D01*
X723425Y518655D02*
X743375Y518655D01*
X743375Y518688D02*
X723425Y518688D01*
X723425Y518721D02*
X743375Y518721D01*
X743375Y518754D02*
X723425Y518754D01*
X723425Y518787D02*
X743375Y518787D01*
X743375Y518820D02*
X723425Y518820D01*
X723425Y518853D02*
X743375Y518853D01*
X743375Y518886D02*
X723425Y518886D01*
X723425Y518919D02*
X743375Y518919D01*
X743375Y518952D02*
X723425Y518952D01*
X723425Y518985D02*
X743375Y518985D01*
X743375Y519018D02*
X723425Y519018D01*
X723425Y519051D02*
X743375Y519051D01*
X743375Y519084D02*
X723425Y519084D01*
X723425Y519117D02*
X743375Y519117D01*
X743375Y519150D02*
X723425Y519150D01*
X723425Y519183D02*
X743375Y519183D01*
X743375Y519216D02*
X723425Y519216D01*
X723425Y519249D02*
X743375Y519249D01*
X743375Y519282D02*
X723425Y519282D01*
X723425Y519315D02*
X743375Y519315D01*
X743375Y519348D02*
X723425Y519348D01*
X723425Y519381D02*
X743375Y519381D01*
X743375Y519414D02*
X723425Y519414D01*
X723425Y519447D02*
X743375Y519447D01*
X743375Y519480D02*
X723425Y519480D01*
X723425Y519513D02*
X743375Y519513D01*
X743375Y519546D02*
X723425Y519546D01*
X723425Y519579D02*
X743375Y519579D01*
X743375Y519612D02*
X723425Y519612D01*
X723425Y519645D02*
X743375Y519645D01*
X743375Y519678D02*
X723425Y519678D01*
X723425Y519711D02*
X743375Y519711D01*
X743375Y519744D02*
X723425Y519744D01*
X723425Y519777D02*
X743375Y519777D01*
X743375Y519810D02*
X723425Y519810D01*
X723425Y519843D02*
X743375Y519843D01*
X743375Y519876D02*
X723425Y519876D01*
X723425Y519909D02*
X743375Y519909D01*
X743375Y519942D02*
X723425Y519942D01*
X723425Y519975D02*
X743375Y519975D01*
X743375Y520008D02*
X723425Y520008D01*
X723425Y520041D02*
X743375Y520041D01*
X743375Y520074D02*
X723425Y520074D01*
X723425Y520107D02*
X743375Y520107D01*
D26*
X759700Y528600D03*
X759700Y495600D03*
D27*
X296900Y991400D03*
X296900Y978700D03*
X296900Y966000D03*
X296900Y953300D03*
X296900Y940600D03*
X296900Y927900D03*
X296900Y915200D03*
X296900Y902500D03*
X296900Y889800D03*
X296900Y877100D03*
X296900Y864400D03*
X296900Y851700D03*
X296900Y839000D03*
X296900Y826300D03*
D28*
X329750Y811400D03*
X342450Y811400D03*
X355150Y811400D03*
X367850Y811400D03*
X380550Y811400D03*
X393250Y811400D03*
X405950Y811400D03*
X418650Y811400D03*
X431350Y811400D03*
X444050Y811400D03*
D27*
X476900Y826300D03*
X476900Y839000D03*
X476900Y851700D03*
X476900Y864400D03*
X476900Y877100D03*
X476900Y889800D03*
X476900Y902500D03*
X476900Y915200D03*
X476900Y927900D03*
X476900Y940600D03*
X476900Y953300D03*
X476900Y966000D03*
X476900Y978700D03*
X476900Y991400D03*
D29*
X386900Y914400D03*
D21*
X340541Y445445D03*
X340541Y463445D03*
X238083Y621612D03*
X238083Y603612D03*
X334334Y415221D03*
X334334Y433221D03*
M02*
