G04 EAGLE Gerber RS-274X export*
G75*
%MOMM*%
%FSLAX34Y34*%
%LPD*%
%INSoldermask Top*%
%IPNEG*%
%AMOC8*
5,1,8,0,0,1.08239X$1,22.5*%
G01*
%ADD10C,0.238272*%
%ADD11C,0.233172*%
%ADD12C,1.981200*%
%ADD13C,0.184800*%
%ADD14C,0.148763*%
%ADD15C,2.286000*%
%ADD16C,0.308222*%
%ADD17C,0.171600*%
%ADD18C,0.154350*%
%ADD19C,0.165000*%
%ADD20P,2.144431X8X112.500000*%
%ADD21C,0.216172*%
%ADD22C,0.155247*%
%ADD23C,0.216288*%
%ADD24C,1.609600*%
%ADD25C,2.051600*%
%ADD26C,0.188100*%
%ADD27C,0.610159*%
%ADD28P,2.144431X8X292.500000*%


D10*
X266152Y966972D02*
X266152Y955338D01*
X252518Y955338D01*
X252518Y966972D01*
X266152Y966972D01*
X266152Y957602D02*
X252518Y957602D01*
X252518Y959866D02*
X266152Y959866D01*
X266152Y962130D02*
X252518Y962130D01*
X252518Y964394D02*
X266152Y964394D01*
X266152Y966658D02*
X252518Y966658D01*
X266152Y972338D02*
X266152Y983972D01*
X266152Y972338D02*
X252518Y972338D01*
X252518Y983972D01*
X266152Y983972D01*
X266152Y974602D02*
X252518Y974602D01*
X252518Y976866D02*
X266152Y976866D01*
X266152Y979130D02*
X252518Y979130D01*
X252518Y981394D02*
X266152Y981394D01*
X266152Y983658D02*
X252518Y983658D01*
X366931Y468502D02*
X366931Y456868D01*
X366931Y468502D02*
X380565Y468502D01*
X380565Y456868D01*
X366931Y456868D01*
X366931Y459132D02*
X380565Y459132D01*
X380565Y461396D02*
X366931Y461396D01*
X366931Y463660D02*
X380565Y463660D01*
X380565Y465924D02*
X366931Y465924D01*
X366931Y468188D02*
X380565Y468188D01*
X366931Y451502D02*
X366931Y439868D01*
X366931Y451502D02*
X380565Y451502D01*
X380565Y439868D01*
X366931Y439868D01*
X366931Y442132D02*
X380565Y442132D01*
X380565Y444396D02*
X366931Y444396D01*
X366931Y446660D02*
X380565Y446660D01*
X380565Y448924D02*
X366931Y448924D01*
X366931Y451188D02*
X380565Y451188D01*
X304203Y449015D02*
X304203Y437381D01*
X304203Y449015D02*
X317837Y449015D01*
X317837Y437381D01*
X304203Y437381D01*
X304203Y439645D02*
X317837Y439645D01*
X317837Y441909D02*
X304203Y441909D01*
X304203Y444173D02*
X317837Y444173D01*
X317837Y446437D02*
X304203Y446437D01*
X304203Y448701D02*
X317837Y448701D01*
X304203Y432015D02*
X304203Y420381D01*
X304203Y432015D02*
X317837Y432015D01*
X317837Y420381D01*
X304203Y420381D01*
X304203Y422645D02*
X317837Y422645D01*
X317837Y424909D02*
X304203Y424909D01*
X304203Y427173D02*
X317837Y427173D01*
X317837Y429437D02*
X304203Y429437D01*
X304203Y431701D02*
X317837Y431701D01*
X405006Y557535D02*
X416640Y557535D01*
X405006Y557535D02*
X405006Y571169D01*
X416640Y571169D01*
X416640Y557535D01*
X416640Y559799D02*
X405006Y559799D01*
X405006Y562063D02*
X416640Y562063D01*
X416640Y564327D02*
X405006Y564327D01*
X405006Y566591D02*
X416640Y566591D01*
X416640Y568855D02*
X405006Y568855D01*
X405006Y571119D02*
X416640Y571119D01*
X422006Y557535D02*
X433640Y557535D01*
X422006Y557535D02*
X422006Y571169D01*
X433640Y571169D01*
X433640Y557535D01*
X433640Y559799D02*
X422006Y559799D01*
X422006Y562063D02*
X433640Y562063D01*
X433640Y564327D02*
X422006Y564327D01*
X422006Y566591D02*
X433640Y566591D01*
X433640Y568855D02*
X422006Y568855D01*
X422006Y571119D02*
X433640Y571119D01*
X293712Y624744D02*
X293712Y636378D01*
X293712Y624744D02*
X280078Y624744D01*
X280078Y636378D01*
X293712Y636378D01*
X293712Y627008D02*
X280078Y627008D01*
X280078Y629272D02*
X293712Y629272D01*
X293712Y631536D02*
X280078Y631536D01*
X280078Y633800D02*
X293712Y633800D01*
X293712Y636064D02*
X280078Y636064D01*
X293712Y641744D02*
X293712Y653378D01*
X293712Y641744D02*
X280078Y641744D01*
X280078Y653378D01*
X293712Y653378D01*
X293712Y644008D02*
X280078Y644008D01*
X280078Y646272D02*
X293712Y646272D01*
X293712Y648536D02*
X280078Y648536D01*
X280078Y650800D02*
X293712Y650800D01*
X293712Y653064D02*
X280078Y653064D01*
X332259Y646792D02*
X332259Y635158D01*
X318625Y635158D01*
X318625Y646792D01*
X332259Y646792D01*
X332259Y637422D02*
X318625Y637422D01*
X318625Y639686D02*
X332259Y639686D01*
X332259Y641950D02*
X318625Y641950D01*
X318625Y644214D02*
X332259Y644214D01*
X332259Y646478D02*
X318625Y646478D01*
X332259Y652158D02*
X332259Y663792D01*
X332259Y652158D02*
X318625Y652158D01*
X318625Y663792D01*
X332259Y663792D01*
X332259Y654422D02*
X318625Y654422D01*
X318625Y656686D02*
X332259Y656686D01*
X332259Y658950D02*
X318625Y658950D01*
X318625Y661214D02*
X332259Y661214D01*
X332259Y663478D02*
X318625Y663478D01*
X241395Y532881D02*
X229761Y532881D01*
X241395Y532881D02*
X241395Y519247D01*
X229761Y519247D01*
X229761Y532881D01*
X229761Y521511D02*
X241395Y521511D01*
X241395Y523775D02*
X229761Y523775D01*
X229761Y526039D02*
X241395Y526039D01*
X241395Y528303D02*
X229761Y528303D01*
X229761Y530567D02*
X241395Y530567D01*
X241395Y532831D02*
X229761Y532831D01*
X224395Y532881D02*
X212761Y532881D01*
X224395Y532881D02*
X224395Y519247D01*
X212761Y519247D01*
X212761Y532881D01*
X212761Y521511D02*
X224395Y521511D01*
X224395Y523775D02*
X212761Y523775D01*
X212761Y526039D02*
X224395Y526039D01*
X224395Y528303D02*
X212761Y528303D01*
X212761Y530567D02*
X224395Y530567D01*
X224395Y532831D02*
X212761Y532831D01*
X220097Y576074D02*
X231731Y576074D01*
X231731Y562440D01*
X220097Y562440D01*
X220097Y576074D01*
X220097Y564704D02*
X231731Y564704D01*
X231731Y566968D02*
X220097Y566968D01*
X220097Y569232D02*
X231731Y569232D01*
X231731Y571496D02*
X220097Y571496D01*
X220097Y573760D02*
X231731Y573760D01*
X231731Y576024D02*
X220097Y576024D01*
X214731Y576074D02*
X203097Y576074D01*
X214731Y576074D02*
X214731Y562440D01*
X203097Y562440D01*
X203097Y576074D01*
X203097Y564704D02*
X214731Y564704D01*
X214731Y566968D02*
X203097Y566968D01*
X203097Y569232D02*
X214731Y569232D01*
X214731Y571496D02*
X203097Y571496D01*
X203097Y573760D02*
X214731Y573760D01*
X214731Y576024D02*
X203097Y576024D01*
X474994Y621794D02*
X486628Y621794D01*
X486628Y608160D01*
X474994Y608160D01*
X474994Y621794D01*
X474994Y610424D02*
X486628Y610424D01*
X486628Y612688D02*
X474994Y612688D01*
X474994Y614952D02*
X486628Y614952D01*
X486628Y617216D02*
X474994Y617216D01*
X474994Y619480D02*
X486628Y619480D01*
X486628Y621744D02*
X474994Y621744D01*
X469628Y621794D02*
X457994Y621794D01*
X469628Y621794D02*
X469628Y608160D01*
X457994Y608160D01*
X457994Y621794D01*
X457994Y610424D02*
X469628Y610424D01*
X469628Y612688D02*
X457994Y612688D01*
X457994Y614952D02*
X469628Y614952D01*
X469628Y617216D02*
X457994Y617216D01*
X457994Y619480D02*
X469628Y619480D01*
X469628Y621744D02*
X457994Y621744D01*
X464731Y574782D02*
X476365Y574782D01*
X464731Y574782D02*
X464731Y588416D01*
X476365Y588416D01*
X476365Y574782D01*
X476365Y577046D02*
X464731Y577046D01*
X464731Y579310D02*
X476365Y579310D01*
X476365Y581574D02*
X464731Y581574D01*
X464731Y583838D02*
X476365Y583838D01*
X476365Y586102D02*
X464731Y586102D01*
X464731Y588366D02*
X476365Y588366D01*
X481731Y574782D02*
X493365Y574782D01*
X481731Y574782D02*
X481731Y588416D01*
X493365Y588416D01*
X493365Y574782D01*
X493365Y577046D02*
X481731Y577046D01*
X481731Y579310D02*
X493365Y579310D01*
X493365Y581574D02*
X481731Y581574D01*
X481731Y583838D02*
X493365Y583838D01*
X493365Y586102D02*
X481731Y586102D01*
X481731Y588366D02*
X493365Y588366D01*
X438262Y511853D02*
X438262Y500219D01*
X438262Y511853D02*
X451896Y511853D01*
X451896Y500219D01*
X438262Y500219D01*
X438262Y502483D02*
X451896Y502483D01*
X451896Y504747D02*
X438262Y504747D01*
X438262Y507011D02*
X451896Y507011D01*
X451896Y509275D02*
X438262Y509275D01*
X438262Y511539D02*
X451896Y511539D01*
X438262Y494853D02*
X438262Y483219D01*
X438262Y494853D02*
X451896Y494853D01*
X451896Y483219D01*
X438262Y483219D01*
X438262Y485483D02*
X451896Y485483D01*
X451896Y487747D02*
X438262Y487747D01*
X438262Y490011D02*
X451896Y490011D01*
X451896Y492275D02*
X438262Y492275D01*
X438262Y494539D02*
X451896Y494539D01*
X414015Y500417D02*
X414015Y512051D01*
X427649Y512051D01*
X427649Y500417D01*
X414015Y500417D01*
X414015Y502681D02*
X427649Y502681D01*
X427649Y504945D02*
X414015Y504945D01*
X414015Y507209D02*
X427649Y507209D01*
X427649Y509473D02*
X414015Y509473D01*
X414015Y511737D02*
X427649Y511737D01*
X414015Y495051D02*
X414015Y483417D01*
X414015Y495051D02*
X427649Y495051D01*
X427649Y483417D01*
X414015Y483417D01*
X414015Y485681D02*
X427649Y485681D01*
X427649Y487945D02*
X414015Y487945D01*
X414015Y490209D02*
X427649Y490209D01*
X427649Y492473D02*
X414015Y492473D01*
X414015Y494737D02*
X427649Y494737D01*
X143417Y943283D02*
X143417Y954917D01*
X143417Y943283D02*
X129783Y943283D01*
X129783Y954917D01*
X143417Y954917D01*
X143417Y945547D02*
X129783Y945547D01*
X129783Y947811D02*
X143417Y947811D01*
X143417Y950075D02*
X129783Y950075D01*
X129783Y952339D02*
X143417Y952339D01*
X143417Y954603D02*
X129783Y954603D01*
X143417Y960283D02*
X143417Y971917D01*
X143417Y960283D02*
X129783Y960283D01*
X129783Y971917D01*
X143417Y971917D01*
X143417Y962547D02*
X129783Y962547D01*
X129783Y964811D02*
X143417Y964811D01*
X143417Y967075D02*
X129783Y967075D01*
X129783Y969339D02*
X143417Y969339D01*
X143417Y971603D02*
X129783Y971603D01*
X196940Y953482D02*
X196940Y941848D01*
X183306Y941848D01*
X183306Y953482D01*
X196940Y953482D01*
X196940Y944112D02*
X183306Y944112D01*
X183306Y946376D02*
X196940Y946376D01*
X196940Y948640D02*
X183306Y948640D01*
X183306Y950904D02*
X196940Y950904D01*
X196940Y953168D02*
X183306Y953168D01*
X196940Y958848D02*
X196940Y970482D01*
X196940Y958848D02*
X183306Y958848D01*
X183306Y970482D01*
X196940Y970482D01*
X196940Y961112D02*
X183306Y961112D01*
X183306Y963376D02*
X196940Y963376D01*
X196940Y965640D02*
X183306Y965640D01*
X183306Y967904D02*
X196940Y967904D01*
X196940Y970168D02*
X183306Y970168D01*
X492953Y335430D02*
X504587Y335430D01*
X492953Y335430D02*
X492953Y349064D01*
X504587Y349064D01*
X504587Y335430D01*
X504587Y337694D02*
X492953Y337694D01*
X492953Y339958D02*
X504587Y339958D01*
X504587Y342222D02*
X492953Y342222D01*
X492953Y344486D02*
X504587Y344486D01*
X504587Y346750D02*
X492953Y346750D01*
X492953Y349014D02*
X504587Y349014D01*
X509953Y335430D02*
X521587Y335430D01*
X509953Y335430D02*
X509953Y349064D01*
X521587Y349064D01*
X521587Y335430D01*
X521587Y337694D02*
X509953Y337694D01*
X509953Y339958D02*
X521587Y339958D01*
X521587Y342222D02*
X509953Y342222D01*
X509953Y344486D02*
X521587Y344486D01*
X521587Y346750D02*
X509953Y346750D01*
X509953Y349014D02*
X521587Y349014D01*
X504604Y431042D02*
X492970Y431042D01*
X492970Y444676D01*
X504604Y444676D01*
X504604Y431042D01*
X504604Y433306D02*
X492970Y433306D01*
X492970Y435570D02*
X504604Y435570D01*
X504604Y437834D02*
X492970Y437834D01*
X492970Y440098D02*
X504604Y440098D01*
X504604Y442362D02*
X492970Y442362D01*
X492970Y444626D02*
X504604Y444626D01*
X509970Y431042D02*
X521604Y431042D01*
X509970Y431042D02*
X509970Y444676D01*
X521604Y444676D01*
X521604Y431042D01*
X521604Y433306D02*
X509970Y433306D01*
X509970Y435570D02*
X521604Y435570D01*
X521604Y437834D02*
X509970Y437834D01*
X509970Y440098D02*
X521604Y440098D01*
X521604Y442362D02*
X509970Y442362D01*
X509970Y444626D02*
X521604Y444626D01*
X271085Y453863D02*
X271085Y465497D01*
X284719Y465497D01*
X284719Y453863D01*
X271085Y453863D01*
X271085Y456127D02*
X284719Y456127D01*
X284719Y458391D02*
X271085Y458391D01*
X271085Y460655D02*
X284719Y460655D01*
X284719Y462919D02*
X271085Y462919D01*
X271085Y465183D02*
X284719Y465183D01*
X271085Y448497D02*
X271085Y436863D01*
X271085Y448497D02*
X284719Y448497D01*
X284719Y436863D01*
X271085Y436863D01*
X271085Y439127D02*
X284719Y439127D01*
X284719Y441391D02*
X271085Y441391D01*
X271085Y443655D02*
X284719Y443655D01*
X284719Y445919D02*
X271085Y445919D01*
X271085Y448183D02*
X284719Y448183D01*
X259701Y472975D02*
X248067Y472975D01*
X259701Y472975D02*
X259701Y459341D01*
X248067Y459341D01*
X248067Y472975D01*
X248067Y461605D02*
X259701Y461605D01*
X259701Y463869D02*
X248067Y463869D01*
X248067Y466133D02*
X259701Y466133D01*
X259701Y468397D02*
X248067Y468397D01*
X248067Y470661D02*
X259701Y470661D01*
X259701Y472925D02*
X248067Y472925D01*
X242701Y472975D02*
X231067Y472975D01*
X242701Y472975D02*
X242701Y459341D01*
X231067Y459341D01*
X231067Y472975D01*
X231067Y461605D02*
X242701Y461605D01*
X242701Y463869D02*
X231067Y463869D01*
X231067Y466133D02*
X242701Y466133D01*
X242701Y468397D02*
X231067Y468397D01*
X231067Y470661D02*
X242701Y470661D01*
X242701Y472925D02*
X231067Y472925D01*
D11*
X666208Y778992D02*
X677592Y778992D01*
X677592Y765608D01*
X666208Y765608D01*
X666208Y778992D01*
X666208Y767823D02*
X677592Y767823D01*
X677592Y770038D02*
X666208Y770038D01*
X666208Y772253D02*
X677592Y772253D01*
X677592Y774468D02*
X666208Y774468D01*
X666208Y776683D02*
X677592Y776683D01*
X677592Y778898D02*
X666208Y778898D01*
X709208Y765608D02*
X720592Y765608D01*
X709208Y765608D02*
X709208Y778992D01*
X720592Y778992D01*
X720592Y765608D01*
X720592Y767823D02*
X709208Y767823D01*
X709208Y770038D02*
X720592Y770038D01*
X720592Y772253D02*
X709208Y772253D01*
X709208Y774468D02*
X720592Y774468D01*
X720592Y776683D02*
X709208Y776683D01*
X709208Y778898D02*
X720592Y778898D01*
D12*
X740900Y892500D03*
X740900Y917900D03*
X740900Y943300D03*
D13*
X494264Y501015D02*
X494264Y492063D01*
X494264Y501015D02*
X501216Y501015D01*
X501216Y492063D01*
X494264Y492063D01*
X494264Y493819D02*
X501216Y493819D01*
X501216Y495575D02*
X494264Y495575D01*
X494264Y497331D02*
X501216Y497331D01*
X501216Y499087D02*
X494264Y499087D01*
X494264Y500843D02*
X501216Y500843D01*
D14*
X485230Y497029D02*
X485230Y506049D01*
X488250Y506049D01*
X488250Y497029D01*
X485230Y497029D01*
X485230Y498443D02*
X488250Y498443D01*
X488250Y499857D02*
X485230Y499857D01*
X485230Y501271D02*
X488250Y501271D01*
X488250Y502685D02*
X485230Y502685D01*
X485230Y504099D02*
X488250Y504099D01*
X488250Y505513D02*
X485230Y505513D01*
D13*
X472264Y501015D02*
X472264Y492063D01*
X472264Y501015D02*
X479216Y501015D01*
X479216Y492063D01*
X472264Y492063D01*
X472264Y493819D02*
X479216Y493819D01*
X479216Y495575D02*
X472264Y495575D01*
X472264Y497331D02*
X479216Y497331D01*
X479216Y499087D02*
X472264Y499087D01*
X472264Y500843D02*
X479216Y500843D01*
D14*
X485230Y496049D02*
X485230Y487029D01*
X485230Y496049D02*
X488250Y496049D01*
X488250Y487029D01*
X485230Y487029D01*
X485230Y488443D02*
X488250Y488443D01*
X488250Y489857D02*
X485230Y489857D01*
X485230Y491271D02*
X488250Y491271D01*
X488250Y492685D02*
X485230Y492685D01*
X485230Y494099D02*
X488250Y494099D01*
X488250Y495513D02*
X485230Y495513D01*
D13*
X476974Y645152D02*
X476974Y654104D01*
X483926Y654104D01*
X483926Y645152D01*
X476974Y645152D01*
X476974Y646908D02*
X483926Y646908D01*
X483926Y648664D02*
X476974Y648664D01*
X476974Y650420D02*
X483926Y650420D01*
X483926Y652176D02*
X476974Y652176D01*
X476974Y653932D02*
X483926Y653932D01*
D14*
X467940Y650118D02*
X467940Y659138D01*
X470960Y659138D01*
X470960Y650118D01*
X467940Y650118D01*
X467940Y651532D02*
X470960Y651532D01*
X470960Y652946D02*
X467940Y652946D01*
X467940Y654360D02*
X470960Y654360D01*
X470960Y655774D02*
X467940Y655774D01*
X467940Y657188D02*
X470960Y657188D01*
X470960Y658602D02*
X467940Y658602D01*
D13*
X454974Y654104D02*
X454974Y645152D01*
X454974Y654104D02*
X461926Y654104D01*
X461926Y645152D01*
X454974Y645152D01*
X454974Y646908D02*
X461926Y646908D01*
X461926Y648664D02*
X454974Y648664D01*
X454974Y650420D02*
X461926Y650420D01*
X461926Y652176D02*
X454974Y652176D01*
X454974Y653932D02*
X461926Y653932D01*
D14*
X467940Y649138D02*
X467940Y640118D01*
X467940Y649138D02*
X470960Y649138D01*
X470960Y640118D01*
X467940Y640118D01*
X467940Y641532D02*
X470960Y641532D01*
X470960Y642946D02*
X467940Y642946D01*
X467940Y644360D02*
X470960Y644360D01*
X470960Y645774D02*
X467940Y645774D01*
X467940Y647188D02*
X470960Y647188D01*
X470960Y648602D02*
X467940Y648602D01*
D15*
X510900Y785739D03*
X510900Y720461D03*
X230731Y983410D03*
X230731Y918132D03*
D16*
X452735Y463667D02*
X452735Y409733D01*
X452735Y463667D02*
X471669Y463667D01*
X471669Y409733D01*
X452735Y409733D01*
X452735Y412661D02*
X471669Y412661D01*
X471669Y415589D02*
X452735Y415589D01*
X452735Y418517D02*
X471669Y418517D01*
X471669Y421445D02*
X452735Y421445D01*
X452735Y424373D02*
X471669Y424373D01*
X471669Y427301D02*
X452735Y427301D01*
X452735Y430229D02*
X471669Y430229D01*
X471669Y433157D02*
X452735Y433157D01*
X452735Y436085D02*
X471669Y436085D01*
X471669Y439013D02*
X452735Y439013D01*
X452735Y441941D02*
X471669Y441941D01*
X471669Y444869D02*
X452735Y444869D01*
X452735Y447797D02*
X471669Y447797D01*
X471669Y450725D02*
X452735Y450725D01*
X452735Y453653D02*
X471669Y453653D01*
X471669Y456581D02*
X452735Y456581D01*
X452735Y459509D02*
X471669Y459509D01*
X471669Y462437D02*
X452735Y462437D01*
X452735Y368667D02*
X452735Y314733D01*
X452735Y368667D02*
X471669Y368667D01*
X471669Y314733D01*
X452735Y314733D01*
X452735Y317661D02*
X471669Y317661D01*
X471669Y320589D02*
X452735Y320589D01*
X452735Y323517D02*
X471669Y323517D01*
X471669Y326445D02*
X452735Y326445D01*
X452735Y329373D02*
X471669Y329373D01*
X471669Y332301D02*
X452735Y332301D01*
X452735Y335229D02*
X471669Y335229D01*
X471669Y338157D02*
X452735Y338157D01*
X452735Y341085D02*
X471669Y341085D01*
X471669Y344013D02*
X452735Y344013D01*
X452735Y346941D02*
X471669Y346941D01*
X471669Y349869D02*
X452735Y349869D01*
X452735Y352797D02*
X471669Y352797D01*
X471669Y355725D02*
X452735Y355725D01*
X452735Y358653D02*
X471669Y358653D01*
X471669Y361581D02*
X452735Y361581D01*
X452735Y364509D02*
X471669Y364509D01*
X471669Y367437D02*
X452735Y367437D01*
D17*
X172900Y914227D02*
X172900Y928411D01*
X178334Y928411D01*
X178334Y914227D01*
X172900Y914227D01*
X172900Y915857D02*
X178334Y915857D01*
X178334Y917487D02*
X172900Y917487D01*
X172900Y919117D02*
X178334Y919117D01*
X178334Y920747D02*
X172900Y920747D01*
X172900Y922377D02*
X178334Y922377D01*
X178334Y924007D02*
X172900Y924007D01*
X172900Y925637D02*
X178334Y925637D01*
X178334Y927267D02*
X172900Y927267D01*
X160200Y928411D02*
X160200Y914227D01*
X160200Y928411D02*
X165634Y928411D01*
X165634Y914227D01*
X160200Y914227D01*
X160200Y915857D02*
X165634Y915857D01*
X165634Y917487D02*
X160200Y917487D01*
X160200Y919117D02*
X165634Y919117D01*
X165634Y920747D02*
X160200Y920747D01*
X160200Y922377D02*
X165634Y922377D01*
X165634Y924007D02*
X160200Y924007D01*
X160200Y925637D02*
X165634Y925637D01*
X165634Y927267D02*
X160200Y927267D01*
X147500Y928411D02*
X147500Y914227D01*
X147500Y928411D02*
X152934Y928411D01*
X152934Y914227D01*
X147500Y914227D01*
X147500Y915857D02*
X152934Y915857D01*
X152934Y917487D02*
X147500Y917487D01*
X147500Y919117D02*
X152934Y919117D01*
X152934Y920747D02*
X147500Y920747D01*
X147500Y922377D02*
X152934Y922377D01*
X152934Y924007D02*
X147500Y924007D01*
X147500Y925637D02*
X152934Y925637D01*
X152934Y927267D02*
X147500Y927267D01*
X134800Y928411D02*
X134800Y914227D01*
X134800Y928411D02*
X140234Y928411D01*
X140234Y914227D01*
X134800Y914227D01*
X134800Y915857D02*
X140234Y915857D01*
X140234Y917487D02*
X134800Y917487D01*
X134800Y919117D02*
X140234Y919117D01*
X140234Y920747D02*
X134800Y920747D01*
X134800Y922377D02*
X140234Y922377D01*
X140234Y924007D02*
X134800Y924007D01*
X134800Y925637D02*
X140234Y925637D01*
X140234Y927267D02*
X134800Y927267D01*
X134800Y874171D02*
X134800Y859987D01*
X134800Y874171D02*
X140234Y874171D01*
X140234Y859987D01*
X134800Y859987D01*
X134800Y861617D02*
X140234Y861617D01*
X140234Y863247D02*
X134800Y863247D01*
X134800Y864877D02*
X140234Y864877D01*
X140234Y866507D02*
X134800Y866507D01*
X134800Y868137D02*
X140234Y868137D01*
X140234Y869767D02*
X134800Y869767D01*
X134800Y871397D02*
X140234Y871397D01*
X140234Y873027D02*
X134800Y873027D01*
X147500Y874171D02*
X147500Y859987D01*
X147500Y874171D02*
X152934Y874171D01*
X152934Y859987D01*
X147500Y859987D01*
X147500Y861617D02*
X152934Y861617D01*
X152934Y863247D02*
X147500Y863247D01*
X147500Y864877D02*
X152934Y864877D01*
X152934Y866507D02*
X147500Y866507D01*
X147500Y868137D02*
X152934Y868137D01*
X152934Y869767D02*
X147500Y869767D01*
X147500Y871397D02*
X152934Y871397D01*
X152934Y873027D02*
X147500Y873027D01*
X160200Y874171D02*
X160200Y859987D01*
X160200Y874171D02*
X165634Y874171D01*
X165634Y859987D01*
X160200Y859987D01*
X160200Y861617D02*
X165634Y861617D01*
X165634Y863247D02*
X160200Y863247D01*
X160200Y864877D02*
X165634Y864877D01*
X165634Y866507D02*
X160200Y866507D01*
X160200Y868137D02*
X165634Y868137D01*
X165634Y869767D02*
X160200Y869767D01*
X160200Y871397D02*
X165634Y871397D01*
X165634Y873027D02*
X160200Y873027D01*
X172900Y874171D02*
X172900Y859987D01*
X172900Y874171D02*
X178334Y874171D01*
X178334Y859987D01*
X172900Y859987D01*
X172900Y861617D02*
X178334Y861617D01*
X178334Y863247D02*
X172900Y863247D01*
X172900Y864877D02*
X178334Y864877D01*
X178334Y866507D02*
X172900Y866507D01*
X172900Y868137D02*
X178334Y868137D01*
X178334Y869767D02*
X172900Y869767D01*
X172900Y871397D02*
X178334Y871397D01*
X178334Y873027D02*
X172900Y873027D01*
D18*
X369823Y508182D02*
X383537Y508182D01*
X383537Y506218D01*
X369823Y506218D01*
X369823Y508182D01*
X369823Y507685D02*
X383537Y507685D01*
X383537Y513182D02*
X369823Y513182D01*
X383537Y513182D02*
X383537Y511218D01*
X369823Y511218D01*
X369823Y513182D01*
X369823Y512685D02*
X383537Y512685D01*
X383537Y518182D02*
X369823Y518182D01*
X383537Y518182D02*
X383537Y516218D01*
X369823Y516218D01*
X369823Y518182D01*
X369823Y517685D02*
X383537Y517685D01*
X383537Y523182D02*
X369823Y523182D01*
X383537Y523182D02*
X383537Y521218D01*
X369823Y521218D01*
X369823Y523182D01*
X369823Y522685D02*
X383537Y522685D01*
X383537Y528182D02*
X369823Y528182D01*
X383537Y528182D02*
X383537Y526218D01*
X369823Y526218D01*
X369823Y528182D01*
X369823Y527685D02*
X383537Y527685D01*
X383537Y533182D02*
X369823Y533182D01*
X383537Y533182D02*
X383537Y531218D01*
X369823Y531218D01*
X369823Y533182D01*
X369823Y532685D02*
X383537Y532685D01*
X383537Y538182D02*
X369823Y538182D01*
X383537Y538182D02*
X383537Y536218D01*
X369823Y536218D01*
X369823Y538182D01*
X369823Y537685D02*
X383537Y537685D01*
X383537Y543182D02*
X369823Y543182D01*
X383537Y543182D02*
X383537Y541218D01*
X369823Y541218D01*
X369823Y543182D01*
X369823Y542685D02*
X383537Y542685D01*
X383537Y548182D02*
X369823Y548182D01*
X383537Y548182D02*
X383537Y546218D01*
X369823Y546218D01*
X369823Y548182D01*
X369823Y547685D02*
X383537Y547685D01*
X383537Y553182D02*
X369823Y553182D01*
X383537Y553182D02*
X383537Y551218D01*
X369823Y551218D01*
X369823Y553182D01*
X369823Y552685D02*
X383537Y552685D01*
X383537Y558182D02*
X369823Y558182D01*
X383537Y558182D02*
X383537Y556218D01*
X369823Y556218D01*
X369823Y558182D01*
X369823Y557685D02*
X383537Y557685D01*
X383537Y563182D02*
X369823Y563182D01*
X383537Y563182D02*
X383537Y561218D01*
X369823Y561218D01*
X369823Y563182D01*
X369823Y562685D02*
X383537Y562685D01*
X383537Y568182D02*
X369823Y568182D01*
X383537Y568182D02*
X383537Y566218D01*
X369823Y566218D01*
X369823Y568182D01*
X369823Y567685D02*
X383537Y567685D01*
X383537Y573182D02*
X369823Y573182D01*
X383537Y573182D02*
X383537Y571218D01*
X369823Y571218D01*
X369823Y573182D01*
X369823Y572685D02*
X383537Y572685D01*
X383537Y578182D02*
X369823Y578182D01*
X383537Y578182D02*
X383537Y576218D01*
X369823Y576218D01*
X369823Y578182D01*
X369823Y577685D02*
X383537Y577685D01*
X383537Y583182D02*
X369823Y583182D01*
X383537Y583182D02*
X383537Y581218D01*
X369823Y581218D01*
X369823Y583182D01*
X369823Y582685D02*
X383537Y582685D01*
X355818Y595223D02*
X355818Y608937D01*
X357782Y608937D01*
X357782Y595223D01*
X355818Y595223D01*
X355818Y596690D02*
X357782Y596690D01*
X357782Y598157D02*
X355818Y598157D01*
X355818Y599624D02*
X357782Y599624D01*
X357782Y601091D02*
X355818Y601091D01*
X355818Y602558D02*
X357782Y602558D01*
X357782Y604025D02*
X355818Y604025D01*
X355818Y605492D02*
X357782Y605492D01*
X357782Y606959D02*
X355818Y606959D01*
X355818Y608426D02*
X357782Y608426D01*
X350818Y608937D02*
X350818Y595223D01*
X350818Y608937D02*
X352782Y608937D01*
X352782Y595223D01*
X350818Y595223D01*
X350818Y596690D02*
X352782Y596690D01*
X352782Y598157D02*
X350818Y598157D01*
X350818Y599624D02*
X352782Y599624D01*
X352782Y601091D02*
X350818Y601091D01*
X350818Y602558D02*
X352782Y602558D01*
X352782Y604025D02*
X350818Y604025D01*
X350818Y605492D02*
X352782Y605492D01*
X352782Y606959D02*
X350818Y606959D01*
X350818Y608426D02*
X352782Y608426D01*
X345818Y608937D02*
X345818Y595223D01*
X345818Y608937D02*
X347782Y608937D01*
X347782Y595223D01*
X345818Y595223D01*
X345818Y596690D02*
X347782Y596690D01*
X347782Y598157D02*
X345818Y598157D01*
X345818Y599624D02*
X347782Y599624D01*
X347782Y601091D02*
X345818Y601091D01*
X345818Y602558D02*
X347782Y602558D01*
X347782Y604025D02*
X345818Y604025D01*
X345818Y605492D02*
X347782Y605492D01*
X347782Y606959D02*
X345818Y606959D01*
X345818Y608426D02*
X347782Y608426D01*
X340818Y608937D02*
X340818Y595223D01*
X340818Y608937D02*
X342782Y608937D01*
X342782Y595223D01*
X340818Y595223D01*
X340818Y596690D02*
X342782Y596690D01*
X342782Y598157D02*
X340818Y598157D01*
X340818Y599624D02*
X342782Y599624D01*
X342782Y601091D02*
X340818Y601091D01*
X340818Y602558D02*
X342782Y602558D01*
X342782Y604025D02*
X340818Y604025D01*
X340818Y605492D02*
X342782Y605492D01*
X342782Y606959D02*
X340818Y606959D01*
X340818Y608426D02*
X342782Y608426D01*
X335818Y608937D02*
X335818Y595223D01*
X335818Y608937D02*
X337782Y608937D01*
X337782Y595223D01*
X335818Y595223D01*
X335818Y596690D02*
X337782Y596690D01*
X337782Y598157D02*
X335818Y598157D01*
X335818Y599624D02*
X337782Y599624D01*
X337782Y601091D02*
X335818Y601091D01*
X335818Y602558D02*
X337782Y602558D01*
X337782Y604025D02*
X335818Y604025D01*
X335818Y605492D02*
X337782Y605492D01*
X337782Y606959D02*
X335818Y606959D01*
X335818Y608426D02*
X337782Y608426D01*
X330818Y608937D02*
X330818Y595223D01*
X330818Y608937D02*
X332782Y608937D01*
X332782Y595223D01*
X330818Y595223D01*
X330818Y596690D02*
X332782Y596690D01*
X332782Y598157D02*
X330818Y598157D01*
X330818Y599624D02*
X332782Y599624D01*
X332782Y601091D02*
X330818Y601091D01*
X330818Y602558D02*
X332782Y602558D01*
X332782Y604025D02*
X330818Y604025D01*
X330818Y605492D02*
X332782Y605492D01*
X332782Y606959D02*
X330818Y606959D01*
X330818Y608426D02*
X332782Y608426D01*
X325818Y608937D02*
X325818Y595223D01*
X325818Y608937D02*
X327782Y608937D01*
X327782Y595223D01*
X325818Y595223D01*
X325818Y596690D02*
X327782Y596690D01*
X327782Y598157D02*
X325818Y598157D01*
X325818Y599624D02*
X327782Y599624D01*
X327782Y601091D02*
X325818Y601091D01*
X325818Y602558D02*
X327782Y602558D01*
X327782Y604025D02*
X325818Y604025D01*
X325818Y605492D02*
X327782Y605492D01*
X327782Y606959D02*
X325818Y606959D01*
X325818Y608426D02*
X327782Y608426D01*
X320818Y608937D02*
X320818Y595223D01*
X320818Y608937D02*
X322782Y608937D01*
X322782Y595223D01*
X320818Y595223D01*
X320818Y596690D02*
X322782Y596690D01*
X322782Y598157D02*
X320818Y598157D01*
X320818Y599624D02*
X322782Y599624D01*
X322782Y601091D02*
X320818Y601091D01*
X320818Y602558D02*
X322782Y602558D01*
X322782Y604025D02*
X320818Y604025D01*
X320818Y605492D02*
X322782Y605492D01*
X322782Y606959D02*
X320818Y606959D01*
X320818Y608426D02*
X322782Y608426D01*
X315818Y608937D02*
X315818Y595223D01*
X315818Y608937D02*
X317782Y608937D01*
X317782Y595223D01*
X315818Y595223D01*
X315818Y596690D02*
X317782Y596690D01*
X317782Y598157D02*
X315818Y598157D01*
X315818Y599624D02*
X317782Y599624D01*
X317782Y601091D02*
X315818Y601091D01*
X315818Y602558D02*
X317782Y602558D01*
X317782Y604025D02*
X315818Y604025D01*
X315818Y605492D02*
X317782Y605492D01*
X317782Y606959D02*
X315818Y606959D01*
X315818Y608426D02*
X317782Y608426D01*
X310818Y608937D02*
X310818Y595223D01*
X310818Y608937D02*
X312782Y608937D01*
X312782Y595223D01*
X310818Y595223D01*
X310818Y596690D02*
X312782Y596690D01*
X312782Y598157D02*
X310818Y598157D01*
X310818Y599624D02*
X312782Y599624D01*
X312782Y601091D02*
X310818Y601091D01*
X310818Y602558D02*
X312782Y602558D01*
X312782Y604025D02*
X310818Y604025D01*
X310818Y605492D02*
X312782Y605492D01*
X312782Y606959D02*
X310818Y606959D01*
X310818Y608426D02*
X312782Y608426D01*
X305818Y608937D02*
X305818Y595223D01*
X305818Y608937D02*
X307782Y608937D01*
X307782Y595223D01*
X305818Y595223D01*
X305818Y596690D02*
X307782Y596690D01*
X307782Y598157D02*
X305818Y598157D01*
X305818Y599624D02*
X307782Y599624D01*
X307782Y601091D02*
X305818Y601091D01*
X305818Y602558D02*
X307782Y602558D01*
X307782Y604025D02*
X305818Y604025D01*
X305818Y605492D02*
X307782Y605492D01*
X307782Y606959D02*
X305818Y606959D01*
X305818Y608426D02*
X307782Y608426D01*
X300818Y608937D02*
X300818Y595223D01*
X300818Y608937D02*
X302782Y608937D01*
X302782Y595223D01*
X300818Y595223D01*
X300818Y596690D02*
X302782Y596690D01*
X302782Y598157D02*
X300818Y598157D01*
X300818Y599624D02*
X302782Y599624D01*
X302782Y601091D02*
X300818Y601091D01*
X300818Y602558D02*
X302782Y602558D01*
X302782Y604025D02*
X300818Y604025D01*
X300818Y605492D02*
X302782Y605492D01*
X302782Y606959D02*
X300818Y606959D01*
X300818Y608426D02*
X302782Y608426D01*
X295818Y608937D02*
X295818Y595223D01*
X295818Y608937D02*
X297782Y608937D01*
X297782Y595223D01*
X295818Y595223D01*
X295818Y596690D02*
X297782Y596690D01*
X297782Y598157D02*
X295818Y598157D01*
X295818Y599624D02*
X297782Y599624D01*
X297782Y601091D02*
X295818Y601091D01*
X295818Y602558D02*
X297782Y602558D01*
X297782Y604025D02*
X295818Y604025D01*
X295818Y605492D02*
X297782Y605492D01*
X297782Y606959D02*
X295818Y606959D01*
X295818Y608426D02*
X297782Y608426D01*
X290818Y608937D02*
X290818Y595223D01*
X290818Y608937D02*
X292782Y608937D01*
X292782Y595223D01*
X290818Y595223D01*
X290818Y596690D02*
X292782Y596690D01*
X292782Y598157D02*
X290818Y598157D01*
X290818Y599624D02*
X292782Y599624D01*
X292782Y601091D02*
X290818Y601091D01*
X290818Y602558D02*
X292782Y602558D01*
X292782Y604025D02*
X290818Y604025D01*
X290818Y605492D02*
X292782Y605492D01*
X292782Y606959D02*
X290818Y606959D01*
X290818Y608426D02*
X292782Y608426D01*
X285818Y608937D02*
X285818Y595223D01*
X285818Y608937D02*
X287782Y608937D01*
X287782Y595223D01*
X285818Y595223D01*
X285818Y596690D02*
X287782Y596690D01*
X287782Y598157D02*
X285818Y598157D01*
X285818Y599624D02*
X287782Y599624D01*
X287782Y601091D02*
X285818Y601091D01*
X285818Y602558D02*
X287782Y602558D01*
X287782Y604025D02*
X285818Y604025D01*
X285818Y605492D02*
X287782Y605492D01*
X287782Y606959D02*
X285818Y606959D01*
X285818Y608426D02*
X287782Y608426D01*
X280818Y608937D02*
X280818Y595223D01*
X280818Y608937D02*
X282782Y608937D01*
X282782Y595223D01*
X280818Y595223D01*
X280818Y596690D02*
X282782Y596690D01*
X282782Y598157D02*
X280818Y598157D01*
X280818Y599624D02*
X282782Y599624D01*
X282782Y601091D02*
X280818Y601091D01*
X280818Y602558D02*
X282782Y602558D01*
X282782Y604025D02*
X280818Y604025D01*
X280818Y605492D02*
X282782Y605492D01*
X282782Y606959D02*
X280818Y606959D01*
X280818Y608426D02*
X282782Y608426D01*
X268777Y583182D02*
X255063Y583182D01*
X268777Y583182D02*
X268777Y581218D01*
X255063Y581218D01*
X255063Y583182D01*
X255063Y582685D02*
X268777Y582685D01*
X268777Y578182D02*
X255063Y578182D01*
X268777Y578182D02*
X268777Y576218D01*
X255063Y576218D01*
X255063Y578182D01*
X255063Y577685D02*
X268777Y577685D01*
X268777Y573182D02*
X255063Y573182D01*
X268777Y573182D02*
X268777Y571218D01*
X255063Y571218D01*
X255063Y573182D01*
X255063Y572685D02*
X268777Y572685D01*
X268777Y568182D02*
X255063Y568182D01*
X268777Y568182D02*
X268777Y566218D01*
X255063Y566218D01*
X255063Y568182D01*
X255063Y567685D02*
X268777Y567685D01*
X268777Y563182D02*
X255063Y563182D01*
X268777Y563182D02*
X268777Y561218D01*
X255063Y561218D01*
X255063Y563182D01*
X255063Y562685D02*
X268777Y562685D01*
X268777Y558182D02*
X255063Y558182D01*
X268777Y558182D02*
X268777Y556218D01*
X255063Y556218D01*
X255063Y558182D01*
X255063Y557685D02*
X268777Y557685D01*
X268777Y553182D02*
X255063Y553182D01*
X268777Y553182D02*
X268777Y551218D01*
X255063Y551218D01*
X255063Y553182D01*
X255063Y552685D02*
X268777Y552685D01*
X268777Y548182D02*
X255063Y548182D01*
X268777Y548182D02*
X268777Y546218D01*
X255063Y546218D01*
X255063Y548182D01*
X255063Y547685D02*
X268777Y547685D01*
X268777Y543182D02*
X255063Y543182D01*
X268777Y543182D02*
X268777Y541218D01*
X255063Y541218D01*
X255063Y543182D01*
X255063Y542685D02*
X268777Y542685D01*
X268777Y538182D02*
X255063Y538182D01*
X268777Y538182D02*
X268777Y536218D01*
X255063Y536218D01*
X255063Y538182D01*
X255063Y537685D02*
X268777Y537685D01*
X268777Y533182D02*
X255063Y533182D01*
X268777Y533182D02*
X268777Y531218D01*
X255063Y531218D01*
X255063Y533182D01*
X255063Y532685D02*
X268777Y532685D01*
X268777Y528182D02*
X255063Y528182D01*
X268777Y528182D02*
X268777Y526218D01*
X255063Y526218D01*
X255063Y528182D01*
X255063Y527685D02*
X268777Y527685D01*
X268777Y523182D02*
X255063Y523182D01*
X268777Y523182D02*
X268777Y521218D01*
X255063Y521218D01*
X255063Y523182D01*
X255063Y522685D02*
X268777Y522685D01*
X268777Y518182D02*
X255063Y518182D01*
X268777Y518182D02*
X268777Y516218D01*
X255063Y516218D01*
X255063Y518182D01*
X255063Y517685D02*
X268777Y517685D01*
X268777Y513182D02*
X255063Y513182D01*
X268777Y513182D02*
X268777Y511218D01*
X255063Y511218D01*
X255063Y513182D01*
X255063Y512685D02*
X268777Y512685D01*
X268777Y508182D02*
X255063Y508182D01*
X268777Y508182D02*
X268777Y506218D01*
X255063Y506218D01*
X255063Y508182D01*
X255063Y507685D02*
X268777Y507685D01*
X280818Y494177D02*
X280818Y480463D01*
X280818Y494177D02*
X282782Y494177D01*
X282782Y480463D01*
X280818Y480463D01*
X280818Y481930D02*
X282782Y481930D01*
X282782Y483397D02*
X280818Y483397D01*
X280818Y484864D02*
X282782Y484864D01*
X282782Y486331D02*
X280818Y486331D01*
X280818Y487798D02*
X282782Y487798D01*
X282782Y489265D02*
X280818Y489265D01*
X280818Y490732D02*
X282782Y490732D01*
X282782Y492199D02*
X280818Y492199D01*
X280818Y493666D02*
X282782Y493666D01*
X285818Y494177D02*
X285818Y480463D01*
X285818Y494177D02*
X287782Y494177D01*
X287782Y480463D01*
X285818Y480463D01*
X285818Y481930D02*
X287782Y481930D01*
X287782Y483397D02*
X285818Y483397D01*
X285818Y484864D02*
X287782Y484864D01*
X287782Y486331D02*
X285818Y486331D01*
X285818Y487798D02*
X287782Y487798D01*
X287782Y489265D02*
X285818Y489265D01*
X285818Y490732D02*
X287782Y490732D01*
X287782Y492199D02*
X285818Y492199D01*
X285818Y493666D02*
X287782Y493666D01*
X290818Y494177D02*
X290818Y480463D01*
X290818Y494177D02*
X292782Y494177D01*
X292782Y480463D01*
X290818Y480463D01*
X290818Y481930D02*
X292782Y481930D01*
X292782Y483397D02*
X290818Y483397D01*
X290818Y484864D02*
X292782Y484864D01*
X292782Y486331D02*
X290818Y486331D01*
X290818Y487798D02*
X292782Y487798D01*
X292782Y489265D02*
X290818Y489265D01*
X290818Y490732D02*
X292782Y490732D01*
X292782Y492199D02*
X290818Y492199D01*
X290818Y493666D02*
X292782Y493666D01*
X295818Y494177D02*
X295818Y480463D01*
X295818Y494177D02*
X297782Y494177D01*
X297782Y480463D01*
X295818Y480463D01*
X295818Y481930D02*
X297782Y481930D01*
X297782Y483397D02*
X295818Y483397D01*
X295818Y484864D02*
X297782Y484864D01*
X297782Y486331D02*
X295818Y486331D01*
X295818Y487798D02*
X297782Y487798D01*
X297782Y489265D02*
X295818Y489265D01*
X295818Y490732D02*
X297782Y490732D01*
X297782Y492199D02*
X295818Y492199D01*
X295818Y493666D02*
X297782Y493666D01*
X300818Y494177D02*
X300818Y480463D01*
X300818Y494177D02*
X302782Y494177D01*
X302782Y480463D01*
X300818Y480463D01*
X300818Y481930D02*
X302782Y481930D01*
X302782Y483397D02*
X300818Y483397D01*
X300818Y484864D02*
X302782Y484864D01*
X302782Y486331D02*
X300818Y486331D01*
X300818Y487798D02*
X302782Y487798D01*
X302782Y489265D02*
X300818Y489265D01*
X300818Y490732D02*
X302782Y490732D01*
X302782Y492199D02*
X300818Y492199D01*
X300818Y493666D02*
X302782Y493666D01*
X305818Y494177D02*
X305818Y480463D01*
X305818Y494177D02*
X307782Y494177D01*
X307782Y480463D01*
X305818Y480463D01*
X305818Y481930D02*
X307782Y481930D01*
X307782Y483397D02*
X305818Y483397D01*
X305818Y484864D02*
X307782Y484864D01*
X307782Y486331D02*
X305818Y486331D01*
X305818Y487798D02*
X307782Y487798D01*
X307782Y489265D02*
X305818Y489265D01*
X305818Y490732D02*
X307782Y490732D01*
X307782Y492199D02*
X305818Y492199D01*
X305818Y493666D02*
X307782Y493666D01*
X310818Y494177D02*
X310818Y480463D01*
X310818Y494177D02*
X312782Y494177D01*
X312782Y480463D01*
X310818Y480463D01*
X310818Y481930D02*
X312782Y481930D01*
X312782Y483397D02*
X310818Y483397D01*
X310818Y484864D02*
X312782Y484864D01*
X312782Y486331D02*
X310818Y486331D01*
X310818Y487798D02*
X312782Y487798D01*
X312782Y489265D02*
X310818Y489265D01*
X310818Y490732D02*
X312782Y490732D01*
X312782Y492199D02*
X310818Y492199D01*
X310818Y493666D02*
X312782Y493666D01*
X315818Y494177D02*
X315818Y480463D01*
X315818Y494177D02*
X317782Y494177D01*
X317782Y480463D01*
X315818Y480463D01*
X315818Y481930D02*
X317782Y481930D01*
X317782Y483397D02*
X315818Y483397D01*
X315818Y484864D02*
X317782Y484864D01*
X317782Y486331D02*
X315818Y486331D01*
X315818Y487798D02*
X317782Y487798D01*
X317782Y489265D02*
X315818Y489265D01*
X315818Y490732D02*
X317782Y490732D01*
X317782Y492199D02*
X315818Y492199D01*
X315818Y493666D02*
X317782Y493666D01*
X320818Y494177D02*
X320818Y480463D01*
X320818Y494177D02*
X322782Y494177D01*
X322782Y480463D01*
X320818Y480463D01*
X320818Y481930D02*
X322782Y481930D01*
X322782Y483397D02*
X320818Y483397D01*
X320818Y484864D02*
X322782Y484864D01*
X322782Y486331D02*
X320818Y486331D01*
X320818Y487798D02*
X322782Y487798D01*
X322782Y489265D02*
X320818Y489265D01*
X320818Y490732D02*
X322782Y490732D01*
X322782Y492199D02*
X320818Y492199D01*
X320818Y493666D02*
X322782Y493666D01*
X325818Y494177D02*
X325818Y480463D01*
X325818Y494177D02*
X327782Y494177D01*
X327782Y480463D01*
X325818Y480463D01*
X325818Y481930D02*
X327782Y481930D01*
X327782Y483397D02*
X325818Y483397D01*
X325818Y484864D02*
X327782Y484864D01*
X327782Y486331D02*
X325818Y486331D01*
X325818Y487798D02*
X327782Y487798D01*
X327782Y489265D02*
X325818Y489265D01*
X325818Y490732D02*
X327782Y490732D01*
X327782Y492199D02*
X325818Y492199D01*
X325818Y493666D02*
X327782Y493666D01*
X330818Y494177D02*
X330818Y480463D01*
X330818Y494177D02*
X332782Y494177D01*
X332782Y480463D01*
X330818Y480463D01*
X330818Y481930D02*
X332782Y481930D01*
X332782Y483397D02*
X330818Y483397D01*
X330818Y484864D02*
X332782Y484864D01*
X332782Y486331D02*
X330818Y486331D01*
X330818Y487798D02*
X332782Y487798D01*
X332782Y489265D02*
X330818Y489265D01*
X330818Y490732D02*
X332782Y490732D01*
X332782Y492199D02*
X330818Y492199D01*
X330818Y493666D02*
X332782Y493666D01*
X335818Y494177D02*
X335818Y480463D01*
X335818Y494177D02*
X337782Y494177D01*
X337782Y480463D01*
X335818Y480463D01*
X335818Y481930D02*
X337782Y481930D01*
X337782Y483397D02*
X335818Y483397D01*
X335818Y484864D02*
X337782Y484864D01*
X337782Y486331D02*
X335818Y486331D01*
X335818Y487798D02*
X337782Y487798D01*
X337782Y489265D02*
X335818Y489265D01*
X335818Y490732D02*
X337782Y490732D01*
X337782Y492199D02*
X335818Y492199D01*
X335818Y493666D02*
X337782Y493666D01*
X340818Y494177D02*
X340818Y480463D01*
X340818Y494177D02*
X342782Y494177D01*
X342782Y480463D01*
X340818Y480463D01*
X340818Y481930D02*
X342782Y481930D01*
X342782Y483397D02*
X340818Y483397D01*
X340818Y484864D02*
X342782Y484864D01*
X342782Y486331D02*
X340818Y486331D01*
X340818Y487798D02*
X342782Y487798D01*
X342782Y489265D02*
X340818Y489265D01*
X340818Y490732D02*
X342782Y490732D01*
X342782Y492199D02*
X340818Y492199D01*
X340818Y493666D02*
X342782Y493666D01*
X345818Y494177D02*
X345818Y480463D01*
X345818Y494177D02*
X347782Y494177D01*
X347782Y480463D01*
X345818Y480463D01*
X345818Y481930D02*
X347782Y481930D01*
X347782Y483397D02*
X345818Y483397D01*
X345818Y484864D02*
X347782Y484864D01*
X347782Y486331D02*
X345818Y486331D01*
X345818Y487798D02*
X347782Y487798D01*
X347782Y489265D02*
X345818Y489265D01*
X345818Y490732D02*
X347782Y490732D01*
X347782Y492199D02*
X345818Y492199D01*
X345818Y493666D02*
X347782Y493666D01*
X350818Y494177D02*
X350818Y480463D01*
X350818Y494177D02*
X352782Y494177D01*
X352782Y480463D01*
X350818Y480463D01*
X350818Y481930D02*
X352782Y481930D01*
X352782Y483397D02*
X350818Y483397D01*
X350818Y484864D02*
X352782Y484864D01*
X352782Y486331D02*
X350818Y486331D01*
X350818Y487798D02*
X352782Y487798D01*
X352782Y489265D02*
X350818Y489265D01*
X350818Y490732D02*
X352782Y490732D01*
X352782Y492199D02*
X350818Y492199D01*
X350818Y493666D02*
X352782Y493666D01*
X355818Y494177D02*
X355818Y480463D01*
X355818Y494177D02*
X357782Y494177D01*
X357782Y480463D01*
X355818Y480463D01*
X355818Y481930D02*
X357782Y481930D01*
X357782Y483397D02*
X355818Y483397D01*
X355818Y484864D02*
X357782Y484864D01*
X357782Y486331D02*
X355818Y486331D01*
X355818Y487798D02*
X357782Y487798D01*
X357782Y489265D02*
X355818Y489265D01*
X355818Y490732D02*
X357782Y490732D01*
X357782Y492199D02*
X355818Y492199D01*
X355818Y493666D02*
X357782Y493666D01*
D19*
X349284Y385365D02*
X336334Y385365D01*
X336334Y390315D01*
X349284Y390315D01*
X349284Y385365D01*
X349284Y386932D02*
X336334Y386932D01*
X336334Y388499D02*
X349284Y388499D01*
X349284Y390066D02*
X336334Y390066D01*
X336334Y375865D02*
X349284Y375865D01*
X336334Y375865D02*
X336334Y380815D01*
X349284Y380815D01*
X349284Y375865D01*
X349284Y377432D02*
X336334Y377432D01*
X336334Y378999D02*
X349284Y378999D01*
X349284Y380566D02*
X336334Y380566D01*
X336334Y366365D02*
X349284Y366365D01*
X336334Y366365D02*
X336334Y371315D01*
X349284Y371315D01*
X349284Y366365D01*
X349284Y367932D02*
X336334Y367932D01*
X336334Y369499D02*
X349284Y369499D01*
X349284Y371066D02*
X336334Y371066D01*
X361334Y366365D02*
X374284Y366365D01*
X361334Y366365D02*
X361334Y371315D01*
X374284Y371315D01*
X374284Y366365D01*
X374284Y367932D02*
X361334Y367932D01*
X361334Y369499D02*
X374284Y369499D01*
X374284Y371066D02*
X361334Y371066D01*
X361334Y375865D02*
X374284Y375865D01*
X361334Y375865D02*
X361334Y380815D01*
X374284Y380815D01*
X374284Y375865D01*
X374284Y377432D02*
X361334Y377432D01*
X361334Y378999D02*
X374284Y378999D01*
X374284Y380566D02*
X361334Y380566D01*
X361334Y385365D02*
X374284Y385365D01*
X361334Y385365D02*
X361334Y390315D01*
X374284Y390315D01*
X374284Y385365D01*
X374284Y386932D02*
X361334Y386932D01*
X361334Y388499D02*
X374284Y388499D01*
X374284Y390066D02*
X361334Y390066D01*
D17*
X96462Y392700D02*
X82278Y392700D01*
X96462Y392700D02*
X96462Y387266D01*
X82278Y387266D01*
X82278Y392700D01*
X82278Y388896D02*
X96462Y388896D01*
X96462Y390526D02*
X82278Y390526D01*
X82278Y392156D02*
X96462Y392156D01*
X96462Y405400D02*
X82278Y405400D01*
X96462Y405400D02*
X96462Y399966D01*
X82278Y399966D01*
X82278Y405400D01*
X82278Y401596D02*
X96462Y401596D01*
X96462Y403226D02*
X82278Y403226D01*
X82278Y404856D02*
X96462Y404856D01*
X96462Y418100D02*
X82278Y418100D01*
X96462Y418100D02*
X96462Y412666D01*
X82278Y412666D01*
X82278Y418100D01*
X82278Y414296D02*
X96462Y414296D01*
X96462Y415926D02*
X82278Y415926D01*
X82278Y417556D02*
X96462Y417556D01*
X96462Y430800D02*
X82278Y430800D01*
X96462Y430800D02*
X96462Y425366D01*
X82278Y425366D01*
X82278Y430800D01*
X82278Y426996D02*
X96462Y426996D01*
X96462Y428626D02*
X82278Y428626D01*
X82278Y430256D02*
X96462Y430256D01*
X42222Y430800D02*
X28038Y430800D01*
X42222Y430800D02*
X42222Y425366D01*
X28038Y425366D01*
X28038Y430800D01*
X28038Y426996D02*
X42222Y426996D01*
X42222Y428626D02*
X28038Y428626D01*
X28038Y430256D02*
X42222Y430256D01*
X42222Y418100D02*
X28038Y418100D01*
X42222Y418100D02*
X42222Y412666D01*
X28038Y412666D01*
X28038Y418100D01*
X28038Y414296D02*
X42222Y414296D01*
X42222Y415926D02*
X28038Y415926D01*
X28038Y417556D02*
X42222Y417556D01*
X42222Y405400D02*
X28038Y405400D01*
X42222Y405400D02*
X42222Y399966D01*
X28038Y399966D01*
X28038Y405400D01*
X28038Y401596D02*
X42222Y401596D01*
X42222Y403226D02*
X28038Y403226D01*
X28038Y404856D02*
X42222Y404856D01*
X42222Y392700D02*
X28038Y392700D01*
X42222Y392700D02*
X42222Y387266D01*
X28038Y387266D01*
X28038Y392700D01*
X28038Y388896D02*
X42222Y388896D01*
X42222Y390526D02*
X28038Y390526D01*
X28038Y392156D02*
X42222Y392156D01*
D20*
X116152Y505625D03*
X90752Y505625D03*
X116152Y531025D03*
X90752Y531025D03*
X116152Y556425D03*
X90752Y556425D03*
X116152Y581825D03*
X90752Y581825D03*
D12*
X215720Y359796D03*
X215720Y385196D03*
X263209Y361159D03*
X263209Y386559D03*
D13*
X478447Y771848D02*
X478447Y778800D01*
X489399Y778800D01*
X489399Y771848D01*
X478447Y771848D01*
X478447Y773604D02*
X489399Y773604D01*
X489399Y775360D02*
X478447Y775360D01*
X478447Y777116D02*
X489399Y777116D01*
X478447Y760800D02*
X478447Y753848D01*
X478447Y760800D02*
X489399Y760800D01*
X489399Y753848D01*
X478447Y753848D01*
X478447Y755604D02*
X489399Y755604D01*
X489399Y757360D02*
X478447Y757360D01*
X478447Y759116D02*
X489399Y759116D01*
X299867Y393306D02*
X292915Y393306D01*
X292915Y404258D01*
X299867Y404258D01*
X299867Y393306D01*
X299867Y395062D02*
X292915Y395062D01*
X292915Y396818D02*
X299867Y396818D01*
X299867Y398574D02*
X292915Y398574D01*
X292915Y400330D02*
X299867Y400330D01*
X299867Y402086D02*
X292915Y402086D01*
X292915Y403842D02*
X299867Y403842D01*
X310915Y393306D02*
X317867Y393306D01*
X310915Y393306D02*
X310915Y404258D01*
X317867Y404258D01*
X317867Y393306D01*
X317867Y395062D02*
X310915Y395062D01*
X310915Y396818D02*
X317867Y396818D01*
X317867Y398574D02*
X310915Y398574D01*
X310915Y400330D02*
X317867Y400330D01*
X317867Y402086D02*
X310915Y402086D01*
X310915Y403842D02*
X317867Y403842D01*
X209900Y342285D02*
X209900Y335333D01*
X209900Y342285D02*
X220852Y342285D01*
X220852Y335333D01*
X209900Y335333D01*
X209900Y337089D02*
X220852Y337089D01*
X220852Y338845D02*
X209900Y338845D01*
X209900Y340601D02*
X220852Y340601D01*
X209900Y324285D02*
X209900Y317333D01*
X209900Y324285D02*
X220852Y324285D01*
X220852Y317333D01*
X209900Y317333D01*
X209900Y319089D02*
X220852Y319089D01*
X220852Y320845D02*
X209900Y320845D01*
X209900Y322601D02*
X220852Y322601D01*
X257557Y334955D02*
X257557Y341907D01*
X268509Y341907D01*
X268509Y334955D01*
X257557Y334955D01*
X257557Y336711D02*
X268509Y336711D01*
X268509Y338467D02*
X257557Y338467D01*
X257557Y340223D02*
X268509Y340223D01*
X257557Y323907D02*
X257557Y316955D01*
X257557Y323907D02*
X268509Y323907D01*
X268509Y316955D01*
X257557Y316955D01*
X257557Y318711D02*
X268509Y318711D01*
X268509Y320467D02*
X257557Y320467D01*
X257557Y322223D02*
X268509Y322223D01*
X110738Y384057D02*
X110738Y391009D01*
X121690Y391009D01*
X121690Y384057D01*
X110738Y384057D01*
X110738Y385813D02*
X121690Y385813D01*
X121690Y387569D02*
X110738Y387569D01*
X110738Y389325D02*
X121690Y389325D01*
X110738Y373009D02*
X110738Y366057D01*
X110738Y373009D02*
X121690Y373009D01*
X121690Y366057D01*
X110738Y366057D01*
X110738Y367813D02*
X121690Y367813D01*
X121690Y369569D02*
X110738Y369569D01*
X110738Y371325D02*
X121690Y371325D01*
X41281Y469008D02*
X34329Y469008D01*
X41281Y469008D02*
X41281Y458056D01*
X34329Y458056D01*
X34329Y469008D01*
X34329Y459812D02*
X41281Y459812D01*
X41281Y461568D02*
X34329Y461568D01*
X34329Y463324D02*
X41281Y463324D01*
X41281Y465080D02*
X34329Y465080D01*
X34329Y466836D02*
X41281Y466836D01*
X41281Y468592D02*
X34329Y468592D01*
X23281Y469008D02*
X16329Y469008D01*
X23281Y469008D02*
X23281Y458056D01*
X16329Y458056D01*
X16329Y469008D01*
X16329Y459812D02*
X23281Y459812D01*
X23281Y461568D02*
X16329Y461568D01*
X16329Y463324D02*
X23281Y463324D01*
X23281Y465080D02*
X16329Y465080D01*
X16329Y466836D02*
X23281Y466836D01*
X23281Y468592D02*
X16329Y468592D01*
X118081Y348164D02*
X125033Y348164D01*
X125033Y337212D01*
X118081Y337212D01*
X118081Y348164D01*
X118081Y338968D02*
X125033Y338968D01*
X125033Y340724D02*
X118081Y340724D01*
X118081Y342480D02*
X125033Y342480D01*
X125033Y344236D02*
X118081Y344236D01*
X118081Y345992D02*
X125033Y345992D01*
X125033Y347748D02*
X118081Y347748D01*
X107033Y348164D02*
X100081Y348164D01*
X107033Y348164D02*
X107033Y337212D01*
X100081Y337212D01*
X100081Y348164D01*
X100081Y338968D02*
X107033Y338968D01*
X107033Y340724D02*
X100081Y340724D01*
X100081Y342480D02*
X107033Y342480D01*
X107033Y344236D02*
X100081Y344236D01*
X100081Y345992D02*
X107033Y345992D01*
X107033Y347748D02*
X100081Y347748D01*
X111488Y431425D02*
X111488Y438377D01*
X122440Y438377D01*
X122440Y431425D01*
X111488Y431425D01*
X111488Y433181D02*
X122440Y433181D01*
X122440Y434937D02*
X111488Y434937D01*
X111488Y436693D02*
X122440Y436693D01*
X111488Y420377D02*
X111488Y413425D01*
X111488Y420377D02*
X122440Y420377D01*
X122440Y413425D01*
X111488Y413425D01*
X111488Y415181D02*
X122440Y415181D01*
X122440Y416937D02*
X111488Y416937D01*
X111488Y418693D02*
X122440Y418693D01*
X211293Y904221D02*
X218245Y904221D01*
X218245Y893269D01*
X211293Y893269D01*
X211293Y904221D01*
X211293Y895025D02*
X218245Y895025D01*
X218245Y896781D02*
X211293Y896781D01*
X211293Y898537D02*
X218245Y898537D01*
X218245Y900293D02*
X211293Y900293D01*
X211293Y902049D02*
X218245Y902049D01*
X218245Y903805D02*
X211293Y903805D01*
X200245Y904221D02*
X193293Y904221D01*
X200245Y904221D02*
X200245Y893269D01*
X193293Y893269D01*
X193293Y904221D01*
X193293Y895025D02*
X200245Y895025D01*
X200245Y896781D02*
X193293Y896781D01*
X193293Y898537D02*
X200245Y898537D01*
X200245Y900293D02*
X193293Y900293D01*
X193293Y902049D02*
X200245Y902049D01*
X200245Y903805D02*
X193293Y903805D01*
X409188Y595543D02*
X416140Y595543D01*
X416140Y584591D01*
X409188Y584591D01*
X409188Y595543D01*
X409188Y586347D02*
X416140Y586347D01*
X416140Y588103D02*
X409188Y588103D01*
X409188Y589859D02*
X416140Y589859D01*
X416140Y591615D02*
X409188Y591615D01*
X409188Y593371D02*
X416140Y593371D01*
X416140Y595127D02*
X409188Y595127D01*
X398140Y595543D02*
X391188Y595543D01*
X398140Y595543D02*
X398140Y584591D01*
X391188Y584591D01*
X391188Y595543D01*
X391188Y586347D02*
X398140Y586347D01*
X398140Y588103D02*
X391188Y588103D01*
X391188Y589859D02*
X398140Y589859D01*
X398140Y591615D02*
X391188Y591615D01*
X391188Y593371D02*
X398140Y593371D01*
X398140Y595127D02*
X391188Y595127D01*
X406265Y522163D02*
X413217Y522163D01*
X406265Y522163D02*
X406265Y533115D01*
X413217Y533115D01*
X413217Y522163D01*
X413217Y523919D02*
X406265Y523919D01*
X406265Y525675D02*
X413217Y525675D01*
X413217Y527431D02*
X406265Y527431D01*
X406265Y529187D02*
X413217Y529187D01*
X413217Y530943D02*
X406265Y530943D01*
X406265Y532699D02*
X413217Y532699D01*
X424265Y522163D02*
X431217Y522163D01*
X424265Y522163D02*
X424265Y533115D01*
X431217Y533115D01*
X431217Y522163D01*
X431217Y523919D02*
X424265Y523919D01*
X424265Y525675D02*
X431217Y525675D01*
X431217Y527431D02*
X424265Y527431D01*
X424265Y529187D02*
X431217Y529187D01*
X431217Y530943D02*
X424265Y530943D01*
X424265Y532699D02*
X431217Y532699D01*
X368666Y409402D02*
X361714Y409402D01*
X361714Y420354D01*
X368666Y420354D01*
X368666Y409402D01*
X368666Y411158D02*
X361714Y411158D01*
X361714Y412914D02*
X368666Y412914D01*
X368666Y414670D02*
X361714Y414670D01*
X361714Y416426D02*
X368666Y416426D01*
X368666Y418182D02*
X361714Y418182D01*
X361714Y419938D02*
X368666Y419938D01*
X379714Y409402D02*
X386666Y409402D01*
X379714Y409402D02*
X379714Y420354D01*
X386666Y420354D01*
X386666Y409402D01*
X386666Y411158D02*
X379714Y411158D01*
X379714Y412914D02*
X386666Y412914D01*
X386666Y414670D02*
X379714Y414670D01*
X379714Y416426D02*
X386666Y416426D01*
X386666Y418182D02*
X379714Y418182D01*
X379714Y419938D02*
X386666Y419938D01*
X364126Y337012D02*
X364126Y330060D01*
X353174Y330060D01*
X353174Y337012D01*
X364126Y337012D01*
X364126Y331816D02*
X353174Y331816D01*
X353174Y333572D02*
X364126Y333572D01*
X364126Y335328D02*
X353174Y335328D01*
X364126Y348060D02*
X364126Y355012D01*
X364126Y348060D02*
X353174Y348060D01*
X353174Y355012D01*
X364126Y355012D01*
X364126Y349816D02*
X353174Y349816D01*
X353174Y351572D02*
X364126Y351572D01*
X364126Y353328D02*
X353174Y353328D01*
X318637Y380692D02*
X311685Y380692D01*
X318637Y380692D02*
X318637Y369740D01*
X311685Y369740D01*
X311685Y380692D01*
X311685Y371496D02*
X318637Y371496D01*
X318637Y373252D02*
X311685Y373252D01*
X311685Y375008D02*
X318637Y375008D01*
X318637Y376764D02*
X311685Y376764D01*
X311685Y378520D02*
X318637Y378520D01*
X318637Y380276D02*
X311685Y380276D01*
X300637Y380692D02*
X293685Y380692D01*
X300637Y380692D02*
X300637Y369740D01*
X293685Y369740D01*
X293685Y380692D01*
X293685Y371496D02*
X300637Y371496D01*
X300637Y373252D02*
X293685Y373252D01*
X293685Y375008D02*
X300637Y375008D01*
X300637Y376764D02*
X293685Y376764D01*
X293685Y378520D02*
X300637Y378520D01*
X300637Y380276D02*
X293685Y380276D01*
D21*
X47777Y880773D02*
X47777Y897827D01*
X47777Y880773D02*
X37223Y880773D01*
X37223Y897827D01*
X47777Y897827D01*
X47777Y882827D02*
X37223Y882827D01*
X37223Y884881D02*
X47777Y884881D01*
X47777Y886935D02*
X37223Y886935D01*
X37223Y888989D02*
X47777Y888989D01*
X47777Y891043D02*
X37223Y891043D01*
X37223Y893097D02*
X47777Y893097D01*
X47777Y895151D02*
X37223Y895151D01*
X37223Y897205D02*
X47777Y897205D01*
X78177Y897827D02*
X78177Y880773D01*
X67623Y880773D01*
X67623Y897827D01*
X78177Y897827D01*
X78177Y882827D02*
X67623Y882827D01*
X67623Y884881D02*
X78177Y884881D01*
X78177Y886935D02*
X67623Y886935D01*
X67623Y888989D02*
X78177Y888989D01*
X78177Y891043D02*
X67623Y891043D01*
X67623Y893097D02*
X78177Y893097D01*
X78177Y895151D02*
X67623Y895151D01*
X67623Y897205D02*
X78177Y897205D01*
D12*
X717900Y813100D03*
X717900Y838500D03*
X743300Y813100D03*
X743300Y838500D03*
D19*
X675425Y956075D02*
X675425Y970525D01*
X680375Y970525D01*
X680375Y956075D01*
X675425Y956075D01*
X675425Y957642D02*
X680375Y957642D01*
X680375Y959209D02*
X675425Y959209D01*
X675425Y960776D02*
X680375Y960776D01*
X680375Y962343D02*
X675425Y962343D01*
X675425Y963910D02*
X680375Y963910D01*
X680375Y965477D02*
X675425Y965477D01*
X675425Y967044D02*
X680375Y967044D01*
X680375Y968611D02*
X675425Y968611D01*
X675425Y970178D02*
X680375Y970178D01*
X662725Y970525D02*
X662725Y956075D01*
X662725Y970525D02*
X667675Y970525D01*
X667675Y956075D01*
X662725Y956075D01*
X662725Y957642D02*
X667675Y957642D01*
X667675Y959209D02*
X662725Y959209D01*
X662725Y960776D02*
X667675Y960776D01*
X667675Y962343D02*
X662725Y962343D01*
X662725Y963910D02*
X667675Y963910D01*
X667675Y965477D02*
X662725Y965477D01*
X662725Y967044D02*
X667675Y967044D01*
X667675Y968611D02*
X662725Y968611D01*
X662725Y970178D02*
X667675Y970178D01*
X650025Y970525D02*
X650025Y956075D01*
X650025Y970525D02*
X654975Y970525D01*
X654975Y956075D01*
X650025Y956075D01*
X650025Y957642D02*
X654975Y957642D01*
X654975Y959209D02*
X650025Y959209D01*
X650025Y960776D02*
X654975Y960776D01*
X654975Y962343D02*
X650025Y962343D01*
X650025Y963910D02*
X654975Y963910D01*
X654975Y965477D02*
X650025Y965477D01*
X650025Y967044D02*
X654975Y967044D01*
X654975Y968611D02*
X650025Y968611D01*
X650025Y970178D02*
X654975Y970178D01*
X637325Y970525D02*
X637325Y956075D01*
X637325Y970525D02*
X642275Y970525D01*
X642275Y956075D01*
X637325Y956075D01*
X637325Y957642D02*
X642275Y957642D01*
X642275Y959209D02*
X637325Y959209D01*
X637325Y960776D02*
X642275Y960776D01*
X642275Y962343D02*
X637325Y962343D01*
X637325Y963910D02*
X642275Y963910D01*
X642275Y965477D02*
X637325Y965477D01*
X637325Y967044D02*
X642275Y967044D01*
X642275Y968611D02*
X637325Y968611D01*
X637325Y970178D02*
X642275Y970178D01*
X675425Y916525D02*
X675425Y902075D01*
X675425Y916525D02*
X680375Y916525D01*
X680375Y902075D01*
X675425Y902075D01*
X675425Y903642D02*
X680375Y903642D01*
X680375Y905209D02*
X675425Y905209D01*
X675425Y906776D02*
X680375Y906776D01*
X680375Y908343D02*
X675425Y908343D01*
X675425Y909910D02*
X680375Y909910D01*
X680375Y911477D02*
X675425Y911477D01*
X675425Y913044D02*
X680375Y913044D01*
X680375Y914611D02*
X675425Y914611D01*
X675425Y916178D02*
X680375Y916178D01*
X662725Y916525D02*
X662725Y902075D01*
X662725Y916525D02*
X667675Y916525D01*
X667675Y902075D01*
X662725Y902075D01*
X662725Y903642D02*
X667675Y903642D01*
X667675Y905209D02*
X662725Y905209D01*
X662725Y906776D02*
X667675Y906776D01*
X667675Y908343D02*
X662725Y908343D01*
X662725Y909910D02*
X667675Y909910D01*
X667675Y911477D02*
X662725Y911477D01*
X662725Y913044D02*
X667675Y913044D01*
X667675Y914611D02*
X662725Y914611D01*
X662725Y916178D02*
X667675Y916178D01*
X650025Y916525D02*
X650025Y902075D01*
X650025Y916525D02*
X654975Y916525D01*
X654975Y902075D01*
X650025Y902075D01*
X650025Y903642D02*
X654975Y903642D01*
X654975Y905209D02*
X650025Y905209D01*
X650025Y906776D02*
X654975Y906776D01*
X654975Y908343D02*
X650025Y908343D01*
X650025Y909910D02*
X654975Y909910D01*
X654975Y911477D02*
X650025Y911477D01*
X650025Y913044D02*
X654975Y913044D01*
X654975Y914611D02*
X650025Y914611D01*
X650025Y916178D02*
X654975Y916178D01*
X637325Y916525D02*
X637325Y902075D01*
X637325Y916525D02*
X642275Y916525D01*
X642275Y902075D01*
X637325Y902075D01*
X637325Y903642D02*
X642275Y903642D01*
X642275Y905209D02*
X637325Y905209D01*
X637325Y906776D02*
X642275Y906776D01*
X642275Y908343D02*
X637325Y908343D01*
X637325Y909910D02*
X642275Y909910D01*
X642275Y911477D02*
X637325Y911477D01*
X637325Y913044D02*
X642275Y913044D01*
X642275Y914611D02*
X637325Y914611D01*
X637325Y916178D02*
X642275Y916178D01*
D22*
X743378Y507128D02*
X743378Y503672D01*
X723422Y503672D01*
X723422Y507128D01*
X743378Y507128D01*
X743378Y505146D02*
X723422Y505146D01*
X723422Y506620D02*
X743378Y506620D01*
X743378Y500628D02*
X743378Y497172D01*
X723422Y497172D01*
X723422Y500628D01*
X743378Y500628D01*
X743378Y498646D02*
X723422Y498646D01*
X723422Y500120D02*
X743378Y500120D01*
X743378Y510172D02*
X743378Y513628D01*
X743378Y510172D02*
X723422Y510172D01*
X723422Y513628D01*
X743378Y513628D01*
X743378Y511646D02*
X723422Y511646D01*
X723422Y513120D02*
X743378Y513120D01*
X743378Y523172D02*
X743378Y526628D01*
X743378Y523172D02*
X723422Y523172D01*
X723422Y526628D01*
X743378Y526628D01*
X743378Y524646D02*
X723422Y524646D01*
X723422Y526120D02*
X743378Y526120D01*
X743378Y520128D02*
X743378Y516672D01*
X723422Y516672D01*
X723422Y520128D01*
X743378Y520128D01*
X743378Y518146D02*
X723422Y518146D01*
X723422Y519620D02*
X743378Y519620D01*
D23*
X749773Y523673D02*
X769627Y523673D01*
X749773Y523673D02*
X749773Y533527D01*
X769627Y533527D01*
X769627Y523673D01*
X769627Y525728D02*
X749773Y525728D01*
X749773Y527783D02*
X769627Y527783D01*
X769627Y529838D02*
X749773Y529838D01*
X749773Y531893D02*
X769627Y531893D01*
X769627Y490673D02*
X749773Y490673D01*
X749773Y500527D01*
X769627Y500527D01*
X769627Y490673D01*
X769627Y492728D02*
X749773Y492728D01*
X749773Y494783D02*
X769627Y494783D01*
X769627Y496838D02*
X749773Y496838D01*
X749773Y498893D02*
X769627Y498893D01*
D24*
X732950Y536600D03*
X732950Y487100D03*
D25*
X763700Y477100D03*
X763700Y547100D03*
D15*
X152028Y345645D03*
X152028Y410923D03*
D26*
X303910Y987390D02*
X303910Y995410D01*
X303910Y987390D02*
X289890Y987390D01*
X289890Y995410D01*
X303910Y995410D01*
X303910Y989177D02*
X289890Y989177D01*
X289890Y990964D02*
X303910Y990964D01*
X303910Y992751D02*
X289890Y992751D01*
X289890Y994538D02*
X303910Y994538D01*
X303910Y982710D02*
X303910Y974690D01*
X289890Y974690D01*
X289890Y982710D01*
X303910Y982710D01*
X303910Y976477D02*
X289890Y976477D01*
X289890Y978264D02*
X303910Y978264D01*
X303910Y980051D02*
X289890Y980051D01*
X289890Y981838D02*
X303910Y981838D01*
X303910Y970010D02*
X303910Y961990D01*
X289890Y961990D01*
X289890Y970010D01*
X303910Y970010D01*
X303910Y963777D02*
X289890Y963777D01*
X289890Y965564D02*
X303910Y965564D01*
X303910Y967351D02*
X289890Y967351D01*
X289890Y969138D02*
X303910Y969138D01*
X303910Y957310D02*
X303910Y949290D01*
X289890Y949290D01*
X289890Y957310D01*
X303910Y957310D01*
X303910Y951077D02*
X289890Y951077D01*
X289890Y952864D02*
X303910Y952864D01*
X303910Y954651D02*
X289890Y954651D01*
X289890Y956438D02*
X303910Y956438D01*
X303910Y944610D02*
X303910Y936590D01*
X289890Y936590D01*
X289890Y944610D01*
X303910Y944610D01*
X303910Y938377D02*
X289890Y938377D01*
X289890Y940164D02*
X303910Y940164D01*
X303910Y941951D02*
X289890Y941951D01*
X289890Y943738D02*
X303910Y943738D01*
X303910Y931910D02*
X303910Y923890D01*
X289890Y923890D01*
X289890Y931910D01*
X303910Y931910D01*
X303910Y925677D02*
X289890Y925677D01*
X289890Y927464D02*
X303910Y927464D01*
X303910Y929251D02*
X289890Y929251D01*
X289890Y931038D02*
X303910Y931038D01*
X303910Y919210D02*
X303910Y911190D01*
X289890Y911190D01*
X289890Y919210D01*
X303910Y919210D01*
X303910Y912977D02*
X289890Y912977D01*
X289890Y914764D02*
X303910Y914764D01*
X303910Y916551D02*
X289890Y916551D01*
X289890Y918338D02*
X303910Y918338D01*
X303910Y906510D02*
X303910Y898490D01*
X289890Y898490D01*
X289890Y906510D01*
X303910Y906510D01*
X303910Y900277D02*
X289890Y900277D01*
X289890Y902064D02*
X303910Y902064D01*
X303910Y903851D02*
X289890Y903851D01*
X289890Y905638D02*
X303910Y905638D01*
X303910Y893810D02*
X303910Y885790D01*
X289890Y885790D01*
X289890Y893810D01*
X303910Y893810D01*
X303910Y887577D02*
X289890Y887577D01*
X289890Y889364D02*
X303910Y889364D01*
X303910Y891151D02*
X289890Y891151D01*
X289890Y892938D02*
X303910Y892938D01*
X303910Y881110D02*
X303910Y873090D01*
X289890Y873090D01*
X289890Y881110D01*
X303910Y881110D01*
X303910Y874877D02*
X289890Y874877D01*
X289890Y876664D02*
X303910Y876664D01*
X303910Y878451D02*
X289890Y878451D01*
X289890Y880238D02*
X303910Y880238D01*
X303910Y868410D02*
X303910Y860390D01*
X289890Y860390D01*
X289890Y868410D01*
X303910Y868410D01*
X303910Y862177D02*
X289890Y862177D01*
X289890Y863964D02*
X303910Y863964D01*
X303910Y865751D02*
X289890Y865751D01*
X289890Y867538D02*
X303910Y867538D01*
X303910Y855710D02*
X303910Y847690D01*
X289890Y847690D01*
X289890Y855710D01*
X303910Y855710D01*
X303910Y849477D02*
X289890Y849477D01*
X289890Y851264D02*
X303910Y851264D01*
X303910Y853051D02*
X289890Y853051D01*
X289890Y854838D02*
X303910Y854838D01*
X303910Y843010D02*
X303910Y834990D01*
X289890Y834990D01*
X289890Y843010D01*
X303910Y843010D01*
X303910Y836777D02*
X289890Y836777D01*
X289890Y838564D02*
X303910Y838564D01*
X303910Y840351D02*
X289890Y840351D01*
X289890Y842138D02*
X303910Y842138D01*
X303910Y830310D02*
X303910Y822290D01*
X289890Y822290D01*
X289890Y830310D01*
X303910Y830310D01*
X303910Y824077D02*
X289890Y824077D01*
X289890Y825864D02*
X303910Y825864D01*
X303910Y827651D02*
X289890Y827651D01*
X289890Y829438D02*
X303910Y829438D01*
X325740Y818410D02*
X333760Y818410D01*
X333760Y804390D01*
X325740Y804390D01*
X325740Y818410D01*
X325740Y806177D02*
X333760Y806177D01*
X333760Y807964D02*
X325740Y807964D01*
X325740Y809751D02*
X333760Y809751D01*
X333760Y811538D02*
X325740Y811538D01*
X325740Y813325D02*
X333760Y813325D01*
X333760Y815112D02*
X325740Y815112D01*
X325740Y816899D02*
X333760Y816899D01*
X338440Y818410D02*
X346460Y818410D01*
X346460Y804390D01*
X338440Y804390D01*
X338440Y818410D01*
X338440Y806177D02*
X346460Y806177D01*
X346460Y807964D02*
X338440Y807964D01*
X338440Y809751D02*
X346460Y809751D01*
X346460Y811538D02*
X338440Y811538D01*
X338440Y813325D02*
X346460Y813325D01*
X346460Y815112D02*
X338440Y815112D01*
X338440Y816899D02*
X346460Y816899D01*
X351140Y818410D02*
X359160Y818410D01*
X359160Y804390D01*
X351140Y804390D01*
X351140Y818410D01*
X351140Y806177D02*
X359160Y806177D01*
X359160Y807964D02*
X351140Y807964D01*
X351140Y809751D02*
X359160Y809751D01*
X359160Y811538D02*
X351140Y811538D01*
X351140Y813325D02*
X359160Y813325D01*
X359160Y815112D02*
X351140Y815112D01*
X351140Y816899D02*
X359160Y816899D01*
X363840Y818410D02*
X371860Y818410D01*
X371860Y804390D01*
X363840Y804390D01*
X363840Y818410D01*
X363840Y806177D02*
X371860Y806177D01*
X371860Y807964D02*
X363840Y807964D01*
X363840Y809751D02*
X371860Y809751D01*
X371860Y811538D02*
X363840Y811538D01*
X363840Y813325D02*
X371860Y813325D01*
X371860Y815112D02*
X363840Y815112D01*
X363840Y816899D02*
X371860Y816899D01*
X376540Y818410D02*
X384560Y818410D01*
X384560Y804390D01*
X376540Y804390D01*
X376540Y818410D01*
X376540Y806177D02*
X384560Y806177D01*
X384560Y807964D02*
X376540Y807964D01*
X376540Y809751D02*
X384560Y809751D01*
X384560Y811538D02*
X376540Y811538D01*
X376540Y813325D02*
X384560Y813325D01*
X384560Y815112D02*
X376540Y815112D01*
X376540Y816899D02*
X384560Y816899D01*
X389240Y818410D02*
X397260Y818410D01*
X397260Y804390D01*
X389240Y804390D01*
X389240Y818410D01*
X389240Y806177D02*
X397260Y806177D01*
X397260Y807964D02*
X389240Y807964D01*
X389240Y809751D02*
X397260Y809751D01*
X397260Y811538D02*
X389240Y811538D01*
X389240Y813325D02*
X397260Y813325D01*
X397260Y815112D02*
X389240Y815112D01*
X389240Y816899D02*
X397260Y816899D01*
X401940Y818410D02*
X409960Y818410D01*
X409960Y804390D01*
X401940Y804390D01*
X401940Y818410D01*
X401940Y806177D02*
X409960Y806177D01*
X409960Y807964D02*
X401940Y807964D01*
X401940Y809751D02*
X409960Y809751D01*
X409960Y811538D02*
X401940Y811538D01*
X401940Y813325D02*
X409960Y813325D01*
X409960Y815112D02*
X401940Y815112D01*
X401940Y816899D02*
X409960Y816899D01*
X414640Y818410D02*
X422660Y818410D01*
X422660Y804390D01*
X414640Y804390D01*
X414640Y818410D01*
X414640Y806177D02*
X422660Y806177D01*
X422660Y807964D02*
X414640Y807964D01*
X414640Y809751D02*
X422660Y809751D01*
X422660Y811538D02*
X414640Y811538D01*
X414640Y813325D02*
X422660Y813325D01*
X422660Y815112D02*
X414640Y815112D01*
X414640Y816899D02*
X422660Y816899D01*
X427340Y818410D02*
X435360Y818410D01*
X435360Y804390D01*
X427340Y804390D01*
X427340Y818410D01*
X427340Y806177D02*
X435360Y806177D01*
X435360Y807964D02*
X427340Y807964D01*
X427340Y809751D02*
X435360Y809751D01*
X435360Y811538D02*
X427340Y811538D01*
X427340Y813325D02*
X435360Y813325D01*
X435360Y815112D02*
X427340Y815112D01*
X427340Y816899D02*
X435360Y816899D01*
X440040Y818410D02*
X448060Y818410D01*
X448060Y804390D01*
X440040Y804390D01*
X440040Y818410D01*
X440040Y806177D02*
X448060Y806177D01*
X448060Y807964D02*
X440040Y807964D01*
X440040Y809751D02*
X448060Y809751D01*
X448060Y811538D02*
X440040Y811538D01*
X440040Y813325D02*
X448060Y813325D01*
X448060Y815112D02*
X440040Y815112D01*
X440040Y816899D02*
X448060Y816899D01*
X483910Y822290D02*
X483910Y830310D01*
X483910Y822290D02*
X469890Y822290D01*
X469890Y830310D01*
X483910Y830310D01*
X483910Y824077D02*
X469890Y824077D01*
X469890Y825864D02*
X483910Y825864D01*
X483910Y827651D02*
X469890Y827651D01*
X469890Y829438D02*
X483910Y829438D01*
X483910Y834990D02*
X483910Y843010D01*
X483910Y834990D02*
X469890Y834990D01*
X469890Y843010D01*
X483910Y843010D01*
X483910Y836777D02*
X469890Y836777D01*
X469890Y838564D02*
X483910Y838564D01*
X483910Y840351D02*
X469890Y840351D01*
X469890Y842138D02*
X483910Y842138D01*
X483910Y847690D02*
X483910Y855710D01*
X483910Y847690D02*
X469890Y847690D01*
X469890Y855710D01*
X483910Y855710D01*
X483910Y849477D02*
X469890Y849477D01*
X469890Y851264D02*
X483910Y851264D01*
X483910Y853051D02*
X469890Y853051D01*
X469890Y854838D02*
X483910Y854838D01*
X483910Y860390D02*
X483910Y868410D01*
X483910Y860390D02*
X469890Y860390D01*
X469890Y868410D01*
X483910Y868410D01*
X483910Y862177D02*
X469890Y862177D01*
X469890Y863964D02*
X483910Y863964D01*
X483910Y865751D02*
X469890Y865751D01*
X469890Y867538D02*
X483910Y867538D01*
X483910Y873090D02*
X483910Y881110D01*
X483910Y873090D02*
X469890Y873090D01*
X469890Y881110D01*
X483910Y881110D01*
X483910Y874877D02*
X469890Y874877D01*
X469890Y876664D02*
X483910Y876664D01*
X483910Y878451D02*
X469890Y878451D01*
X469890Y880238D02*
X483910Y880238D01*
X483910Y885790D02*
X483910Y893810D01*
X483910Y885790D02*
X469890Y885790D01*
X469890Y893810D01*
X483910Y893810D01*
X483910Y887577D02*
X469890Y887577D01*
X469890Y889364D02*
X483910Y889364D01*
X483910Y891151D02*
X469890Y891151D01*
X469890Y892938D02*
X483910Y892938D01*
X483910Y898490D02*
X483910Y906510D01*
X483910Y898490D02*
X469890Y898490D01*
X469890Y906510D01*
X483910Y906510D01*
X483910Y900277D02*
X469890Y900277D01*
X469890Y902064D02*
X483910Y902064D01*
X483910Y903851D02*
X469890Y903851D01*
X469890Y905638D02*
X483910Y905638D01*
X483910Y911190D02*
X483910Y919210D01*
X483910Y911190D02*
X469890Y911190D01*
X469890Y919210D01*
X483910Y919210D01*
X483910Y912977D02*
X469890Y912977D01*
X469890Y914764D02*
X483910Y914764D01*
X483910Y916551D02*
X469890Y916551D01*
X469890Y918338D02*
X483910Y918338D01*
X483910Y923890D02*
X483910Y931910D01*
X483910Y923890D02*
X469890Y923890D01*
X469890Y931910D01*
X483910Y931910D01*
X483910Y925677D02*
X469890Y925677D01*
X469890Y927464D02*
X483910Y927464D01*
X483910Y929251D02*
X469890Y929251D01*
X469890Y931038D02*
X483910Y931038D01*
X483910Y936590D02*
X483910Y944610D01*
X483910Y936590D02*
X469890Y936590D01*
X469890Y944610D01*
X483910Y944610D01*
X483910Y938377D02*
X469890Y938377D01*
X469890Y940164D02*
X483910Y940164D01*
X483910Y941951D02*
X469890Y941951D01*
X469890Y943738D02*
X483910Y943738D01*
X483910Y949290D02*
X483910Y957310D01*
X483910Y949290D02*
X469890Y949290D01*
X469890Y957310D01*
X483910Y957310D01*
X483910Y951077D02*
X469890Y951077D01*
X469890Y952864D02*
X483910Y952864D01*
X483910Y954651D02*
X469890Y954651D01*
X469890Y956438D02*
X483910Y956438D01*
X483910Y961990D02*
X483910Y970010D01*
X483910Y961990D02*
X469890Y961990D01*
X469890Y970010D01*
X483910Y970010D01*
X483910Y963777D02*
X469890Y963777D01*
X469890Y965564D02*
X483910Y965564D01*
X483910Y967351D02*
X469890Y967351D01*
X469890Y969138D02*
X483910Y969138D01*
X483910Y974690D02*
X483910Y982710D01*
X483910Y974690D02*
X469890Y974690D01*
X469890Y982710D01*
X483910Y982710D01*
X483910Y976477D02*
X469890Y976477D01*
X469890Y978264D02*
X483910Y978264D01*
X483910Y980051D02*
X469890Y980051D01*
X469890Y981838D02*
X483910Y981838D01*
X483910Y987390D02*
X483910Y995410D01*
X483910Y987390D02*
X469890Y987390D01*
X469890Y995410D01*
X483910Y995410D01*
X483910Y989177D02*
X469890Y989177D01*
X469890Y990964D02*
X483910Y990964D01*
X483910Y992751D02*
X469890Y992751D01*
X469890Y994538D02*
X483910Y994538D01*
D27*
X414357Y941857D02*
X414357Y886943D01*
X359443Y886943D01*
X359443Y941857D01*
X414357Y941857D01*
X414357Y892740D02*
X359443Y892740D01*
X359443Y898537D02*
X414357Y898537D01*
X414357Y904334D02*
X359443Y904334D01*
X359443Y910131D02*
X414357Y910131D01*
X414357Y915928D02*
X359443Y915928D01*
X359443Y921725D02*
X414357Y921725D01*
X414357Y927522D02*
X359443Y927522D01*
X359443Y933319D02*
X414357Y933319D01*
X414357Y939116D02*
X359443Y939116D01*
D28*
X37300Y808100D03*
X62700Y808100D03*
X37300Y782700D03*
X62700Y782700D03*
X37300Y757300D03*
X62700Y757300D03*
X37300Y731900D03*
X62700Y731900D03*
D13*
X346017Y448921D02*
X346017Y441969D01*
X335065Y441969D01*
X335065Y448921D01*
X346017Y448921D01*
X346017Y443725D02*
X335065Y443725D01*
X335065Y445481D02*
X346017Y445481D01*
X346017Y447237D02*
X335065Y447237D01*
X346017Y459969D02*
X346017Y466921D01*
X346017Y459969D02*
X335065Y459969D01*
X335065Y466921D01*
X346017Y466921D01*
X346017Y461725D02*
X335065Y461725D01*
X335065Y463481D02*
X346017Y463481D01*
X346017Y465237D02*
X335065Y465237D01*
X232607Y618136D02*
X232607Y625088D01*
X243559Y625088D01*
X243559Y618136D01*
X232607Y618136D01*
X232607Y619892D02*
X243559Y619892D01*
X243559Y621648D02*
X232607Y621648D01*
X232607Y623404D02*
X243559Y623404D01*
X232607Y607088D02*
X232607Y600136D01*
X232607Y607088D02*
X243559Y607088D01*
X243559Y600136D01*
X232607Y600136D01*
X232607Y601892D02*
X243559Y601892D01*
X243559Y603648D02*
X232607Y603648D01*
X232607Y605404D02*
X243559Y605404D01*
X339810Y418697D02*
X339810Y411745D01*
X328858Y411745D01*
X328858Y418697D01*
X339810Y418697D01*
X339810Y413501D02*
X328858Y413501D01*
X328858Y415257D02*
X339810Y415257D01*
X339810Y417013D02*
X328858Y417013D01*
X339810Y429745D02*
X339810Y436697D01*
X339810Y429745D02*
X328858Y429745D01*
X328858Y436697D01*
X339810Y436697D01*
X339810Y431501D02*
X328858Y431501D01*
X328858Y433257D02*
X339810Y433257D01*
X339810Y435013D02*
X328858Y435013D01*
D12*
X94793Y968631D03*
X94793Y943231D03*
X30000Y980000D03*
X30000Y954600D03*
X110000Y620000D03*
X110000Y645400D03*
X110000Y670800D03*
X110000Y696200D03*
X110000Y721600D03*
X110000Y747000D03*
X580000Y650000D03*
X580000Y675400D03*
X580000Y700800D03*
X580000Y726200D03*
X580000Y751600D03*
X580000Y777000D03*
X580000Y802400D03*
X580000Y827800D03*
X580000Y853200D03*
X580000Y878600D03*
X580000Y904000D03*
X580000Y929400D03*
X580000Y954800D03*
X580000Y980200D03*
D24*
X240000Y650000D03*
X400431Y616585D03*
X209669Y490522D03*
X416229Y437341D03*
X326009Y770890D03*
X150000Y460000D03*
X280000Y290000D03*
X320000Y290000D03*
X220000Y430000D03*
X239649Y490728D03*
X215237Y597393D03*
X428401Y602167D03*
X396397Y440750D03*
M02*
