G04 EAGLE Gerber RS-274X export*
G75*
%MOMM*%
%FSLAX34Y34*%
%LPD*%
%INSoldermask Bottom*%
%IPNEG*%
%AMOC8*
5,1,8,0,0,1.08239X$1,22.5*%
G01*
%ADD10C,1.981200*%
%ADD11C,2.286000*%
%ADD12P,2.144431X8X112.500000*%
%ADD13C,1.609600*%
%ADD14C,2.051600*%
%ADD15P,2.144431X8X292.500000*%


D10*
X740900Y892500D03*
X740900Y917900D03*
X740900Y943300D03*
D11*
X510900Y785739D03*
X510900Y720461D03*
X230731Y983410D03*
X230731Y918132D03*
D12*
X116152Y505625D03*
X90752Y505625D03*
X116152Y531025D03*
X90752Y531025D03*
X116152Y556425D03*
X90752Y556425D03*
X116152Y581825D03*
X90752Y581825D03*
D10*
X215720Y359796D03*
X215720Y385196D03*
X263209Y361159D03*
X263209Y386559D03*
X717900Y813100D03*
X717900Y838500D03*
X743300Y813100D03*
X743300Y838500D03*
D13*
X732950Y536600D03*
X732950Y487100D03*
D14*
X763700Y477100D03*
X763700Y547100D03*
D11*
X152028Y345645D03*
X152028Y410923D03*
D15*
X37300Y808100D03*
X62700Y808100D03*
X37300Y782700D03*
X62700Y782700D03*
X37300Y757300D03*
X62700Y757300D03*
X37300Y731900D03*
X62700Y731900D03*
D10*
X94793Y968631D03*
X94793Y943231D03*
X30000Y980000D03*
X30000Y954600D03*
X110000Y620000D03*
X110000Y645400D03*
X110000Y670800D03*
X110000Y696200D03*
X110000Y721600D03*
X110000Y747000D03*
X580000Y650000D03*
X580000Y675400D03*
X580000Y700800D03*
X580000Y726200D03*
X580000Y751600D03*
X580000Y777000D03*
X580000Y802400D03*
X580000Y827800D03*
X580000Y853200D03*
X580000Y878600D03*
X580000Y904000D03*
X580000Y929400D03*
X580000Y954800D03*
X580000Y980200D03*
D13*
X240000Y650000D03*
X400431Y616585D03*
X209669Y490522D03*
X416229Y437341D03*
X326009Y770890D03*
X150000Y460000D03*
X280000Y290000D03*
X320000Y290000D03*
X220000Y430000D03*
X239649Y490728D03*
X215237Y597393D03*
X428401Y602167D03*
X396397Y440750D03*
M02*
